<?xml version="1.0" encoding="UTF-8" standalone="no"?>
<!-- Created with Inkscape (http://www.inkscape.org/) -->

<svg
   version="1.1"
   id="svg1"
   width="439.01254"
   height="412.83817"
   viewBox="0 0 439.01254 412.83816"
   sodipodi:docname="dog-clock.svg"
   xmlns:inkscape="http://www.inkscape.org/namespaces/inkscape"
   xmlns:sodipodi="http://sodipodi.sourceforge.net/DTD/sodipodi-0.dtd"
   xmlns="http://www.w3.org/2000/svg"
   xmlns:svg="http://www.w3.org/2000/svg">
  <defs
     id="defs1" />
  <sodipodi:namedview
     id="namedview1"
     pagecolor="#ffffff"
     bordercolor="#000000"
     borderopacity="0.25"
     inkscape:showpageshadow="2"
     inkscape:pageopacity="0.0"
     inkscape:pagecheckerboard="0"
     inkscape:deskcolor="#d1d1d1"
     inkscape:export-bgcolor="#ffffff00" />
  <g
     id="g1"
     inkscape:groupmode="layer"
     inkscape:label="1"
     transform="translate(-1403.7474,-355.91114)">
    <g
       id="g554"
       inkscape:export-filename="g554.svg"
       inkscape:export-xdpi="96"
       inkscape:export-ydpi="96">
      <path
         id="path42"
         d="m 10573.6,7780.33 c 32.6,-55.56 77,-103.1 123.8,-147.03 -14.7,-14.2 -40,-58.73 -42.1,-90.29 -5.4,-80.53 50.8,-142.66 116.2,-173.71 66.2,-31.46 141,-44.41 213.6,-49.88 86.7,-6.53 181.5,-5.36 265.2,21.51 33.4,10.75 139.5,157.34 155.7,168.86 -4.1,5.13 -8.3,10.25 -12.7,15.11 -22.1,24.06 -48.6,44.97 -77.8,59.69 -61.4,30.99 -130.6,39.42 -187.8,79.43 -49.5,34.61 -86.6,83.59 -112.8,137.53 -41.9,86.03 -53.6,185.51 -55.3,282.31 -1.6,93.05 22.5,208.79 -33.9,290.04 -18.9,27.24 -44.3,49.54 -76,60.39 -35.9,12.25 -75.9,6.26 -108.8,-11.4 -63.7,-34.16 -96,-105.78 -111.8,-173.09 -17.3,-73.29 -16.3,-149.92 1.1,-222.56 -40.1,4.03 -79.4,-11.13 -95.5,-55.74 -11,-30.31 -6.4,-66.25 0.5,-96.92 7.6,-33.07 21.2,-65.07 38.4,-94.25"
         style="fill:#e0865c;fill-opacity:1;fill-rule:nonzero;stroke:none"
         transform="matrix(0.13333333,0,0,-0.13333333,0,1693.8933)" />
      <path
         id="path43"
         d="m 10689.7,7624.03 c 52.4,-34.72 120.2,-39.47 177.5,-14.42 13.1,5.69 1.8,24.77 -11.1,19.11 -50.2,-21.91 -109.9,-15.61 -155.3,14.42 -11.9,7.89 -23,-11.28 -11.1,-19.11 v 0"
         style="fill:#383229;fill-opacity:1;fill-rule:nonzero;stroke:none"
         transform="matrix(0.13333333,0,0,-0.13333333,0,1693.8933)" />
      <path
         id="path44"
         d="m 10630.9,8010.63 c 28.6,-55.09 83.3,-95.55 144.5,-106.42 5.9,-1.05 11.9,1.59 13.6,7.73 1.5,5.35 -1.8,12.56 -7.7,13.61 -56.1,9.97 -105,45.72 -131.2,96.25 -6.6,12.65 -25.7,1.47 -19.2,-11.17 v 0"
         style="fill:#383229;fill-opacity:1;fill-rule:nonzero;stroke:none"
         transform="matrix(0.13333333,0,0,-0.13333333,0,1693.8933)" />
      <path
         id="path45"
         d="m 12013.2,9960.86 c -140.8,101.54 -329,39.04 -469.9,-29.31 -72.2,-35.02 -141.6,-77.66 -201.9,-130.84 -29,-25.52 -56.2,-53.1 -79.6,-83.8 -21.8,-28.48 -49.9,-64.72 -52.1,-101.8 -1.5,-24.79 10,-47.27 32,-59.2 4.3,-2.36 8.9,-4.12 13.6,-5.51 -25,-29.73 -45.8,-63.08 -61,-99.17 -19.8,-46.62 -37.3,-105.86 -8.2,-152.36 27.3,-43.53 83.6,-48.79 129,-36.73 6.8,1.82 13.6,4.08 20.1,6.7 -3.3,-34.71 0.2,-71.02 24.1,-97.79 32.6,-36.54 85.6,-40.68 129.3,-23.94 44,16.82 82,49.48 115.1,82.14 66.9,66.07 117.3,149.03 164.5,229.66 50.1,85.35 94,174.31 131.2,265.95 21.3,52.39 45.1,107.76 48.5,164.88 0.9,14.91 0.4,30.42 -3.2,44.96 11.4,-4.72 22.5,-10.29 33.1,-16.99 12.7,-8.03 28.9,-8.83 39.3,3.85 9.1,11.1 8.4,30.44 -3.9,39.3"
         style="fill:#e0865c;fill-opacity:1;fill-rule:nonzero;stroke:none"
         transform="matrix(0.13333333,0,0,-0.13333333,0,1693.8933)" />
      <path
         id="path46"
         d="m 13125,8055.27 c -21.5,112.84 -51,229.81 -114.5,327.14 -0.8,1.24 -1.8,2.28 -2.8,3.32 5.9,5.18 9.4,12.72 7.6,22.05 -45.5,242 -208.1,468.93 -435.7,569.01 -30.4,13.36 -62,24.42 -94.1,33.01 15.1,67.93 -9.6,180.24 -53.3,221.69 -3.3,12.48 -61.3,-30.06 -67.9,-18.35 -31.6,55.82 -97.8,85.63 -157.6,100.08 -64.2,15.54 -132.7,12.83 -197.6,2.75 -67.3,-10.44 -135,-27.63 -195.4,-59.6 -41.7,-22.07 -80.5,-51.33 -110.9,-87.57 -70.3,-13.09 -120.7,-66.79 -168.2,-116.62 -26,-27.32 -51.8,-55.1 -74.5,-85.28 -22.1,-29.31 -44.5,-62.03 -56.1,-97.13 -12.5,-37.69 -11.4,-79.58 19.8,-108.08 5.9,-5.43 12.4,-9.68 19.3,-13.24 -80.5,-180.04 -124.5,-375.39 -127.9,-573.58 0,-0.62 0,-1.23 0,-1.85 -1.1,-0.41 -2.1,-0.73 -3.1,-1.14 -110.7,-45.1 -191.2,-143.69 -242.8,-248.52 -127,-258 -61.9,-597.97 116.9,-818.68 32.8,-40.49 71.8,-77.06 118.3,-101.36 139.4,-72.98 323.2,-63.09 323.1,-62.97 28.8,-0.89 57.8,-0.24 86.4,-0.32 39.6,-0.11 79.3,-0.16 118.9,-0.24 81.2,-0.17 162.4,-0.33 243.6,-0.51 161.4,-0.32 322.8,-0.28 484.2,-0.15 45.3,0.04 90.6,0.07 135.9,0.11 46.3,0.04 92.1,1.95 138.3,4.37 4.8,0.25 8.9,1.93 12.1,4.42 0.5,0.01 1,-0.06 1.5,-0.03 97.6,6.38 166.2,104.57 210.9,181.66 48.2,83.34 77.3,177.36 93.7,271.93 37.3,215.68 12.7,440.34 -28.1,653.68"
         style="fill:#e0865c;fill-opacity:1;fill-rule:nonzero;stroke:none"
         transform="matrix(0.13333333,0,0,-0.13333333,0,1693.8933)" />
      <path
         id="path47"
         d="m 11969.1,7813.87 c 53,-168.14 100.7,-338.26 138.9,-510.4 9.6,-43.36 18.5,-86.89 26.5,-130.6 2.5,-13.99 23.9,-8.06 21.3,5.89 -30.3,166.71 -73.3,331.2 -120.7,493.8 -14.4,49.22 -29.3,98.29 -44.7,147.19 -4.2,13.54 -25.6,7.76 -21.3,-5.88 v 0"
         style="fill:#383229;fill-opacity:1;fill-rule:nonzero;stroke:none"
         transform="matrix(0.13333333,0,0,-0.13333333,0,1693.8933)" />
      <path
         id="path48"
         d="m 12311.7,8521.92 c -22,40.09 -45.8,79.54 -72.4,116.72 -2.4,3.23 -4.8,6.36 -7.2,9.5 18.7,25.45 22.3,62.78 19.6,93.27 -7.6,86.89 -47.9,169.01 -107.6,231.9 -32,33.76 -70.8,59.95 -112.3,80.94 -32.1,16.21 -54,28.09 -65,29.46 -14.5,1.81 -116.4,-29.48 -146.6,-33.56 -27.4,-3.7 -48.8,9.19 -75.9,3.11 -8.3,6.33 -26.1,-8.32 -37.1,-17.06 -67.1,-53.48 -125.7,-128.66 -150.7,-211.75 -12.3,-40.96 -5.3,-91.67 43.3,-102.86 18.2,-4.2 38.7,-2.32 58,-0.27 -32.5,-35.64 -60.6,-75.27 -81.8,-118.74 -17.7,-36.07 -30.4,-75.27 -36.2,-115.02 -5.9,-40.13 -3.6,-87.45 37.6,-108.05 10.7,-5.36 22.4,-8.3 34.3,-9.39 -15.8,-37.53 -28.3,-84.83 -20.1,-124.89 4.5,-21.74 16,-41.87 37.4,-50.55 45,-18.19 87.9,32.31 129.9,40.48 75.8,14.77 82.1,-52.52 105.8,-108.39 36.8,-86.82 68.7,-173.91 98.9,-263.27 6.5,-19.01 28.6,-39.47 49.3,-40.03 13.5,-0.36 47.7,14.6 47.8,30.43 0.3,88.74 22.5,177.86 49.1,262.79 26.1,83.03 31.9,161.25 81,232.87 23.4,2.88 46.9,12.13 69,19.69 16.9,5.78 34.3,13.02 48,24.79 17.7,15.22 28.4,35.51 28.1,59.16 -0.2,25.23 -12.4,47.18 -24.2,68.72"
         style="fill:#ffffff;fill-opacity:1;fill-rule:nonzero;stroke:none"
         transform="matrix(0.13333333,0,0,-0.13333333,0,1693.8933)" />
      <path
         id="path49"
         d="m 11801.1,8675.76 c -22,-37.74 -40.3,-77.57 -54.3,-118.95 -11.3,-33.35 -27.1,-74.63 -19,-110.36 7.7,-33.76 41.9,-47.83 73.1,-36.06 35.6,13.46 49.3,50.87 60,84.25 -7.1,1.96 -14.2,3.92 -21.4,5.89 -9.2,-34.08 -13.6,-69.45 -12,-104.77 1.3,-29.27 5.5,-61.62 26.2,-84.08 16.2,-17.52 44.1,-27.91 66.5,-16.23 21.5,11.16 31.4,37.05 20.7,58.9 -5.9,12.02 -22.3,3.01 -20.2,-8.53 8,-45.67 38.5,-108.19 95.8,-86.22 23.9,9.17 42.2,31.34 49.1,55.67 10,34.6 0.2,71.23 -9.1,104.77 -3.9,13.7 -25.2,7.88 -21.4,-5.88 11.8,-42.14 27.9,-109.24 -23.6,-132.78 -44.6,-20.32 -63.8,38.11 -69.5,70.33 -6.7,-2.85 -13.5,-5.69 -20.2,-8.53 9.2,-18.84 -14,-33.38 -30.3,-29.58 -20.8,4.86 -32.2,25.22 -37.1,44.45 -11,43.87 -5.2,93.54 6.5,136.59 3.7,13.81 -17,19.41 -21.4,5.89 -8.5,-26.55 -18.7,-60.36 -48.2,-70.11 -13.2,-4.38 -28.9,-2.84 -37.2,9.59 -7.7,11.5 -6.9,27.32 -5,40.37 9.5,64.22 38.7,128.58 71.1,184.21 7.2,12.34 -11.9,23.49 -19.1,11.17 v 0"
         style="fill:#383229;fill-opacity:1;fill-rule:nonzero;stroke:none"
         transform="matrix(0.13333333,0,0,-0.13333333,0,1693.8933)" />
      <path
         id="path50"
         d="m 13820.7,7858.94 c 0,-508.05 -411.8,-919.91 -919.9,-919.91 -508,0 -919.9,411.86 -919.9,919.91 0,508.05 411.9,919.91 919.9,919.91 508.1,0 919.9,-411.86 919.9,-919.91"
         style="fill:#ffd754;fill-opacity:1;fill-rule:nonzero;stroke:none"
         transform="matrix(0.13333333,0,0,-0.13333333,0,1693.8933)" />
      <path
         id="path51"
         d="m 13702.8,7858.94 c 0,-456.91 -370.4,-827.3 -827.3,-827.3 -456.9,0 -827.3,370.39 -827.3,827.3 0,456.91 370.4,827.3 827.3,827.3 456.9,0 827.3,-370.39 827.3,-827.3"
         style="fill:#ffffff;fill-opacity:1;fill-rule:nonzero;stroke:none"
         transform="matrix(0.13333333,0,0,-0.13333333,0,1693.8933)" />
      <path
         id="path52"
         d="m 12905,7737.19 -2.9,-1.81 c -13,-8 -30,-3.98 -38,9 l -357.5,579.52 c -6.2,10.05 -3,23.21 7,29.4 l 13.6,8.37 c 10,6.19 23.2,3.08 29.4,-6.97 l 357.4,-579.5 c 8,-12.99 4,-30 -9,-38.01"
         style="fill:#383229;fill-opacity:1;fill-rule:nonzero;stroke:none"
         transform="matrix(0.13333333,0,0,-0.13333333,0,1693.8933)" />
      <path
         id="path53"
         d="m 12877.4,7735.15 -3,1.7 c -13.2,7.57 -17.8,24.43 -10.3,37.67 l 233.1,408.6 c 5.9,10.25 18.9,13.82 29.2,7.97 l 13.8,-7.9 c 10.3,-5.84 13.8,-18.89 8,-29.13 l -233.1,-408.61 c -7.6,-13.25 -24.4,-17.86 -37.7,-10.3"
         style="fill:#383229;fill-opacity:1;fill-rule:nonzero;stroke:none"
         transform="matrix(0.13333333,0,0,-0.13333333,0,1693.8933)" />
      <path
         id="path54"
         d="m 12904,8604.04 c 0,-33.19 0,-66.38 0,-99.57 0,-14.24 22.2,-14.27 22.2,0 0,33.19 0,66.38 0,99.57 0,14.24 -22.2,14.27 -22.2,0 v 0"
         style="fill:#383229;fill-opacity:1;fill-rule:nonzero;stroke:none"
         transform="matrix(0.13333333,0,0,-0.13333333,0,1693.8933)" />
      <path
         id="path55"
         d="m 13523.9,7835.69 c 33.2,0 66.4,0 99.6,0 14.2,0 14.3,22.13 0,22.13 -33.2,0 -66.4,0 -99.6,0 -14.2,0 -14.2,-22.13 0,-22.13 v 0"
         style="fill:#383229;fill-opacity:1;fill-rule:nonzero;stroke:none"
         transform="matrix(0.13333333,0,0,-0.13333333,0,1693.8933)" />
      <path
         id="path56"
         d="m 12127.4,7835.69 c 33.2,0 66.4,0 99.6,0 14.2,0 14.3,22.13 0,22.13 -33.2,0 -66.4,0 -99.6,0 -14.2,0 -14.2,-22.13 0,-22.13 v 0"
         style="fill:#383229;fill-opacity:1;fill-rule:nonzero;stroke:none"
         transform="matrix(0.13333333,0,0,-0.13333333,0,1693.8933)" />
      <path
         id="path57"
         d="m 12904,7213.41 c 0,-33.19 0,-66.38 0,-99.56 0,-14.25 22.2,-14.27 22.2,0 0,33.18 0,66.37 0,99.56 0,14.24 -22.2,14.27 -22.2,0 v 0"
         style="fill:#383229;fill-opacity:1;fill-rule:nonzero;stroke:none"
         transform="matrix(0.13333333,0,0,-0.13333333,0,1693.8933)" />
      <path
         id="path58"
         d="m 12493,9731.86 c -60.8,217.5 -226.9,289.94 -403.3,299.94 -143.7,8.2 -297.3,5.7 -412.2,-81.9 -145.5,-110.96 -123,-335.96 -140.2,-400.96 -1,-0.91 -2.1,-1.7 -3.1,-2.61 -21.1,-17.92 -42.3,-37.09 -58,-60.12 -22.5,-32.89 -34.6,-69.99 -39.4,-108.56 3.6,-18.03 23.8,-106.62 70.1,-117.06 80.7,-18.15 121.6,31.42 121.6,31.42 0,0 76.6,-54.1 -31.6,-56.71 -151.5,-3.63 -89.8,-106.29 -89.8,-106.29 -0.2,0.11 -0.3,0.11 -0.4,0.23 22.8,-22.58 51,-39.14 83.3,-49.57 115.6,-37.55 243,-22.47 360.7,-3.63 61,9.87 121.6,22.23 181.7,36.75 54.2,13.15 109.5,26.54 161.6,46.96 48.5,19.17 98.2,47.07 127.9,91.32 22,32.55 31.2,68.28 32.8,105.04 26.4,51.27 43.5,107.3 49.3,164.02 7.6,75.43 9.4,138.82 -11,211.73"
         style="fill:#e0865c;fill-opacity:1;fill-rule:nonzero;stroke:none"
         transform="matrix(0.13333333,0,0,-0.13333333,0,1693.8933)" />
      <path
         id="path59"
         d="m 11695.6,9690.41 c -18.8,31.52 -65.4,44.16 -97.1,20.85 -36.7,-27.04 -45.2,-101.93 5.7,-123.98 66.4,-28.79 101.2,23.63 99.8,74.41 -0.4,10.69 -3.4,20.37 -8.4,28.72"
         style="fill:#ffffff;fill-opacity:1;fill-rule:nonzero;stroke:none"
         transform="matrix(0.13333333,0,0,-0.13333333,0,1693.8933)" />
      <path
         id="path60"
         d="m 12005.6,9676.97 c -18.8,31.52 -65.4,44.16 -97,20.84 -36.8,-27.03 -45.3,-101.92 5.6,-123.97 66.4,-28.79 101.2,23.62 99.8,74.41 -0.3,10.69 -3.4,20.37 -8.4,28.72"
         style="fill:#ffffff;fill-opacity:1;fill-rule:nonzero;stroke:none"
         transform="matrix(0.13333333,0,0,-0.13333333,0,1693.8933)" />
      <path
         id="path61"
         d="m 11627.5,9165.76 c 96.3,-11.18 194.4,35.79 247.6,116.55 7.8,11.94 -11.3,23.03 -19.1,11.17 -49.2,-74.7 -140,-115.86 -228.5,-105.59 -14.2,1.64 -14,-20.51 0,-22.13 v 0"
         style="fill:#383229;fill-opacity:1;fill-rule:nonzero;stroke:none"
         transform="matrix(0.13333333,0,0,-0.13333333,0,1693.8933)" />
      <path
         id="path62"
         d="m 12009.2,9430.44 c -7.8,19.26 -18.3,37.59 -30.2,54.62 -8.2,11.76 -17.9,23.12 -29.7,31.48 -43.7,50.3 -153.1,84.33 -225.8,88.02 -54.2,2.75 -115.3,-7.56 -165.8,-35.89 -92,-51.56 -153.6,-149.27 -106.1,-256.09 14.9,-33.34 74.6,-57.4 104.1,-60.61 41.6,-4.55 91.7,48.61 91.7,48.61 0,0 46.5,-52.36 108.9,-52.15 48.6,0.16 104.4,33.52 147.7,62.1 0.1,-0.1 0.2,-0.2 0.3,-0.29 30.7,-27.34 84.5,-33.64 110.2,4.26 23.3,34.31 8.8,81.05 -5.3,115.94"
         style="fill:#ffffff;fill-opacity:1;fill-rule:nonzero;stroke:none"
         transform="matrix(0.13333333,0,0,-0.13333333,0,1693.8933)" />
      <path
         id="path63"
         d="m 11684.7,9244.75 c -0.4,4.06 -1.8,8.01 -2.8,11.95 0.2,-0.56 0.3,-1.14 0.4,-1.71 -1.2,4.67 -2.9,8.7 -6.4,12.48 -1.1,1.17 -2.4,2.25 -3.7,3.27 -0.8,1.87 -1.9,3.81 -2.9,5.27 -1.6,2.4 -3.7,4.57 -6,6.26 0.2,-0.25 0.5,-0.5 0.7,-0.75 -2.6,2.53 -5.5,4.64 -9.2,6.29 -3.5,1.51 -7.3,2.43 -10.9,3.34 -4.9,1.25 -10.3,1.04 -15.4,0.86 -5,-0.17 -10.2,-1.75 -15,-3.04 -3,-0.8 -6,-1.85 -8.9,-3.1 -7.4,-3.23 -14.7,-7.32 -21.3,-11.94 -0.7,-0.48 -1.3,-1.11 -2,-1.63 -1.1,-0.27 -2.3,-0.52 -3.4,-1 -6.3,-2.75 -10.1,-7 -13.6,-12.9 -1.4,-2.37 -2.7,-4.78 -4.1,-7.17 -4.3,-6.83 -8.4,-13.7 -11,-21.47 -3.8,-11.43 -5.7,-22.02 -5.7,-34.03 0,-19.02 8,-41.68 24.2,-52.81 12.5,-8.54 26.7,-11.5 41.5,-7.91 10.2,2.5 19.7,7.37 27.6,14.42 14.2,12.63 25.3,26.74 34.3,43.54 4.8,8.95 7.8,18.31 10.6,28.06 1.1,3.98 2.1,7.98 2.6,12.1 0.5,3.77 0.7,7.84 0.4,11.62"
         style="fill:#ffa8ca;fill-opacity:1;fill-rule:nonzero;stroke:none"
         transform="matrix(0.13333333,0,0,-0.13333333,0,1693.8933)" />
      <path
         id="path64"
         d="m 12717.2,9413.11 c -8.1,20.6 -17.8,40.7 -28,60.37 -4.1,7.96 -8.5,15.77 -12.8,23.57 57,8.44 44.4,98.55 1.4,185.55 -39.9,80.77 -111.1,165.08 -188,218.94 -74.2,51.96 -183.2,73.34 -253.4,3.09 -30.3,-30.34 -56.2,-65.22 -76.5,-103.03 -43.8,-81.88 -63.4,-174.37 -60.4,-267.02 1.5,-49.44 8.5,-98.75 20.7,-146.69 10.6,-42.17 24.7,-84.82 47.9,-121.93 23.8,-38.18 55.2,-69.48 96.7,-87.69 36.6,-16.01 80.3,-19.76 118.1,-6.41 16.5,5.81 30.5,14.48 42.6,25.02 6.8,-26.7 16.8,-52.27 32.1,-73.59 15.6,-21.96 40.6,-38.37 68.2,-39.45 29.6,-1.16 54.2,16.14 70.9,39.36 29.2,40.66 41.4,97.68 41.6,146.93 0.1,14.54 -0.9,29.1 -2.8,43.52 36.1,-9.87 78.1,-5.71 90,36.51 6,21.43 -0.4,42.99 -8.3,62.95"
         style="fill:#e0865c;fill-opacity:1;fill-rule:nonzero;stroke:none"
         transform="matrix(0.13333333,0,0,-0.13333333,0,1693.8933)" />
      <path
         id="path65"
         d="m 11531.5,9547.11 c 14,12.58 21.3,25.57 23.7,44.09 2.4,18.55 1.3,37.41 1.1,56.05 -0.8,53.99 3.7,107.07 28.7,155.91 6.5,12.65 -12.6,23.86 -19.1,11.17 -23.8,-46.49 -31.8,-97.05 -31.9,-148.84 -0.1,-19.41 1,-38.84 0.3,-58.24 -0.7,-19.08 -3.7,-31.3 -18.4,-44.48 -10.7,-9.54 5,-25.16 15.6,-15.66 v 0"
         style="fill:#383229;fill-opacity:1;fill-rule:nonzero;stroke:none"
         transform="matrix(0.13333333,0,0,-0.13333333,0,1693.8933)" />
      <path
         id="path66"
         d="m 12125.2,9754.47 c -36.9,-104.97 -45.9,-218.66 -26.2,-328.15 17.6,-98.16 60,-207.99 157.6,-251.27 49.2,-21.85 108.3,-25.72 153,8.07 11.2,8.48 0.2,27.72 -11.2,19.12 -38.4,-29.09 -87.8,-26.57 -130.6,-8.08 -42.3,18.22 -75.4,52.8 -98.2,92.12 -50.1,86.32 -63.7,196.46 -57.5,294.62 3.6,57.24 15.4,113.59 34.4,167.69 4.7,13.46 -16.6,19.25 -21.3,5.88 v 0"
         style="fill:#383229;fill-opacity:1;fill-rule:nonzero;stroke:none"
         transform="matrix(0.13333333,0,0,-0.13333333,0,1693.8933)" />
      <path
         id="path67"
         d="m 12393.4,9189.74 c 8.1,-44.9 41.7,-81.35 82.3,-100.19 5.4,-2.51 11.9,-1.53 15.1,3.97 2.8,4.78 1.5,12.62 -3.9,15.14 -36.4,16.89 -65,47.36 -72.2,86.96 -1.1,5.89 -8.2,9.22 -13.6,7.73 -6.2,-1.7 -8.8,-7.71 -7.7,-13.61 v 0"
         style="fill:#383229;fill-opacity:1;fill-rule:nonzero;stroke:none"
         transform="matrix(0.13333333,0,0,-0.13333333,0,1693.8933)" />
      <path
         id="path68"
         d="m 11563.9,9074.15 c 132.2,-42.75 276.4,-42.3 408.3,1.31 13.5,4.44 7.7,25.83 -5.9,21.34 -128.4,-42.46 -267.8,-42.94 -396.5,-1.31 -13.6,4.4 -19.4,-16.97 -5.9,-21.34 v 0"
         style="fill:#383229;fill-opacity:1;fill-rule:nonzero;stroke:none"
         transform="matrix(0.13333333,0,0,-0.13333333,0,1693.8933)" />
      <path
         id="path69"
         d="m 11617.1,9390.16 c -4,-41.96 11.7,-84.97 41.7,-114.61 29,-28.52 69.4,-40.77 109.4,-38.01 79.2,5.47 182.5,63.28 165.6,155.56 -2.6,13.99 -23.9,8.07 -21.4,-5.88 7.1,-38.18 -13.7,-69.18 -43.9,-89.86 -30.7,-20.97 -66.7,-36.25 -104.2,-37.91 -33.1,-1.46 -65.8,8.1 -89.8,31.75 -26.3,25.89 -38.7,62.49 -35.2,98.96 1.3,14.17 -20.8,14.08 -22.2,0 v 0"
         style="fill:#383229;fill-opacity:1;fill-rule:nonzero;stroke:none"
         transform="matrix(0.13333333,0,0,-0.13333333,0,1693.8933)" />
      <path
         id="path70"
         d="m 11510.4,9245.31 c 52.8,-10.33 107.1,15.52 141.7,54.98 9.3,10.67 -6.3,26.39 -15.7,15.65 -29,-33.13 -75.1,-58.09 -120.1,-49.29 -13.9,2.73 -19.9,-18.61 -5.9,-21.34 v 0"
         style="fill:#383229;fill-opacity:1;fill-rule:nonzero;stroke:none"
         transform="matrix(0.13333333,0,0,-0.13333333,0,1693.8933)" />
      <path
         id="path71"
         d="m 11069.5,7333.91 c -35.5,66.72 -54.1,142.68 -60.7,217.67 -6.5,74.38 -2.1,151.45 23.4,222.14 4.9,13.43 -16.5,19.21 -21.3,5.89 -26.6,-73.66 -31.1,-154.89 -23.8,-232.33 7.3,-77.61 26.5,-155.45 63.3,-224.54 6.7,-12.58 25.8,-1.41 19.1,11.17 v 0"
         style="fill:#383229;fill-opacity:1;fill-rule:nonzero;stroke:none"
         transform="matrix(0.13333333,0,0,-0.13333333,0,1693.8933)" />
      <path
         id="path72"
         d="m 11215.7,7745.48 c 75.6,-5.86 149.3,-29.96 213.8,-70.02 63.2,-39.27 113.6,-93.73 151.5,-157.52 68.3,-115.1 91.8,-249.79 138.5,-373.87 27.2,-71.92 60.9,-141.37 109,-201.68 8.9,-11.14 24.5,4.62 15.7,15.64 -89,111.46 -124.6,253.31 -166.6,386.69 -20.2,63.8 -43.2,126.66 -77.5,184.39 -37.4,62.88 -86.5,117.41 -147.6,157.91 -70.6,46.72 -152.6,74.07 -236.8,80.6 -14.2,1.1 -14.2,-21.04 0,-22.14 v 0"
         style="fill:#383229;fill-opacity:1;fill-rule:nonzero;stroke:none"
         transform="matrix(0.13333333,0,0,-0.13333333,0,1693.8933)" />
      <path
         id="path73"
         d="m 11469.1,8267.17 c -28.2,-29.47 -52,-63 -69.8,-99.7 -16.1,-33.07 -34.6,-74.86 -32.3,-112.42 2.1,-35.04 31.2,-56.43 65.3,-53.36 38.6,3.46 63.7,35.18 85.2,63.99 7.8,10.44 -8.5,21.56 -17.4,13.42 -30,-27.69 -54.5,-61.23 -71.2,-98.56 -13.4,-29.9 -30.6,-71.6 -20.1,-104.73 4.3,-13.93 15.4,-24.98 30.4,-26.25 20,-1.68 37.7,12.64 52.5,24.27 32.2,25.36 58.5,57.53 77.5,93.84 6.6,12.59 -12.2,23.72 -19.1,11.17 -60.2,-110.22 -68.5,-240.1 -43.6,-361.52 2.9,-13.95 24.2,-8.04 21.4,5.88 -23.8,115.45 -15.9,239.66 41.3,344.47 -6.4,3.72 -12.7,7.45 -19.1,11.17 -14.7,-28.14 -33.8,-53.5 -57.2,-75.01 -12.2,-11.23 -27.2,-25.43 -43.2,-30.88 -18.6,-6.34 -22.2,12.71 -21.5,26.56 1.4,29.84 14.7,61.74 28.6,87.77 15.2,28.69 35.1,54.15 59,76.16 -5.8,4.47 -11.6,8.95 -17.4,13.42 -17.2,-22.98 -38.4,-51.7 -69.8,-53.31 -12.6,-0.64 -26.7,3.15 -34.1,14.22 -9.6,14.56 -5.1,34.54 -1.1,50.19 15.7,61.44 47.6,117.78 91.3,163.56 9.9,10.3 -5.7,25.98 -15.6,15.65 v 0"
         style="fill:#383229;fill-opacity:1;fill-rule:nonzero;stroke:none"
         transform="matrix(0.13333333,0,0,-0.13333333,0,1693.8933)" />
      <path
         id="path74"
         d="m 11922.1,7192.98 c 64.4,27.65 150.8,21.39 208.2,-19.65 67,-47.84 98.2,-134.77 97,-214.6 -0.3,-14.25 21.9,-14.25 22.1,0 1.4,87.99 -34.3,181.51 -107.9,233.71 -64.5,45.8 -159,50.38 -230.6,19.66 -13.1,-5.6 -1.8,-24.68 11.2,-19.12 v 0"
         style="fill:#383229;fill-opacity:1;fill-rule:nonzero;stroke:none"
         transform="matrix(0.13333333,0,0,-0.13333333,0,1693.8933)" />
      <path
         id="path75"
         d="m 13098.7,8877.61 c -93.8,128.08 -309,172.37 -435.4,62.04 -47.7,-41.67 -88.6,-100.85 -77.9,-167.51 5.1,-31.35 20.6,-59.99 46,-79.52 21.7,-16.7 47.3,-26.09 72.8,-35.13 23.9,-8.44 46.7,-16.59 65.5,-32.86 16.2,-14.06 28.8,-32.26 41.6,-51.62 28.3,-42.52 54.9,-87.34 101.7,-111.85 56.3,-29.53 129.3,-13.59 170.1,34.32 41.3,48.35 62.8,115.44 66.6,176.09 4.3,70.32 -7.2,146.32 -51,206.04"
         style="fill:#e0865c;fill-opacity:1;fill-rule:nonzero;stroke:none"
         transform="matrix(0.13333333,0,0,-0.13333333,0,1693.8933)" />
      <path
         id="path76"
         d="m 12639.7,8940 c -63.6,-51.24 -91.7,-137.26 -57.8,-213.55 5.7,-13 24.8,-1.75 19.1,11.17 -30,67.5 -0.7,142.35 54.4,186.73 11.1,8.93 -4.7,24.51 -15.7,15.65 v 0"
         style="fill:#383229;fill-opacity:1;fill-rule:nonzero;stroke:none"
         transform="matrix(0.13333333,0,0,-0.13333333,0,1693.8933)" />
      <path
         id="path77"
         d="m 11745,9459.17 c -6.7,21.57 -28.3,31.28 -49.3,33.85 -28.8,3.53 -74.7,2.51 -103.6,1.08 -26.7,-1.31 -47.4,-7.46 -58.9,-33.61 -5.9,-13.45 0.1,-31.9 10.1,-42.86 15.8,-17.19 46,-35.75 63.7,-42.65 13.8,-5.41 32.3,-4.06 52.9,1.73 15.4,4.36 33.5,11.25 47.9,18.09 28.7,13.6 41.9,34.26 38,61.24 -0.1,1.08 -0.5,2.11 -0.8,3.13"
         style="fill:#383229;fill-opacity:1;fill-rule:nonzero;stroke:none"
         transform="matrix(0.13333333,0,0,-0.13333333,0,1693.8933)" />
      <path
         id="path78"
         d="m 12055.3,7044.55 c 13.4,-25.92 17.4,-56.32 13.2,-85.11 -0.8,-5.91 1.5,-11.89 7.8,-13.61 5.2,-1.43 12.7,1.78 13.6,7.73 5.1,35.03 0.9,70.51 -15.5,102.16 -6.6,12.65 -25.7,1.47 -19.1,-11.17 v 0"
         style="fill:#383229;fill-opacity:1;fill-rule:nonzero;stroke:none"
         transform="matrix(0.13333333,0,0,-0.13333333,0,1693.8933)" />
      <path
         id="path79"
         d="m 12139.9,7044.55 c 13.5,-25.92 17.5,-56.32 13.3,-85.11 -0.9,-5.91 1.4,-11.89 7.7,-13.61 5.2,-1.43 12.7,1.78 13.6,7.73 5.1,35.03 1,70.51 -15.5,102.16 -6.6,12.65 -25.7,1.47 -19.1,-11.17 v 0"
         style="fill:#383229;fill-opacity:1;fill-rule:nonzero;stroke:none"
         transform="matrix(0.13333333,0,0,-0.13333333,0,1693.8933)" />
      <path
         id="path80"
         d="m 13016.5,8584.32 c 17.8,-28.63 26.9,-61.5 26.5,-95.19 -0.2,-14.25 21.9,-14.26 22.1,0 0.5,37.4 -9.8,74.58 -29.5,106.36 -7.5,12.08 -26.6,0.98 -19.1,-11.17 v 0"
         style="fill:#383229;fill-opacity:1;fill-rule:nonzero;stroke:none"
         transform="matrix(0.13333333,0,0,-0.13333333,0,1693.8933)" />
      <path
         id="path81"
         d="m 12953.2,8560.86 c 17.8,-28.63 26.9,-61.5 26.5,-95.2 -0.2,-14.25 21.9,-14.25 22.1,0 0.5,37.4 -9.8,74.59 -29.5,106.37 -7.5,12.08 -26.6,0.98 -19.1,-11.17 v 0"
         style="fill:#383229;fill-opacity:1;fill-rule:nonzero;stroke:none"
         transform="matrix(0.13333333,0,0,-0.13333333,0,1693.8933)" />
      <path
         id="path82"
         d="m 12877.3,8572.83 c 17.7,-28.63 26.9,-61.5 26.4,-95.19 -0.2,-14.25 22,-14.26 22.2,0 0.5,37.4 -9.8,74.58 -29.5,106.36 -7.5,12.08 -26.7,0.98 -19.1,-11.17 v 0"
         style="fill:#383229;fill-opacity:1;fill-rule:nonzero;stroke:none"
         transform="matrix(0.13333333,0,0,-0.13333333,0,1693.8933)" />
      <path
         id="path83"
         d="m 12310,8894.81 c 44.3,53.73 106.1,90.18 174.6,102.91 14,2.6 8.1,23.93 -5.9,21.35 -71.7,-13.34 -137.9,-52.32 -184.4,-108.6 -9,-10.91 6.6,-26.66 15.7,-15.66 v 0"
         style="fill:#383229;fill-opacity:1;fill-rule:nonzero;stroke:none"
         transform="matrix(0.13333333,0,0,-0.13333333,0,1693.8933)" />
      <path
         id="path84"
         d="m 12413.6,9187.09 c 33.5,56.92 36.6,122.57 16.6,184.72 -4.3,13.51 -25.7,7.74 -21.3,-5.88 18.2,-56.68 16.2,-115.64 -14.4,-167.66 -7.3,-12.31 11.9,-23.46 19.1,-11.18 v 0"
         style="fill:#383229;fill-opacity:1;fill-rule:nonzero;stroke:none"
         transform="matrix(0.13333333,0,0,-0.13333333,0,1693.8933)" />
      <path
         id="path85"
         d="m 12639.7,9315.98 c -6.8,67.71 -28,133.02 -62.6,191.63 -7.3,12.25 -26.4,1.12 -19.2,-11.18 32.6,-55.07 53.2,-116.73 59.7,-180.45 1.4,-14.03 23.5,-14.18 22.1,0 v 0"
         style="fill:#383229;fill-opacity:1;fill-rule:nonzero;stroke:none"
         transform="matrix(0.13333333,0,0,-0.13333333,0,1693.8933)" />
      <path
         id="path86"
         d="m 12681.4,9515.06 c -21.4,48.61 -49,93.95 -81.9,135.67 -3.7,4.7 -11.8,3.87 -15.6,0 -4.7,-4.65 -3.7,-10.95 0,-15.66 31.6,-40.14 57.8,-84.44 78.4,-131.18 2.4,-5.47 10.4,-6.74 15.1,-3.97 5.7,3.3 6.4,9.65 4,15.14 v 0"
         style="fill:#383229;fill-opacity:1;fill-rule:nonzero;stroke:none"
         transform="matrix(0.13333333,0,0,-0.13333333,0,1693.8933)" />
      <path
         id="path87"
         d="m 11260.4,9541.31 c 60.7,0.84 119.6,25.28 163.1,67.73 10.2,9.96 -5.4,25.61 -15.6,15.65 -39.4,-38.38 -92.6,-60.49 -147.5,-61.25 -14.3,-0.2 -14.3,-22.33 0,-22.13 v 0"
         style="fill:#383229;fill-opacity:1;fill-rule:nonzero;stroke:none"
         transform="matrix(0.13333333,0,0,-0.13333333,0,1693.8933)" />
      <path
         id="path88"
         d="m 11336.9,9270.46 c 25.5,29.86 45.1,63.77 58.3,100.67 2.1,5.63 -2.2,12.12 -7.7,13.62 -6.1,1.68 -11.6,-2.09 -13.6,-7.74 -11.9,-33.1 -29.8,-64.1 -52.6,-90.9 -3.9,-4.55 -4.5,-11.19 0,-15.65 4,-3.97 11.8,-4.57 15.6,0 v 0"
         style="fill:#383229;fill-opacity:1;fill-rule:nonzero;stroke:none"
         transform="matrix(0.13333333,0,0,-0.13333333,0,1693.8933)" />
      <path
         id="path89"
         d="m 11530.1,9544.38 c 74.7,45.73 165.5,60.83 250.8,40.55 13.9,-3.29 19.8,18.05 5.9,21.35 -90.9,21.62 -188.1,6.03 -267.8,-42.78 -12.2,-7.43 -1,-26.58 11.1,-19.12 v 0"
         style="fill:#383229;fill-opacity:1;fill-rule:nonzero;stroke:none"
         transform="matrix(0.13333333,0,0,-0.13333333,0,1693.8933)" />
      <path
         id="path90"
         d="m 12015.5,9672.78 c -6.2,14.42 -24.6,31.99 -53,22.64 -11.1,-3.66 -19,-10.58 -23.1,-17.91 -10,-17.78 -14.1,-66.14 11.9,-79.03 24.9,-12.35 51,-2.85 59.8,11.89 8.8,14.53 11.6,45.57 4.4,62.41"
         style="fill:#383229;fill-opacity:1;fill-rule:nonzero;stroke:none"
         transform="matrix(0.13333333,0,0,-0.13333333,0,1693.8933)" />
      <path
         id="path91"
         d="m 11704.8,9673.3 c -6.2,14.42 -24.6,31.99 -53,22.64 -11.2,-3.67 -19,-10.59 -23.1,-17.92 -10.1,-17.77 -14.2,-66.14 11.9,-79.02 24.9,-12.36 50.9,-2.85 59.8,11.89 8.8,14.52 11.6,45.57 4.4,62.41"
         style="fill:#383229;fill-opacity:1;fill-rule:nonzero;stroke:none"
         transform="matrix(0.13333333,0,0,-0.13333333,0,1693.8933)" />
      <path
         id="path92"
         d="m 11602.6,9702.81 c 18.5,10.86 42.3,10.39 60.2,-1.53 17.2,-11.4 25.8,-32.5 24.1,-52.63 -0.5,-5.97 5.5,-11.07 11.1,-11.07 6.4,0 10.5,5.08 11.1,11.07 2.3,28.03 -11.8,56.25 -35.1,71.74 -24.4,16.17 -57.6,16.17 -82.6,1.53 -12.3,-7.2 -1.2,-26.34 11.2,-19.11 v 0"
         style="fill:#383229;fill-opacity:1;fill-rule:nonzero;stroke:none"
         transform="matrix(0.13333333,0,0,-0.13333333,0,1693.8933)" />
      <path
         id="path93"
         d="m 11912.2,9693.58 c 18.2,10.42 41.7,10.17 59.6,-1.1 17.3,-10.92 26.5,-31.31 24.7,-51.39 -0.5,-5.97 5.5,-11.07 11.1,-11.07 6.4,0 10.5,5.09 11,11.07 2.5,27.82 -12.2,55.69 -35.7,70.5 -24.4,15.43 -57,15.29 -81.9,1.1 -12.4,-7.06 -1.3,-26.19 11.2,-19.11 v 0"
         style="fill:#383229;fill-opacity:1;fill-rule:nonzero;stroke:none"
         transform="matrix(0.13333333,0,0,-0.13333333,0,1693.8933)" />
    </g>
  </g>
</svg>
