<?xml version="1.0" encoding="UTF-8" standalone="no"?>
<!-- Created with Inkscape (http://www.inkscape.org/) -->

<svg
   version="1.1"
   id="svg1"
   width="368.03699"
   height="420.37967"
   viewBox="0 0 368.03699 420.37967"
   sodipodi:docname="dog-bucket.svg"
   xmlns:inkscape="http://www.inkscape.org/namespaces/inkscape"
   xmlns:sodipodi="http://sodipodi.sourceforge.net/DTD/sodipodi-0.dtd"
   xmlns="http://www.w3.org/2000/svg"
   xmlns:svg="http://www.w3.org/2000/svg">
  <defs
     id="defs1" />
  <sodipodi:namedview
     id="namedview1"
     pagecolor="#ffffff"
     bordercolor="#000000"
     borderopacity="0.25"
     inkscape:showpageshadow="2"
     inkscape:pageopacity="0.0"
     inkscape:pagecheckerboard="0"
     inkscape:deskcolor="#d1d1d1"
     inkscape:export-bgcolor="#ffffff00" />
  <g
     id="g1"
     inkscape:groupmode="layer"
     inkscape:label="1"
     transform="translate(-2005.5718,-1032.288)">
    <g
       id="g553"
       transform="translate(12.112731,28.263039)"
       inkscape:export-filename="dog-bucket.svg"
       inkscape:export-xdpi="96"
       inkscape:export-ydpi="96">
      <path
         id="path254"
         d="m 15613.6,3074.42 c -51.3,52.35 -259.8,310.18 -288.4,284.22 -12,6.62 -29.6,2.65 -32.9,-15.42 -13.5,-74.3 -176.7,-999.42 -176.7,-999.42 0,0 -90.2,-55.1 -106.7,-97.8 -9.5,-24.7 -14.4,-51.4 -11.7,-77.7 4.3,-41.8 22.9,-84.1 56.8,-109.3 42,-31.1 136.1,-29 201.7,-24.6 99.1,6.7 138.2,49.8 157,84.3 31.6,57.8 34.7,120 54,183 39,127.2 97.6,396.6 117.1,528.12 10.3,69.43 18,139.08 26,208.78 11.6,6.41 16.6,22.8 3.8,35.82"
         style="fill:#e0865c;fill-opacity:1;fill-rule:nonzero;stroke:none"
         transform="matrix(0.13333333,0,0,-0.13333333,0,1693.8933)" />
      <path
         id="path255"
         d="m 15148.3,2180.6 c -13.9,-48.2 -6.2,-101.4 20.9,-143.7 7.4,-11.5 25.9,-0.8 18.4,10.8 -24.1,37.7 -31.1,84.2 -18.7,127.2 3.8,13.2 -16.8,18.9 -20.6,5.7 v 0"
         style="fill:#383229;fill-opacity:1;fill-rule:nonzero;stroke:none"
         transform="matrix(0.13333333,0,0,-0.13333333,0,1693.8933)" />
      <path
         id="path256"
         d="m 15048.9,2195.4 c -13.9,-48.2 -6.2,-101.4 20.9,-143.6 7.4,-11.6 25.9,-0.8 18.4,10.8 -24.1,37.6 -31.1,84.1 -18.7,127.1 3.8,13.3 -16.8,18.9 -20.6,5.7 v 0"
         style="fill:#383229;fill-opacity:1;fill-rule:nonzero;stroke:none"
         transform="matrix(0.13333333,0,0,-0.13333333,0,1693.8933)" />
      <path
         id="path257"
         d="m 17158.5,2722.89 c -16.5,97.38 -47.9,192.13 -96.7,277.76 -179.1,314.24 -615.8,532.04 -670.5,641.2 -56.1,111.99 -108.2,226.16 -162.3,339.75 -72.3,151.45 29.5,267 -147.4,299.04 -74.1,13.43 -226.4,-23.2 -300.6,-32.67 -169.9,-21.7 -240.4,-50.79 -360.9,-178.88 -218.4,-232.16 -259.4,-623.61 -125.3,-906.49 71.4,-150.74 187.8,-274.63 331.6,-358.58 57.6,-33.6 120.1,-60.68 184.8,-78.59 -16.2,-25.73 -32,-51.53 -47.6,-77.63 -20.7,-34.4 -42.1,-68.6 -60,-104.4 40.3,-20.6 82.7,-37.4 125.8,-50.9 -7.5,-24.5 -16.8,-48.2 -30.2,-69.8 -12.5,-20.1 -30.5,-41.1 -51.7,-56.5 -30.9,-1 -62.3,-8.2 -90.1,-16.3 -43.8,-12.8 -89.6,-31 -124.6,-61.1 -35.9,-31 -59.3,-74 -53.8,-122.5 14.7,-130.4 145.8,-141.2 249.3,-135.2 61.4,3.6 122.8,7.1 184.3,10.5 0.2,-0.1 0.3,-0.2 0.5,-0.4 48.7,-29.2 245.7,-18.2 269.7,-17.1 47.5,2.2 95,4.5 142.5,7 94.9,4.8 189.8,9.6 284.7,14.8 160.9,8.9 340.6,29.8 449.3,163.6 20.9,25.8 38.7,55.4 50.9,87 14.2,23.1 25.2,48.2 32.9,73.3 13.5,44.5 19.4,91.5 18.8,138.5 12.2,70.7 8.3,145.8 -3.4,214.59"
         style="fill:#e0865c;fill-opacity:1;fill-rule:nonzero;stroke:none"
         transform="matrix(0.13333333,0,0,-0.13333333,0,1693.8933)" />
      <path
         id="path258"
         d="m 15976.1,3074.42 c -51.4,52.35 -259.8,310.18 -288.4,284.22 -12.1,6.62 -29.7,2.65 -33,-15.42 -13.4,-74.3 -176.6,-999.42 -176.6,-999.42 0,0 -90.2,-55.1 -106.7,-97.8 -9.6,-24.7 -14.4,-51.4 -11.7,-77.7 4.3,-41.8 22.8,-84.1 56.7,-109.3 42.1,-31.1 155.1,-27.1 220.8,-27.1 97.9,0 119.1,52.3 138,86.8 31.5,57.8 34.6,120 54,183 39,127.2 97.6,396.6 117.1,528.12 10.2,69.43 18,139.08 26,208.78 11.5,6.41 16.6,22.8 3.8,35.82"
         style="fill:#e0865c;fill-opacity:1;fill-rule:nonzero;stroke:none"
         transform="matrix(0.13333333,0,0,-0.13333333,0,1693.8933)" />
      <path
         id="path259"
         d="m 15510.8,2180.6 c -13.9,-48.2 -6.3,-101.4 20.8,-143.7 7.4,-11.5 25.9,-0.8 18.5,10.8 -24.2,37.7 -31.1,84.2 -18.7,127.2 3.8,13.2 -16.8,18.9 -20.6,5.7 v 0"
         style="fill:#383229;fill-opacity:1;fill-rule:nonzero;stroke:none"
         transform="matrix(0.13333333,0,0,-0.13333333,0,1693.8933)" />
      <path
         id="path260"
         d="m 16038.9,2170.1 c -13.9,-48.1 -6.2,-101.3 20.8,-143.6 7.4,-11.5 25.9,-0.8 18.5,10.8 -24.2,37.6 -31.1,84.2 -18.7,127.2 3.8,13.2 -16.8,18.9 -20.6,5.6 v 0"
         style="fill:#383229;fill-opacity:1;fill-rule:nonzero;stroke:none"
         transform="matrix(0.13333333,0,0,-0.13333333,0,1693.8933)" />
      <path
         id="path261"
         d="m 15930.8,2176.5 c -13.8,-48.2 -6.2,-101.4 20.9,-143.6 7.4,-11.6 25.9,-0.9 18.5,10.8 -24.2,37.6 -31.1,84.1 -18.8,127.1 3.8,13.3 -16.8,18.9 -20.6,5.7 v 0"
         style="fill:#383229;fill-opacity:1;fill-rule:nonzero;stroke:none"
         transform="matrix(0.13333333,0,0,-0.13333333,0,1693.8933)" />
      <path
         id="path262"
         d="m 15411.3,2195.4 c -13.8,-48.2 -6.2,-101.4 20.9,-143.6 7.4,-11.6 25.9,-0.8 18.5,10.8 -24.2,37.6 -31.1,84.1 -18.8,127.1 3.8,13.3 -16.8,18.9 -20.6,5.7 v 0"
         style="fill:#383229;fill-opacity:1;fill-rule:nonzero;stroke:none"
         transform="matrix(0.13333333,0,0,-0.13333333,0,1693.8933)" />
      <path
         id="path263"
         d="m 15680.2,3573.29 c -14.1,45.71 -34,89.67 -59.1,130.36 -3.8,6.18 -10.2,9.78 -17.2,11.07 -0.4,0.32 -0.6,0.66 -1,0.99 -54.7,43.59 -122.9,52.6 -190.8,52.48 -34.6,-0.07 -71.8,0.18 -105.1,-9.53 -32.4,-9.43 -64.7,-35.74 -65.9,-71.8 -0.2,-3.99 0.4,-7.83 1.5,-11.38 -43.2,-71.36 -66.2,-153.04 -67.6,-237.12 -0.8,-48.12 5.2,-96.51 19.4,-142.59 6.6,-21.23 18.3,-42.67 37.5,-54.78 6.8,-4.26 14,-6.74 21.3,-7.91 -1.5,-27.64 -1,-55.32 2.8,-82.89 5.6,-41.72 18.4,-84.46 41.9,-119.76 23.9,-35.75 65.5,-63.03 109.5,-48.3 1.6,0.55 3.2,1.23 4.8,1.88 0.5,-6.38 1.3,-12.75 2.6,-19.09 7.2,-34.54 26,-67.64 56.2,-87.03 32.2,-20.7 71.1,-22.1 104,-1.89 26.7,16.37 45.9,46.07 47.1,77.36 2,2.76 3.5,6.1 4.3,10.1 9.9,49.25 17.9,98.78 23.1,148.75 4.3,40.17 9.1,81.9 8.4,122.81 30.4,16.94 41,56.22 45.1,88.7 10.8,83.47 1.9,169.32 -22.8,249.57"
         style="fill:#ffffff;fill-opacity:1;fill-rule:nonzero;stroke:none"
         transform="matrix(0.13333333,0,0,-0.13333333,0,1693.8933)" />
      <path
         id="path264"
         d="m 15188.5,3572.77 c -17.3,-68.02 -35,-138.16 -30,-208.94 3.8,-53.1 23.5,-130.19 90.6,-128.65 13.8,0.32 13.8,21.68 0,21.37 -62.6,-1.45 -70.2,87.67 -70.1,132.5 0.2,60.54 15.2,119.75 30.1,178.04 3.4,13.33 -17.2,19.02 -20.6,5.68 v 0"
         style="fill:#383229;fill-opacity:1;fill-rule:nonzero;stroke:none"
         transform="matrix(0.13333333,0,0,-0.13333333,0,1693.8933)" />
      <path
         id="path265"
         d="m 17704.1,3111.6 c -16.3,47.84 -56.5,78.99 -107.2,80.99 -16.5,0.65 -32.4,-1.79 -47.7,-6.38 -3.7,6.61 -7.9,12.98 -13,19.04 -36.2,43.29 -98.8,45.9 -147.1,23.17 -53.8,-25.37 -91.2,-79.8 -120,-129.94 -26.2,-45.77 -46.2,-95.05 -63.1,-144.97 -33.8,-100.21 -54.6,-204.38 -91.2,-303.71 -41.2,-111.9 -109,-210.4 -190.7,-296.5 -7.9,-8.4 -16.1,-16.5 -24.2,-24.7 -6.2,-72 12.5,-141.8 49.5,-200.2 5.8,1.5 11.6,3.2 17.3,5.1 40,13.5 75.2,35.5 107.6,62.3 8.4,6.9 16.7,14.2 24.8,21.7 38.9,1.8 77.6,9.6 115,20.2 70.8,19.9 139.8,48.1 204.4,83.2 32.2,17.5 63.6,36.6 93.5,57.7 27.3,19.3 54.3,41.4 70.7,71.1 16.7,30.2 23.9,73.9 -8.4,96.9 -4.8,3.4 -10,5.9 -15.4,7.7 15.1,13.7 29.4,28.2 42.5,43.8 36.8,43.8 66.4,97 71.1,154.95 2.2,27.52 -2.6,57.94 -18.4,81.14 -11.7,17.27 -27.9,29.99 -46.4,38.36 28.8,29.66 55.3,62.49 75.4,98.04 24.1,42.39 37.1,93.43 21,141.01"
         style="fill:#e0865c;fill-opacity:1;fill-rule:nonzero;stroke:none"
         transform="matrix(0.13333333,0,0,-0.13333333,0,1693.8933)" />
      <path
         id="path266"
         d="m 17420.2,2728.51 c 74.7,27.11 141.3,74.24 190.8,136.48 8.5,10.65 -6.5,25.86 -15.1,15.11 -47.2,-59.32 -110,-105.12 -181.4,-131 -12.8,-4.64 -7.3,-25.3 5.7,-20.59 v 0"
         style="fill:#383229;fill-opacity:1;fill-rule:nonzero;stroke:none"
         transform="matrix(0.13333333,0,0,-0.13333333,0,1693.8933)" />
      <path
         id="path267"
         d="m 17466.4,2486.8 c 37,7.1 71.5,26.3 97.3,53.8 9.4,10 -5.7,25.2 -15.1,15.1 -23.5,-25.1 -54.2,-41.8 -87.9,-48.3 -5.7,-1 -8.9,-7.9 -7.5,-13.1 1.7,-5.9 7.5,-8.5 13.2,-7.5 v 0"
         style="fill:#383229;fill-opacity:1;fill-rule:nonzero;stroke:none"
         transform="matrix(0.13333333,0,0,-0.13333333,0,1693.8933)" />
      <path
         id="path268"
         d="m 15709.1,2029 c 164.8,116.6 203.6,325.7 248,509.5 15.2,63 31.7,125.8 54.5,186.58 4.9,12.88 -15.8,18.45 -20.6,5.67 -38.7,-103.05 -58.7,-211.45 -86.4,-317.65 -23.3,-89.2 -51.1,-180.6 -102.4,-258.1 -27.7,-42 -62.8,-78.5 -103.9,-107.5 -11.2,-7.9 -0.5,-26.4 10.8,-18.5 v 0"
         style="fill:#383229;fill-opacity:1;fill-rule:nonzero;stroke:none"
         transform="matrix(0.13333333,0,0,-0.13333333,0,1693.8933)" />
      <path
         id="path269"
         d="m 15229.6,3236.29 c 1.1,-42.07 4.6,-84.48 16.2,-125.11 3.7,-13.19 24.4,-7.57 20.6,5.69 -11.1,38.87 -14.4,79.16 -15.5,119.42 -0.4,13.72 -21.7,13.78 -21.3,0 v 0"
         style="fill:#383229;fill-opacity:1;fill-rule:nonzero;stroke:none"
         transform="matrix(0.13333333,0,0,-0.13333333,0,1693.8933)" />
      <path
         id="path270"
         d="m 15908.8,2059.2 c -40.3,43.2 -38.7,126.1 -4.6,172.7 26.7,36.6 73.5,55 115.4,67.6 45.5,13.7 92.8,21.5 139.9,27.4 13.5,1.6 13.7,23 0,21.3 -75.2,-9.3 -157.3,-21.2 -223.6,-60.9 -44.8,-26.8 -70.5,-66.8 -76.4,-119 -4.8,-43.2 3.8,-91.6 34.2,-124.2 9.4,-10.1 24.5,5 15.1,15.1 v 0"
         style="fill:#383229;fill-opacity:1;fill-rule:nonzero;stroke:none"
         transform="matrix(0.13333333,0,0,-0.13333333,0,1693.8933)" />
      <path
         id="path271"
         d="m 16169.8,2337.3 c 42.2,206.4 162,394.63 329.4,522.31 46.5,35.54 96.7,66.16 149.5,91.51 12.4,5.94 1.6,24.37 -10.7,18.44 -192.7,-92.45 -348.7,-257.18 -433.8,-452.96 -24.2,-55.9 -42.8,-114 -55,-173.6 -2.7,-13.4 17.9,-19.2 20.6,-5.7 v 0"
         style="fill:#383229;fill-opacity:1;fill-rule:nonzero;stroke:none"
         transform="matrix(0.13333333,0,0,-0.13333333,0,1693.8933)" />
      <path
         id="path272"
         d="m 15992.1,2752.8 c -0.8,-37.64 1.8,-82.8 39.6,-102.6 31.6,-16.6 62,2.1 75.2,32 15.8,35.75 17.4,80.23 16.1,118.64 -1.6,45.83 -11,91.13 -27.7,133.8 -4.9,12.56 -25.3,7.46 -20.6,-5.67 7.6,-21.59 18.9,-42.15 30.6,-61.76 12.9,-21.64 27.4,-44.8 46.5,-61.51 15.5,-13.53 33.5,-18.65 47.8,-0.77 11.1,13.85 14.9,31.55 16.9,48.78 2.5,22.45 2.9,45.31 2.2,67.87 -1.6,52.54 -10.9,104.69 -27.1,154.68 -6.9,-1.89 -13.8,-3.79 -20.6,-5.68 8.9,-25.57 23.8,-49.41 43.5,-68.06 12.6,-11.84 32.8,-27.89 51.3,-20.56 24.1,9.54 23.6,44.57 20.6,65.32 -5.2,36.14 -15.1,71.81 -27,106.25 -4.5,12.9 -25.2,7.35 -20.6,-5.69 8.6,-24.91 15.9,-50.27 21.4,-76.07 2.6,-12.28 5.5,-24.82 6.3,-37.38 0.5,-7.81 1.2,-28.76 -8.3,-32.54 -10,-3.98 -26.5,13.55 -32.3,19.45 -15.2,15.49 -27.2,34.45 -34.3,54.96 -4.5,12.86 -24.9,7.5 -20.6,-5.68 15.6,-48.25 24.7,-98.26 26.3,-149 0.8,-24.07 1,-49.24 -2.9,-73.1 -1.5,-8.95 -7.7,-34.88 -17,-34.2 -8.1,0.6 -17.5,13.09 -22.1,18.39 -9.4,10.84 -17.6,22.85 -25.2,35 -13.3,21.02 -26.5,43.45 -34.8,66.97 -6.9,-1.89 -13.7,-3.78 -20.6,-5.67 26.1,-66.7 34.6,-140.73 20.7,-211.27 -4.5,-22.9 -17.6,-61.6 -48.7,-50.9 -34.6,12 -33.9,56.25 -33.3,86 0.3,13.75 -21,13.75 -21.3,0 v 0"
         style="fill:#383229;fill-opacity:1;fill-rule:nonzero;stroke:none"
         transform="matrix(0.13333333,0,0,-0.13333333,0,1693.8933)" />
      <path
         id="path273"
         d="m 17108.5,2221.3 c 73.7,125.3 94.4,278.8 80.7,421.8 -3.9,40.6 -10.7,80.88 -20.6,120.44 -3.3,13.33 -23.9,7.68 -20.6,-5.68 42.8,-171.26 33.1,-371.06 -57.9,-525.76 -7,-11.9 11.5,-22.7 18.4,-10.8 v 0"
         style="fill:#383229;fill-opacity:1;fill-rule:nonzero;stroke:none"
         transform="matrix(0.13333333,0,0,-0.13333333,0,1693.8933)" />
      <path
         id="path274"
         d="m 15367,3254.6 c 6.9,-32.62 18,-67.1 44.7,-89.02 22.6,-18.57 54.1,-26.37 81.1,-12.69 26.6,13.44 41.5,43.04 47.3,71.05 7.3,35.4 2.4,71.25 -12.6,103.97 -5,11.09 -22.9,3.22 -19.5,-8.23 7.4,-24.46 17.7,-52.13 44.1,-61.36 22.5,-7.85 43.3,4.04 56,22.46 14.9,21.58 19.5,49.98 20.8,75.62 1.5,30.81 -3.9,61.74 -15.3,90.36 -5,12.63 -25.6,7.13 -20.6,-5.68 16.1,-40.47 20.4,-86.94 6.8,-128.83 -4.7,-14.6 -15.4,-35.31 -33.3,-35.17 -23.7,0.2 -32.5,30.3 -37.9,48.28 -6.5,-2.74 -13,-5.48 -19.5,-8.23 19,-41.75 22.6,-117.13 -23.8,-144.02 -22.3,-12.9 -49.2,-2.87 -66,14.38 -18.9,19.43 -26.3,47.01 -31.7,72.8 -2.8,13.44 -23.4,7.75 -20.6,-5.69 v 0"
         style="fill:#383229;fill-opacity:1;fill-rule:nonzero;stroke:none"
         transform="matrix(0.13333333,0,0,-0.13333333,0,1693.8933)" />
      <path
         id="path275"
         d="m 15389.5,2097.1 c -27.9,37.1 -33.4,93 -15.1,135.7 20.1,46.4 68.2,75.7 109.1,101.8 11.5,7.3 0.8,25.8 -10.8,18.4 -45.9,-29.3 -98,-62.3 -119.1,-115.1 -19.1,-47.8 -13.7,-110.1 17.4,-151.6 8.2,-10.9 26.8,-0.3 18.5,10.8 v 0"
         style="fill:#383229;fill-opacity:1;fill-rule:nonzero;stroke:none"
         transform="matrix(0.13333333,0,0,-0.13333333,0,1693.8933)" />
      <path
         id="path276"
         d="m 15488.4,2341 c 32.5,193.5 64.3,387.17 96.8,580.72 2.3,13.45 -18.3,19.23 -20.5,5.68 -32.6,-193.55 -64.4,-387.2 -96.9,-580.8 -2.3,-13.4 18.3,-19.2 20.6,-5.6 v 0"
         style="fill:#383229;fill-opacity:1;fill-rule:nonzero;stroke:none"
         transform="matrix(0.13333333,0,0,-0.13333333,0,1693.8933)" />
      <path
         id="path277"
         d="m 16088,5122.94 c -10.5,61.62 -272.2,68.44 -584.6,15.23 -312.4,-53.23 -557.2,-146.32 -546.7,-207.95 0,0 -3.2,-676.08 66.9,-1309.13 l 1434.8,244.42 c -143.5,620.56 -370.4,1257.43 -370.4,1257.43"
         style="fill:#ffd754;fill-opacity:1;fill-rule:nonzero;stroke:none"
         transform="matrix(0.13333333,0,0,-0.13333333,0,1693.8933)" />
      <path
         id="path278"
         d="m 15758.8,3638.76 c 426.6,72.68 765.5,172.24 757,222.37 l -19.7,115.72 c -8.6,50.14 -361.3,31.86 -788,-40.82 -426.6,-72.68 -765.5,-172.24 -757,-222.37 l 19.8,-115.72 c 8.5,-50.13 361.3,-31.86 787.9,40.82"
         style="fill:#ffd754;fill-opacity:1;fill-rule:nonzero;stroke:none"
         transform="matrix(0.13333333,0,0,-0.13333333,0,1693.8933)" />
      <path
         id="path279"
         d="m 16412.5,4007.92 c -173.9,-60.5 -351.7,-109.72 -532,-147.31 -181.2,-37.79 -364.9,-63.84 -549.5,-77.84 -103.8,-7.89 -208,-11.9 -312.2,-12.15 -13.7,-0.04 -13.8,-21.4 0,-21.37 185.8,0.46 371.6,13.05 555.8,37.65 182.9,24.41 364.2,60.35 542.5,107.95 101.5,27.09 201.9,57.97 301.1,92.48 12.9,4.48 7.4,25.12 -5.7,20.59 v 0"
         style="fill:#383229;fill-opacity:1;fill-rule:nonzero;stroke:none"
         transform="matrix(0.13333333,0,0,-0.13333333,0,1693.8933)" />
      <path
         id="path280"
         d="m 16484.5,3971.65 c -190.3,-75.27 -386.7,-134.62 -586.8,-177.71 -197,-42.43 -397.3,-69.15 -598.6,-79.56 -112.2,-5.8 -224.7,-6.46 -337,-1.96 -13.8,0.55 -13.7,-20.81 0,-21.36 200.8,-8.05 402.2,0.54 601.7,25.06 202.3,24.85 402.6,65.69 598.3,122.59 111.1,32.29 220.6,69.81 328.1,112.35 12.7,5 7.1,25.66 -5.7,20.59 v 0"
         style="fill:#383229;fill-opacity:1;fill-rule:nonzero;stroke:none"
         transform="matrix(0.13333333,0,0,-0.13333333,0,1693.8933)" />
      <path
         id="path281"
         d="m 16080.8,5124.43 c -274.4,-115.36 -571.1,-178.09 -868.5,-187.57 -83.2,-2.65 -166.5,-0.99 -249.6,5.02 -13.7,0.99 -13.6,-20.37 0,-21.36 297.7,-21.53 600.1,12.69 885.9,98.11 80.8,24.13 160.2,52.54 237.9,85.2 12.5,5.24 7,25.93 -5.7,20.6 v 0"
         style="fill:#383229;fill-opacity:1;fill-rule:nonzero;stroke:none"
         transform="matrix(0.13333333,0,0,-0.13333333,0,1693.8933)" />
      <path
         id="path282"
         d="m 16137.7,3765.68 c -9.8,5.64 -23.7,2.24 -29.1,-7.98 -35.6,-67.67 -71,-135.55 -110.5,-201.07 -39.5,-65.61 -82.3,-129.21 -128.3,-190.33 -68.8,-91.53 -142.6,-180.43 -229.5,-255.39 -81.6,-70.26 -191.3,-111 -293.9,-137.1 -86.4,-21.89 -205.6,-25.5 -253.6,69.94 -42.4,84.52 -21.1,176.23 4.4,261.94 27.3,91.87 63.4,180.91 106.6,266.36 -17.3,-0.83 -33.9,-1.43 -49.6,-1.85 -61.4,-114.89 -110.5,-239.14 -138.2,-364.28 -15.6,-70.29 -23.4,-139.11 -12.2,-211.3 5.2,-32.97 18.7,-64.6 41.3,-89.56 24.3,-26.6 58.7,-42.62 93.6,-49.51 69.7,-13.79 145.3,-0.46 212.3,20.54 67.2,21.25 130.7,53.63 189.2,92.86 124.7,83.42 228.5,193.01 322.5,309.1 100.2,124.07 190.4,259.14 258.8,403.46 8.6,18.14 16.6,36.53 24.2,55.13 4.5,10.61 2.9,22.83 -8,29.04"
         style="fill:#383229;fill-opacity:1;fill-rule:nonzero;stroke:none"
         transform="matrix(0.13333333,0,0,-0.13333333,0,1693.8933)" />
    </g>
  </g>
</svg>
