<?xml version="1.0" encoding="UTF-8" standalone="no"?>
<!-- Created with Inkscape (http://www.inkscape.org/) -->

<svg
   version="1.1"
   id="svg1"
   width="591.75073"
   height="476.35361"
   viewBox="0 0 591.75073 476.3536"
   sodipodi:docname="dog-guitar.svg"
   xmlns:inkscape="http://www.inkscape.org/namespaces/inkscape"
   xmlns:sodipodi="http://sodipodi.sourceforge.net/DTD/sodipodi-0.dtd"
   xmlns="http://www.w3.org/2000/svg"
   xmlns:svg="http://www.w3.org/2000/svg">
  <defs
     id="defs1" />
  <sodipodi:namedview
     id="namedview1"
     pagecolor="#ffffff"
     bordercolor="#000000"
     borderopacity="0.25"
     inkscape:showpageshadow="2"
     inkscape:pageopacity="0.0"
     inkscape:pagecheckerboard="0"
     inkscape:deskcolor="#d1d1d1"
     inkscape:export-bgcolor="#ffffff00" />
  <g
     id="g1"
     inkscape:groupmode="layer"
     inkscape:label="1"
     transform="translate(-1211.5635,-948.04955)">
    <g
       id="g562">
      <path
         id="path442"
         d="m 12153.6,2303.3 c -32.9,39.5 -79.1,65 -128.1,78.9 -35.3,10 -74.4,14 -112.9,11 6.8,30.7 12.2,61.7 14.7,93 5.8,72.3 -3.7,144.6 -34.1,210.8 -57.6,125.75 -170.3,214.03 -293.8,270.17 -10.3,4.67 -20.8,9.41 -31.5,14.01 1.7,17.74 3,35.51 3.9,53.21 15,282.84 -46.8,569.19 -177.8,820.37 -36.6,70.11 -78,137.63 -124.7,201.45 -17.3,23.63 -35.8,47.36 -56.1,69.24 21.4,22.11 94.3,152.34 135.4,171.56 17.8,8.34 78.7,37.85 98.4,37.99 17,0.12 33.7,-0.1 50.2,4.69 38.6,11.22 53.9,52.64 35.3,87.25 -13.2,24.66 -37,41.2 -62.6,51.78 28.3,15.67 56.3,32.12 82,51.85 55.4,42.52 94.4,98.17 112.5,165.75 17,63.35 13.3,138.93 -18.7,197.16 -17.3,31.62 -47,52.98 -83.6,55.06 -35.7,2.04 -70.4,-9.97 -104.1,-20.07 -50.9,-15.23 -101.9,-32.32 -148.8,-56.93 -37.8,42.28 -89.7,70.89 -145.9,86.45 -91.8,25.36 -190.2,6.22 -276,-30.88 -45.7,-19.78 -89.5,-44.63 -131,-72.15 -40.2,-26.68 -79.3,-58.12 -107,-98.07 -58.3,-83.88 -73,-192.12 -89,-290.69 -9.9,-60.82 -17.7,-121.99 -23.2,-183.37 -4.1,-46.17 -8.2,-93.02 -8.6,-139.65 -50.3,-1.28 -101.4,-14.9 -147.6,-31.24 -39.8,-14.09 -79.1,-33.1 -110.4,-61.99 -35.3,-32.64 -55.2,-74.65 -66,-121.06 -22.1,-95.65 -15,-199.63 10,-293.88 11.9,-44.65 28.1,-91.07 59.6,-125.92 2.4,-2.61 4.9,-5.02 7.4,-7.51 -93.8,-257.83 -154.4,-527.92 -178.4,-801.28 -6.8,-77 -10.5,-154.3 -11.6,-231.6 -0.6,-37.8 -6.2,-90.8 8.6,-129.9 -14.7,-17.2 -28.2,-35.4 -39.2,-55.6 -22.4,-41.3 -30.1,-90.2 -17.5,-135.8 12.2,-44.3 47.6,-77.9 91,-91.4 5.1,-1.6 10.2,-2.8 15.3,-4 0,0 851,0 1134.7,0 29.7,0 74.5,21.6 90.9,33.7 13.2,-5.6 27.2,-9.3 41.2,-12.2 29.6,-5.9 59.8,-9.8 89.8,-13.7 127.8,-16.5 256.7,-22.9 385.5,-25.4 60.5,-1.2 123.2,-1.9 180.2,21.4 47.1,19.2 90.9,56.8 108.1,105.8 17.2,48.9 6.6,101.9 -26.5,141.7"
         style="fill:#e0865c;fill-opacity:1;fill-rule:nonzero;stroke:none"
         transform="matrix(0.13333333,0,0,-0.13333333,0,1693.8933)" />
      <path
         id="path443"
         d="m 10902.2,2569.7 c 92.2,-13.4 173.5,-72.8 214,-156.7 6,-12.4 24.4,-1.6 18.4,10.8 -42.6,88.2 -129.8,152.4 -226.7,166.5 -13.5,2 -19.3,-18.6 -5.7,-20.6 v 0"
         style="fill:#383229;fill-opacity:1;fill-rule:nonzero;stroke:none"
         transform="matrix(0.13333333,0,0,-0.13333333,0,1693.8933)" />
      <path
         id="path444"
         d="m 11645.7,4893.5 c -17.3,31.62 -47,52.98 -83.6,55.01 -35.7,2.03 -70.3,-9.93 -104.1,-20.08 -50.9,-15.17 -101.9,-32.26 -148.8,-56.93 -0.3,0.32 -0.6,0.75 -0.9,1.06 -51.6,-34.49 -90.2,-77.32 -119.1,-142.79 -21.5,-48.5 -44,-123.97 -31.7,-177.26 12.8,-54.69 46.8,-85.39 102.6,-88.49 37.3,-2.13 89,19.65 119.1,38.45 20.1,-28.19 57,-30.96 90.7,-23.71 28.3,15.6 56.4,32.04 82,51.81 55.4,42.51 94.3,98.15 112.5,165.76 17,63.34 13.3,138.96 -18.7,197.17"
         style="fill:#ffffff;fill-opacity:1;fill-rule:nonzero;stroke:none"
         transform="matrix(0.13333333,0,0,-0.13333333,0,1693.8933)" />
      <path
         id="path445"
         d="m 11549.1,3566.48 c -6.2,23.07 -13.7,45.81 -22.6,68.01 -18,45.3 -41.4,88.87 -68.8,129.14 -5.3,7.62 -10.9,14.96 -16.4,22.35 16.9,10.14 29.4,26.18 34.8,46.43 6.4,24.17 1.3,50.46 -8.1,73.19 -19,45.79 -52.4,86.8 -87.8,120.83 -35.3,33.79 -77.1,61.6 -121.7,81.37 -15.4,6.84 -31.6,13.72 -48.3,17.66 32.5,109.02 -238.1,98.41 -299,-89.75 -37.9,-116.92 86.6,-77.75 86.6,-77.75 0,0 -93.1,-121.35 -90.2,-284.53 1.1,-59.44 161.1,-200.45 202.7,-243.64 36.3,-37.74 112.7,-86.36 157.8,-37.77 12.6,-23.87 26.9,-46.77 43.1,-68.28 26.8,-35.6 70.5,-76.89 119.4,-62.03 54.1,16.45 51,82.12 46.5,127.1 -0.4,4.62 -1,9.22 -1.6,13.82 42.2,-1.85 78.8,37.3 84.2,79.98 3.7,28.47 -3.2,56.59 -10.6,83.87"
         style="fill:#ffffff;fill-opacity:1;fill-rule:nonzero;stroke:none"
         transform="matrix(0.13333333,0,0,-0.13333333,0,1693.8933)" />
      <path
         id="path446"
         d="m 12901.1,3843.6 c 0.2,-0.25 0.4,-0.49 0.5,-0.73 0.1,-0.05 0.1,-0.09 0.2,-0.13 -0.3,0.38 -0.5,0.63 -0.7,0.9 0,-0.02 0,-0.03 0,-0.04"
         style="fill:#ffd754;fill-opacity:1;fill-rule:nonzero;stroke:none"
         transform="matrix(0.13333333,0,0,-0.13333333,0,1693.8933)" />
      <path
         id="path447"
         d="m 12990.6,3876.64 c -0.2,22.25 -7.9,43.38 -31.9,48.92 -20.1,4.62 -49.3,-0.23 -68,-8.84 -12.5,-5.7 -24,-13.35 -32.1,-24.65 -13.9,-19.55 -20.1,-43.19 -6.4,-69.7 14,-18.97 30.2,-26.66 48.6,-28.85 1.6,-4.09 4.1,-8.03 7.6,-11.59 13.6,-13.66 36.8,-11.84 49.1,2.22 3.5,3.95 5.3,8.89 5.8,13.99 10.4,12.68 17.9,27.7 22.8,43.44 3.4,11.38 4.7,23.19 4.5,35.06"
         style="fill:#ffd754;fill-opacity:1;fill-rule:nonzero;stroke:none"
         transform="matrix(0.13333333,0,0,-0.13333333,0,1693.8933)" />
      <path
         id="path448"
         d="m 13203,3940.4 c -0.3,22.25 -7.9,43.38 -32,48.92 -20,4.62 -49.2,-0.23 -68,-8.84 -12.4,-5.7 -24,-13.35 -32,-24.65 -14,-19.55 -20.1,-43.19 -6.4,-69.7 13.9,-18.97 30.2,-26.66 48.6,-28.85 1.5,-4.09 4.1,-8.03 7.6,-11.59 13.6,-13.66 36.8,-11.84 49.1,2.23 3.4,3.94 5.3,8.88 5.8,13.98 10.4,12.68 17.9,27.7 22.7,43.44 3.5,11.38 4.7,23.19 4.6,35.06"
         style="fill:#ffd754;fill-opacity:1;fill-rule:nonzero;stroke:none"
         transform="matrix(0.13333333,0,0,-0.13333333,0,1693.8933)" />
      <path
         id="path449"
         d="m 13165.4,3348.06 c -2.8,-22.08 2,-44.04 25.1,-52.75 19.2,-7.26 48.8,-6.38 68.5,-0.36 13.1,3.99 25.6,10.01 35.1,20.13 16.4,17.51 25.7,40.12 15.7,68.22 -11.3,20.67 -26.4,30.47 -44.3,35.1 -1,4.27 -3,8.51 -6,12.51 -11.6,15.35 -34.9,16.66 -48.9,4.37 -4,-3.45 -6.5,-8.1 -7.7,-13.08 -12,-11.18 -21.4,-25.05 -28.3,-40.01 -5,-10.8 -7.8,-22.34 -9.2,-34.13"
         style="fill:#ffd754;fill-opacity:1;fill-rule:nonzero;stroke:none"
         transform="matrix(0.13333333,0,0,-0.13333333,0,1693.8933)" />
      <path
         id="path450"
         d="m 12941,3314.92 c -2.7,-22.08 2,-44.04 25.1,-52.75 19.2,-7.26 48.8,-6.37 68.6,-0.35 13.1,3.99 25.5,10.01 35,20.14 16.5,17.5 25.8,40.1 15.7,68.21 -11.3,20.66 -26.4,30.47 -44.3,35.11 -1,4.25 -2.9,8.49 -6,12.5 -11.6,15.35 -34.9,16.66 -48.9,4.36 -3.9,-3.44 -6.4,-8.08 -7.6,-13.07 -12,-11.18 -21.5,-25.05 -28.4,-40.01 -5,-10.81 -7.7,-22.34 -9.2,-34.14"
         style="fill:#ffd754;fill-opacity:1;fill-rule:nonzero;stroke:none"
         transform="matrix(0.13333333,0,0,-0.13333333,0,1693.8933)" />
      <path
         id="path451"
         d="m 12902.6,3841.58 c 0,-0.01 0,-0.01 0,-0.01 v 0 c 0,0 0,0.01 0,0.02 0,-0.01 0,-0.01 0,-0.01"
         style="fill:#ffd754;fill-opacity:1;fill-rule:nonzero;stroke:none"
         transform="matrix(0.13333333,0,0,-0.13333333,0,1693.8933)" />
      <path
         id="path452"
         d="m 11237.7,3268.32 c -9.8,107.87 -34,213.93 -73.9,311.41 -5.1,12.6 -10.9,24.98 -17.2,37.12 l -20.4,231.77 -303.6,-24.01 c -0.5,-0.04 -1,-0.08 -1.6,-0.12 l -4.4,-0.36 v -0.12 c -4.6,-0.43 -9.1,-0.83 -13.7,-1.49 -54.8,-7.88 -106.1,-31.62 -155.7,-55.17 -150.3,-71.43 -311.5,-44.59 -436.2,62.76 -59.5,51.21 -128.8,92.65 -201.4,123.32 -8.6,38.35 -18.72,80.22 -18.72,80.22 l -295.75,-23.38 -0.01,-0.03 c -11.22,-0.84 -22.42,-1.98 -33.58,-3.5 -88.39,-12.04 -170.7,-47.7 -242.71,-97.65 -149.43,-103.63 -243.49,-267.69 -289.07,-441.97 -47.65,-182.18 -52.84,-378.38 -29.69,-567.04 22.33,-181.91 77.27,-364.08 174.76,-523.08 94.74,-154.5 236.17,-309.8 420.92,-347 38.63,-7.8 77.51,-10.2 116.03,-8.1 l -0.01,-0.1 1.11,0.1 c 7.48,0.4 14.95,1 22.41,1.8 l 296.01,23.2 -76.4,46.6 c 51.4,27.7 99,62 140.5,100.1 113.7,104.4 179.2,281.4 325.5,345.8 111.1,48.9 219.4,14.5 332.3,5.8 27.5,-2.1 55.8,-2.1 83.6,1 v -0.1 l 301.8,23.8 -27.1,308.84 c 28.5,124.5 38.1,258.34 26.2,389.58"
         style="fill:#e8d6ce;fill-opacity:1;fill-rule:nonzero;stroke:none"
         transform="matrix(0.13333333,0,0,-0.13333333,0,1693.8933)" />
      <path
         id="path453"
         d="m 11539.4,3292.17 c -9.8,107.87 -34,213.93 -73.9,311.41 -39.5,96.73 -114,182.16 -211.4,223.27 -47.1,19.89 -98.9,26.8 -149.5,19.52 -54.8,-7.88 -106.1,-31.62 -155.7,-55.18 -150.3,-71.42 -311.5,-44.6 -436.2,62.77 -75.4,64.84 -166.4,114.29 -260,145.65 -93.5,31.3 -193,44.12 -289.48,30.98 -88.39,-12.04 -170.7,-47.71 -242.71,-97.65 -149.42,-103.63 -243.49,-267.69 -289.07,-441.97 -47.65,-182.18 -52.84,-378.38 -29.68,-567.05 22.32,-181.91 77.27,-364.02 174.75,-523.02 94.74,-154.5 236.17,-309.9 420.92,-347 182.37,-36.7 370.27,44.7 499.67,163.6 113.7,104.4 179.2,281.3 325.5,345.7 111.1,49 219.4,14.6 332.3,5.8 61.1,-4.7 125.9,0.2 180.9,29.8 50.5,27.1 87.9,71.6 114.2,121.88 27.5,52.59 45.9,109.54 59.9,167.11 31.2,128.61 41.8,267.95 29.5,404.38"
         style="fill:#e8d6ce;fill-opacity:1;fill-rule:nonzero;stroke:none"
         transform="matrix(0.13333333,0,0,-0.13333333,0,1693.8933)" />
      <path
         id="path454"
         d="m 10386.4,2941.16 c -6.8,34.76 -18.9,69.38 -25.3,99.57 -17.6,82.7 -34.4,167.38 -56.2,248.68 -13,48.76 -69.5,95.92 -106.3,36.74 -25.9,-41.7 2.2,-149.9 9.7,-211.63 7.6,-62.85 25.3,-122.56 36.6,-182.53 7.5,-39.77 10.9,-116.91 58.8,-131.46 25.1,-7.64 53.2,4.61 68,26.04 23.3,33.92 22.6,74.35 14.7,114.59"
         style="fill:#383229;fill-opacity:1;fill-rule:nonzero;stroke:none"
         transform="matrix(0.13333333,0,0,-0.13333333,0,1693.8933)" />
      <path
         id="path455"
         d="m 11100.3,3168 c -5.2,-175.9 -152.1,-314.21 -328,-308.93 -175.9,5.29 -314.2,152.17 -309,328.07 5.3,175.91 152.2,314.22 328.1,308.94 175.9,-5.3 314.2,-152.17 308.9,-328.08"
         style="fill:#383229;fill-opacity:1;fill-rule:nonzero;stroke:none"
         transform="matrix(0.13333333,0,0,-0.13333333,0,1693.8933)" />
      <path
         id="path456"
         d="m 9982.48,2060.4 c -151.85,90.9 -281.97,216.3 -380.45,363.3 -98.21,146.5 -165.35,313.72 -192.26,488.22 -19.16,124.13 -27.78,251.94 -17.91,377.3 10.3,130.64 43.92,260.09 110.63,373.64 79.3,134.99 200.72,237.66 338.29,310.05 20.34,10.71 41.02,20.74 61.93,30.28 12.49,5.69 1.65,24.11 -10.78,18.44 -149.06,-67.98 -285.06,-166.46 -378.85,-302.44 -77.22,-111.93 -120.16,-242.78 -137.16,-376.99 -16.12,-127.31 -9.53,-256.41 6.13,-383.42 21.51,-174.53 77.19,-341.78 167.81,-492.78 92.13,-153.5 217.02,-287.5 365.33,-388.1 18.49,-12.5 37.35,-24.5 56.51,-36 11.82,-7 22.58,11.4 10.78,18.5 v 0"
         style="fill:#383229;fill-opacity:1;fill-rule:nonzero;stroke:none"
         transform="matrix(0.13333333,0,0,-0.13333333,0,1693.8933)" />
      <path
         id="path457"
         d="m 12858.5,3621.75 c -6.5,12.15 -15.3,23.47 -26.7,33.55 -25.1,22.3 -58.6,33.28 -92,36.71 -65.9,6.78 -133.4,-8.22 -198.5,-16.67 -71.1,-9.22 -1036.6,-173.64 -1445.8,-256.91 -37.2,-7.57 -69.7,-20.9 -85.9,-58.93 -24.1,-56.48 -26.3,-105.44 -11.7,-164.86 15.6,-63.55 45.8,-112.19 115.8,-123.81 130.7,-21.66 664.2,109.94 790.1,136.55 277,58.53 558.7,105.52 832.6,177.55 95,24.97 173.3,141.23 122.1,236.82"
         style="fill:#383229;fill-opacity:1;fill-rule:nonzero;stroke:none"
         transform="matrix(0.13333333,0,0,-0.13333333,0,1693.8933)" />
      <path
         id="path458"
         d="m 13524.4,3596.21 c 1.8,40.81 -1.8,81.34 -9.3,121.46 -7.3,39.14 -19,77.44 -35.3,113.76 -17.1,37.9 -40.4,68.55 -85.1,71.01 -20.4,1.13 -41.3,-3.51 -61.3,-6.87 -21.7,-3.63 -43.3,-7.69 -64.8,-12.2 -41.5,-8.7 -82.6,-19.07 -123.5,-30.36 -82.9,-22.88 -164.7,-49.12 -246.9,-74.5 -73.8,-22.82 -207.5,-49.45 -247.3,-125.38 -20.1,-38.2 -25.4,-74.48 -16.7,-114.45 13,-59.45 37,-130.86 99.1,-154.98 74.5,-28.93 161.5,-5.97 237.5,4.17 94,12.55 188.2,22.34 281.9,37.18 44.1,6.97 88,14.49 131.9,22.68 36.7,6.77 77.4,10.69 106.2,37.07 30.2,27.62 31.9,73.42 33.6,111.41"
         style="fill:#383229;fill-opacity:1;fill-rule:nonzero;stroke:none"
         transform="matrix(0.13333333,0,0,-0.13333333,0,1693.8933)" />
      <path
         id="path459"
         d="m 12666.5,3673.07 c 17.7,-94.79 35.4,-189.58 53.1,-284.37 2.5,-13.49 23.1,-7.77 20.6,5.69 -17.7,94.78 -35.4,189.57 -53.1,284.35 -2.5,13.5 -23.1,7.79 -20.6,-5.67 v 0"
         style="fill:#e8d6ce;fill-opacity:1;fill-rule:nonzero;stroke:none"
         transform="matrix(0.13333333,0,0,-0.13333333,0,1693.8933)" />
      <path
         id="path460"
         d="m 10311.4,3176.4 c 187.7,37.02 375.6,73.77 563.5,110.22 183.9,35.7 367.9,71.11 551.9,106.25 182.9,34.94 365.9,69.61 548.9,104.05 183.7,34.59 367.5,68.94 551.4,103.1 189.2,35.17 378.4,70.13 567.7,104.93 24.2,4.46 48.5,8.92 72.7,13.36 13.5,2.48 7.8,23.08 -5.7,20.61 -190,-34.91 -380,-69.97 -570,-105.23 -185.2,-34.35 -370.3,-68.89 -555.3,-103.67 -183.1,-34.39 -366.1,-69.02 -549.1,-103.89 -182.8,-34.87 -365.7,-69.98 -548.4,-105.38 -187.3,-36.26 -374.5,-72.8 -561.6,-109.62 -23.9,-4.71 -47.8,-9.42 -71.7,-14.14 -13.5,-2.65 -7.8,-23.24 5.7,-20.59 v 0"
         style="fill:#ffffff;fill-opacity:1;fill-rule:nonzero;stroke:none"
         transform="matrix(0.13333333,0,0,-0.13333333,0,1693.8933)" />
      <path
         id="path461"
         d="m 10331.2,3106.28 c 191.5,37.75 382.9,75.27 574.4,112.56 193.1,37.6 386.2,74.96 579.4,112.09 194,37.3 388.1,74.36 582.2,111.16 195.2,37.01 390.4,73.77 585.7,110.28 193.7,36.2 387.5,72.14 581.3,107.83 23.9,4.39 47.8,8.79 71.7,13.18 13.5,2.48 7.8,23.08 -5.7,20.6 -193.7,-35.59 -387.3,-71.44 -580.9,-107.56 -194.3,-36.25 -388.6,-72.76 -582.8,-109.51 -194.1,-36.76 -388.3,-73.76 -582.3,-111.01 -194.3,-37.27 -388.6,-74.8 -582.8,-112.56 -191.7,-37.27 -383.4,-74.78 -575.1,-112.52 -23.6,-4.65 -47.2,-9.29 -70.7,-13.94 -13.5,-2.66 -7.8,-23.25 5.6,-20.6 v 0"
         style="fill:#ffffff;fill-opacity:1;fill-rule:nonzero;stroke:none"
         transform="matrix(0.13333333,0,0,-0.13333333,0,1693.8933)" />
      <path
         id="path462"
         d="m 10353.1,3035.93 c 191.6,37.77 383.3,75.33 575,112.66 191.7,37.35 383.6,74.46 575.4,111.34 193.5,37.2 387.1,74.15 580.7,110.86 192.8,36.58 385.8,72.89 578.8,108.97 193.8,36.22 387.6,72.19 581.5,107.87 24.1,4.43 48.2,8.87 72.3,13.29 13.5,2.48 7.8,23.08 -5.7,20.6 -193.9,-35.62 -387.7,-71.5 -581.5,-107.65 -193,-36.01 -385.9,-72.27 -578.8,-108.78 -193.7,-36.66 -387.3,-73.56 -580.8,-110.7 -192,-36.85 -383.9,-73.93 -575.8,-111.23 -191.9,-37.31 -383.7,-74.84 -575.4,-112.59 -23.8,-4.68 -47.6,-9.36 -71.3,-14.04 -13.5,-2.66 -7.8,-23.26 5.6,-20.6 v 0"
         style="fill:#ffffff;fill-opacity:1;fill-rule:nonzero;stroke:none"
         transform="matrix(0.13333333,0,0,-0.13333333,0,1693.8933)" />
      <path
         id="path463"
         d="m 10365.5,2973.92 c 187.1,36.89 374.2,73.6 561.4,110.09 182.5,35.56 365,70.91 547.6,106.03 181.2,34.85 362.4,69.45 543.7,103.81 183.1,34.71 366.3,69.17 549.5,103.38 188.4,35.18 376.8,70.1 565.3,104.78 24.1,4.44 48.2,8.86 72.3,13.3 13.5,2.48 7.8,23.06 -5.7,20.59 -189.4,-34.78 -378.7,-69.8 -568,-105.09 -183.7,-34.24 -367.3,-68.72 -550.9,-103.45 -181.4,-34.31 -362.6,-68.86 -543.9,-103.66 -182.2,-34.99 -364.4,-70.21 -546.6,-105.66 -186.4,-36.28 -372.8,-72.78 -559.1,-109.47 -23.8,-4.69 -47.5,-9.37 -71.3,-14.05 -13.4,-2.66 -7.7,-23.25 5.7,-20.6 v 0"
         style="fill:#ffffff;fill-opacity:1;fill-rule:nonzero;stroke:none"
         transform="matrix(0.13333333,0,0,-0.13333333,0,1693.8933)" />
      <path
         id="path464"
         d="m 10817.6,2550.3 c 94.3,45.1 204.8,48.3 301.9,10.1 12.8,-5 18.3,15.6 5.7,20.6 -102.6,40.3 -219.2,35.2 -318.3,-12.3 -12.4,-5.9 -1.6,-24.3 10.7,-18.4 v 0"
         style="fill:#383229;fill-opacity:1;fill-rule:nonzero;stroke:none"
         transform="matrix(0.13333333,0,0,-0.13333333,0,1693.8933)" />
      <path
         id="path465"
         d="m 10652.7,3747.6 c 41.8,-11 84.3,-20.18 127.8,-19.66 55.1,0.68 109,15.62 160.1,35.41 43.4,16.83 85.4,37.06 126.7,58.57 12.2,6.35 1.4,24.79 -10.8,18.44 -100.6,-52.42 -213.3,-105.24 -329.7,-87.25 -23.2,3.57 -45.9,9.15 -68.5,15.1 -13.3,3.49 -18.9,-17.1 -5.6,-20.61 v 0"
         style="fill:#383229;fill-opacity:1;fill-rule:nonzero;stroke:none"
         transform="matrix(0.13333333,0,0,-0.13333333,0,1693.8933)" />
      <path
         id="path466"
         d="m 10870.1,4588.2 c 10.1,32.68 15.1,67.4 15.1,101.59 0.2,55.6 -15.5,114.94 -62,148.45 -0.9,7.46 -5,14.19 -13.4,17.54 -77.1,30.54 -157.1,9.14 -227,-29.99 -75.2,-42.09 -143.2,-101.41 -202.6,-163.39 -30.5,-31.86 -58.9,-65.67 -85.2,-101.11 -26.8,-36.19 -56,-74.41 -73,-116.41 -16.4,-40.41 -19.1,-87.85 9.2,-123.89 15.4,-19.67 36.4,-29.89 59,-32.95 -3.3,-22.02 -2.7,-44.34 5.4,-65 9.1,-23.24 27,-41.53 51.5,-48.14 24.4,-6.56 49.4,0.14 71.6,10.61 15.4,7.29 29.8,17.09 43.2,28.33 5.6,-26.8 19.4,-51.33 42.4,-67.29 26.2,-18.26 61,-19.22 90.2,-7.66 32.8,13 55.9,38.09 75.8,66.4 40.7,57.91 74.8,121.69 105.3,185.46 16,33.53 32.2,68.15 46,103.52 0.3,0.33 0.7,0.57 1,0.93 22.8,25.9 37.4,60.34 47.5,93"
         style="fill:#e0865c;fill-opacity:1;fill-rule:nonzero;stroke:none"
         transform="matrix(0.13333333,0,0,-0.13333333,0,1693.8933)" />
      <path
         id="path467"
         d="m 12055.1,3443.87 c -9.1,61.7 -44.3,123.48 -113.6,126.03 -79.6,2.94 -136.6,-64.57 -175.7,-125.88 -23.8,-37.36 -43,-78.57 -50.4,-121.42 -52.6,-30.78 -99.1,-71.81 -134.3,-121.66 -38.1,-54.11 -73.2,-122.65 -68,-190.66 2.4,-31.7 15.7,-62.29 38.1,-84.93 25.1,-25.45 60.2,-33.39 94.9,-32.19 62.4,2.14 125.3,26.72 178.5,57.97 111.9,65.66 187.1,178.21 218.1,302.81 15.1,60.69 21.5,127.79 12.4,189.93"
         style="fill:#e0865c;fill-opacity:1;fill-rule:nonzero;stroke:none"
         transform="matrix(0.13333333,0,0,-0.13333333,0,1693.8933)" />
      <path
         id="path468"
         d="m 10537.2,3830.36 c -17.7,64.37 -50.2,135.89 -118.2,159.11 -6.9,2.35 -14.2,2.49 -20.7,0.35 -2.6,1.65 -5.1,3.47 -7.9,5.03 -12.3,6.97 -25.3,12.68 -38.8,16.96 -10.1,3.18 -20.9,6.54 -31.7,7.85 4.8,3.29 9.7,6.4 15,9.11 11.4,5.94 18.6,17.81 13.7,30.78 -4.5,11.7 -18.9,18.77 -30.8,13.7 -57.8,-24.63 -96,-75.26 -121.4,-131.15 -28.3,-62.51 -46.4,-131.11 -61.1,-197.92 -31.5,-142.26 -35.5,-296.15 22.4,-432.52 26.2,-61.8 64.4,-125.72 123.4,-160.96 61,-36.44 138.6,-27.12 182.5,30.7 20.5,26.95 33.7,58.95 45.8,90.29 13.4,34.59 24.5,70.14 33.5,106.12 17.5,69.59 25.8,140.86 26.3,212.57 0.7,81.1 -10.4,161.82 -32,239.98"
         style="fill:#e0865c;fill-opacity:1;fill-rule:nonzero;stroke:none"
         transform="matrix(0.13333333,0,0,-0.13333333,0,1693.8933)" />
      <path
         id="path469"
         d="m 11218,4121.01 c 71.2,-26.49 136.2,-71.07 187.2,-127.29 24.8,-27.3 46.3,-57.72 62.4,-90.91 9.2,-18.94 17.6,-40.96 14.3,-62.42 -2.8,-17.99 -15.8,-37.06 -35.1,-39.3 -8.2,-0.96 -15.4,-11.57 -7.6,-18.24 86.3,-73.74 128.5,-192.91 106.1,-304.42 -2.7,-13.43 17.9,-19.17 20.6,-5.68 23.8,118.68 -19.3,246.38 -111.6,325.2 -2.5,-6.07 -5,-12.15 -7.5,-18.23 42.7,4.99 62,48.29 55.5,87.32 -7.3,43.65 -35.8,85.16 -62.7,119.13 -55.7,70.09 -132.2,124.3 -215.9,155.43 -12.9,4.8 -18.5,-15.84 -5.7,-20.59 v 0"
         style="fill:#383229;fill-opacity:1;fill-rule:nonzero;stroke:none"
         transform="matrix(0.13333333,0,0,-0.13333333,0,1693.8933)" />
      <path
         id="path470"
         d="m 10450.3,3968.2 c 36.3,-41.24 65.4,-88.75 85.5,-139.9 2.1,-5.41 7.1,-9.04 13.1,-7.46 5.2,1.35 9.6,7.78 7.5,13.14 -21.5,54.76 -52.1,105.13 -91,149.32 -9.1,10.35 -24.2,-4.81 -15.1,-15.1 v 0"
         style="fill:#383229;fill-opacity:1;fill-rule:nonzero;stroke:none"
         transform="matrix(0.13333333,0,0,-0.13333333,0,1693.8933)" />
      <path
         id="path471"
         d="m 10608.7,4132.82 c 92.4,11.08 185.6,-14.61 259.3,-71.42 10.8,-8.39 21.5,10.17 10.7,18.45 -76.1,58.72 -174.5,85.78 -270,74.32 -13.5,-1.62 -13.6,-23 0,-21.35 v 0"
         style="fill:#383229;fill-opacity:1;fill-rule:nonzero;stroke:none"
         transform="matrix(0.13333333,0,0,-0.13333333,0,1693.8933)" />
      <path
         id="path472"
         d="m 10823.3,4589.8 c -12,-89.01 -29.5,-178.95 -66.6,-261.25 -27.7,-61.42 -67.4,-127.24 -126.1,-163.4 -33.6,-20.66 -70.7,-25.55 -107.7,-10.95 -12.7,5.05 -18.3,-15.59 -5.6,-20.59 72.8,-28.78 140.8,14.23 186.9,69.16 54.5,64.82 88.4,144.96 110.1,226.14 14.1,52.81 23.1,106.76 30.3,160.89 1.9,13.58 -19.5,13.44 -21.3,0 v 0"
         style="fill:#383229;fill-opacity:1;fill-rule:nonzero;stroke:none"
         transform="matrix(0.13333333,0,0,-0.13333333,0,1693.8933)" />
      <path
         id="path473"
         d="m 11146.8,4552.51 c -0.5,-51.81 42.6,-90.97 91.8,-97.78 57.8,-8.01 109.8,21.68 153.3,56.54 -5.6,4.32 -11.2,8.63 -16.8,12.94 -9.5,-19.2 -3.1,-41.76 14.2,-54.35 20.5,-14.96 47.9,-9.48 68,3.1 11.7,7.28 0.9,25.77 -10.8,18.45 -11.7,-7.35 -26.9,-12.87 -40.5,-6.69 -10.3,4.72 -17.9,17.71 -12.5,28.71 5.6,11.26 -7.3,20.51 -16.8,12.95 -35.8,-28.76 -78.2,-53.91 -125.8,-51.49 -42.2,2.13 -83.2,32.43 -82.8,77.62 0.2,13.75 -21.2,13.76 -21.3,0 v 0"
         style="fill:#383229;fill-opacity:1;fill-rule:nonzero;stroke:none"
         transform="matrix(0.13333333,0,0,-0.13333333,0,1693.8933)" />
      <path
         id="path474"
         d="m 11064.5,4661.74 c -1.2,25.38 1.4,56.56 24.4,71.9 9.3,6.26 19.4,8.49 29.6,4.5 8.5,-3.3 15.5,-11.33 16,-19.53 0.3,-5.76 4.7,-10.68 10.7,-10.68 5.5,0 11,4.89 10.6,10.68 -1.4,25.59 -26.4,45.34 -51.7,42.71 -27.4,-2.84 -47.6,-24.66 -55.8,-49.88 -5.2,-15.91 -5.9,-33.11 -5.1,-49.7 0.2,-5.77 4.7,-10.68 10.7,-10.68 5.5,0 10.9,4.89 10.6,10.68 v 0"
         style="fill:#383229;fill-opacity:1;fill-rule:nonzero;stroke:none"
         transform="matrix(0.13333333,0,0,-0.13333333,0,1693.8933)" />
      <path
         id="path475"
         d="m 11655.9,4872.66 c 6,32.4 -8.1,53.45 -32.7,69.19 -31.3,20.11 -86.8,21 -118.6,3.85 -27.9,-14.97 -37.6,-52.7 -10.8,-73.62 10.6,-8.26 23.8,-12.68 37.1,-14.27 17.4,-2.1 36.5,0.71 53.2,-5.98 8,-3.2 14.1,-9.54 21.9,-13.03 7.7,-3.42 16.1,-3.77 23.9,-0.65 14.1,5.61 23.3,19.98 26,34.51"
         style="fill:#383229;fill-opacity:1;fill-rule:nonzero;stroke:none"
         transform="matrix(0.13333333,0,0,-0.13333333,0,1693.8933)" />
      <path
         id="path476"
         d="m 11895.2,5250.07 c 2.6,-83.89 5.2,-167.76 7.8,-251.64 0.5,-13.72 21.8,-13.78 21.4,0 -2.6,83.88 -5.2,167.75 -7.9,251.64 -0.4,13.71 -21.7,13.77 -21.3,0 v 0"
         style="fill:#383229;fill-opacity:1;fill-rule:nonzero;stroke:none"
         transform="matrix(0.13333333,0,0,-0.13333333,0,1693.8933)" />
      <path
         id="path477"
         d="m 11797.1,5175.89 c 8.5,20.01 24.2,36.48 44.4,44.88 22.7,9.4 49,5.53 69.8,20.08 4.7,3.3 6.9,9.34 3.8,14.61 -2.7,4.67 -9.9,7.16 -14.6,3.83 -10.4,-7.24 -22.7,-9.04 -34.9,-10.91 -12.9,-1.97 -25.2,-4.58 -37.1,-10.18 -22,-10.31 -40.3,-29.21 -49.9,-51.53 -2.2,-5.3 -1.5,-11.44 3.9,-14.62 4.5,-2.62 12.3,-1.5 14.6,3.84 v 0"
         style="fill:#383229;fill-opacity:1;fill-rule:nonzero;stroke:none"
         transform="matrix(0.13333333,0,0,-0.13333333,0,1693.8933)" />
      <path
         id="path478"
         d="m 11924.4,4996.51 c -4.2,15.05 -17.9,23.66 -32.9,25.23 -41.5,4.38 -130.3,-88.27 -78.3,-119.26 26.4,-15.71 57.5,4.96 77,22.61 18.2,16.56 41.8,44.71 34.2,71.42"
         style="fill:#383229;fill-opacity:1;fill-rule:nonzero;stroke:none"
         transform="matrix(0.13333333,0,0,-0.13333333,0,1693.8933)" />
      <path
         id="path479"
         d="m 12598.9,5583.08 c 2.7,-83.88 5.3,-167.76 7.9,-251.64 0.4,-13.72 21.8,-13.78 21.3,0 -2.6,83.88 -5.2,167.76 -7.8,251.64 -0.4,13.71 -21.8,13.77 -21.4,0 v 0"
         style="fill:#383229;fill-opacity:1;fill-rule:nonzero;stroke:none"
         transform="matrix(0.13333333,0,0,-0.13333333,0,1693.8933)" />
      <path
         id="path480"
         d="m 12500.9,5508.9 c 8.5,20.02 24.1,36.48 44.4,44.88 22.6,9.4 49,5.53 69.7,20.08 4.7,3.3 6.9,9.34 3.8,14.61 -2.7,4.67 -9.8,7.16 -14.6,3.83 -10.3,-7.24 -22.6,-9.05 -34.8,-10.91 -13,-1.97 -25.2,-4.58 -37.2,-10.18 -22,-10.31 -40.3,-29.22 -49.8,-51.53 -2.3,-5.3 -1.6,-11.44 3.8,-14.62 4.5,-2.63 12.4,-1.49 14.7,3.84 v 0"
         style="fill:#383229;fill-opacity:1;fill-rule:nonzero;stroke:none"
         transform="matrix(0.13333333,0,0,-0.13333333,0,1693.8933)" />
      <path
         id="path481"
         d="m 12628.2,5329.51 c -4.2,15.05 -18,23.67 -32.9,25.24 -41.5,4.37 -130.3,-88.27 -78.3,-119.26 26.3,-15.71 57.5,4.96 76.9,22.61 18.3,16.56 41.8,44.71 34.3,71.41"
         style="fill:#383229;fill-opacity:1;fill-rule:nonzero;stroke:none"
         transform="matrix(0.13333333,0,0,-0.13333333,0,1693.8933)" />
      <path
         id="path482"
         d="m 12372.5,5170.12 c 2.7,-83.89 5.3,-167.76 7.9,-251.64 0.4,-13.72 21.8,-13.78 21.3,0 -2.6,83.88 -5.2,167.75 -7.8,251.64 -0.4,13.71 -21.8,13.77 -21.4,0 v 0"
         style="fill:#383229;fill-opacity:1;fill-rule:nonzero;stroke:none"
         transform="matrix(0.13333333,0,0,-0.13333333,0,1693.8933)" />
      <path
         id="path483"
         d="m 12404.4,4915.15 c -4.2,15.05 -18,23.66 -32.9,25.23 -41.5,4.39 -130.3,-88.27 -78.3,-119.25 26.3,-15.71 57.5,4.96 76.9,22.6 18.3,16.57 41.8,44.71 34.3,71.42"
         style="fill:#383229;fill-opacity:1;fill-rule:nonzero;stroke:none"
         transform="matrix(0.13333333,0,0,-0.13333333,0,1693.8933)" />
      <path
         id="path484"
         d="m 12159.8,5044.3 c 2.6,-83.89 5.2,-167.76 7.9,-251.65 0.4,-13.71 21.7,-13.77 21.3,0 -2.6,83.89 -5.2,167.76 -7.8,251.65 -0.5,13.71 -21.8,13.77 -21.4,0 v 0"
         style="fill:#383229;fill-opacity:1;fill-rule:nonzero;stroke:none"
         transform="matrix(0.13333333,0,0,-0.13333333,0,1693.8933)" />
      <path
         id="path485"
         d="m 12191.7,4789.33 c -4.3,15.05 -18,23.66 -32.9,25.23 -41.6,4.38 -130.3,-88.27 -78.4,-119.25 26.4,-15.72 57.5,4.96 77,22.6 18.3,16.57 41.8,44.71 34.3,71.42"
         style="fill:#383229;fill-opacity:1;fill-rule:nonzero;stroke:none"
         transform="matrix(0.13333333,0,0,-0.13333333,0,1693.8933)" />
      <path
         id="path486"
         d="m 12179.8,5040.01 c 16.2,38.02 46.7,69.24 85.2,84.84 40.1,16.22 87.1,9.72 123.6,35.31 11.2,7.82 0.5,26.36 -10.8,18.44 -19.2,-13.47 -42.1,-17.05 -64.8,-20.52 -22.6,-3.44 -44.2,-7.76 -64.9,-17.49 -38.6,-18.05 -70.1,-50.71 -86.7,-89.8 -5.4,-12.5 13,-23.39 18.4,-10.78 v 0"
         style="fill:#383229;fill-opacity:1;fill-rule:nonzero;stroke:none"
         transform="matrix(0.13333333,0,0,-0.13333333,0,1693.8933)" />
      <path
         id="path487"
         d="m 12181.9,4956.11 c 16.2,38.02 46.6,69.23 85.2,84.83 40,16.22 87,9.73 123.6,35.31 11.1,7.83 0.5,26.36 -10.8,18.45 -19.3,-13.48 -42.1,-17.05 -64.9,-20.53 -22.5,-3.43 -44.1,-7.75 -64.9,-17.49 -38.5,-18.03 -70,-50.71 -86.7,-89.78 -5.3,-12.51 13.1,-23.41 18.5,-10.79 v 0"
         style="fill:#383229;fill-opacity:1;fill-rule:nonzero;stroke:none"
         transform="matrix(0.13333333,0,0,-0.13333333,0,1693.8933)" />
      <path
         id="path488"
         d="m 11927.7,3563.7 c -9.3,-48.39 -27.9,-94.19 -55,-135.36 -7.6,-11.51 10.9,-22.22 18.4,-10.78 28,42.54 47.6,90.46 57.2,140.47 2.6,13.43 -18,19.18 -20.6,5.67 v 0"
         style="fill:#383229;fill-opacity:1;fill-rule:nonzero;stroke:none"
         transform="matrix(0.13333333,0,0,-0.13333333,0,1693.8933)" />
      <path
         id="path489"
         d="m 11993.5,3531.96 c -3.5,-48.23 -19.7,-94.69 -46.3,-135.02 -7.6,-11.52 10.9,-22.23 18.5,-10.79 28.7,43.54 45.4,93.85 49.1,145.81 1,13.72 -20.4,13.65 -21.3,0 v 0"
         style="fill:#383229;fill-opacity:1;fill-rule:nonzero;stroke:none"
         transform="matrix(0.13333333,0,0,-0.13333333,0,1693.8933)" />
      <path
         id="path490"
         d="m 10422.6,3313.63 c 2.4,-38.12 16.4,-73.96 40.3,-103.75 3.6,-4.51 11.3,-3.76 15.1,0 4.4,4.46 3.6,10.58 0,15.1 -20.1,25.08 -32.1,56.65 -34.1,88.65 -0.4,5.76 -4.6,10.68 -10.7,10.68 -5.5,0 -11,-4.89 -10.6,-10.68 v 0"
         style="fill:#383229;fill-opacity:1;fill-rule:nonzero;stroke:none"
         transform="matrix(0.13333333,0,0,-0.13333333,0,1693.8933)" />
      <path
         id="path491"
         d="m 10230.3,3258.6 c 2.4,-38.12 16.5,-73.96 40.3,-103.75 3.6,-4.52 11.3,-3.76 15.1,0 4.5,4.45 3.6,10.58 0,15.1 -20,25.08 -32,56.65 -34,88.65 -0.4,5.76 -4.7,10.68 -10.7,10.68 -5.5,0 -11.1,-4.89 -10.7,-10.68 v 0"
         style="fill:#383229;fill-opacity:1;fill-rule:nonzero;stroke:none"
         transform="matrix(0.13333333,0,0,-0.13333333,0,1693.8933)" />
      <path
         id="path492"
         d="m 10328.1,3287.32 c 3.4,-55.04 23.8,-107.16 58.2,-150.21 3.6,-4.54 11.3,-3.71 15.1,0 4.5,4.41 3.6,10.63 0,15.11 -30.6,38.33 -48.9,86.17 -52,135.1 -0.8,13.65 -22.2,13.75 -21.3,0 v 0"
         style="fill:#383229;fill-opacity:1;fill-rule:nonzero;stroke:none"
         transform="matrix(0.13333333,0,0,-0.13333333,0,1693.8933)" />
      <path
         id="path493"
         d="m 11087,2367.1 c 89.8,92.2 216.7,145.7 345.6,144.6 60.5,-0.6 132,-13.4 157.3,-76.5 24.2,-60.3 0.9,-128 -34.3,-178.7 -45.6,-65.4 -114.3,-109.3 -180.2,-151.7 -11.6,-7.4 -0.9,-25.9 10.8,-18.4 64.3,41.4 130.1,84 177.5,145.4 41.2,53.3 68.7,122.6 52.6,190.5 -16.1,67.8 -74.9,100.1 -140,108.1 -69.1,8.4 -141.6,-1.6 -207.3,-24.1 -74.4,-25.4 -142.3,-67.8 -197.1,-124.1 -9.6,-9.8 5.5,-25 15.1,-15.1 v 0"
         style="fill:#383229;fill-opacity:1;fill-rule:nonzero;stroke:none"
         transform="matrix(0.13333333,0,0,-0.13333333,0,1693.8933)" />
      <path
         id="path494"
         d="m 11327.1,2343.6 c 7.6,-54.6 79,-53.4 115,-29.8 25.9,17 48.2,40.6 68.1,64.2 -5.6,4.3 -11.2,8.6 -16.8,12.9 -13.1,-20.2 -36.7,-61.8 -14.9,-83.3 20.4,-20.1 50.3,-1.5 67.7,12.6 25.3,20.4 47.1,44.7 65.9,71.3 7.9,11.2 -10.6,21.9 -18.5,10.8 -8.6,-12.2 -86.3,-106.3 -101.3,-77.4 -4.8,9 4.1,26.1 7.9,34.1 3.4,7.3 7.3,14.4 11.6,21.1 6.5,10.1 -8.8,22.3 -16.7,13 -14.9,-17.7 -31.2,-34.6 -48.8,-49.5 -13.1,-11 -26.3,-19.2 -43.3,-22.9 -23.1,-5 -51.5,1.5 -55.3,28.6 -1.9,13.5 -22.5,7.8 -20.6,-5.7 v 0"
         style="fill:#383229;fill-opacity:1;fill-rule:nonzero;stroke:none"
         transform="matrix(0.13333333,0,0,-0.13333333,0,1693.8933)" />
      <path
         id="path495"
         d="m 11756,2292.7 c 40.2,42.1 92.2,70.9 149.2,82.8 13.5,2.8 7.8,23.4 -5.7,20.6 -60.3,-12.6 -116.1,-43.7 -158.7,-88.3 -9.5,-9.9 5.6,-25 15.2,-15.1 v 0"
         style="fill:#383229;fill-opacity:1;fill-rule:nonzero;stroke:none"
         transform="matrix(0.13333333,0,0,-0.13333333,0,1693.8933)" />
      <path
         id="path496"
         d="m 12045.7,2259.7 c 45.9,-6.1 88.5,-29.8 118.8,-64.5 9.1,-10.3 24.2,4.8 15.1,15.1 -34.4,39.3 -82.3,63.9 -133.9,70.7 -5.7,0.8 -10.7,-5.4 -10.7,-10.6 0,-6.4 5,-10 10.7,-10.7 v 0"
         style="fill:#383229;fill-opacity:1;fill-rule:nonzero;stroke:none"
         transform="matrix(0.13333333,0,0,-0.13333333,0,1693.8933)" />
      <path
         id="path497"
         d="m 12001.2,2167.1 c 45.9,-6 88.5,-29.8 118.8,-64.5 9.1,-10.3 24.2,4.9 15.1,15.2 -34.4,39.2 -82.3,63.9 -133.9,70.7 -5.7,0.7 -10.7,-5.5 -10.7,-10.7 0,-6.4 5,-9.9 10.7,-10.7 v 0"
         style="fill:#383229;fill-opacity:1;fill-rule:nonzero;stroke:none"
         transform="matrix(0.13333333,0,0,-0.13333333,0,1693.8933)" />
      <path
         id="path498"
         d="m 11318.9,4863.13 c 54.1,27.56 115.5,49.16 175.5,59.14 27.5,4.57 56.8,4.27 83.8,-2.81 13,-3.42 26,-8.53 36.6,-16.98 12.6,-10.02 17.7,-22.65 22.1,-37.69 30.4,-103.22 37.9,-225.55 -49.5,-303.36 -38.4,-34.17 -87.2,-54.31 -136.1,-68.04 -13.2,-3.7 -7.6,-24.32 5.7,-20.59 96.4,27.05 187.1,83.04 214,185.52 17,65.13 7.7,134.8 -9.7,198.79 -8.7,31.84 -19.4,57.48 -50.4,72.89 -27.6,13.68 -59.8,17.52 -90.2,16.29 -36.5,-1.46 -72.4,-11.56 -106.9,-22.61 -36,-11.52 -71.9,-24.91 -105.7,-42.11 -12.3,-6.24 -1.5,-24.67 10.8,-18.44 v 0"
         style="fill:#383229;fill-opacity:1;fill-rule:nonzero;stroke:none"
         transform="matrix(0.13333333,0,0,-0.13333333,0,1693.8933)" />
      <path
         id="path499"
         d="m 10476.5,4212.2 c 53.5,46.04 98.2,101.95 131.4,164.22 6.5,12.13 -11.9,22.93 -18.4,10.78 -32.5,-60.83 -75.9,-114.92 -128.1,-159.9 -10.5,-8.98 4.7,-24.04 15.1,-15.1 v 0"
         style="fill:#383229;fill-opacity:1;fill-rule:nonzero;stroke:none"
         transform="matrix(0.13333333,0,0,-0.13333333,0,1693.8933)" />
      <path
         id="path500"
         d="m 10401.8,4406.85 c 35.5,33.83 69.2,69.54 101,106.97 3.7,4.4 4.3,10.79 0,15.11 -3.9,3.83 -11.4,4.42 -15.1,0 -31.8,-37.43 -65.5,-73.15 -101,-106.98 -10,-9.5 5.1,-24.58 15.1,-15.1 v 0"
         style="fill:#383229;fill-opacity:1;fill-rule:nonzero;stroke:none"
         transform="matrix(0.13333333,0,0,-0.13333333,0,1693.8933)" />
      <path
         id="path501"
         d="m 11154,4283.6 c 65.9,-10.98 133,-9 198.1,6.22 13.4,3.13 7.7,23.73 -5.7,20.6 -61.1,-14.3 -124.7,-16.55 -186.7,-6.23 -13.5,2.24 -19.2,-18.34 -5.7,-20.59 v 0"
         style="fill:#383229;fill-opacity:1;fill-rule:nonzero;stroke:none"
         transform="matrix(0.13333333,0,0,-0.13333333,0,1693.8933)" />
      <path
         id="path502"
         d="m 11523.1,2927.46 c 49,-51.51 128.6,-69.88 195,-44.2 12.7,4.92 7.2,25.57 -5.7,20.6 -59.6,-23.09 -130,-7.78 -174.1,38.71 -9.5,9.99 -24.6,-5.14 -15.2,-15.11 v 0"
         style="fill:#383229;fill-opacity:1;fill-rule:nonzero;stroke:none"
         transform="matrix(0.13333333,0,0,-0.13333333,0,1693.8933)" />
    </g>
  </g>
</svg>
