<?xml version="1.0" encoding="UTF-8" standalone="no"?>
<!-- Created with Inkscape (http://www.inkscape.org/) -->

<svg
   version="1.1"
   id="svg1"
   width="697.13226"
   height="567.63898"
   viewBox="0 0 697.13226 567.63897"
   sodipodi:docname="dog-mirror.svg"
   xmlns:inkscape="http://www.inkscape.org/namespaces/inkscape"
   xmlns:sodipodi="http://sodipodi.sourceforge.net/DTD/sodipodi-0.dtd"
   xmlns="http://www.w3.org/2000/svg"
   xmlns:svg="http://www.w3.org/2000/svg">
  <defs
     id="defs1" />
  <sodipodi:namedview
     id="namedview1"
     pagecolor="#ffffff"
     bordercolor="#000000"
     borderopacity="0.25"
     inkscape:showpageshadow="2"
     inkscape:pageopacity="0.0"
     inkscape:pagecheckerboard="0"
     inkscape:deskcolor="#d1d1d1"
     inkscape:export-bgcolor="#ffffff00" />
  <g
     id="g1"
     inkscape:groupmode="layer"
     inkscape:label="1"
     transform="translate(-1918.8777,-292.33602)">
    <g
       id="g558"
       transform="translate(-54.507289,90.845482)">
      <path
         id="path94"
         d="m 17692.1,9157.68 c 25.5,-3.82 47.1,17.4 63.9,33.33 24.2,23.05 48.2,44.22 76.6,62.04 27.4,17.18 56.3,31.83 83.7,48.96 17.4,10.83 48.3,33.21 36.6,57.88 -10.5,22.03 -52.5,16.28 -71.9,13.64 -28,-3.8 -55,-12.84 -80.7,-23.97 -56.6,-24.43 -110.3,-60.46 -136.5,-118.3 -1,-2.22 -1,-4.26 -0.6,-6.16 -0.5,-1.22 -1.1,-2.39 -1.5,-3.63 -8.4,-25.27 0.1,-59.25 30.4,-63.79"
         style="fill:#ffa8ca;fill-opacity:1;fill-rule:nonzero;stroke:none"
         transform="matrix(0.13333333,0,0,-0.13333333,0,1693.8933)" />
      <path
         id="path95"
         d="m 18981.7,9389.34 c -0.6,36.84 -8.4,73.81 -20.9,108.4 -53.5,148.06 -187.2,243.98 -328.9,299.15 -41.5,16.16 -84,29.42 -127,41.17 -47.1,12.89 -95.1,24.82 -143.5,11.54 -13.2,-3.65 -19.2,-20.97 -14.6,-32.93 1.3,-3.43 3.2,-6.28 5.4,-8.59 -20.9,-34.96 -1.5,-78.47 8.6,-114.76 11.3,-40.78 22.8,-81.51 35.2,-121.95 24,-78.14 52.7,-155.24 95.1,-225.43 38.8,-64.08 92.9,-123.38 163.6,-152.02 67.4,-27.31 160.1,-30.04 213.3,27.64 18.9,20.56 25.1,43.73 23,67.36 14.2,-3.06 28.9,-3.19 43.6,1.41 43.1,13.53 47.7,60.63 47.1,99.01"
         style="fill:#e0865c;fill-opacity:1;fill-rule:nonzero;stroke:none"
         transform="matrix(0.13333333,0,0,-0.13333333,0,1693.8933)" />
      <path
         id="path96"
         d="m 19616.3,8146.4 c -58,158.09 -149.8,306.05 -275.5,419.12 -72.3,65 -155.1,114.47 -242.7,154.36 -27.5,39.66 -54.4,79.71 -80.6,120.21 -83.4,128.85 -159.9,261.97 -229.8,398.57 2.5,74.59 -4,149.85 -15.8,223.35 -6.6,40.78 -15,81.26 -25.5,121.23 -8.6,32.83 -19.7,64.78 -37.3,93.96 -19.3,32 -46.9,54.79 -79.8,71.91 -36.5,19.08 -74.5,35.83 -111.7,53.57 -73,34.82 -146.8,64.64 -229.5,57.47 -63.8,-5.53 -127.5,-33.42 -169.9,-81.46 -61,7.22 -122.4,12.43 -183.3,18.88 -46.9,4.96 -93.7,9.92 -140.5,14.88 -20.6,2.18 -41.4,4.39 -61.3,-2.26 -19.4,-6.44 -34.2,-22.24 -42.1,-40.74 -7.9,-18.65 -10.5,-39.42 -13,-59.36 -2.9,-23.02 -4.5,-46.12 -4.8,-69.31 -0.6,-43.04 4.8,-86.22 19.2,-126.92 27.2,-76.34 85.6,-133.08 163.5,-155.99 29.7,-8.76 60.3,-12.74 91.1,-13.22 -6.8,-3.05 -13.6,-6.02 -20.3,-9.1 -22.9,-10.39 -45.9,-20.54 -68.5,-31.4 -18.3,-8.76 -36.7,-20.14 -44.4,-39.96 -8.7,-22.72 1.2,-47.5 19.6,-62.21 17,-13.63 38.6,-18.19 59.9,-18.73 46.5,-1.16 94.1,6.15 139.4,16.19 26,5.76 51.8,12.64 77.1,21 0,0.03 0.1,0.05 0.2,0.08 -22,-111.74 -25.2,-226.95 -7.2,-339.67 16.1,-100.68 46.8,-204.04 106.8,-287.35 5.4,-111.43 1.9,-223.15 -10.2,-334.05 -12.6,-115.26 -34.6,-229.51 -65.8,-341.19 -15.5,-55.56 -34,-110.11 -53.5,-164.36 -20.5,-56.76 -40.9,-113.9 -52.9,-173.16 -12.9,-63.7 -16.5,-129.53 -11.5,-194.31 2.4,-31.23 6.8,-62.31 13.5,-92.92 4.5,-20.55 9.3,-41.26 16,-61.3 -28.7,-35.53 -48.9,-78.74 -54.1,-123.99 -6.4,-54.84 8.4,-121.99 60.5,-150.45 30.4,-16.58 76.6,-18.42 145.8,-18.46 0,0 907.4,-0.27 946.4,-0.29 40.5,-0.02 214.6,0.72 255.2,0.72 142.4,0 193.9,163.65 197.6,171.23 53.2,26.85 -236.2,-58.01 -235.4,0.29 0.1,8.85 -0.4,17.95 -1.6,27.12 18.8,12.19 36.9,25.25 54.1,39.2 130.3,105.95 215,259.43 250.7,422.36 39.7,181.51 15.4,373.3 -48.1,546.46"
         style="fill:#e0865c;fill-opacity:1;fill-rule:nonzero;stroke:none"
         transform="matrix(0.13333333,0,0,-0.13333333,0,1693.8933)" />
      <path
         id="path97"
         d="m 18127.6,9015.17 c -2.3,2.76 -70.5,-100.31 -97.8,-200.58 -27.3,-100.27 24,-127.77 24,-127.77 0,0 -40.9,-91.65 -16.7,-128.64 24.1,-37 45.5,-32.55 45.5,-32.55 0,0 -49.3,-121.44 6.5,-240.96 55.8,-119.52 120.1,-99.05 136.8,-59.88 16.6,39.16 13.9,197.03 0,245.66 0,0 53.4,-2.38 33.2,91.38 -20.2,93.75 -90.2,170.89 -90.2,170.89 0,0 82.4,135.29 -41.3,282.45"
         style="fill:#ffffff;fill-opacity:1;fill-rule:nonzero;stroke:none"
         transform="matrix(0.13333333,0,0,-0.13333333,0,1693.8933)" />
      <path
         id="path98"
         d="m 18049.6,8700.08 c -20.9,-31.32 -32.7,-69.59 -30.2,-107.39 1.2,-18.05 4.5,-38 15.6,-52.8 10.3,-13.73 28.9,-22.27 45.7,-15.34 5.3,2.22 9,7.06 7.4,13.14 -1.3,5.05 -7.8,9.66 -13.1,7.46 -13.1,-5.42 -23.5,5.28 -28,16.79 -5.5,13.73 -6.9,29.36 -6.5,44 0.7,29.89 11,58.63 27.5,83.36 7.7,11.46 -10.8,22.17 -18.4,10.78 v 0"
         style="fill:#383229;fill-opacity:1;fill-rule:nonzero;stroke:none"
         transform="matrix(0.13333333,0,0,-0.13333333,0,1693.8933)" />
      <path
         id="path99"
         d="m 18067.5,8537.69 c -19.8,-82.95 -23.1,-174.45 10.6,-254.39 19.7,-46.62 58,-98.64 113.7,-99.45 13.8,-0.2 13.8,21.16 0,21.36 -48.5,0.71 -81.1,52.26 -96.6,92.34 -28.8,74.45 -25.3,157.97 -7.1,234.46 3.2,13.36 -17.4,19.07 -20.6,5.68 v 0"
         style="fill:#383229;fill-opacity:1;fill-rule:nonzero;stroke:none"
         transform="matrix(0.13333333,0,0,-0.13333333,0,1693.8933)" />
      <path
         id="path100"
         d="m 18199.2,9686.51 c -17.7,29.68 -61.5,41.58 -91.3,19.63 -34.6,-25.46 -42.6,-95.97 5.3,-116.74 62.5,-27.1 95.3,22.25 93.9,70.07 -0.3,10.06 -3.1,19.18 -7.9,27.04"
         style="fill:#ffffff;fill-opacity:1;fill-rule:nonzero;stroke:none"
         transform="matrix(0.13333333,0,0,-0.13333333,0,1693.8933)" />
      <path
         id="path101"
         d="m 18125.2,9746.94 c 10.5,-45.31 54.4,-77.14 100.9,-71.94 5.7,0.64 10.6,4.45 10.6,10.68 0,5.27 -4.9,11.32 -10.6,10.68 -19,-2.12 -38.1,2.39 -53.5,13.94 -13.7,10.33 -23,25.69 -26.8,42.32 -1.3,5.62 -7.7,8.94 -13.1,7.46 -5.8,-1.59 -8.8,-7.5 -7.5,-13.14 v 0"
         style="fill:#383229;fill-opacity:1;fill-rule:nonzero;stroke:none"
         transform="matrix(0.13333333,0,0,-0.13333333,0,1693.8933)" />
      <path
         id="path102"
         d="m 18159.6,9669.56 c -1.1,14.74 -12,36.06 -40.2,36.54 -11,0.19 -20.1,-3.55 -26,-8.79 -14.5,-12.7 -33.1,-54.44 -13.9,-73.95 18.3,-18.71 44.4,-18.32 56.9,-7.95 12.2,10.21 24.4,36.94 23.2,54.15"
         style="fill:#383229;fill-opacity:1;fill-rule:nonzero;stroke:none"
         transform="matrix(0.13333333,0,0,-0.13333333,0,1693.8933)" />
      <path
         id="path103"
         d="m 18007.5,9632.65 c 6.5,66.73 39.1,118.11 85.3,154.24 -25,14.36 -53,16.52 -82,17.73 -36.2,1.53 -72.4,2.47 -108.6,2.98 -35.3,0.5 -70.6,0.67 -105.8,-0.08 -32.9,-0.71 -64,-7.48 -88.3,-30.91 -46.3,-44.52 -43.4,-116.67 -34.6,-175.27 8.8,-59.29 29.6,-119.78 69.6,-165.53 37.6,-43.02 90.4,-75.96 148.5,-79.96 31.8,-2.2 63,2.19 85.3,27.15 20.2,22.56 28.8,55.55 37.5,83.79 6,19.36 11.6,38.67 17.2,57.87 -19,26.85 -28.6,62.14 -24.1,107.99"
         style="fill:#ffffff;fill-opacity:1;fill-rule:nonzero;stroke:none"
         transform="matrix(0.13333333,0,0,-0.13333333,0,1693.8933)" />
      <path
         id="path104"
         d="m 18808.1,9514.76 c -31.6,91.75 -83.6,176.64 -174.7,216.75 -85.5,37.66 -187.2,39.83 -272.8,1.26 -64.1,-28.84 -117.6,-77.52 -161.2,-132.52 -88.1,-110.95 -157,-245.62 -191.5,-383.05 -12.5,-49.74 -20.7,-102.98 -4.4,-152.9 13.7,-41.9 46.8,-78.65 89.8,-90.73 45.1,-12.66 90.4,6.84 125,35.61 2.1,-22.87 9.5,-44.82 25.4,-62.34 20.7,-22.87 50.8,-31.23 80.7,-24.42 45.9,10.48 78.9,51.31 104.5,91.17 7.2,-28.59 20.6,-55.27 45.4,-72.1 40.4,-27.35 86.4,-17.4 118.7,17.05 30,32.05 46.8,78.76 59.6,119.96 2.5,8.24 4.8,16.5 7,24.78 24.6,-21.37 59,-26.9 88.6,-7.44 30.3,19.91 46,58.11 58,90.81 12.9,35.05 21.8,71.78 26,108.89 8.4,73.75 0,149.05 -24.1,219.22"
         style="fill:#e0865c;fill-opacity:1;fill-rule:nonzero;stroke:none"
         transform="matrix(0.13333333,0,0,-0.13333333,0,1693.8933)" />
      <path
         id="path105"
         d="m 18228.5,8984.6 c -22.9,65.71 -24.3,136.73 -3.9,203.26 4.1,13.18 -16.6,18.81 -20.6,5.68 -21.4,-69.87 -20.1,-145.58 3.9,-214.62 4.5,-12.9 25.2,-7.35 20.6,5.68 v 0"
         style="fill:#383229;fill-opacity:1;fill-rule:nonzero;stroke:none"
         transform="matrix(0.13333333,0,0,-0.13333333,0,1693.8933)" />
      <path
         id="path106"
         d="m 18522,9285.73 c -1.6,-69.35 18.2,-138.26 56.6,-196.06 7.5,-11.41 26.1,-0.72 18.4,10.78 -36.4,54.87 -55.2,119.42 -53.6,185.28 0.3,13.75 -21,13.75 -21.4,0 v 0"
         style="fill:#383229;fill-opacity:1;fill-rule:nonzero;stroke:none"
         transform="matrix(0.13333333,0,0,-0.13333333,0,1693.8933)" />
      <path
         id="path107"
         d="m 20028.8,7827.09 c 0.8,43.73 -3.6,99.38 -50.3,119 -51.8,21.77 -99.7,-24.17 -132.1,-58.58 -34.5,-36.7 -65.1,-77.13 -93.4,-118.81 -58,-85.74 -108.5,-175.77 -172.2,-257.73 -37.3,-47.94 -77.5,-93.5 -119.8,-137 -34.8,-35.69 -75.7,-75.85 -126.8,-84.41 -26,-4.37 -24.7,-41.35 -2.4,-45.14 -9,-4.64 -17.6,-10.27 -25.1,-15.75 -17,-12.28 -32.7,-27.14 -45.4,-43.77 -12.8,-16.66 -23.7,-35.32 -31.1,-54.97 -5.2,-13.82 -8.9,-29.39 -6.9,-43.6 -5.4,-8.75 -6.3,-19.68 1.9,-28.74 82.7,-91.2 208,-124.08 327.9,-117.84 62.7,3.27 126.3,16.94 180.9,48.79 27.3,15.9 54,37.62 68.5,66.23 15,29.65 10.5,64.11 -9.4,90.17 36.5,25.74 68.5,57.6 97.6,91.64 41.2,48.45 81.2,101.56 104.7,161.2 20.9,53.21 42.5,149.97 -21.3,184.28 -4.6,2.45 -9.3,4.16 -14.1,5.34 17.8,29.82 32.6,61.47 43.6,94.44 15.7,47.13 24.3,95.58 25.2,145.25"
         style="fill:#e0865c;fill-opacity:1;fill-rule:nonzero;stroke:none"
         transform="matrix(0.13333333,0,0,-0.13333333,0,1693.8933)" />
      <path
         id="path108"
         d="m 19341,7146.12 c 68,-33.96 102.2,-118.93 76.8,-190.57 -4.7,-12.98 16,-18.56 20.5,-5.68 28.5,80.05 -10.5,176.76 -86.5,214.7 -12.3,6.12 -23.1,-12.3 -10.8,-18.45 v 0"
         style="fill:#383229;fill-opacity:1;fill-rule:nonzero;stroke:none"
         transform="matrix(0.13333333,0,0,-0.13333333,0,1693.8933)" />
      <path
         id="path109"
         d="m 18058.1,7215.24 c 97.8,82.44 224.4,118.69 351.1,103.84 13.6,-1.59 13.5,19.78 0,21.37 -132.5,15.52 -264.2,-24.17 -366.2,-110.11 -10.6,-8.87 4.6,-23.91 15.1,-15.1 v 0"
         style="fill:#383229;fill-opacity:1;fill-rule:nonzero;stroke:none"
         transform="matrix(0.13333333,0,0,-0.13333333,0,1693.8933)" />
      <path
         id="path110"
         d="m 18043.2,7113.81 c -19.5,-54.18 -7.4,-116.29 29.6,-160.09 8.9,-10.52 23.9,4.65 15.1,15.1 -32.2,38.19 -40.9,92.58 -24.1,139.31 4.7,12.95 -16,18.53 -20.6,5.68 v 0"
         style="fill:#383229;fill-opacity:1;fill-rule:nonzero;stroke:none"
         transform="matrix(0.13333333,0,0,-0.13333333,0,1693.8933)" />
      <path
         id="path111"
         d="m 18126.4,7098.15 c -9.4,-54.3 4.5,-109.52 38.2,-153.04 3.6,-4.59 11.4,-3.67 15.1,0 4.6,4.45 3.6,10.58 0,15.11 -28.6,36.9 -40.7,86.32 -32.6,132.25 2.3,13.45 -18.3,19.22 -20.7,5.68 v 0"
         style="fill:#383229;fill-opacity:1;fill-rule:nonzero;stroke:none"
         transform="matrix(0.13333333,0,0,-0.13333333,0,1693.8933)" />
      <path
         id="path112"
         d="m 18544.9,8463.11 c -10.9,-108.3 -29.3,-215.66 -55,-321.41 -3.3,-13.35 17.3,-19.05 20.6,-5.68 26.1,107.61 44.7,216.9 55.8,327.09 1.3,13.67 -20,13.57 -21.4,0 v 0"
         style="fill:#383229;fill-opacity:1;fill-rule:nonzero;stroke:none"
         transform="matrix(0.13333333,0,0,-0.13333333,0,1693.8933)" />
      <path
         id="path113"
         d="m 19349.2,7145.05 c 154.7,31.84 250.2,190.2 296.9,328.68 17.3,51.48 29.3,104.61 36.7,158.4 1.9,13.44 -18.7,19.26 -20.6,5.68 -12.1,-88.19 -36.5,-175.43 -77.1,-254.89 -33.9,-66.27 -79.7,-129.78 -141.2,-172.94 -30.4,-21.28 -64,-36.85 -100.4,-44.34 -13.4,-2.77 -7.7,-23.36 5.7,-20.59 v 0"
         style="fill:#383229;fill-opacity:1;fill-rule:nonzero;stroke:none"
         transform="matrix(0.13333333,0,0,-0.13333333,0,1693.8933)" />
      <path
         id="path114"
         d="m 19736.9,7411.73 c 91.4,27.47 171.3,85.36 226.3,163.3 7.9,11.26 -10.6,21.95 -18.5,10.78 -51.7,-73.26 -127.7,-127.69 -213.5,-153.48 -13.1,-3.95 -7.5,-24.57 5.7,-20.6 v 0"
         style="fill:#383229;fill-opacity:1;fill-rule:nonzero;stroke:none"
         transform="matrix(0.13333333,0,0,-0.13333333,0,1693.8933)" />
      <path
         id="path115"
         d="m 19645.7,7115.52 c 49.1,-5.06 99.2,1.74 145.1,19.73 5.3,2.09 9.1,7.17 7.5,13.14 -1.5,5.11 -7.8,9.58 -13.2,7.46 -44.4,-17.41 -91.9,-23.87 -139.4,-18.97 -5.7,0.59 -10.7,-5.33 -10.7,-10.68 0,-6.27 5,-10.09 10.7,-10.68 v 0"
         style="fill:#383229;fill-opacity:1;fill-rule:nonzero;stroke:none"
         transform="matrix(0.13333333,0,0,-0.13333333,0,1693.8933)" />
      <path
         id="path116"
         d="m 18650.3,9709.8 c 85.6,-26.36 119.4,-122.99 135.6,-202.39 22.6,-110.56 44.7,-233.17 -0.1,-341.23 -10.9,-26.39 -28,-51.46 -53.3,-65.92 -25.1,-14.42 -56.5,-15.37 -80.8,1.18 -5.2,3.54 -14.8,0.28 -15.7,-6.38 -7.3,-53.43 -39.3,-109.77 -84,-140.83 -44.8,-31.11 -109.5,-9.45 -140.7,31.45 -5.5,7.16 -16.5,6.86 -19.5,-2.55 -12.1,-38.15 -53.7,-68.92 -94.7,-61.78 -39.5,6.88 -69,49.65 -76.4,86.57 -1.6,7.73 -12.7,10.49 -17.9,4.71 -25.6,-28.57 -60.9,-36.52 -98,-31.91 -13.6,1.69 -13.4,-19.69 0,-21.37 42.3,-5.25 84.1,5.8 113.1,38.18 -5.9,1.57 -11.9,3.14 -17.8,4.71 9.3,-46.3 48.4,-96.76 97.9,-102.48 50.7,-5.86 99.4,30.31 114.4,77.69 -6.5,-0.85 -13,-1.7 -19.5,-2.55 35.4,-46.5 107.6,-75.67 162.1,-44.13 53.7,31.17 93.3,98.01 101.6,158.61 -5.2,-2.13 -10.5,-4.25 -15.7,-6.38 46.9,-32.04 107,-9.69 139.6,31.65 37.7,47.77 49.7,115.21 52,174.51 2.4,64.3 -8,128.41 -19.8,191.4 -9.3,50.28 -20.6,100.22 -43.7,146.22 -24,47.54 -61.1,87.64 -113.1,103.62 -13.1,4.05 -18.8,-16.56 -5.6,-20.6 v 0"
         style="fill:#383229;fill-opacity:1;fill-rule:nonzero;stroke:none"
         transform="matrix(0.13333333,0,0,-0.13333333,0,1693.8933)" />
      <path
         id="path117"
         d="m 18021.1,9196.43 c 37.5,159.56 118.4,307.08 232.9,424.34 9.6,9.84 -5.5,24.96 -15.1,15.11 -117,-119.78 -200.1,-270.76 -238.4,-433.77 -3.2,-13.37 17.4,-19.08 20.6,-5.68 v 0"
         style="fill:#383229;fill-opacity:1;fill-rule:nonzero;stroke:none"
         transform="matrix(0.13333333,0,0,-0.13333333,0,1693.8933)" />
      <path
         id="path118"
         d="m 17845.4,9806.35 c -26.6,12.34 -64.9,17.47 -86.6,16.33 -22.9,-1.2 -46.2,-6.91 -59.7,-24.42 -15.3,-19.86 -23.5,-48.65 -27.2,-73.98 -2.3,-16.41 -1.4,-34.55 11.3,-48.72 9.2,-10.33 23,-15.36 35.8,-13.8 10.5,1.29 19.7,7.09 27.5,13.19 15.8,12.24 27.1,29.84 41.2,44.22 7.5,7.67 13.8,11.68 24,15.01 10,3.32 20.5,6.21 28.7,13.37 17.4,15.28 29.2,47.53 5,58.8"
         style="fill:#383229;fill-opacity:1;fill-rule:nonzero;stroke:none"
         transform="matrix(0.13333333,0,0,-0.13333333,0,1693.8933)" />
      <path
         id="path119"
         d="m 17783,9379.98 c 69.5,-47.68 168.6,-47.8 238.3,-0.31 11.3,7.7 0.6,26.21 -10.8,18.44 -63.9,-43.55 -153,-43.41 -216.7,0.32 -11.4,7.79 -22.1,-10.71 -10.8,-18.45 v 0"
         style="fill:#383229;fill-opacity:1;fill-rule:nonzero;stroke:none"
         transform="matrix(0.13333333,0,0,-0.13333333,0,1693.8933)" />
      <path
         id="path120"
         d="m 17836.2,9789.24 c 80,-9.03 160.1,-18.06 240.2,-27.09 13.6,-1.54 13.5,19.84 0,21.36 -80.1,9.03 -160.2,18.06 -240.2,27.09 -13.7,1.54 -13.6,-19.84 0,-21.36 v 0"
         style="fill:#383229;fill-opacity:1;fill-rule:nonzero;stroke:none"
         transform="matrix(0.13333333,0,0,-0.13333333,0,1693.8933)" />
      <path
         id="path121"
         d="m 17793.8,9398.43 c -48.4,33.8 -82,81.34 -94.6,139.2 -10.9,50.2 -6.8,102.61 0.1,153.08 1.8,13.44 -18.8,19.26 -20.6,5.67 -7.6,-55.59 -12.1,-112.57 0.7,-167.78 14.3,-62.01 51.8,-112.42 103.6,-148.62 11.3,-7.89 22,10.62 10.8,18.45 v 0"
         style="fill:#383229;fill-opacity:1;fill-rule:nonzero;stroke:none"
         transform="matrix(0.13333333,0,0,-0.13333333,0,1693.8933)" />
      <path
         id="path122"
         d="m 18092.5,8977.85 c -34.6,-46.98 -59.6,-100.92 -72.5,-157.85 -10.3,-45.84 -21.7,-116.57 36,-135.61 13.1,-4.31 18.7,16.31 5.6,20.6 -49.5,16.36 -25.3,96.57 -15.3,131.56 13.5,47.12 35.6,91.07 64.6,130.52 8.2,11.08 -10.4,21.75 -18.4,10.78 v 0"
         style="fill:#383229;fill-opacity:1;fill-rule:nonzero;stroke:none"
         transform="matrix(0.13333333,0,0,-0.13333333,0,1693.8933)" />
      <path
         id="path123"
         d="m 19251.7,7931.77 c -83.7,132.56 -230.4,213.86 -381.8,243.22 -76.5,14.84 -154.6,16.62 -231.6,4.72 -93.2,-14.39 -185.6,-43.36 -265.2,-94.71 -28.9,-18.61 -88.9,-57.28 -56.1,-98.11 11.8,-14.7 32.3,-21.12 50.6,-18.34 24.5,3.71 43.7,20.92 61.2,37.11 8.2,7.55 -0.4,20.2 -10.4,17.85 -81.9,-19.33 -155.1,-72.99 -196.8,-146.37 -16.9,-29.89 -29.4,-79.09 10.3,-97.39 41.6,-19.16 76.3,17.99 99,47.67 7,9.2 -6.1,18.98 -14.6,14.62 -104.8,-53.7 -159.6,-185.08 -124.2,-297.35 4.1,-13.06 24.7,-7.48 20.6,5.68 -32.7,103.65 17.7,223.7 114.4,273.22 -4.9,4.87 -9.8,9.74 -14.7,14.62 -10.5,-13.73 -21.9,-29.05 -37.8,-36.92 -14,-6.97 -35,-8.01 -44.3,7.06 -16.6,27 14.3,67.96 29.9,88.54 40.3,53.17 99.1,90.73 163.9,106.02 -3.5,5.95 -6.9,11.9 -10.4,17.85 -14.4,-13.32 -31.5,-30.23 -52.3,-31.51 -16.1,-0.99 -36.4,10.06 -30.9,28.78 5.4,18.26 27.3,30.89 42,40.95 17.5,12 35.8,22.88 54.6,32.68 73.5,38.19 156,60.58 238,70.41 137.1,16.43 281.6,-12.73 400.7,-82.61 67.1,-39.33 125.8,-92.53 167.5,-158.48 7.3,-11.59 25.8,-0.88 18.4,10.79 v 0"
         style="fill:#383229;fill-opacity:1;fill-rule:nonzero;stroke:none"
         transform="matrix(0.13333333,0,0,-0.13333333,0,1693.8933)" />
      <path
         id="path124"
         d="m 18192.1,7544.69 c 59.8,-148.44 201.8,-240.77 354.1,-273.9 50.4,-10.95 101.9,-15.89 153.4,-15.93 13.8,-0.01 13.8,21.35 0,21.36 -156.2,0.13 -321.3,49.55 -425.2,172.13 -25.8,30.41 -46.8,65.02 -61.7,102.02 -5.1,12.59 -25.8,7.09 -20.6,-5.68 v 0"
         style="fill:#383229;fill-opacity:1;fill-rule:nonzero;stroke:none"
         transform="matrix(0.13333333,0,0,-0.13333333,0,1693.8933)" />
      <path
         id="path125"
         d="m 16742.7,7294.78 -1900,-283.74 c -19.7,-2.95 -38.1,10.65 -41,30.35 v 0 c -3,19.71 10.6,38.08 30.3,41.02 l 1900,283.74 c 19.7,2.94 38.1,-10.65 41,-30.36 v 0 c 3,-19.71 -10.6,-38.07 -30.3,-41.01"
         style="fill:#e8d6ce;fill-opacity:1;fill-rule:nonzero;stroke:none"
         transform="matrix(0.13333333,0,0,-0.13333333,0,1693.8933)" />
      <path
         id="path126"
         d="m 15624.5,9268.09 -753.8,-2236.14 c -6.4,-18.88 -26.9,-29.03 -45.8,-22.67 v 0 c -18.8,6.37 -29,26.84 -22.6,45.72 l 753.8,2236.15 c 6.4,18.88 26.9,29.02 45.8,22.66 v 0 c 18.8,-6.37 29,-26.84 22.6,-45.72"
         style="fill:#e8d6ce;fill-opacity:1;fill-rule:nonzero;stroke:none"
         transform="matrix(0.13333333,0,0,-0.13333333,0,1693.8933)" />
      <path
         id="path127"
         d="m 14865.3,7010.68 c 28.5,13.99 43.8,46.78 38.9,77.62 -0.9,5.53 -8.1,9.1 -13.2,7.46 -6,-1.94 -8.4,-7.21 -7.4,-13.14 0.4,-2.93 -0.1,1.32 0,-0.39 0.1,-0.77 0.2,-1.54 0.2,-2.31 0.1,-1.54 0.2,-3.09 0.2,-4.63 -0.1,-1.55 -0.2,-3.09 -0.3,-4.63 0,-0.29 -0.4,-2.83 -0.1,-1.34 0.2,1.48 -0.2,-1.05 -0.3,-1.33 -0.5,-3.05 -1.3,-6.04 -2.3,-8.98 -0.3,-0.73 -0.5,-1.46 -0.8,-2.18 -0.2,-0.42 -1.1,-2.39 -0.2,-0.47 -0.6,-1.4 -1.3,-2.81 -2,-4.18 -1.5,-2.75 -3.1,-5.36 -4.9,-7.9 -0.6,-0.77 -0.7,-0.85 0,-0.05 -0.6,-0.73 -1.2,-1.44 -1.8,-2.15 -0.9,-1.05 -1.9,-2.07 -2.8,-3.06 -1.1,-1.1 -2.3,-2.15 -3.4,-3.16 -0.6,-0.51 -1.2,-0.99 -1.8,-1.49 1.6,1.32 -0.1,-0.03 -0.4,-0.28 -2.7,-1.9 -5.5,-3.53 -8.4,-4.97 -5.1,-2.46 -6.8,-10.01 -3.9,-14.61 3.4,-5.15 9.3,-6.47 14.7,-3.83 v 0"
         style="fill:#383229;fill-opacity:1;fill-rule:nonzero;stroke:none"
         transform="matrix(0.13333333,0,0,-0.13333333,0,1693.8933)" />
      <path
         id="path128"
         d="m 17444,9064.79 c -106.8,1067.21 -555.5,1950.71 -1040.1,2102.41 l -15.7,23.1 -133.1,-0.1 c -535.9,-3.3 -875.1,-953.4 -757.9,-2125.17 117.5,-1173.82 648.5,-2125.44 1186.1,-2125.51 0.5,0 133.9,0.04 133.9,0.04 v 20.69 c 458.7,144.39 734.2,1031.5 626.8,2104.54"
         style="fill:#383229;fill-opacity:1;fill-rule:nonzero;stroke:none"
         transform="matrix(0.13333333,0,0,-0.13333333,0,1693.8933)" />
      <path
         id="path129"
         d="m 17576,9064.79 c 117.4,-1173.82 -223.1,-2125.33 -760.7,-2125.27 -537.6,0.07 -1068.7,951.69 -1186.1,2125.51 -117.5,1173.87 223.1,2125.37 760.7,2125.27 537.6,-0.1 1068.6,-951.7 1186.1,-2125.51"
         style="fill:#ffffff;fill-opacity:1;fill-rule:nonzero;stroke:none"
         transform="matrix(0.13333333,0,0,-0.13333333,0,1693.8933)" />
      <path
         id="path130"
         d="m 16214.5,11155.3 c 133.6,31.8 273.3,18.5 395.8,-43.7 122.1,-61.9 223.8,-158.9 310.1,-263.7 109.8,-133.1 197.8,-283.9 272.3,-439.2 88.6,-184.9 158,-379 213.1,-576.41 122.9,-440.41 178.9,-903.07 163.7,-1360.09 -6.8,-204.38 -28.5,-408.82 -72,-608.79 -35.9,-165.42 -86.4,-329.48 -162.8,-481 -58.9,-116.86 -134.4,-229.35 -236.9,-312.42 -86.3,-69.95 -187.4,-108.76 -298.4,-110.91 -54.1,-1.05 -108.3,0.14 -162.3,4.48 -13.7,1.11 -13.6,-20.26 0,-21.36 79.2,-6.38 163.6,-11.46 242.6,2.08 54.8,9.39 107.5,29.4 155.6,56.99 109.6,62.81 194.5,162.17 260.7,268.22 85.4,137.04 143.7,290.45 186.9,445.55 53.6,192.68 83.8,391.72 98.9,590.95 35.2,463.53 -8.7,936.19 -117.9,1387.68 -50.5,209.22 -116.4,415.13 -201.5,612.93 -72.1,167.5 -158.2,330.5 -266,478 -150.4,205.6 -361.2,406.4 -631.4,408.4 -52.5,0.4 -105.1,-4.9 -156.2,-17.1 -13.4,-3.2 -7.7,-23.8 5.7,-20.6 v 0"
         style="fill:#383229;fill-opacity:1;fill-rule:nonzero;stroke:none"
         transform="matrix(0.13333333,0,0,-0.13333333,0,1693.8933)" />
      <path
         id="path131"
         d="m 16964.6,9275.64 c 1.5,-20.75 3.7,-41.5 7.4,-61.99 2.9,-16.32 7.3,-33.3 16.6,-47.24 30.9,-46.19 119.3,-55.57 150.2,-3.58 18.2,30.55 4.4,65.98 -17.2,90.4 11.3,7.49 21.4,16.94 29.5,28.41 20.5,29.14 18.5,69.14 -8,93.9 -28.2,26.33 -67.9,28.07 -101.9,12.63 -34.5,-15.65 -58,-46.39 -77.1,-77.9 -5.1,-8.5 -2.4,-17.66 3.6,-23.62 -2.1,-3.29 -3.3,-7.02 -3.1,-11.01"
         style="fill:#ffffff;fill-opacity:1;fill-rule:nonzero;stroke:none"
         transform="matrix(0.13333333,0,0,-0.13333333,0,1693.8933)" />
      <path
         id="path132"
         d="m 17005,9149.36 c 28.7,-35.94 86.9,-42.1 122.2,-12.25 36.7,31.02 37.7,90.67 5.5,125 -1.6,-5.95 -3.2,-11.9 -4.7,-17.85 48.2,16.24 76,74.9 54.2,121.97 -21.3,45.83 -83,63.07 -126,38.26 -11.9,-6.87 -1.1,-25.33 10.8,-18.44 32.1,18.52 78.6,5.98 95.4,-27.79 17.3,-34.82 -4,-81.24 -40.1,-93.4 -7.7,-2.59 -10.4,-11.79 -4.7,-17.86 24.3,-25.9 22.9,-72.42 -5.7,-94.91 -27.8,-21.9 -70.4,-14.46 -91.8,12.38 -8.6,10.72 -23.6,-4.48 -15.1,-15.11 v 0"
         style="fill:#383229;fill-opacity:1;fill-rule:nonzero;stroke:none"
         transform="matrix(0.13333333,0,0,-0.13333333,0,1693.8933)" />
      <path
         id="path133"
         d="m 17033.5,9262.17 c 13.1,6.18 29.5,7.94 43.3,5.48 7.2,-1.29 14.1,-3.38 20,-6.49 1.7,-0.93 3.5,-1.94 5.1,-3.04 1.2,-0.8 2.8,-1.93 3.1,-2.16 1.3,-1.09 2.6,-2.26 3.8,-3.49 0.5,-0.54 1.1,-1.09 1.6,-1.66 -0.1,0.05 2.1,-2.47 1.2,-1.34 3.5,-4.58 9.2,-7 14.6,-3.83 4.5,2.63 7.4,10 3.8,14.61 -24.5,32.2 -72.3,36.85 -107.3,20.36 -5.2,-2.45 -6.5,-9.94 -3.8,-14.61 3.1,-5.34 9.4,-6.3 14.6,-3.83 v 0"
         style="fill:#383229;fill-opacity:1;fill-rule:nonzero;stroke:none"
         transform="matrix(0.13333333,0,0,-0.13333333,0,1693.8933)" />
      <path
         id="path134"
         d="m 16673.2,8804.86 c 24.2,105 38.9,275.04 22.8,350.33 -224.5,-122.18 -395.1,-128.48 -634.8,-36.84 -60.4,-94.63 -238.3,-148.17 -318.3,-226.97 -89.3,-88.05 0.7,-306.33 27,-328.44 143.3,-128.49 320.7,-199.09 506.4,-221.84 -0.6,-43.04 -0.9,-86.19 -0.7,-129.24 0.7,-133.83 4.3,-267.66 12.6,-401.27 14.2,-226.65 42.7,-453.19 97.2,-673.75 85.9,-79.25 175.2,-136.5 266,-168.22 -4,39.73 -10,79.36 -14.8,118.66 -7,56.61 -13.6,113.33 -19.7,170.04 -12.1,112.58 -22.7,225.37 -31.2,338.26 -16.9,224.94 -26.4,450.31 -29.2,675.88 -1.1,88.65 -1.6,135.22 -0.6,223.87 58.7,109.8 95.5,215.11 117.3,309.53"
         style="fill:#e0865c;fill-opacity:1;fill-rule:nonzero;stroke:none"
         transform="matrix(0.13333333,0,0,-0.13333333,0,1693.8933)" />
      <path
         id="path135"
         d="m 16132.5,9106.72 c -0.7,12.07 -10,23.18 -22.8,23.88 -42.9,2.35 -88.1,-9.54 -129.2,-21.06 -37.4,-10.49 -88.5,-28.07 -102.3,-69.16 -15.6,-46.72 29.9,-84.24 71.2,-91.36 42,-7.26 84.1,14.33 117.5,37.66 18.3,12.81 36.7,29 47.3,48.9 8.6,16.07 10.5,33.13 5.4,48.52 8.1,4.59 13.6,12.18 12.9,22.62"
         style="fill:#e0865c;fill-opacity:1;fill-rule:nonzero;stroke:none"
         transform="matrix(0.13333333,0,0,-0.13333333,0,1693.8933)" />
      <path
         id="path136"
         d="m 16556.3,8612.82 c -133.5,-524.53 -75.6,-1240.79 -158.3,-1487.41 -330.7,295.54 -612.5,915.56 -731.8,1656.17 l 141.2,109.8 748.9,-278.56"
         style="fill:#e0865c;fill-opacity:1;fill-rule:nonzero;stroke:none"
         transform="matrix(0.13333333,0,0,-0.13333333,0,1693.8933)" />
      <path
         id="path137"
         d="m 16447.7,8291.6 c -53.5,53.77 -139.5,19.3 -190.4,-19.93 -63.2,-48.64 -94.1,-132.93 -111,-208.33 -17.1,-76.28 -19.8,-155.77 -7.8,-233.02 8.8,-56.03 24.9,-138.84 96.9,-140.13 35.7,-0.64 57.2,24.45 73.1,53.15 15.3,27.74 29,56.23 40.1,85.97 7.8,21.13 14.3,42.75 19.8,64.64 19,-9.1 41.2,-10.86 61.8,-1.76 31.3,13.85 52,45 63.4,76.27 13.6,37.19 21.6,78.74 23.5,118.25 3.6,73.29 -16.4,151.61 -69.4,204.89"
         style="fill:#ffffff;fill-opacity:1;fill-rule:nonzero;stroke:none"
         transform="matrix(0.13333333,0,0,-0.13333333,0,1693.8933)" />
      <path
         id="path138"
         d="m 16216.2,8211.22 c 1.4,32.59 0.5,65.25 -1.4,97.95 -22.3,20.89 -48.1,38.45 -76.8,51.56 -48.4,22.13 -139.6,42.1 -197.6,15.66 -0.5,-188.59 4.6,-377.45 10.1,-565.8 l 0.6,-20.19 c 93.2,-209.98 200.7,-389.74 316.9,-529.24 -4.6,83.32 -4.8,167.08 -13.6,250.04 -28.8,268.75 -50.9,407.41 -38.2,700.02"
         style="fill:#e0865c;fill-opacity:1;fill-rule:nonzero;stroke:none"
         transform="matrix(0.13333333,0,0,-0.13333333,0,1693.8933)" />
      <path
         id="path139"
         d="m 16229.5,8245.51 c -5.9,121.39 -79.9,229.72 -185.8,287.34 -12,6.57 -22.8,-11.87 -10.7,-18.45 99,-53.94 169.6,-154.91 175.1,-268.89 0.7,-13.69 22.1,-13.77 21.4,0 v 0"
         style="fill:#383229;fill-opacity:1;fill-rule:nonzero;stroke:none"
         transform="matrix(0.13333333,0,0,-0.13333333,0,1693.8933)" />
      <path
         id="path140"
         d="m 17142,9576.77 c 0.8,-43.05 -4.5,-86.2 -18.9,-127 -26.9,-76.37 -85.2,-133.3 -163,-156.48 -29.6,-8.75 -60.2,-12.81 -91.1,-13.45 6.9,-2.99 13.6,-5.98 20.4,-8.97 22.9,-10.36 46,-20.51 68.6,-31.3 18.3,-8.65 36.8,-19.97 44.4,-39.84 8.9,-22.64 -1,-47.42 -19.3,-62.27 -17,-13.67 -38.5,-18.26 -59.9,-18.8 -46.5,-1.38 -94.1,5.88 -139.4,15.71 -26.1,5.76 -51.8,12.49 -77.1,20.82 -0.1,0 -0.2,0 -0.2,0.11 1.2,-6.3 -24.6,-41.87 -23.4,-48.17 -215.2,-138 -382.6,-171.19 -628.3,-96.85 19.7,36.1 38.8,72.63 57.5,109.26 -2.8,74.66 -80.1,201.74 -68.5,275.33 6.4,40.8 14.9,81.28 25.1,121.23 8.6,32.9 19.6,64.83 37.1,94.1 19.2,32.04 46.8,54.9 79.6,72.2 36.5,19.12 74.3,35.99 111.5,53.83 72.9,35.03 146.6,65.05 229.3,58.1 63.3,-5.34 126.6,-32.57 169.1,-79.78 0.3,-0.32 0.7,-0.75 1,-1.18 61.1,7.37 122.4,12.82 183.4,19.44 46.8,5.13 93.6,10.15 140.5,15.27 20.5,2.25 41.2,4.49 61.3,-2.02 19.3,-6.41 34.2,-22.22 42.1,-40.7 8.1,-18.58 10.7,-39.41 13.2,-59.28 3,-23.07 4.6,-46.14 5,-69.31"
         style="fill:#e0865c;fill-opacity:1;fill-rule:nonzero;stroke:none"
         transform="matrix(0.13333333,0,0,-0.13333333,0,1693.8933)" />
      <path
         id="path141"
         d="m 16543.5,9533.04 c -0.8,16.29 9.8,32.5 25.8,36.86 4.2,1.13 6.4,1.29 11.2,1 0,0 3.5,-0.4 1.8,-0.15 1.2,-0.17 2.3,-0.42 3.5,-0.69 2.3,-0.54 4.6,-1.22 6.7,-2.13 -1.1,0.48 0.9,-0.47 1.3,-0.62 1,-0.53 2,-1.09 3.1,-1.69 1.9,-1.12 3,-1.87 4.1,-2.75 3.8,-3.18 5.8,-5.65 8.1,-9.46 7,-11.82 25.5,-1.08 18.5,10.78 -12.8,21.44 -39.7,32.85 -64,26.31 -24.8,-6.71 -42.7,-31.86 -41.5,-57.46 0.3,-5.76 4.7,-10.68 10.7,-10.68 5.5,0 10.9,4.89 10.7,10.68 v 0"
         style="fill:#383229;fill-opacity:1;fill-rule:nonzero;stroke:none"
         transform="matrix(0.13333333,0,0,-0.13333333,0,1693.8933)" />
      <path
         id="path142"
         d="m 16643.3,8801.08 c -8.1,2.8 -15.3,8.19 -21.2,14.88 -112.6,-2.58 -247.8,-27.37 -313,68.27 -20.4,-19.29 -39.6,-40.02 -56.7,-62.19 -31.6,-40.99 -59.6,-91.72 -50.4,-145.4 9.3,-54.73 52.1,-91.45 107.2,-95.29 2.2,-0.16 4.5,-0.2 6.7,-0.29 -35.2,-50.39 -62.8,-105.47 -78.5,-165.05 -15.1,-57.06 -18.6,-122.95 0.9,-179.45 9.9,-28.66 30.6,-55.35 60.1,-65.35 30.7,-10.4 61.3,-1.06 84.8,20.31 10.2,9.33 19.2,20.09 27.5,31.51 9.8,-41.77 27,-96.91 71,-110.56 53.8,-16.71 91.2,38.27 110.2,80.12 20.4,45.06 29.2,94.67 35.1,143.46 1.8,14.93 3.7,30.08 5.3,45.29 10.3,-2.81 21.1,-3.35 32,-0.74 21.4,5.16 46.1,16.86 62.1,54.25 23.4,54.64 9.1,203.34 -41,312.47 -11.7,25.45 -53,35.55 -42.1,53.76"
         style="fill:#ffffff;fill-opacity:1;fill-rule:nonzero;stroke:none"
         transform="matrix(0.13333333,0,0,-0.13333333,0,1693.8933)" />
      <path
         id="path143"
         d="m 16512.5,8099.91 c 49.3,17.43 81.1,67.33 101.3,113 22.5,50.95 37.5,109.65 31.3,165.67 -4.5,-3.43 -9,-6.86 -13.5,-10.3 34.3,-10.69 70,6.83 90.1,34.97 22.1,30.78 27.8,71.73 29.1,108.69 2.7,79.88 -19.3,161.51 -54.7,232.7 -6.1,12.31 -24.5,1.51 -18.4,-10.78 30.6,-61.75 49.9,-131.35 51.8,-200.44 0.8,-32.73 -1.5,-67.99 -14.4,-98.46 -12.9,-30.17 -43.2,-56.87 -77.8,-46.08 -6.1,1.89 -14.3,-3.43 -13.6,-10.3 5.7,-51.04 -6.9,-104.41 -26.8,-151.24 -17.4,-40.97 -45.5,-91.07 -90.1,-106.83 -12.9,-4.55 -7.4,-25.19 5.7,-20.6 v 0"
         style="fill:#383229;fill-opacity:1;fill-rule:nonzero;stroke:none"
         transform="matrix(0.13333333,0,0,-0.13333333,0,1693.8933)" />
      <path
         id="path144"
         d="m 16386,8395.21 c -24.9,-36.22 -36.6,-81.51 -30.3,-125.21 2.3,-16.02 8.2,-33.82 22.6,-43.03 19.5,-12.52 41.3,-2.9 59.2,7.66 -5.2,4.02 -10.5,8.04 -15.7,12.06 -5.4,-37.62 -10.6,-78.35 9.5,-112.8 16.3,-27.83 49.5,-44.99 81.2,-33.98 12.9,4.49 7.3,25.13 -5.7,20.6 -26.4,-9.18 -50.8,8.28 -61.1,32.25 -11.9,27.79 -7.5,59.28 -3.3,88.25 1.2,8.7 -6.9,17.24 -15.7,12.07 -13.9,-8.2 -33.2,-18.34 -43.8,-0.22 -7.1,12.24 -7.6,28.19 -7.5,41.95 0.3,32.27 10.8,63.13 29,89.62 7.8,11.36 -10.7,22.05 -18.4,10.78 v 0"
         style="fill:#383229;fill-opacity:1;fill-rule:nonzero;stroke:none"
         transform="matrix(0.13333333,0,0,-0.13333333,0,1693.8933)" />
      <path
         id="path145"
         d="m 15980.5,9109.54 c 0,0 108,-444.46 704.9,-362.22 0,0 17.7,20.56 21.6,75.59 6.6,95.69 -12.8,108.87 -12.8,108.87 0,0 -380.2,-93.44 -620.5,223.41 l -93.2,-45.65"
         style="fill:#4b79f7;fill-opacity:1;fill-rule:nonzero;stroke:none"
         transform="matrix(0.13333333,0,0,-0.13333333,0,1693.8933)" />
      <path
         id="path146"
         d="m 16579.1,8690.42 c 1.2,-1.56 -1.1,1.56 -1.3,1.87 -0.8,1.11 -1.5,2.25 -2.1,3.42 -0.7,1.17 -1.3,2.37 -1.9,3.57 -0.5,1.14 -0.6,1.21 -0.1,0.2 -0.3,0.62 -0.5,1.25 -0.8,1.88 -0.9,2.51 -1.6,5.09 -2.2,7.71 -0.2,0.99 -0.4,1.98 -0.5,2.97 0.3,-2.3 -0.1,1.74 -0.1,2.16 -0.1,1.36 -0.1,2.74 -0.1,4.1 0,0.4 0.4,4.48 0.1,2.38 0.2,1.37 0.5,2.75 0.9,4.07 0.2,0.67 0.4,1.33 0.6,1.98 -0.4,-0.96 -0.3,-0.86 0.2,0.29 0.5,0.76 0.9,1.52 1.4,2.26 -1.3,-2.03 0.9,0.78 1.2,1.17 1,0.79 0.9,0.79 -0.1,0 0.5,0.33 1,0.64 1.5,0.93 1.1,0.54 1,0.55 -0.2,0.03 0.6,0.2 1.1,0.37 1.7,0.52 1.2,0.24 1.1,0.25 -0.3,0.02 0.6,0.04 1.2,0.04 1.8,0.01 1.2,-0.1 1.1,-0.09 -0.3,0.04 0.6,-0.12 1.1,-0.27 1.7,-0.45 1.1,-0.41 1.1,-0.38 -0.2,0.09 0.4,-0.19 0.8,-0.4 1.2,-0.62 0.6,-0.32 2.7,-2.23 1.1,-0.64 0.8,-0.83 1.7,-1.62 2.4,-2.56 -1.5,1.97 0.6,-1.23 0.8,-1.64 -0.9,1.81 0.5,-1.56 0.7,-2.07 0.1,-0.64 0.3,-1.28 0.4,-1.92 -0.1,1.21 -0.1,1.17 0,-0.11 0.1,-2.34 0.2,-4.67 -0.1,-6.99 0.3,2.31 -0.5,-1.67 -0.6,-2.07 -0.3,-1.42 -0.8,-2.8 -1.2,-4.17 -0.3,-0.69 -0.5,-1.37 -0.8,-2.05 -0.5,-1.19 -0.5,-1.34 -0.1,-0.46 -0.6,-1.34 -1.3,-2.65 -1.9,-3.95 -1.3,-2.62 -2.7,-5.18 -4.1,-7.74 -2.6,-4.91 -1.3,-11.86 3.9,-14.61 5,-2.64 11.7,-1.42 14.6,3.83 5.8,10.73 11.3,21.79 11.8,34.22 0.4,12.24 -4.9,24.25 -15.4,30.92 -10.8,6.89 -24.6,5.07 -33.7,-3.76 -8.7,-8.44 -11.3,-21.39 -10.2,-33.06 1.3,-13.8 6.5,-26.09 15.2,-36.87 3.5,-4.38 11.5,-3.94 15.1,0 4.3,4.64 3.7,10.43 0,15.1 v 0"
         style="fill:#383229;fill-opacity:1;fill-rule:nonzero;stroke:none"
         transform="matrix(0.13333333,0,0,-0.13333333,0,1693.8933)" />
      <path
         id="path147"
         d="m 16426.6,9613.03 c -30.6,42.03 -70.4,76.23 -121.5,97.13 -176.8,72.08 -320.7,-198.7 -335.4,-331.43 -6.3,-57.87 -1.1,-116.85 15.6,-173.47 16.6,-56.09 48.7,-123.88 110.7,-140.35 23.7,-6.28 43.8,-2.51 60.8,7.29 13.8,-29.53 32.3,-56.8 56.2,-78.68 27.5,-25.13 66.1,-34.28 99.2,-18.35 31,14.94 52.5,44.56 65.8,75.62 11.1,25.62 18.3,53.37 22.3,81.94 6.6,-5.54 13.9,-10.26 21.9,-13.73 32.7,-14.23 65.7,0.11 80.5,30.3 12.7,25.95 12.2,58.26 13.6,86.82 5.9,117.36 -13,271.68 -89.7,376.91"
         style="fill:#e0865c;fill-opacity:1;fill-rule:nonzero;stroke:none"
         transform="matrix(0.13333333,0,0,-0.13333333,0,1693.8933)" />
      <path
         id="path148"
         d="m 16406.1,9117.27 c 28.4,-12.84 59.6,-7.02 84.2,11.25 28.3,20.98 41.5,53.59 45.8,87.72 4.7,37.67 0.4,76.6 -4.7,114.02 -5.4,40.16 -13.9,79.86 -25.9,118.6 -13.6,44.11 -31.6,86.8 -53.7,127.32 -6.6,12.07 -25.1,1.31 -18.5,-10.78 43.3,-79.28 69.7,-167.18 79.4,-256.91 4.5,-40.9 9.4,-86.98 -6.8,-126.02 -13.6,-32.7 -52.5,-63.31 -89,-46.76 -12.4,5.64 -23.3,-12.77 -10.8,-18.44 v 0"
         style="fill:#383229;fill-opacity:1;fill-rule:nonzero;stroke:none"
         transform="matrix(0.13333333,0,0,-0.13333333,0,1693.8933)" />
      <path
         id="path149"
         d="m 16014.4,9118.91 c 11.3,-28.16 35.2,-53.68 63.3,-65.64 30.1,-12.81 66.4,-8.06 93.2,10.1 11.4,7.66 0.7,26.18 -10.7,18.45 -21.1,-14.27 -49.5,-19.32 -73.5,-9.33 -21.9,9.08 -42.9,30.1 -51.7,52.1 -2.1,5.33 -7.1,9.14 -13.1,7.46 -5.1,-1.42 -9.6,-7.73 -7.5,-13.14 v 0"
         style="fill:#383229;fill-opacity:1;fill-rule:nonzero;stroke:none"
         transform="matrix(0.13333333,0,0,-0.13333333,0,1693.8933)" />
      <path
         id="path150"
         d="m 16155.2,9069.76 c 9.1,-33.75 26.9,-67.38 54.6,-89.44 28.5,-22.69 64.4,-23.37 98.5,-13.7 67.6,19.22 110,92.87 113.9,159.87 0.8,13.73 -20.6,13.69 -21.4,0 -3.2,-55.87 -38.4,-120.2 -94.3,-138.1 -28.4,-9.1 -60.2,-10.59 -84.3,9.21 -23.6,19.5 -38.6,48.65 -46.4,77.84 -3.5,13.26 -24.1,7.63 -20.6,-5.68 v 0"
         style="fill:#383229;fill-opacity:1;fill-rule:nonzero;stroke:none"
         transform="matrix(0.13333333,0,0,-0.13333333,0,1693.8933)" />
      <path
         id="path151"
         d="m 16225.5,7679.97 c 6.9,-67.55 15.9,-134.86 22.5,-202.44 7.1,-71.5 14.4,-144.48 9.3,-216.37 -0.9,-13.71 20.5,-13.65 21.4,0 5,71.89 -2.3,144.87 -9.3,216.37 -6.7,67.58 -15.7,134.89 -22.6,202.44 -1.3,13.54 -22.7,13.68 -21.3,0 v 0"
         style="fill:#383229;fill-opacity:1;fill-rule:nonzero;stroke:none"
         transform="matrix(0.13333333,0,0,-0.13333333,0,1693.8933)" />
      <path
         id="path152"
         d="m 16665.5,8564.28 c -3.3,-68.72 -48.5,-122.36 -100.8,-119.82 -52.4,2.54 -92.1,60.3 -88.8,129 3.4,68.72 48.5,122.36 100.8,119.82 52.4,-2.54 92.1,-60.29 88.8,-129"
         style="fill:#ffd754;fill-opacity:1;fill-rule:nonzero;stroke:none"
         transform="matrix(0.13333333,0,0,-0.13333333,0,1693.8933)" />
      <path
         id="path153"
         d="m 15938.8,10224.8 c 150.1,212.3 300.2,424.6 450.3,636.9 42.5,60.1 85,120.3 127.5,180.4 7.9,11.3 -10.6,22 -18.5,10.8 -150,-212.3 -300.1,-424.6 -450.2,-636.9 -42.5,-60.1 -85,-120.3 -127.5,-180.4 -8,-11.3 10.5,-21.9 18.4,-10.8 v 0"
         style="fill:#4b79f7;fill-opacity:1;fill-rule:nonzero;stroke:none"
         transform="matrix(0.13333333,0,0,-0.13333333,0,1693.8933)" />
      <path
         id="path154"
         d="m 15944.1,9831.02 c 120,169.78 240,339.58 360,509.28 33.9,47.9 67.7,95.8 101.6,143.7 7.9,11.2 -10.6,21.9 -18.4,10.8 -120.1,-169.8 -240.1,-339.6 -360.1,-509.34 -33.8,-47.89 -67.7,-95.77 -101.5,-143.66 -8,-11.24 10.5,-21.92 18.4,-10.78 v 0"
         style="fill:#4b79f7;fill-opacity:1;fill-rule:nonzero;stroke:none"
         transform="matrix(0.13333333,0,0,-0.13333333,0,1693.8933)" />
      <path
         id="path155"
         d="m 16565.5,7293.47 c 143.9,232.73 287.9,465.46 431.8,698.2 41.1,66.49 82.2,132.99 123.3,199.48 7.3,11.72 -11.2,22.47 -18.4,10.78 -143.9,-232.73 -287.8,-465.46 -431.8,-698.19 -41.1,-66.5 -82.2,-132.99 -123.3,-199.48 -7.3,-11.73 11.2,-22.47 18.4,-10.79 v 0"
         style="fill:#4b79f7;fill-opacity:1;fill-rule:nonzero;stroke:none"
         transform="matrix(0.13333333,0,0,-0.13333333,0,1693.8933)" />
      <path
         id="path156"
         d="m 16651.4,6977.19 c 78.8,127.46 157.6,254.93 236.4,382.4 4.7,7.56 9.4,15.11 14.1,22.67 7.2,11.73 -11.3,22.47 -18.5,10.78 -51.1,-82.72 -102.3,-165.45 -153.4,-248.17 -32.4,-52.3 -64.7,-104.6 -97.1,-156.9 -7.2,-11.73 11.3,-22.47 18.5,-10.78 v 0"
         style="fill:#4b79f7;fill-opacity:1;fill-rule:nonzero;stroke:none"
         transform="matrix(0.13333333,0,0,-0.13333333,0,1693.8933)" />
      <path
         id="path157"
         d="m 16504.6,8597.54 c -4.6,-34.16 -3.3,-71.14 14.4,-101.71 15.1,-26.15 41.2,-45.24 71.7,-47.6 13.7,-1.07 13.6,20.3 0,21.36 -24.3,1.88 -44.3,19.74 -55.2,40.58 -14,26.58 -13.4,58.41 -9.6,87.37 0.8,5.73 -5.4,10.68 -10.7,10.68 -6.4,0 -9.9,-4.94 -10.6,-10.68 v 0"
         style="fill:#383229;fill-opacity:1;fill-rule:nonzero;stroke:none"
         transform="matrix(0.13333333,0,0,-0.13333333,0,1693.8933)" />
      <path
         id="path158"
         d="m 16863.9,9344.69 c -42.4,-30.11 -137.9,-45.49 -167.2,-49.63 -27.8,19.75 -58.5,35.8 -93.2,38.09 -41.2,2.73 -81.5,-14.47 -100.4,-52.65 -17.8,-35.91 -4.3,-78.05 28.2,-100.2 12.8,-8.72 26.9,-14.57 41.6,-17.92 -13,-33.67 -13.4,-75.63 17.2,-100.16 52.2,-41.75 140,2.32 154,62.08 4.2,18.04 2.1,37.3 -1.2,55.32 -0.7,3.53 -1.6,7.01 -2.3,10.53 36.6,18.28 116.7,51.81 225.9,56.31 36.7,1.51 -102.6,98.23 -102.6,98.23"
         style="fill:#ffffff;fill-opacity:1;fill-rule:nonzero;stroke:none"
         transform="matrix(0.13333333,0,0,-0.13333333,0,1693.8933)" />
      <path
         id="path159"
         d="m 16717,9050.47 c 27.6,18.72 44.3,50.57 46.9,83.52 0.5,5.76 -5.2,10.68 -10.7,10.68 -6.1,0 -10.2,-4.9 -10.7,-10.68 -0.9,-12.53 -5.4,-26.38 -11.9,-37.75 -1.7,-2.99 -3.5,-5.89 -5.6,-8.69 -1.7,-2.41 -2.8,-3.79 -5.3,-6.6 -2.2,-2.43 -4.5,-4.74 -6.9,-6.92 -1.2,-1.06 -2.4,-2.1 -3.7,-3.09 0.9,0.69 0.1,0.08 -0.3,-0.24 -0.9,-0.6 -1.7,-1.2 -2.6,-1.78 -4.8,-3.23 -6.9,-9.4 -3.8,-14.62 2.7,-4.73 9.8,-7.08 14.6,-3.83 v 0"
         style="fill:#383229;fill-opacity:1;fill-rule:nonzero;stroke:none"
         transform="matrix(0.13333333,0,0,-0.13333333,0,1693.8933)" />
      <path
         id="path160"
         d="m 17137,9646.08 c -2.5,19.87 -5.1,40.7 -13.2,59.28 -7.9,18.48 -22.8,34.29 -42.1,40.7 -20.1,6.51 -40.8,4.27 -61.3,2.02 -46.9,-5.12 -93.7,-10.14 -140.5,-15.27 -61,-6.62 -122.3,-12.07 -183.4,-19.44 -0.3,0.43 -0.7,0.86 -1,1.18 -11.6,-21.26 -18.9,-44.86 -24.5,-68.36 -13,-55.75 -11.2,-114.61 4.5,-169.61 30.2,-106.17 82.4,-187.02 193.5,-196.74 30.9,0.64 61.5,4.7 91.1,13.45 77.8,23.18 136.1,80.11 163,156.48 14.4,40.8 19.7,83.95 18.9,127 -0.4,23.17 -2,46.24 -5,69.31"
         style="fill:#ffffff;fill-opacity:1;fill-rule:nonzero;stroke:none"
         transform="matrix(0.13333333,0,0,-0.13333333,0,1693.8933)" />
      <path
         id="path161"
         d="m 17152.4,9670.12 c -2.5,20.95 -12.4,46.04 -23.6,60.76 -38.7,50.6 -108.7,38.32 -158.9,29.73 -0.1,-0.02 -0.1,-0.03 -0.2,-0.04 -10,-1.73 -15.4,-13.72 -10.9,-23.43 4.8,-10.53 11,-20.44 20.3,-26.79 19.3,-13.16 43.8,-10.72 48.1,-17.54 27.7,-43.91 71.8,-61.04 105.7,-65.87 21.4,-3.04 22.6,16.71 19.5,43.18"
         style="fill:#383229;fill-opacity:1;fill-rule:nonzero;stroke:none"
         transform="matrix(0.13333333,0,0,-0.13333333,0,1693.8933)" />
      <path
         id="path162"
         d="m 16706.5,9367.59 c 39.9,-60.43 111.5,-110.01 186.9,-103.28 64.8,5.8 131.3,30.04 175.7,79.23 27.4,30.37 44.2,68.76 57.8,106.89 15,41.93 25.5,85.87 29.3,130.29 3.4,40.89 -0.1,85.44 -19.4,122.39 -19.9,38.06 -58.6,54.65 -99.7,57.46 -50.6,3.45 -102.4,-9.57 -152.3,-15.84 -61.7,-7.74 -123.5,-14.65 -185,-23.82 -13.5,-2.03 -7.8,-22.61 5.7,-20.6 50,7.45 100.2,13.39 150.3,19.5 44,5.34 87.8,12.89 131.8,17.75 36.1,4 79.1,5.35 109.2,-18.48 31.2,-24.69 38.9,-71.74 39.2,-109.3 0.3,-40.62 -7.6,-81.16 -18.8,-120.06 -10.5,-36.39 -24,-73.51 -44.2,-105.76 -34.9,-55.84 -96.3,-85.18 -159.6,-95.65 -75.9,-12.57 -146.8,26.99 -188.4,90.06 -7.6,11.42 -26.1,0.73 -18.5,-10.78 v 0"
         style="fill:#383229;fill-opacity:1;fill-rule:nonzero;stroke:none"
         transform="matrix(0.13333333,0,0,-0.13333333,0,1693.8933)" />
      <path
         id="path163"
         d="m 16582.1,9151.99 c 28.2,-0.11 57.2,6.4 82.3,19.51 5.1,2.67 6.6,9.8 3.8,14.62 -3,5.18 -9.5,6.51 -14.6,3.82 -21.3,-11.15 -47,-16.69 -71.5,-16.59 -5.8,0.02 -10.7,-4.92 -10.7,-10.68 0,-5.81 4.9,-10.66 10.7,-10.68 v 0"
         style="fill:#383229;fill-opacity:1;fill-rule:nonzero;stroke:none"
         transform="matrix(0.13333333,0,0,-0.13333333,0,1693.8933)" />
    </g>
  </g>
</svg>
