<?xml version="1.0" encoding="UTF-8" standalone="no"?>
<!-- Created with Inkscape (http://www.inkscape.org/) -->

<svg
   version="1.1"
   id="svg1"
   width="626.42993"
   height="373.07755"
   viewBox="0 0 626.42993 373.07753"
   sodipodi:docname="2176086815-vector.eps"
   xmlns:inkscape="http://www.inkscape.org/namespaces/inkscape"
   xmlns:sodipodi="http://sodipodi.sourceforge.net/DTD/sodipodi-0.dtd"
   xmlns="http://www.w3.org/2000/svg"
   xmlns:svg="http://www.w3.org/2000/svg">
  <defs
     id="defs1" />
  <sodipodi:namedview
     id="namedview1"
     pagecolor="#ffffff"
     bordercolor="#000000"
     borderopacity="0.25"
     inkscape:showpageshadow="2"
     inkscape:pageopacity="0.0"
     inkscape:pagecheckerboard="0"
     inkscape:deskcolor="#d1d1d1" />
  <g
     id="g1"
     inkscape:groupmode="layer"
     inkscape:label="1"
     transform="translate(-3402.6804,-395.61583)">
    <g
       id="g550">
      <path
         id="path163"
         d="m 26928.1,8059.41 c -4.3,56.92 -13.2,113.4 -26.4,168.91 -3,12.58 -12.1,22.77 -25.5,22.66 -10.7,22.89 -24.2,44.49 -36.6,63.24 -34.4,51.95 -70.8,102.93 -108.4,152.62 1.3,2.54 2.6,5.11 3.9,7.65 5.7,10.74 -0.8,25 -11.4,29.69 -12.3,5.47 -23.3,-1.02 -29.6,-11.41 -112.9,-183.43 -155.3,-398.24 -239.7,-594.53 -39,-90.7 -86.4,-178.32 -151.2,-253.4 -32.4,-37.65 -69.4,-69.18 -107.8,-100.43 -41.9,-34.02 -82.6,-70.27 -107.3,-119.14 -25.2,-50 -30.4,-113.47 3.9,-160.62 39.6,-54.3 115.3,-55.43 175.3,-45.24 76.9,13.09 124.2,65.12 178.8,116.33 69.3,65 138.5,130.86 198.1,205.04 7.7,-1.68 15.6,-2.3 23.3,-1.83 43,2.42 70.6,38.9 90.1,73.16 16.5,29.1 28.6,60.94 36.6,93.55 14.6,-4.37 30.3,-4.18 44.4,2.54 23.6,11.29 35.9,35.55 46.7,58.13 43.3,90.78 50.2,194.18 42.8,293.08"
         style="fill:#e0865c;fill-opacity:1;fill-rule:nonzero;stroke:none"
         transform="matrix(0.13333333,0,0,-0.13333333,0,1694.6667)" />
      <path
         id="path164"
         d="m 29635.6,8011.29 c -7.2,44.76 -34.7,84.73 -68.7,115.19 -35.5,31.84 -80,52.31 -123.6,69.11 -41.2,15.86 -82.8,30.23 -124.6,44.06 8.1,6.99 15.3,14.8 20.8,23.67 37.8,60 -3.7,130.74 -56.1,180.9 1,1.29 2,2.54 3,3.87 29.1,41.13 28.2,93.55 -1.7,137.73 -29.9,44.38 -81.6,76.84 -126,104.73 -16,10.07 -32.3,19.65 -48.9,28.79 1.1,2.03 2.1,4.1 3,6.21 30.1,69.65 -15.1,154.29 -54.6,215.39 -79.3,122.5 -205.9,213.59 -343,256.48 -261.6,81.84 -526.5,-14.06 -778.3,-55.27 -24.6,-4.03 -49.3,-7.66 -74.1,-10.7 -118.8,-14.57 -239.7,-18.75 -360.6,-6.96 -121.5,11.88 -239.9,40.98 -355.4,85.67 -66,25.54 -130.5,55.04 -194.9,84.72 -10.5,4.85 -21,9.61 -31.5,14.53 -7.6,12.04 -15.3,23.99 -23.1,35.75 -26.2,39.92 -54,78.75 -81.8,117.61 -49.6,69.3 -106.3,142.7 -189.9,170.63 -9.6,3.2 -19.3,5.74 -29,8.05 -0.6,0.23 -1.2,0.5 -1.8,0.74 -15.1,6.29 -30.4,12.34 -45.8,18.08 -29.9,11.25 -60.2,21.49 -90.7,30.67 -59.5,17.97 -120.2,33.44 -181.5,37.69 -59.5,4.1 -119.9,-1.4 -173.4,-25.15 -51.4,-22.89 -94.3,-60.36 -128.9,-103.87 -20.2,-25.39 -37.4,-53.16 -53.1,-81.6 -6.1,-10.98 -12.5,-22.07 -18.5,-33.44 -36.6,-4.53 -73.3,-9.06 -110,-13.67 -48.4,-6.1 -98.3,-9.38 -145.8,-19.73 -45.6,-9.96 -90.8,-31.33 -102.9,-79.88 -21.1,-84.38 6.7,-183.32 69.6,-249.45 29.5,-30.94 64.8,-56.1 104.1,-72.07 32.9,-13.36 66.6,-18.87 100.7,-20.94 -22.5,-11.8 -46.8,-23.24 -61.7,-44.38 -16,-22.73 -19,-54.53 -1.7,-79.61 16.1,-23.2 44.1,-32.14 69.8,-37.93 28.5,-6.48 57.5,-8.04 86.3,-8.04 59,-0.08 117.5,6.99 176.5,7.89 11,0.15 22,0.04 33,-0.04 19.8,-25 40.2,-49.61 61.6,-73.56 41.4,-46.28 84.8,-90.86 129.6,-133.86 43.4,-41.64 88,-87.15 140,-117.7 43,-25.23 95.2,-36.09 139,-18.67 18.2,-56.05 39,-111.41 61.6,-165.9 72.6,-174.26 165.5,-339.02 261,-502.69 42.8,-73.36 82.2,-147.66 104.6,-227.78 -31.7,-36.21 -46.2,-71.01 -44.5,-98.12 3.9,-59.85 48.5,-92.15 48.5,-92.15 12.8,-0.16 208.5,-0.43 208.5,-0.43 145.6,93.75 108.2,338.28 71.1,515.31 113.4,-36.44 256.1,-63.94 300.6,-63.24 62.3,0.94 126.7,7.19 184,29.41 53.1,20.67 102.3,66.33 98.2,129.03 -0.4,5.58 -1.3,11.29 -2.5,16.99 23.4,-0.39 46.8,-0.08 70.1,1.52 55.5,3.75 112.6,11.57 164.9,28.79 11.8,3.91 23.8,8.95 35.1,15.08 78.7,-116.05 141.9,-119.14 193.1,-89.45 0,0 17.7,-68.64 87,-128.6 3.4,-10.47 5.5,-16.09 6.4,-15.9 41.3,-24.21 84.2,-45.07 127.7,-61.99 86.8,-33.71 178.2,-54.18 269.4,-61.17 81.7,-6.29 164.8,-3.59 243.9,12.46 -18.7,-22.58 -36.3,-45.94 -53.2,-69.8 -64.5,-5.32 -146.7,-20.16 -187.8,-53.91 -54.1,-44.34 -45.3,-110.19 -29.8,-181.95 4.1,-19.1 22.8,-25.16 36.4,-20.35 16.1,-3.79 33.8,-2.31 50,-2.54 17.9,-0.24 35.8,-0.2 53.8,-0.24 35,-0.11 70,-0.11 105,-0.15 34.1,-0.04 68.3,-0.04 102.4,-0.08 17.9,0 35.9,-0.04 53.8,-0.04 17.6,0 36.2,-1.33 53.4,1.87 145.3,27.27 248.7,228.75 306.5,349.85 28.9,60.66 76.7,154.29 65.4,224.53"
         style="fill:#e0865c;fill-opacity:1;fill-rule:nonzero;stroke:none"
         transform="matrix(0.13333333,0,0,-0.13333333,0,1694.6667)" />
      <path
         id="path165"
         d="m 26959.9,9656.84 c -141.2,74.41 -384.2,89.88 -469.4,85.31 -53.4,-2.85 -106.5,-12.19 -156.5,-28.87 -47.2,-15.78 -95.7,-37.54 -129.5,-74.1 -38.9,-42.07 -43.6,-103.59 -27.4,-159.49 7.6,-26.25 19.7,-51.37 35.8,-74.03 17.3,-24.45 38.3,-43.39 63.2,-59.53 10.9,-6.99 24.2,-8.01 32.9,1.29 42.9,-32.3 91.8,-54.84 143.9,-61.09 30.1,-22.07 61.7,-42.07 94.3,-59.85 64.8,-35.15 148.7,-63.28 215.8,-30.11 32.3,15.97 58.7,44.22 61.8,82.15 0.4,4.6 0.4,9.21 0.2,13.82 15.5,-4.33 31.2,-7.42 47,-8.43 50.6,-3.29 101.6,14.21 128.6,57.11 12.8,20.15 19,42.89 16.8,67.61 -1.2,12.97 -5.2,25.63 -10.8,37.7 35.5,15.86 63.9,50.35 57.2,92.15 -8,50.27 -48,88.94 -103.9,118.36"
         style="fill:#e0865c;fill-opacity:1;fill-rule:nonzero;stroke:none"
         transform="matrix(0.13333333,0,0,-0.13333333,0,1694.6667)" />
      <path
         id="path166"
         d="m 26189,9510.43 c -19.8,32.97 -68.4,46.17 -101.6,21.8 -38.4,-28.28 -47.3,-106.64 5.9,-129.69 69.5,-30.16 105.9,24.69 104.4,77.81 -0.3,11.21 -3.5,21.33 -8.7,30.08"
         style="fill:#ffffff;fill-opacity:1;fill-rule:nonzero;stroke:none"
         transform="matrix(0.13333333,0,0,-0.13333333,0,1694.6667)" />
      <path
         id="path167"
         d="m 26196.8,9468.91 c -3.5,16.05 -18.8,37.81 -49.8,33.94 -12.2,-1.52 -21.6,-7.03 -27.3,-13.71 -13.9,-16.21 -27.9,-65.04 -3.8,-83.52 23.1,-17.73 51.7,-13.24 63.8,0.08 11.9,13.17 21.1,44.46 17.1,63.21"
         style="fill:#383229;fill-opacity:1;fill-rule:nonzero;stroke:none"
         transform="matrix(0.13333333,0,0,-0.13333333,0,1694.6667)" />
      <path
         id="path168"
         d="m 26124.2,9531.48 c 7.2,-0.74 15.8,-3.59 22.6,-7.42 7.6,-4.22 14.3,-9.72 19.7,-16.68 10,-13 14.7,-30.78 12,-46.13 -1,-5.66 1.5,-11.48 7.5,-13.13 5.1,-1.4 12.1,1.76 13.1,7.47 4.1,23.43 -2,47.14 -16.7,65.86 -14.2,18.04 -35.5,29.06 -58.2,31.4 -5.8,0.59 -10.7,-5.31 -10.7,-10.66 0,-6.29 4.9,-10.08 10.7,-10.71"
         style="fill:#383229;fill-opacity:1;fill-rule:nonzero;stroke:none"
         transform="matrix(0.13333333,0,0,-0.13333333,0,1694.6667)" />
      <path
         id="path169"
         d="m 26649.5,8341.41 c 60.6,-129.18 126.6,-256.06 194.1,-381.76 20,-37.07 40.1,-74.03 60.8,-110.7 6.7,-12 25.2,-1.22 18.4,10.78 -74.1,131.83 -143.9,266.25 -211,401.79 -14.9,30.08 -29.6,60.28 -43.9,90.71 -5.8,12.42 -24.2,1.6 -18.4,-10.82"
         style="fill:#383229;fill-opacity:1;fill-rule:nonzero;stroke:none"
         transform="matrix(0.13333333,0,0,-0.13333333,0,1694.6667)" />
      <path
         id="path170"
         d="m 26121.4,8880.2 c 22.5,47.34 -29.3,99.49 -63.7,128.71 -18.7,15.82 -38.1,30.78 -55.9,47.65 -19.7,18.64 -37.2,38.99 -53.2,60.78 -14.5,19.81 -45.1,3.28 -31.7,-18.12 1.2,-1.95 2.5,-3.79 3.7,-5.7 -2.3,-0.9 -4.7,-1.84 -7,-2.9 -1.1,-0.54 -2.2,-1.28 -3.3,-1.87 -5.9,2.89 -13.1,3.4 -20.7,-0.39 -57.3,-28.75 -41.5,-103.09 -8.8,-149.22 27.3,-38.63 67.5,-73.16 112.5,-86.02 40.2,-11.52 107.7,-15.54 128.1,27.08"
         style="fill:#ffa8ca;fill-opacity:1;fill-rule:nonzero;stroke:none"
         transform="matrix(0.13333333,0,0,-0.13333333,0,1694.6667)" />
      <path
         id="path171"
         d="m 26059.1,9260.78 c -22.3,23.95 -51.9,41.8 -75.7,68.83 -35.1,39.88 -59.5,95.7 -80.5,154.96 -7.1,10.35 -67,-2.19 -93.6,-4.84 -39,-3.83 -77.8,-9.14 -116.5,-14.65 -32.6,-4.65 -69.6,-5.59 -99.7,-18.63 -28.2,-12.27 -49.3,-38.05 -60.6,-66.25 -18.6,-46.88 -10.8,-99.93 7.2,-148.09 19.9,-53.13 50.7,-105.55 94.6,-143.44 32.5,-27.97 73,-43.47 113.3,-54.06 39.9,-10.51 86.3,-24.61 125.8,-13.52 35.5,9.93 64.1,37.35 70.4,74.34 0.2,1.37 0.2,2.77 0.4,4.18 29,-7.66 60.2,-7.85 88.2,-2.19 46.5,9.49 64.3,54.88 58,99.49 -4,27.66 -15.9,47.23 -31.3,63.87"
         style="fill:#ffffff;fill-opacity:1;fill-rule:nonzero;stroke:none"
         transform="matrix(0.13333333,0,0,-0.13333333,0,1694.6667)" />
      <path
         id="path172"
         d="m 26679,8546.76 c -38,85.27 -66.5,120.04 -107.1,166.76 14,7.57 48.4,23.51 52.8,39.92 10,37.69 -62.4,80.47 -86.3,90 -74.7,29.68 -173.4,37.97 -252.9,38.16 -95.3,0.28 -164.7,-14.88 -164.7,-14.88 46.1,-75.94 95.8,-155.16 159.7,-217.38 31.2,-30.36 64.3,-59.22 99.5,-84.85 36.5,-26.64 78.9,-51.29 123.8,-54.92 3.8,-0.31 7.7,-0.47 11.5,-0.51 4.1,-12.5 9.3,-24.76 13.9,-36.17 11.9,-29.77 25.8,-58.98 44,-85.78 17.6,-25.94 45.1,-59.3 78.1,-61.95 86.7,-7 74.9,115.39 27.7,221.6"
         style="fill:#ffffff;fill-opacity:1;fill-rule:nonzero;stroke:none"
         transform="matrix(0.13333333,0,0,-0.13333333,0,1694.6667)" />
      <path
         id="path173"
         d="m 29039.2,8044.02 c -7.8,19.38 -29.2,33.79 -44.9,46.88 -14.5,12.15 -29.3,23.98 -44.3,35.47 -31.9,24.37 -65.1,47.22 -99.1,68.63 -34,21.41 -68.8,41.95 -105,59.57 -17.4,8.48 -37.6,19.26 -57.6,17.11 -2,-0.2 -3.9,-0.59 -5.9,-0.98 -0.4,3.4 -1.6,6.84 -4,10.12 -7.1,9.96 -22.6,13.13 -32.6,5.35 -97.8,-76.4 -160.9,-184.41 -213.7,-295 -56.6,-118.36 -104.6,-240.04 -172,-353.01 -27.9,-46.68 -58.4,-91.64 -89.8,-135.93 -6.5,-4.3 -12.9,-8.64 -19.6,-12.58 -24.3,-22.62 -54.4,-37.93 -87.3,-50.78 -51.6,-20.2 -133,-42.35 -178.2,-75.78 -59.4,-43.99 -96.6,-183.4 30.4,-183.99 144.1,-0.58 233.7,8.91 372.5,35.63 46.6,8.94 131.9,49.41 183.1,89.14 6.8,5.23 13.3,10.62 19.5,16.17 49.9,37.85 92.8,84.92 130.1,134.84 43.4,58.05 80.2,120.67 117.5,182.66 37.1,61.8 75.4,123.01 115.5,182.93 45.1,67.19 93.1,132.26 141.2,197.26 5.2,-3.2 10.7,-5.93 16.9,-7.73 18.7,-5.43 33.7,18.09 27.3,34.02"
         style="fill:#e0865c;fill-opacity:1;fill-rule:nonzero;stroke:none"
         transform="matrix(0.13333333,0,0,-0.13333333,0,1694.6667)" />
      <path
         id="path174"
         d="m 30186.4,9446.6 c -12.2,12.42 -26.5,21.6 -42.1,28.52 2.7,8.4 4.8,17.07 6.1,25.97 8.7,63.83 -37.2,110.9 -93.6,125.43 -62.8,16.25 -137.7,-4.72 -202.2,-28.12 -58.9,-21.33 -116,-50.24 -171.2,-81.95 -110.8,-63.64 -215,-140 -327.2,-200.9 -126.3,-68.6 -261.8,-106.53 -397.5,-123.6 -70.2,-8.83 -140.1,-12.46 -209.7,-13.24 -47.9,-13.36 -95.6,-28.01 -142.9,-44.92 9.8,-0.47 19.7,-0.98 29.5,-1.37 1.4,-5.66 4.8,-10.47 10.3,-12.42 33.6,-11.84 45.1,-50.23 63.7,-77.03 23.5,-33.71 56.9,-58.63 95.9,-74.06 42.2,-16.76 87.9,-22.62 135.5,-22.31 12.3,0.08 24.8,0.51 37.4,1.25 31.4,-26.17 67.8,-46.99 105.6,-64.49 71.3,-33.13 148.2,-57.74 227.7,-73.2 39.5,-7.66 79.8,-13.32 120.7,-16.21 37.3,-2.66 76.8,-2.58 114.5,11.75 38.4,14.61 81,47.74 75.5,90.9 -0.8,6.49 -2.7,12.38 -5.3,17.81 23.2,1.18 46.5,3.64 69.8,7.93 65.3,12.15 133.1,37.62 185.7,85.04 25,22.5 47,52.66 54.5,84.26 5.6,23.52 4,46.21 -3.2,66.8 47.2,5.43 95.4,15.23 141,31.99 54.3,19.96 107.5,55.35 135.4,108.59 28,53.56 23.4,109.61 -13.9,147.58"
         style="fill:#e0865c;fill-opacity:1;fill-rule:nonzero;stroke:none"
         transform="matrix(0.13333333,0,0,-0.13333333,0,1694.6667)" />
      <path
         id="path175"
         d="m 27265.6,8106.64 c 53.5,0.47 135.4,20.24 142,85.59 3.4,34.14 -12.8,70.35 -32.1,97.54 -20.3,28.59 -46.7,52.07 -75.1,72.3 -31.1,22.15 -65,40.12 -99.8,55.63 -2.7,-6.53 -5.5,-13.01 -8.2,-19.54 32,-10.58 65.5,-18.28 99.1,-20.74 23.9,-1.76 55.6,-1.99 70.1,20.86 21.7,34.49 -10.2,70.43 -30.8,96.56 -27.6,35.12 -59.8,66.29 -95.1,93.68 -4.3,-5.63 -8.6,-11.22 -12.9,-16.8 22.9,-14.69 55.9,-25.63 83,-17.07 30.7,9.65 27.3,43.36 14.1,65.97 -33.4,57.19 -87.5,97.23 -148.2,121.61 -12.8,5.11 -18.3,-15.55 -5.7,-20.59 46.9,-18.83 90.2,-48.48 120.6,-89.26 8.7,-11.79 38.1,-49.45 12.2,-57.5 -21.1,-6.6 -47.7,4.07 -65.2,15.28 -10,6.44 -22.7,-9.26 -13,-16.76 28.7,-22.27 55.3,-46.95 79.1,-74.38 11.8,-13.59 22.9,-27.81 33.2,-42.65 9.4,-13.67 21.4,-30.98 10.2,-47.31 -11.4,-16.72 -45.4,-11.17 -62.1,-9.29 -28.1,3.24 -56.1,10.07 -82.9,18.98 -11.3,3.75 -19.4,-14.53 -8.2,-19.49 53.8,-23.99 107.3,-54.06 148.1,-97.31 34.4,-36.48 75.4,-108.24 23.6,-147.22 -27.2,-20.59 -62.7,-26.45 -96,-26.72 -13.7,-0.16 -13.7,-21.49 0,-21.37"
         style="fill:#383229;fill-opacity:1;fill-rule:nonzero;stroke:none"
         transform="matrix(0.13333333,0,0,-0.13333333,0,1694.6667)" />
      <path
         id="path176"
         d="m 28395.6,7899.34 c 105.8,-102.78 255.2,-161.45 402.7,-157.11 13.7,0.39 13.8,21.75 0,21.36 -142,-4.18 -285.7,51.88 -387.6,150.82 -9.9,9.61 -25,-5.5 -15.1,-15.07"
         style="fill:#383229;fill-opacity:1;fill-rule:nonzero;stroke:none"
         transform="matrix(0.13333333,0,0,-0.13333333,0,1694.6667)" />
      <path
         id="path177"
         d="m 27990.9,8595 c -0.8,-171.91 52.6,-342.46 150,-483.98 7.8,-11.25 26.3,-0.55 18.5,10.78 -95.5,138.59 -147.9,304.8 -147.1,473.2 0,13.75 -21.3,13.79 -21.4,0"
         style="fill:#383229;fill-opacity:1;fill-rule:nonzero;stroke:none"
         transform="matrix(0.13333333,0,0,-0.13333333,0,1694.6667)" />
      <path
         id="path178"
         d="m 29098.6,8313.83 c 71.4,-18.83 140.8,-44.49 207.2,-76.68 12.4,-5.98 23.2,12.46 10.8,18.44 -68.1,33 -139.2,59.53 -212.4,78.82 -13.3,3.52 -18.9,-17.11 -5.6,-20.58"
         style="fill:#383229;fill-opacity:1;fill-rule:nonzero;stroke:none"
         transform="matrix(0.13333333,0,0,-0.13333333,0,1694.6667)" />
      <path
         id="path179"
         d="m 29159.3,8505.59 c 39.2,-17.07 76.2,-38.95 110.2,-64.97 4.6,-3.47 11.9,-0.7 14.6,3.83 3.2,5.51 0.7,11.14 -3.8,14.65 -34,26.02 -71,47.85 -110.3,64.92 -5.2,2.31 -11.4,1.57 -14.6,-3.82 -2.6,-4.5 -1.4,-12.31 3.9,-14.61"
         style="fill:#383229;fill-opacity:1;fill-rule:nonzero;stroke:none"
         transform="matrix(0.13333333,0,0,-0.13333333,0,1694.6667)" />
      <path
         id="path180"
         d="m 28757.8,9154.26 c 130.8,-61.25 243.3,-158.44 322.7,-279.1 7.5,-11.45 26,-0.78 18.5,10.78 -81.4,123.59 -196.4,223.98 -330.4,286.76 -12.4,5.82 -23.2,-12.62 -10.8,-18.44"
         style="fill:#383229;fill-opacity:1;fill-rule:nonzero;stroke:none"
         transform="matrix(0.13333333,0,0,-0.13333333,0,1694.6667)" />
      <path
         id="path181"
         d="m 29772.1,9181.02 c 48.3,-22.97 100.2,-35.82 153.6,-39.34 13.7,-0.94 13.6,20.47 0,21.37 -49.4,3.24 -98.1,15.15 -142.8,36.4 -12.4,5.86 -23.2,-12.54 -10.8,-18.43"
         style="fill:#383229;fill-opacity:1;fill-rule:nonzero;stroke:none"
         transform="matrix(0.13333333,0,0,-0.13333333,0,1694.6667)" />
      <path
         id="path182"
         d="m 29488.3,8958.2 c 35.6,-29.41 77.1,-50.35 121.8,-61.87 13.3,-3.48 19,17.15 5.7,20.58 -41,10.59 -79.7,29.38 -112.4,56.37 -4.5,3.67 -10.8,4.38 -15.1,0 -3.8,-3.75 -4.5,-11.4 0,-15.08"
         style="fill:#383229;fill-opacity:1;fill-rule:nonzero;stroke:none"
         transform="matrix(0.13333333,0,0,-0.13333333,0,1694.6667)" />
      <path
         id="path183"
         d="m 29092.8,7750.7 c 94.4,18.6 185.2,52.35 268.6,100.39 11.9,6.84 1.2,25.32 -10.8,18.44 -81.8,-47.19 -170.8,-80 -263.5,-98.2 -13.5,-2.66 -7.8,-23.24 5.7,-20.63"
         style="fill:#383229;fill-opacity:1;fill-rule:nonzero;stroke:none"
         transform="matrix(0.13333333,0,0,-0.13333333,0,1694.6667)" />
      <path
         id="path184"
         d="m 28877.6,7575.16 c -11.8,-53.95 0.8,-111.37 32.5,-156.41 7.8,-11.17 26.4,-0.51 18.4,10.78 -28.4,40.31 -40.9,91.37 -30.3,139.96 3,13.4 -17.6,19.1 -20.6,5.67"
         style="fill:#383229;fill-opacity:1;fill-rule:nonzero;stroke:none"
         transform="matrix(0.13333333,0,0,-0.13333333,0,1694.6667)" />
      <path
         id="path185"
         d="m 28961.5,7575.16 c -11.8,-53.95 0.8,-111.37 32.5,-156.41 7.8,-11.17 26.4,-0.51 18.4,10.78 -28.3,40.31 -40.9,91.37 -30.3,139.96 3,13.4 -17.6,19.1 -20.6,5.67"
         style="fill:#383229;fill-opacity:1;fill-rule:nonzero;stroke:none"
         transform="matrix(0.13333333,0,0,-0.13333333,0,1694.6667)" />
      <path
         id="path186"
         d="m 27912.3,7196.29 c -16.5,38.4 -11.5,84.02 11.1,118.83 7.4,11.6 -11,22.3 -18.5,10.78 -27,-41.72 -30.5,-94.96 -11.1,-140.39 2.3,-5.31 10.1,-6.53 14.6,-3.87 5.5,3.2 6.1,9.3 3.9,14.65"
         style="fill:#383229;fill-opacity:1;fill-rule:nonzero;stroke:none"
         transform="matrix(0.13333333,0,0,-0.13333333,0,1694.6667)" />
      <path
         id="path187"
         d="m 27998.8,7199.53 c -16.4,38.44 -11.5,84.06 11.1,118.87 7.5,11.56 -11,22.3 -18.4,10.78 -27.1,-41.76 -30.6,-94.96 -11.1,-140.43 2.2,-5.31 10,-6.48 14.6,-3.83 5.5,3.2 6.1,9.3 3.8,14.61"
         style="fill:#383229;fill-opacity:1;fill-rule:nonzero;stroke:none"
         transform="matrix(0.13333333,0,0,-0.13333333,0,1694.6667)" />
      <path
         id="path188"
         d="m 27036.6,7562.38 c -6.1,-44.26 3.8,-89.14 27.7,-126.91 7.3,-11.56 25.8,-0.86 18.4,10.78 -20.5,32.54 -30.8,72.03 -25.5,110.47 0.7,5.7 -1.4,11.44 -7.5,13.12 -5,1.37 -12.3,-1.68 -13.1,-7.46"
         style="fill:#383229;fill-opacity:1;fill-rule:nonzero;stroke:none"
         transform="matrix(0.13333333,0,0,-0.13333333,0,1694.6667)" />
      <path
         id="path189"
         d="m 27148.2,7562.38 c -6.1,-44.26 3.9,-89.14 27.8,-126.91 7.3,-11.56 25.8,-0.86 18.4,10.78 -20.6,32.54 -30.9,72.03 -25.6,110.47 0.8,5.7 -1.3,11.44 -7.4,13.12 -5,1.37 -12.4,-1.68 -13.2,-7.46"
         style="fill:#383229;fill-opacity:1;fill-rule:nonzero;stroke:none"
         transform="matrix(0.13333333,0,0,-0.13333333,0,1694.6667)" />
      <path
         id="path190"
         d="m 27429.1,8898.48 c 32.7,-18.32 68.5,-29.93 105.8,-33.68 27.6,-2.81 65.2,-2.92 83.3,22.23 20.7,28.71 -2.4,63.91 -21.4,86.49 -21.9,26.09 -50,46.79 -81.1,60.62 -12.4,5.55 -22.2,-10.51 -10.7,-18.44 29.3,-20.23 71.8,-21.56 100.1,1.45 28.1,22.89 33.5,63.08 18.4,94.84 -5.9,12.42 -24.4,1.56 -18.5,-10.78 11.1,-23.2 5.8,-53.59 -15.5,-69.22 -21.8,-16.01 -52.4,-12.58 -73.8,2.15 -3.6,-6.17 -7.1,-12.3 -10.7,-18.44 25.1,-11.17 47.8,-26.56 66.9,-46.4 14.5,-14.96 46.5,-49.96 27.7,-71.49 -16.2,-18.47 -52.8,-13.63 -73.9,-10.51 -30.3,4.46 -59.2,14.69 -85.8,29.61 -12,6.72 -22.8,-11.71 -10.8,-18.43"
         style="fill:#383229;fill-opacity:1;fill-rule:nonzero;stroke:none"
         transform="matrix(0.13333333,0,0,-0.13333333,0,1694.6667)" />
      <path
         id="path191"
         d="m 26738.3,7844.73 c 4.2,-47.35 17.2,-93.09 38.8,-135.43 6.2,-12.23 24.6,-1.45 18.4,10.78 -19.8,38.79 -32,81.29 -35.8,124.65 -1.2,13.59 -22.6,13.71 -21.4,0"
         style="fill:#383229;fill-opacity:1;fill-rule:nonzero;stroke:none"
         transform="matrix(0.13333333,0,0,-0.13333333,0,1694.6667)" />
      <path
         id="path192"
         d="m 26604.2,7647.58 c -1.2,-36.76 9.2,-73.63 29.6,-104.3 3.2,-4.8 9.4,-6.87 14.6,-3.83 4.8,2.78 7,9.81 3.8,14.61 -18.4,27.74 -27.7,60.24 -26.6,93.52 0.4,13.75 -20.9,13.75 -21.4,0"
         style="fill:#383229;fill-opacity:1;fill-rule:nonzero;stroke:none"
         transform="matrix(0.13333333,0,0,-0.13333333,0,1694.6667)" />
      <path
         id="path193"
         d="m 27032.9,7621.02 c 22.7,11.32 49,15.58 74.1,16.79 27.5,1.33 55.2,-1.13 81.6,-9.22 13.2,-4.06 18.8,16.57 5.7,20.59 -28.9,8.87 -59.8,11.6 -89.9,9.88 -28.2,-1.64 -56.8,-6.87 -82.3,-19.61 -12.2,-6.09 -1.4,-24.57 10.8,-18.43"
         style="fill:#383229;fill-opacity:1;fill-rule:nonzero;stroke:none"
         transform="matrix(0.13333333,0,0,-0.13333333,0,1694.6667)" />
      <path
         id="path194"
         d="m 29037.2,7681.21 c 25.7,-1.09 51,-9.53 73.4,-21.95 21.6,-11.96 41.8,-28.01 55,-49.18 7.2,-11.64 25.7,-0.94 18.4,10.78 -30,48.24 -90.8,79.3 -146.8,81.72 -13.8,0.62 -13.7,-20.74 0,-21.37"
         style="fill:#383229;fill-opacity:1;fill-rule:nonzero;stroke:none"
         transform="matrix(0.13333333,0,0,-0.13333333,0,1694.6667)" />
      <path
         id="path195"
         d="m 25708.7,9411.21 c -3.6,30 -28.3,52.27 -58.3,51.13 -36.3,-1.4 -75.9,-10 -102.7,-34.29 -34.1,-30.9 -28.3,-78.71 -25.1,-122.31 0.7,-9.72 0.7,-20.47 4.7,-29.76 6.6,-15.04 22.4,-25.55 38.5,-22.35 22.1,4.46 30.5,24.1 44.3,39.03 22.9,24.92 56.3,34.92 78.9,59.25 14.5,15.55 22.3,37.27 19.7,59.3"
         style="fill:#383229;fill-opacity:1;fill-rule:nonzero;stroke:none"
         transform="matrix(0.13333333,0,0,-0.13333333,0,1694.6667)" />
      <path
         id="path196"
         d="m 26352.7,9368.79 c 55.9,-60.82 121.9,-112.38 195,-151.06 66.1,-34.96 158.3,-70.93 225.7,-18.94 31.9,24.61 49.1,64.06 47.2,104.06 -0.7,13.67 -22,13.75 -21.4,0 2.1,-44.22 -22.8,-86.52 -65.4,-101.52 -46.1,-16.21 -96.7,-1.95 -139.6,17.26 -85.8,38.52 -162.9,96.18 -226.4,165.32 -9.3,10.15 -24.4,-5 -15.1,-15.12"
         style="fill:#383229;fill-opacity:1;fill-rule:nonzero;stroke:none"
         transform="matrix(0.13333333,0,0,-0.13333333,0,1694.6667)" />
      <path
         id="path197"
         d="m 26704.9,9352.15 c 70.9,-48.63 161.8,-107.7 250.7,-70.7 12.6,5.19 7.1,25.85 -5.6,20.58 -83.6,-34.73 -168,23.09 -234.3,68.56 -11.4,7.81 -22.1,-10.71 -10.8,-18.44"
         style="fill:#383229;fill-opacity:1;fill-rule:nonzero;stroke:none"
         transform="matrix(0.13333333,0,0,-0.13333333,0,1694.6667)" />
      <path
         id="path198"
         d="m 26872.5,9495 c 35.4,-32.42 80.1,-70.35 131.9,-56.48 13.3,3.51 7.7,24.14 -5.6,20.58 -43.4,-11.6 -82,24.3 -111.2,50.98 -10.1,9.3 -25.2,-5.78 -15.1,-15.08"
         style="fill:#383229;fill-opacity:1;fill-rule:nonzero;stroke:none"
         transform="matrix(0.13333333,0,0,-0.13333333,0,1694.6667)" />
      <path
         id="path199"
         d="m 26304.1,8659.02 c 6.8,-43.71 23.3,-86.64 53.9,-119.37 17.9,-19.26 41.7,-36.13 68.2,-40.27 26.9,-4.18 56.8,1.79 74.9,23.59 8.7,10.51 -6.4,25.7 -15.1,15.12 -26.6,-32.04 -72,-18.79 -98.7,3.28 -37.1,30.58 -55.4,76.91 -62.6,123.36 -2.2,13.51 -22.7,7.77 -20.6,-5.71"
         style="fill:#383229;fill-opacity:1;fill-rule:nonzero;stroke:none"
         transform="matrix(0.13333333,0,0,-0.13333333,0,1694.6667)" />
      <path
         id="path200"
         d="m 25526.8,9284.96 c 15.7,-151.91 144.2,-273.94 297.2,-279.88 13.8,-0.55 13.8,20.82 0,21.33 -140.5,5.5 -261.4,118.51 -275.8,258.55 -1.4,13.56 -22.8,13.67 -21.4,0"
         style="fill:#383229;fill-opacity:1;fill-rule:nonzero;stroke:none"
         transform="matrix(0.13333333,0,0,-0.13333333,0,1694.6667)" />
      <path
         id="path201"
         d="m 25642.5,9438.44 c 86.2,18.04 174.8,27.54 262.9,28.59 13.7,0.16 13.8,21.52 0,21.37 -89.9,-1.1 -180.5,-10.94 -268.6,-29.38 -13.4,-2.81 -7.7,-23.4 5.7,-20.58"
         style="fill:#383229;fill-opacity:1;fill-rule:nonzero;stroke:none"
         transform="matrix(0.13333333,0,0,-0.13333333,0,1694.6667)" />
      <path
         id="path202"
         d="m 29734.6,7675.7 c -28.8,34.85 -97.1,1.02 -128.2,-20.9 -59.1,-41.56 -239.3,-161.95 -239.3,-161.95 H 26010 c -23.1,0 -38.4,-18.75 -34.2,-41.83 10.9,-59.85 68.2,-108.36 128.1,-108.36 h 3308.3 c 0.6,0 1.1,0.07 1.7,0.07 14.9,-0.5 29.3,3.32 41.1,11.96 0,0 182.2,141.21 237.5,194.33 44.1,42.43 70.9,91.84 42.1,126.68"
         style="fill:#ffd754;fill-opacity:1;fill-rule:nonzero;stroke:none"
         transform="matrix(0.13333333,0,0,-0.13333333,0,1694.6667)" />
      <path
         id="path203"
         d="M 27046.9,7213.91 H 26580 c -71.1,0 -158.9,57.65 -196.2,128.75 h 724.4 c 37.2,-71.1 9.8,-128.75 -61.3,-128.75"
         style="fill:#e8d6ce;fill-opacity:1;fill-rule:nonzero;stroke:none"
         transform="matrix(0.13333333,0,0,-0.13333333,0,1694.6667)" />
      <path
         id="path204"
         d="m 29303.6,7213.91 h -466.8 c -71.2,0 -159,57.65 -196.2,128.75 h 724.3 c 37.3,-71.1 9.8,-128.75 -61.3,-128.75"
         style="fill:#e8d6ce;fill-opacity:1;fill-rule:nonzero;stroke:none"
         transform="matrix(0.13333333,0,0,-0.13333333,0,1694.6667)" />
      <path
         id="path205"
         d="m 27024.4,7126.84 c 20.6,-100.51 -44.2,-182.04 -144.7,-182.04 -100.5,0 -198.7,81.53 -219.3,182.04 -20.6,100.5 44.1,182.03 144.7,182.03 100.5,0 198.7,-81.53 219.3,-182.03"
         style="fill:#383229;fill-opacity:1;fill-rule:nonzero;stroke:none"
         transform="matrix(0.13333333,0,0,-0.13333333,0,1694.6667)" />
      <path
         id="path206"
         d="m 29283.3,7126.84 c 20.7,-100.51 -44.1,-182.04 -144.7,-182.04 -100.5,0 -198.7,81.53 -219.3,182.04 -20.6,100.5 44.2,182.03 144.7,182.03 100.5,0 198.7,-81.53 219.3,-182.03"
         style="fill:#383229;fill-opacity:1;fill-rule:nonzero;stroke:none"
         transform="matrix(0.13333333,0,0,-0.13333333,0,1694.6667)" />
      <path
         id="path207"
         d="m 29165.8,7126.84 c 7.3,-35.63 -15.6,-64.54 -51.2,-64.54 -35.7,0 -70.5,28.91 -77.8,64.54 -7.3,35.62 15.7,64.49 51.3,64.49 35.6,0 70.4,-28.87 77.7,-64.49"
         style="fill:#ffffff;fill-opacity:1;fill-rule:nonzero;stroke:none"
         transform="matrix(0.13333333,0,0,-0.13333333,0,1694.6667)" />
      <path
         id="path208"
         d="m 26906.9,7126.84 c 7.3,-35.63 -15.6,-64.54 -51.3,-64.54 -35.6,0 -70.4,28.91 -77.7,64.54 -7.3,35.62 15.6,64.49 51.3,64.49 35.6,0 70.4,-28.87 77.7,-64.49"
         style="fill:#ffffff;fill-opacity:1;fill-rule:nonzero;stroke:none"
         transform="matrix(0.13333333,0,0,-0.13333333,0,1694.6667)" />
      <path
         id="path209"
         d="m 26484,8529.92 c 16.3,-47.19 37.4,-92.65 63,-135.51 7,-11.79 25.5,-1.09 18.4,10.79 -24.6,41.32 -45.1,84.92 -60.8,130.42 -4.5,12.9 -25.1,7.35 -20.6,-5.7"
         style="fill:#383229;fill-opacity:1;fill-rule:nonzero;stroke:none"
         transform="matrix(0.13333333,0,0,-0.13333333,0,1694.6667)" />
      <path
         id="path210"
         d="m 26125.4,8853.12 c 3.7,-38.12 11.4,-75.66 23.6,-111.99 11.2,-33.32 25.2,-67.73 44.7,-97.18 17.1,-25.79 42.7,-46.8 75.5,-43.48 32.2,3.28 54.5,29.73 55.8,61.41 0.6,13.74 -20.7,13.71 -21.3,0 -1.3,-28.91 -28.8,-47.23 -56.2,-38.01 -25.2,8.47 -39.2,35.31 -50.4,57.46 -27.3,53.47 -44.5,112.07 -50.4,171.79 -1.3,13.52 -22.7,13.68 -21.3,0"
         style="fill:#383229;fill-opacity:1;fill-rule:nonzero;stroke:none"
         transform="matrix(0.13333333,0,0,-0.13333333,0,1694.6667)" />
      <path
         id="path211"
         d="m 25987.7,9430.9 c 57.2,-9.81 111.1,-32.35 158.6,-65.59 11.3,-7.89 22,10.63 10.8,18.44 -48.8,34.18 -104.9,57.7 -163.7,67.77 -13.4,2.31 -19.2,-18.28 -5.7,-20.62"
         style="fill:#383229;fill-opacity:1;fill-rule:nonzero;stroke:none"
         transform="matrix(0.13333333,0,0,-0.13333333,0,1694.6667)" />
      <path
         id="path212"
         d="m 27255.3,8114.45 c 11.7,-51.13 23.3,-102.26 34.9,-153.43 3.1,-13.4 23.6,-7.74 20.6,5.66 -11.6,51.17 -23.2,102.3 -34.9,153.48 -3,13.39 -23.6,7.73 -20.6,-5.71"
         style="fill:#383229;fill-opacity:1;fill-rule:nonzero;stroke:none"
         transform="matrix(0.13333333,0,0,-0.13333333,0,1694.6667)" />
    </g>
  </g>
</svg>
