<?xml version="1.0" encoding="UTF-8" standalone="no"?>
<!-- Created with Inkscape (http://www.inkscape.org/) -->

<svg
   version="1.1"
   id="svg1"
   width="912.81305"
   height="296.57452"
   viewBox="0 0 912.81305 296.57452"
   sodipodi:docname="dog-laptop.svg"
   xmlns:inkscape="http://www.inkscape.org/namespaces/inkscape"
   xmlns:sodipodi="http://sodipodi.sourceforge.net/DTD/sodipodi-0.dtd"
   xmlns="http://www.w3.org/2000/svg"
   xmlns:svg="http://www.w3.org/2000/svg">
  <defs
     id="defs1" />
  <sodipodi:namedview
     id="namedview1"
     pagecolor="#ffffff"
     bordercolor="#000000"
     borderopacity="0.25"
     inkscape:showpageshadow="2"
     inkscape:pageopacity="0.0"
     inkscape:pagecheckerboard="0"
     inkscape:deskcolor="#d1d1d1"
     inkscape:export-bgcolor="#ffffff00" />
  <g
     id="g1"
     inkscape:groupmode="layer"
     inkscape:label="1"
     transform="translate(-340.83618,-438.72036)">
    <g
       id="g557">
      <path
         id="path214"
         d="M 4482.24,7531.2 H 3133.79 l 1246.65,-288.11 h 1083.15 c 44.53,0 51.82,63.88 8.42,73.9 l -865.59,200.05 c -40.72,9.41 -82.39,14.16 -124.18,14.16"
         style="fill:#4b79f7;fill-opacity:1;fill-rule:nonzero;stroke:none"
         transform="matrix(0.13333333,0,0,-0.13333333,0,1693.8933)" />
      <path
         id="path215"
         d="M 4380.44,7243.09 3133.79,7531.2 2562.25,8627.47 c -20.37,39.06 14.43,84.02 57.35,74.1 l 1078.43,-249.23 c 37.5,-8.67 69.33,-33.31 87.12,-67.44 l 595.29,-1141.81"
         style="fill:#4b79f7;fill-opacity:1;fill-rule:nonzero;stroke:none"
         transform="matrix(0.13333333,0,0,-0.13333333,0,1693.8933)" />
      <path
         id="path216"
         d="m 4234.8,7513.45 c 46.59,-87.92 93.19,-175.84 139.78,-263.77 6.6,-12.45 25.51,-1.4 18.91,11.06 -46.6,87.91 -93.19,175.83 -139.78,263.76 -6.61,12.46 -25.51,1.41 -18.91,-11.05 v 0"
         style="fill:#383229;fill-opacity:1;fill-rule:nonzero;stroke:none"
         transform="matrix(0.13333333,0,0,-0.13333333,0,1693.8933)" />
      <path
         id="path217"
         d="m 4357.78,7301.93 c 280.75,0 561.5,0 842.24,0 77.47,0 154.93,0 232.39,0 14.09,0 14.11,21.9 0,21.9 -280.75,0 -561.49,0 -842.23,0 -77.47,0 -154.93,0 -232.4,0 -14.08,0 -14.11,-21.9 0,-21.9 v 0"
         style="fill:#383229;fill-opacity:1;fill-rule:nonzero;stroke:none"
         transform="matrix(0.13333333,0,0,-0.13333333,0,1693.8933)" />
      <path
         id="path218"
         d="m 3522.33,7973.03 c 48.27,-93.72 29.41,-169.68 -42.13,-169.68 -71.54,0 -168.67,75.96 -216.94,169.68 -48.28,93.71 -29.41,169.67 42.13,169.67 71.54,0 168.67,-75.96 216.94,-169.67"
         style="fill:#ffffff;fill-opacity:1;fill-rule:nonzero;stroke:none"
         transform="matrix(0.13333333,0,0,-0.13333333,0,1693.8933)" />
      <path
         id="path219"
         d="m 6036.97,8737.27 c -75.18,13.72 -152.23,10.56 -227.62,0.23 -71.8,-9.84 -143.73,-23.95 -214.05,-41.48 -67.65,-16.87 -135.77,-38.82 -196.85,-73.03 -51.42,-28.81 -104.9,-74.85 -117.32,-135.5 -7.88,-38.5 13.46,-72.31 48.05,-88.55 16.47,-7.73 33.67,-11.27 51.61,-13.46 1.34,-0.16 2.7,-0.31 4.05,-0.46 -8.46,-6.93 -16.91,-13.87 -25.36,-20.8 -21.23,-17.41 -44.44,-34.1 -61.35,-55.98 -18.01,-23.31 -30.75,-52.38 -26.64,-82.44 3.8,-27.76 20.22,-51.16 42.63,-67.37 46.49,-33.63 104.5,-34.31 158.76,-23.76 52.75,10.24 103.75,30.57 151.99,53.81 49.5,23.85 98.78,53.17 139.94,90.17 1.73,1.05 3.42,2.22 5.01,3.55 123.19,103.23 213.39,248.24 261.74,400.81 0.34,1.07 0.4,2.15 0.57,3.24 27.93,0.7 35.61,45.4 4.84,51.02"
         style="fill:#e0865c;fill-opacity:1;fill-rule:nonzero;stroke:none"
         transform="matrix(0.13333333,0,0,-0.13333333,0,1693.8933)" />
      <path
         id="path220"
         d="m 6381.31,7607.66 c -123.84,142.24 -606.33,213.45 -784.91,207.81 -252.09,-7.96 -390.44,-48.29 -607.39,-44.99 -59.73,0.91 -157.91,28.64 -319.71,27.76 -46.7,-0.24 -118.72,-19.23 -150.09,-65.72 -66.59,-98.71 -36.63,-253.04 88.37,-281.64 145.61,-33.3 352.61,-14.46 352.61,-14.46 190.24,-9.11 327.97,-27.66 444.87,-32.68 118.48,-5.09 259.04,22.16 377.3,32.62 59.09,5.22 -4.5,-57.5 53.59,-45.38 47.72,9.95 95.15,23.65 132.48,56.69 49.86,44.17 444.58,123.54 412.88,159.99"
         style="fill:#e0865c;fill-opacity:1;fill-rule:nonzero;stroke:none"
         transform="matrix(0.13333333,0,0,-0.13333333,0,1693.8933)" />
      <path
         id="path221"
         d="m 9381.48,7817.8 c -22.45,28.36 -56.41,45.82 -92.12,50.34 -40.41,5.12 -80.23,-1.96 -120.28,-6.8 -42.2,-5.11 -84.54,-8.98 -126.96,-11.62 -83.05,-5.18 -166.44,-5.7 -249.56,-1.65 -53.41,2.61 -106.78,7.38 -159.99,13.5 49.47,158.12 20.21,340.38 -62.7,481.72 -87.53,149.2 -241.79,255.33 -410.58,290.22 -197.3,40.78 -389.44,-34.67 -578.96,-79.84 -195.63,-46.61 -395.3,-78.61 -596.51,-85.67 -167.37,-5.88 -336.23,6.47 -499.89,42.94 -28.83,270.29 -743.84,346.28 -880.4,71.46 -17.55,-35.33 -34.98,-70.71 -52.42,-106.09 -28.1,-57.02 -56.61,-113.89 -83.7,-171.41 -48.79,-24.85 -96.83,-51.23 -144,-78.97 -34.38,-20.22 -68.26,-43.79 -91.67,-76.65 -6.91,-9.68 -12.61,-19.93 -17.41,-30.55 -0.38,-63.5 28.41,-140.43 47.49,-183.01 35.73,-79.8 124.28,-134.26 207.84,-165.59 7.4,-2.77 222.78,-35.32 253.7,-37.35 33.06,-2.17 66.27,-3.14 99.47,-2.71 1.42,-6.68 5.76,-12.74 14.07,-16.37 85.98,-37.49 172.32,-74 260.28,-106.64 16.29,-6.05 32.65,-12.02 49.04,-17.93 -75.78,-16.79 -151.28,-35.12 -229.06,-38.77 -31.19,-1.47 -62.34,-0.48 -93.2,4.41 -30.18,4.78 -59.82,12.45 -89.98,17.38 -61.24,10.01 -123.4,6.09 -172.5,-35.54 -41.8,-35.43 -64.88,-91.33 -57.27,-146.02 8.4,-60.29 46.19,-107.76 100.27,-134.46 61.63,-30.44 134.44,-44.56 202.08,-53.53 150.65,-19.99 489.26,29.48 501.09,31.14 64.08,-25.97 131.32,-45.14 200.08,-44.22 39.4,0.54 112.7,9.74 123.1,57.55 0.23,1.03 0.17,2.01 0.32,3.04 35.96,-7.99 73.24,-9.88 109.55,-3.37 47.22,8.46 114.83,41.48 132.77,89.86 25.35,4.61 50.71,9.14 76.12,13.41 33.15,5.57 66.4,10.78 99.72,15.59 70.49,-36.78 146.19,-62.99 225.12,-77.38 74.07,-13.51 154.34,-20 229.33,-12.66 57.92,5.66 128.99,31.63 120.7,104.1 66.34,-19.74 134.28,-32.65 204.66,-37.05 55.25,-3.47 110.85,-1.78 165.78,5.24 50.27,6.43 109.32,13.72 145.28,53.68 7.69,8.55 13.6,18.58 17.77,29.24 29.23,-0.86 58.5,-0.73 87.72,0.36 74.18,-35.27 156.24,-57.06 238.07,-56.67 41.84,0.2 115.73,8.37 127.83,58.1 0.07,0.26 0.08,0.51 0.14,0.77 40.37,-6.93 85.32,-10.26 122.74,8.49 31.24,15.65 45.17,40.4 47.22,67.49 20.41,-0.37 40.82,-1.34 61.21,-2.68 109.69,-7.18 221.33,-21.66 329.02,8.78 79.5,22.47 162.6,78.11 196.99,156.29 10.56,13.21 19.55,27.55 25.54,43.3 13.23,34.78 10.59,73.04 -12.95,102.8"
         style="fill:#e0865c;fill-opacity:1;fill-rule:nonzero;stroke:none"
         transform="matrix(0.13333333,0,0,-0.13333333,0,1693.8933)" />
      <path
         id="path222"
         d="m 9046.52,7725.08 c 46.95,-23.41 101.45,-29.52 152.11,-15 19.86,5.68 44.91,15.33 51.38,37.34 5.1,17.32 -3.95,38.54 -22.67,42.08 -9.61,1.82 -19.89,-10.67 -10.65,-18.29 34.59,-28.5 89.67,-33.62 123.01,0.23 14.18,14.38 21.37,34.93 15.13,54.64 -6.01,18.96 -21.51,32.16 -41.36,33.65 -14.06,1.05 -13.99,-20.85 0,-21.9 13.02,-0.98 21.82,-14.32 21.9,-26.68 0.08,-13.76 -10.19,-25.41 -21.28,-32.25 -25.37,-15.63 -59.46,-10.72 -81.92,7.79 -3.55,-6.1 -7.1,-12.2 -10.65,-18.3 7.02,-1.33 9.44,-8.63 7.39,-15.15 -2.25,-7.11 -10.27,-11.88 -16.52,-14.99 -15.81,-7.86 -34.91,-11.7 -52.36,-13.34 -35.3,-3.29 -70.74,3.26 -102.46,19.07 -12.58,6.27 -23.67,-12.62 -11.05,-18.9 v 0"
         style="fill:#383229;fill-opacity:1;fill-rule:nonzero;stroke:none"
         transform="matrix(0.13333333,0,0,-0.13333333,0,1693.8933)" />
      <path
         id="path223"
         d="m 5685.95,8363.13 c 0,0 -14.01,43.94 -75.89,32.97 -61.87,-10.98 -57.65,-112.53 -17.35,-126.55 40.31,-14.02 66.48,-0.96 82.68,11.87 16.19,12.83 10.56,81.71 10.56,81.71"
         style="fill:#ffffff;fill-opacity:1;fill-rule:nonzero;stroke:none"
         transform="matrix(0.13333333,0,0,-0.13333333,0,1693.8933)" />
      <path
         id="path224"
         d="m 5970.54,8315.29 c 0,0 -14.02,43.93 -75.9,32.96 -61.87,-10.97 -57.65,-112.52 -17.35,-126.54 40.31,-14.02 66.48,-0.97 82.68,11.86 16.19,12.83 10.57,81.72 10.57,81.72"
         style="fill:#ffffff;fill-opacity:1;fill-rule:nonzero;stroke:none"
         transform="matrix(0.13333333,0,0,-0.13333333,0,1693.8933)" />
      <path
         id="path225"
         d="m 5980.08,8294.4 c -2.31,14.96 -15.23,35.83 -44.03,33.97 -11.28,-0.73 -20.26,-5.31 -25.9,-11.16 -13.67,-14.17 -29.21,-58.36 -8.03,-76.69 20.34,-17.59 46.95,-15.01 58.8,-3.38 11.68,11.46 21.84,39.77 19.16,57.26"
         style="fill:#383229;fill-opacity:1;fill-rule:nonzero;stroke:none"
         transform="matrix(0.13333333,0,0,-0.13333333,0,1693.8933)" />
      <path
         id="path226"
         d="m 5878.67,8330.83 c 14.95,11.12 35.66,14.34 52.55,5.56 16.05,-8.32 26.37,-25.35 26.76,-42.91 0.31,-14.06 22.2,-14.11 21.89,0 -0.55,25.26 -14.94,50.06 -37.6,61.82 -23.39,12.14 -53.37,10.25 -74.65,-5.56 -4.73,-3.53 -7.14,-9.48 -3.92,-14.98 2.73,-4.67 10.2,-7.48 14.97,-3.93 v 0"
         style="fill:#383229;fill-opacity:1;fill-rule:nonzero;stroke:none"
         transform="matrix(0.13333333,0,0,-0.13333333,0,1693.8933)" />
      <path
         id="path227"
         d="m 5698.86,8341.39 c -2.3,14.97 -15.23,35.84 -44.03,33.97 -11.29,-0.72 -20.26,-5.3 -25.9,-11.15 -13.67,-14.17 -29.21,-58.37 -8.02,-76.7 20.32,-17.59 46.94,-15 58.79,-3.38 11.68,11.46 21.85,39.78 19.16,57.26"
         style="fill:#383229;fill-opacity:1;fill-rule:nonzero;stroke:none"
         transform="matrix(0.13333333,0,0,-0.13333333,0,1693.8933)" />
      <path
         id="path228"
         d="m 5597.5,8376.37 c 14.95,11.11 35.66,14.34 52.56,5.56 16.04,-8.32 26.37,-25.36 26.75,-42.91 0.31,-14.07 22.2,-14.12 21.9,0 -0.56,25.26 -14.95,50.06 -37.6,61.82 -23.4,12.14 -53.38,10.25 -74.66,-5.56 -4.74,-3.53 -7.14,-9.48 -3.93,-14.98 2.74,-4.67 10.21,-7.48 14.98,-3.93 v 0"
         style="fill:#383229;fill-opacity:1;fill-rule:nonzero;stroke:none"
         transform="matrix(0.13333333,0,0,-0.13333333,0,1693.8933)" />
      <path
         id="path229"
         d="m 5861.93,8060.14 c 2.96,78.64 -36.82,141.66 -105.09,180.17 -110.7,62.42 -255.76,70.57 -372.36,20.82 -26.36,-11.25 -52.33,-24.17 -76.43,-39.72 -16.73,-10.78 -36.05,-22.63 -51.49,-35.26 -76.77,-62.77 -39.77,-208.84 17.85,-286.16 10.74,-14.41 81.88,1.57 107.85,85.48 14.42,-55.07 84.91,-135.76 137.54,-151.06 34.65,-10.08 74.48,-7.97 109.18,1.12 35.96,9.43 77.16,37.29 92.7,67.91 7.79,15.36 14.7,28.26 20.91,39.38 21.99,-12.85 48.59,-15.96 72.58,-1.15 38.69,23.89 45.2,77.19 46.76,118.47"
         style="fill:#ffffff;fill-opacity:1;fill-rule:nonzero;stroke:none"
         transform="matrix(0.13333333,0,0,-0.13333333,0,1693.8933)" />
      <path
         id="path230"
         d="m 8648.24,8781.83 c -5.26,33.88 -13.77,72.05 -39.17,97.01 -31.11,30.55 -76.95,25.02 -110.5,1.73 -4.21,-2.92 -8.28,-6.04 -12.24,-9.3 -0.74,77.05 -13.43,154.94 -41.69,225.27 -18.42,45.83 -46.42,96.84 -91.48,121.18 -23.95,12.94 -52.88,15.43 -77.02,1.61 -19.35,-11.09 -30.81,-30.04 -38.08,-50.43 -18.45,44.89 -41.21,87.75 -70.93,126.49 -30.56,39.85 -68.04,77.98 -112.75,101.89 -42.94,22.96 -102.9,27.22 -129.8,-21.61 -12.91,-23.43 -14.72,-52.72 -15.24,-78.91 -0.52,-26.35 2.91,-52.55 8.51,-78.27 11.02,-50.66 33.33,-98.88 59.46,-143.41 52.46,-89.4 125.38,-164.34 181.71,-251.1 31.48,-48.49 56.47,-100.12 68.92,-156.84 12.82,-58.39 10.5,-119.42 0.79,-178.07 -3.13,-18.92 11.49,-29.23 25.56,-27.92 0.66,-40.43 7.46,-81.04 17.8,-118.05 9.83,-35.19 22.91,-75.67 49.98,-101.61 3.41,-3.26 7.13,-6.23 11.05,-8.91 -0.59,-0.21 -1.16,-0.47 -1.76,-0.68 -35.65,-12.25 -18.31,-67.26 17.74,-55.83 129.41,41.03 218.37,154.52 262.22,278.83 24.52,69.55 35.3,142.72 39.58,216.12 2.16,36.87 3.03,74.2 -2.66,110.81"
         style="fill:#e0865c;fill-opacity:1;fill-rule:nonzero;stroke:none"
         transform="matrix(0.13333333,0,0,-0.13333333,0,1693.8933)" />
      <path
         id="path231"
         d="m 6818.07,8076.48 c -22.19,54.83 -61.28,103.96 -102.74,145.53 -4.93,4.95 -10,9.82 -15.17,14.63 13.7,7.82 25.29,19.14 31.92,33.71 12.69,27.91 5.68,57.73 -7,84.13 -22.46,46.75 -57.19,90.37 -91.98,128.48 -36.49,39.97 -79.65,75.09 -128.01,99.71 -56.26,28.63 -119.48,43.76 -182.67,38.52 -1.55,-0.12 -2.92,-0.48 -4.33,-0.79 -40.61,8.91 -82.68,10.98 -123.36,0.82 -6.43,-1.6 -12.72,-3.63 -18.89,-5.91 -0.43,0.87 -0.76,1.74 -1.3,2.61 -7.27,11.48 -22.73,14.68 -34.17,7.68 -31.2,-19.06 -44.73,-50.36 -49.67,-84.12 -0.5,-1.03 -1.14,-1.96 -1.61,-3.01 -3.63,-7.97 -3.28,-15.19 -0.6,-21.05 -0.57,-14.35 -0.01,-28.74 1.06,-42.44 4.82,-62.24 13.09,-124.51 27.55,-185.29 14.11,-59.27 35.08,-117.26 65.62,-170.12 24.02,-41.57 70.59,-112.85 125.58,-97.93 37.23,-70.15 96.81,-129.15 168.58,-162.1 29.97,-13.76 64.16,-25.42 97.59,-20.49 38.03,5.6 66.45,31.47 76.07,68.72 0.32,1.22 0.42,2.44 0.68,3.66 44.75,-16.89 98.93,-19.44 138.38,10.38 49.06,37.09 49.85,101.85 28.47,154.67"
         style="fill:#e0865c;fill-opacity:1;fill-rule:nonzero;stroke:none"
         transform="matrix(0.13333333,0,0,-0.13333333,0,1693.8933)" />
      <path
         id="path232"
         d="m 6091.82,8470.64 c -7.52,-102.02 5.83,-205.46 39.55,-302.08 22.38,-64.1 66.55,-187.22 155.73,-171.32 37.09,6.61 71.98,39.8 61.47,79.75 -3.06,11.64 -22.42,9.66 -21.5,-2.92 6.3,-86.32 55.18,-177.07 134.31,-217.45 35.18,-17.94 83.14,-24.25 112.47,7.82 22.13,24.19 29.46,63.67 4.14,88.29 -10.17,9.9 -24.8,-5.01 -15.48,-15.48 32.57,-36.61 75.94,-64.25 123.15,-77.64 37.17,-10.54 82.95,-13.59 115.93,10.17 46.13,33.23 60.62,92.33 52.34,146.16 -8.72,56.78 -37.5,110.99 -72.81,155.66 -37.96,48.04 -87.22,86.78 -142.86,112.28 -12.57,5.77 -23.66,-12.08 -11.05,-18.9 27.52,-14.9 60.54,-12.73 87.35,2.92 29.78,17.39 46.07,49.26 47.81,83.15 1.69,32.87 -10.2,67.56 -32.92,91.56 -22.01,23.27 -53.35,33.32 -83.74,40.2 -13.72,3.11 -19.58,-18 -5.82,-21.11 23.96,-5.42 49.28,-12.22 68.16,-28.82 19.55,-17.18 30.82,-43.5 32.36,-69.25 1.66,-27.62 -7.63,-56.16 -30.69,-72.84 -20.64,-14.92 -48.66,-19.25 -71.46,-6.91 -3.69,-6.29 -7.37,-12.6 -11.05,-18.9 88.48,-40.57 161.15,-116.22 193.73,-208.54 17.96,-50.9 22.16,-111.41 -16.19,-154.37 -26.37,-29.54 -64.43,-32.57 -101.32,-24.37 -48.44,10.77 -92.58,38.1 -125.44,75.03 -5.16,-5.16 -10.31,-10.32 -15.48,-15.48 19.98,-19.43 6.42,-52.69 -14.23,-66.02 -32.56,-21 -76.78,1.21 -103.41,21.9 -55.68,43.29 -90.79,110.83 -95.91,180.94 -7.16,-0.97 -14.33,-1.93 -21.5,-2.91 8.21,-31.21 -27.76,-53.74 -55.15,-53.4 -36.01,0.45 -62.58,34.82 -78.83,63.06 -42.18,73.32 -66.1,160.83 -76.4,244.34 -5.95,48.27 -6.94,96.99 -3.36,145.48 1.03,14.05 -20.87,13.99 -21.9,0 v 0"
         style="fill:#383229;fill-opacity:1;fill-rule:nonzero;stroke:none"
         transform="matrix(0.13333333,0,0,-0.13333333,0,1693.8933)" />
      <path
         id="path233"
         d="m 5522.15,7433.44 c 8.01,47.71 28.81,89.4 73.87,111.09 40.1,19.31 87.94,23.2 131.79,23.56 112.58,0.93 224.36,-20.82 337.01,-13.96 70.84,4.31 141.91,19.34 202.71,57.41 11.92,7.46 0.94,26.41 -11.05,18.91 -107.31,-67.19 -240.5,-59.05 -361.5,-49.49 -58.05,4.59 -116.37,10.02 -174.66,8.92 -45.53,-0.85 -93.88,-6.47 -135.36,-26.44 -49.7,-23.93 -75.06,-71.41 -83.92,-124.17 -2.31,-13.78 18.78,-19.71 21.11,-5.83 v 0"
         style="fill:#383229;fill-opacity:1;fill-rule:nonzero;stroke:none"
         transform="matrix(0.13333333,0,0,-0.13333333,0,1693.8933)" />
      <path
         id="path234"
         d="m 6889.94,7339.95 c 36.95,54.81 27.37,131.32 8.9,191.06 -19.84,64.19 -56.94,122.43 -106.9,167.35 -10.45,9.4 -25.98,-6.03 -15.48,-15.48 46.11,-41.46 80.89,-94.42 99.95,-153.5 17.82,-55.26 29.13,-127.21 -5.38,-178.38 -7.89,-11.72 11.06,-22.69 18.91,-11.05 v 0"
         style="fill:#383229;fill-opacity:1;fill-rule:nonzero;stroke:none"
         transform="matrix(0.13333333,0,0,-0.13333333,0,1693.8933)" />
      <path
         id="path235"
         d="m 7359.1,7530.87 c 62.41,-84.72 157.29,-140.29 261.65,-153.49 13.94,-1.76 13.81,20.15 0,21.9 -95.88,12.12 -185.45,64.86 -242.75,142.64 -8.27,11.22 -27.28,0.31 -18.9,-11.05 v 0"
         style="fill:#383229;fill-opacity:1;fill-rule:nonzero;stroke:none"
         transform="matrix(0.13333333,0,0,-0.13333333,0,1693.8933)" />
      <path
         id="path236"
         d="m 7955.05,7499.47 c 57.4,-37.55 121.21,-64.78 188.02,-80.27 13.71,-3.18 19.57,17.93 5.82,21.11 -65.15,15.1 -126.83,41.46 -182.79,78.06 -11.83,7.74 -22.81,-11.21 -11.05,-18.9 v 0"
         style="fill:#383229;fill-opacity:1;fill-rule:nonzero;stroke:none"
         transform="matrix(0.13333333,0,0,-0.13333333,0,1693.8933)" />
      <path
         id="path237"
         d="m 8061.67,8073.74 c 21.39,29.52 59.47,47.6 93.55,57.43 40.5,11.67 88.32,12.02 129.04,1.23 36.97,-9.8 73.76,-34.1 86.19,-72 10.75,-32.77 -2,-71.66 -33.87,-86.96 3.69,-6.3 7.37,-12.6 11.05,-18.9 48.23,33.34 115.53,56.44 174.63,44.03 27.19,-5.71 49.73,-24.96 38.81,-54.96 -11.26,-30.95 -46.1,-41.76 -75.04,-48.84 -13.68,-3.35 -7.89,-24.46 5.82,-21.11 34.82,8.52 72.13,22.7 87.76,57.74 13.76,30.84 2.93,65 -27.73,80.13 -31.22,15.41 -69.6,13.02 -102.96,7.59 -40.31,-6.55 -78.78,-22.48 -112.34,-45.68 -11.62,-8.03 -1.69,-25.02 11.05,-18.9 28.66,13.76 45.23,43.14 48.09,74.13 3.11,33.68 -13.13,66.1 -37.58,88.53 -28.21,25.9 -64.65,38.23 -102.19,42.39 -39.65,4.4 -81.29,1.88 -119.12,-11.31 -35.68,-12.44 -71.52,-32.37 -94.06,-63.5 -8.27,-11.42 10.71,-22.36 18.9,-11.04 v 0"
         style="fill:#383229;fill-opacity:1;fill-rule:nonzero;stroke:none"
         transform="matrix(0.13333333,0,0,-0.13333333,0,1693.8933)" />
      <path
         id="path238"
         d="m 8238.25,8599.24 c 128.13,-43.12 238.75,-131.57 309.23,-246.9 7.34,-12.01 26.28,-1.02 18.91,11.05 -73.53,120.31 -188.72,212 -322.32,256.95 -13.39,4.51 -19.13,-16.63 -5.82,-21.1 v 0"
         style="fill:#383229;fill-opacity:1;fill-rule:nonzero;stroke:none"
         transform="matrix(0.13333333,0,0,-0.13333333,0,1693.8933)" />
      <path
         id="path239"
         d="m 8421.39,8659.44 c 43.98,59.65 70.26,130.54 76.92,204.27 1.26,14.03 -20.64,13.94 -21.9,0 -6.31,-69.92 -32.3,-136.77 -73.93,-193.22 -8.36,-11.35 10.63,-22.28 18.91,-11.05 v 0"
         style="fill:#383229;fill-opacity:1;fill-rule:nonzero;stroke:none"
         transform="matrix(0.13333333,0,0,-0.13333333,0,1693.8933)" />
      <path
         id="path240"
         d="m 8248.34,9019.37 c 9.76,47.58 13.78,96.16 11.72,144.69 -0.6,14.03 -22.49,14.11 -21.9,0 1.98,-46.6 -1.56,-93.17 -10.93,-138.87 -2.82,-13.75 18.28,-19.63 21.11,-5.82 v 0"
         style="fill:#383229;fill-opacity:1;fill-rule:nonzero;stroke:none"
         transform="matrix(0.13333333,0,0,-0.13333333,0,1693.8933)" />
      <path
         id="path241"
         d="m 5814.26,7738.97 c 73.22,-47.13 176.62,-45.77 243.82,12.12 29.72,25.6 50.34,63.78 45.18,103.76 -4.73,36.68 -29.14,70.6 -66.06,79.64 -9.42,2.31 -16.91,-7.61 -12.36,-16.08 29.04,-54.03 105.69,-59.38 140.88,-8.94 36.79,52.76 -0.28,122.61 -62.19,128.96 -14,1.44 -13.9,-20.47 0,-21.89 46.63,-4.78 70.57,-58.92 42.96,-96.42 -26.95,-36.6 -81.84,-29.56 -102.75,9.34 -4.12,-5.36 -8.24,-10.72 -12.36,-16.08 31.06,-7.61 50.18,-38.35 50.9,-69.33 0.82,-35.16 -22.69,-66.45 -50.42,-85.8 -60.9,-42.48 -145.06,-39.95 -206.55,-0.37 -11.88,7.65 -22.87,-11.3 -11.05,-18.91 v 0"
         style="fill:#383229;fill-opacity:1;fill-rule:nonzero;stroke:none"
         transform="matrix(0.13333333,0,0,-0.13333333,0,1693.8933)" />
      <path
         id="path242"
         d="m 5606.53,7273.05 c -2.31,38.59 5.37,78.37 28.24,110.23 21.59,30.08 55.59,49.88 90.58,60.25 13.48,4 7.74,25.13 -5.82,21.11 -39.93,-11.83 -76.9,-34.34 -101.99,-68.02 -26.09,-35.01 -35.48,-80.6 -32.9,-123.57 0.84,-14 22.74,-14.1 21.89,0 v 0"
         style="fill:#383229;fill-opacity:1;fill-rule:nonzero;stroke:none"
         transform="matrix(0.13333333,0,0,-0.13333333,0,1693.8933)" />
      <path
         id="path243"
         d="m 5730.11,7230.13 c -2.31,38.58 5.37,78.37 28.23,110.22 21.6,30.09 55.59,49.88 90.59,60.26 13.48,3.99 7.74,25.13 -5.82,21.11 -39.93,-11.84 -76.9,-34.34 -101.99,-68.02 -26.09,-35.01 -35.48,-80.6 -32.9,-123.57 0.84,-14 22.74,-14.1 21.89,0 v 0"
         style="fill:#383229;fill-opacity:1;fill-rule:nonzero;stroke:none"
         transform="matrix(0.13333333,0,0,-0.13333333,0,1693.8933)" />
      <path
         id="path244"
         d="m 4539.64,7518.1 c 3.98,48.86 29.53,96.05 69.23,125.07 4.76,3.48 7.13,9.5 3.92,14.98 -2.75,4.7 -10.17,7.43 -14.97,3.92 -46.43,-33.93 -75.41,-86.72 -80.07,-143.97 -1.14,-14.04 20.76,-13.96 21.89,0 v 0"
         style="fill:#383229;fill-opacity:1;fill-rule:nonzero;stroke:none"
         transform="matrix(0.13333333,0,0,-0.13333333,0,1693.8933)" />
      <path
         id="path245"
         d="m 4634.62,7461.88 c 4.84,49.48 31.5,96.73 71.45,126.36 4.74,3.52 7.15,9.48 3.93,14.98 -2.73,4.67 -10.2,7.47 -14.98,3.93 -46.73,-34.67 -76.63,-87.34 -82.3,-145.27 -0.57,-5.9 5.45,-10.95 10.95,-10.95 6.4,0 10.37,5.03 10.95,10.95 v 0"
         style="fill:#383229;fill-opacity:1;fill-rule:nonzero;stroke:none"
         transform="matrix(0.13333333,0,0,-0.13333333,0,1693.8933)" />
      <path
         id="path246"
         d="m 7063.32,8072.02 c 50.13,-78.35 120.35,-177.22 226.95,-165.19 40.45,4.57 80.03,29.7 97.11,67.36 18.95,41.79 4,87.88 -25.62,120.49 -37.72,41.53 -94.8,55.62 -147.47,67.22 -0.98,-7.17 -1.95,-14.33 -2.91,-21.51 87.68,-6.06 195.85,-17.71 266.13,48.22 28.09,26.33 35.94,63.89 15.34,97.46 -26.95,43.89 -74.48,60.53 -122.54,70.61 -62.21,13.04 -126.11,11.76 -189.24,8.57 -14.02,-0.71 -14.1,-22.61 0,-21.89 49.05,2.47 98.5,4.04 147.38,-1.86 43.58,-5.27 96.74,-14.25 129.15,-46.3 13.33,-13.18 26.3,-30.85 25.65,-50.48 -0.5,-15.03 -8.52,-28.07 -18.94,-38.44 -22.25,-22.12 -54.14,-35.13 -84.29,-42.04 -54.89,-12.59 -113.14,-5.79 -168.64,-1.95 -12.27,0.85 -14.95,-18.85 -2.91,-21.5 40.88,-9.01 83.81,-18.59 118.23,-43.77 31.42,-22.98 56.01,-63.69 44.66,-103.43 -10.06,-35.18 -45.16,-59.52 -80.25,-64.73 -42.34,-6.28 -85.61,13.22 -117.69,39.58 -38.08,31.3 -64.91,73.55 -91.19,114.63 -7.57,11.83 -26.53,0.87 -18.91,-11.05 v 0"
         style="fill:#383229;fill-opacity:1;fill-rule:nonzero;stroke:none"
         transform="matrix(0.13333333,0,0,-0.13333333,0,1693.8933)" />
      <path
         id="path247"
         d="m 5498.32,8195.41 c -21.82,9.8 -45.22,11.44 -68.39,14.12 -25.94,3.01 -51.89,5.8 -77.88,7.87 -24.14,1.93 -52.17,6.94 -75.25,-1.15 -28.68,-10.05 -36.03,-40.11 -22.22,-68.45 33.12,-67.96 94.39,-113.84 171.31,-88.14 26.4,8.82 87.25,46.78 99.28,75.18 12.08,28.52 -3.17,49.93 -26.85,60.57"
         style="fill:#383229;fill-opacity:1;fill-rule:nonzero;stroke:none"
         transform="matrix(0.13333333,0,0,-0.13333333,0,1693.8933)" />
      <path
         id="path248"
         d="m 8489.88,7873.43 c 45.35,-8.7 91.37,-13.51 137.54,-14.17 14.09,-0.2 14.1,21.69 0,21.89 -44.24,0.64 -88.27,5.05 -131.72,13.39 -13.76,2.65 -19.66,-18.45 -5.82,-21.11 v 0"
         style="fill:#383229;fill-opacity:1;fill-rule:nonzero;stroke:none"
         transform="matrix(0.13333333,0,0,-0.13333333,0,1693.8933)" />
      <path
         id="path249"
         d="m 6487.06,8099.63 c 12.35,-59.52 38.75,-114.99 76.28,-162.73 3.68,-4.68 11.61,-3.78 15.48,0 4.64,4.54 3.63,10.86 0,15.49 -35.16,44.71 -59.1,97.43 -70.65,153.06 -2.86,13.79 -23.97,7.95 -21.11,-5.82 v 0"
         style="fill:#383229;fill-opacity:1;fill-rule:nonzero;stroke:none"
         transform="matrix(0.13333333,0,0,-0.13333333,0,1693.8933)" />
      <path
         id="path250"
         d="m 6312.17,8167.57 c 5.19,-32.45 10.38,-64.9 15.57,-97.34 0.94,-5.84 8.22,-9.09 13.47,-7.65 6.22,1.71 8.58,7.61 7.65,13.47 -5.19,32.44 -10.39,64.89 -15.58,97.34 -0.94,5.84 -8.22,9.08 -13.47,7.64 -6.22,-1.71 -8.58,-7.6 -7.64,-13.46 v 0"
         style="fill:#383229;fill-opacity:1;fill-rule:nonzero;stroke:none"
         transform="matrix(0.13333333,0,0,-0.13333333,0,1693.8933)" />
      <path
         id="path251"
         d="m 5269.4,8210.21 c -81.85,-42.83 -72.97,-149.07 -50.31,-223.98 9.52,-31.48 24.43,-69.35 53.55,-87.7 30.3,-19.1 61.44,1.23 80.59,25.92 28.42,36.63 42.68,86.19 39.96,132.3 -0.84,14.05 -21.16,14.13 -21.9,0 -4.87,-93.92 43.08,-185.74 131.71,-223.02 37.45,-15.75 81.55,-24.03 121.45,-13.28 35.42,9.54 68.13,30.82 92,58.55 35.29,40.99 49.97,93.62 48.34,147.11 -0.43,14.06 -22.32,14.12 -21.9,0 2.38,-78.1 -37.13,-154.86 -113.97,-181.38 -73.16,-25.24 -160.96,16.73 -201.78,78.88 -25.91,39.45 -36.38,86.31 -33.95,133.14 -7.3,0 -14.6,0 -21.9,0 2.55,-42.99 -10.61,-91.88 -39.83,-124.47 -10.02,-11.17 -25.11,-24.15 -41.22,-18.24 -16.66,6.09 -27.37,24.82 -35,39.69 -19.16,37.4 -28.66,82.58 -30.24,124.35 -1.69,44.9 13.45,91.24 55.45,113.23 12.49,6.53 1.43,25.43 -11.05,18.9 v 0"
         style="fill:#383229;fill-opacity:1;fill-rule:nonzero;stroke:none"
         transform="matrix(0.13333333,0,0,-0.13333333,0,1693.8933)" />
      <path
         id="path252"
         d="m 5511.98,8302.5 c 8.38,101.29 17.82,211.67 83.34,294.54 65.7,83.09 173.48,106.73 272.61,123.28 13.87,2.31 7.99,23.42 -5.82,21.11 -83.17,-13.88 -169.22,-32.14 -237.37,-84.9 -64.02,-49.56 -98.81,-125.21 -115.53,-202.81 -10.71,-49.74 -14.93,-100.61 -19.12,-151.22 -1.16,-14.05 20.74,-13.97 21.89,0 v 0"
         style="fill:#383229;fill-opacity:1;fill-rule:nonzero;stroke:none"
         transform="matrix(0.13333333,0,0,-0.13333333,0,1693.8933)" />
      <path
         id="path253"
         d="m 5350.76,7830.34 c 94.84,-93.33 240.23,-128.07 366.93,-87.1 13.35,4.32 7.64,25.46 -5.82,21.11 -119.42,-38.62 -256.1,-6.63 -345.63,81.47 -10.05,9.9 -25.55,-5.57 -15.48,-15.48 v 0"
         style="fill:#383229;fill-opacity:1;fill-rule:nonzero;stroke:none"
         transform="matrix(0.13333333,0,0,-0.13333333,0,1693.8933)" />
    </g>
  </g>
</svg>
