<?xml version="1.0" encoding="UTF-8" standalone="no"?>
<!-- Created with Inkscape (http://www.inkscape.org/) -->

<svg
   version="1.1"
   id="svg1"
   width="365.75821"
   height="475.01138"
   viewBox="0 0 365.75821 475.01138"
   sodipodi:docname="dog-pot.svg"
   xmlns:inkscape="http://www.inkscape.org/namespaces/inkscape"
   xmlns:sodipodi="http://sodipodi.sourceforge.net/DTD/sodipodi-0.dtd"
   xmlns="http://www.w3.org/2000/svg"
   xmlns:svg="http://www.w3.org/2000/svg">
  <defs
     id="defs1" />
  <sodipodi:namedview
     id="namedview1"
     pagecolor="#ffffff"
     bordercolor="#000000"
     borderopacity="0.25"
     inkscape:showpageshadow="2"
     inkscape:pageopacity="0.0"
     inkscape:pagecheckerboard="0"
     inkscape:deskcolor="#d1d1d1"
     inkscape:export-bgcolor="#ffffff00" />
  <g
     id="g1"
     inkscape:groupmode="layer"
     inkscape:label="1"
     transform="translate(-2868.5733,-304.06727)">
    <g
       id="g560"
       inkscape:export-filename="g560.svg"
       inkscape:export-xdpi="96"
       inkscape:export-ydpi="96">
      <path
         id="path4"
         d="m 22945.6,10115.3 c 57.7,0.9 -9.5,95.7 -21.5,113.4 -28.2,41.7 -64.7,79.4 -103.6,109.3 -27.8,21.3 -58,38.9 -89.7,53.7 -31.6,14.7 -66.2,27.8 -101.1,31.4 -36.4,3.7 -77.2,-9.7 -94.4,-44.2 -16,-31.8 -7.8,-68.6 7.1,-99.2 67.1,-138.5 266.2,-166.4 403.2,-164.4"
         style="fill:#208a65;fill-opacity:1;fill-rule:nonzero;stroke:none"
         transform="matrix(0.13333333,0,0,-0.13333333,0,1693.8933)" />
      <path
         id="path5"
         d="m 22909.9,10230.9 c 83.2,-145.8 115.5,-318.68 89.6,-484.62 -2,-13.45 18.5,-19.25 20.6,-5.68 26.8,171.82 -5.5,349.9 -91.8,501.1 -6.8,11.9 -25.3,1.1 -18.4,-10.8 v 0"
         style="fill:#383229;fill-opacity:1;fill-rule:nonzero;stroke:none"
         transform="matrix(0.13333333,0,0,-0.13333333,0,1693.8933)" />
      <path
         id="path6"
         d="m 24253.3,9001.8 c 0,-105.31 -613.2,-190.68 -1369.5,-190.68 -756.4,0 -1369.5,85.37 -1369.5,190.68 0,105.31 613.1,190.67 1369.5,190.67 756.3,0 1369.5,-85.36 1369.5,-190.67"
         style="fill:#e8d6ce;fill-opacity:1;fill-rule:nonzero;stroke:none"
         transform="matrix(0.13333333,0,0,-0.13333333,0,1693.8933)" />
      <path
         id="path7"
         d="m 24101.7,9001.8 c 0,-0.08 -0.3,-0.49 0.1,-0.07 -2.8,-3.33 0.4,-0.31 -2.4,-3.24 -3.2,-3.4 -5.1,-4.37 -10.8,-7.48 -13.9,-7.49 -29.7,-12.13 -45.6,-16.48 -55,-15.04 -112.1,-23.12 -168.6,-30.34 -190.3,-24.34 -382.6,-33.87 -574.3,-40.35 -249.4,-8.45 -499.2,-9.1 -748.6,-2.53 -201.8,5.31 -404.1,14.29 -604.9,36.51 -63.8,7.07 -127.8,15.19 -190.5,29.02 -20.2,4.44 -40.4,9.42 -59.8,16.57 -6.6,2.43 -11.7,4.48 -18.2,8.07 -5.8,3.23 -6.9,3.61 -10.4,7.5 -2.3,2.46 0.9,-0.43 -1.9,2.75 0.5,-0.61 -0.3,0.3 0.1,0.32 0,0 -0.1,-0.04 0,0.07 2.5,3.05 -0.5,0.09 2.2,2.99 3.2,3.37 5.5,4.59 11.3,7.71 6.7,3.56 11.7,5.52 18.8,8.06 46.4,16.67 96.5,24.28 145.1,31.61 178.6,26.92 360.2,36.55 540.5,44.11 247.5,10.38 495.5,12.37 743.2,7.7 211.5,-3.99 423.5,-12.18 634.2,-32.37 70.9,-6.81 141.9,-14.77 212.1,-27.54 38.2,-6.96 82.7,-13.69 116.1,-32.28 5.8,-3.2 6.9,-3.67 10.5,-7.49 2.1,-2.22 -0.7,0.19 1.9,-2.75 -0.5,0.51 -0.1,-0.31 -0.1,-0.07 0.3,-13.73 21.6,-13.77 21.3,0 -0.6,27.11 -41.7,38.1 -61.8,44.26 -53.6,16.39 -109.9,24.38 -165.3,31.87 -193.3,26.18 -389.1,35.98 -584,42.79 -256.5,8.97 -513.5,9.65 -770.2,2.67 -205.8,-5.6 -412.4,-14.77 -617,-38.76 -63.1,-7.4 -126.7,-15.66 -188.5,-30.54 -19.4,-4.65 -38.7,-9.99 -57,-17.87 -11,-4.73 -23.6,-10.72 -30.4,-21.11 -36.4,-55.7 151.5,-78.73 173.4,-82.21 180.9,-28.8 365.2,-38.77 548,-46.69 253.7,-10.98 507.9,-13.07 761.8,-8.18 216.7,4.18 433.9,12.59 649.6,34.28 70.9,7.13 141.9,15.41 211.8,29.02 36.6,7.12 80.7,13.78 112.4,35.06 8.8,5.95 17,14.07 17.2,25.41 0.3,13.75 -21,13.74 -21.3,0"
         style="fill:#383229;fill-opacity:1;fill-rule:nonzero;stroke:none"
         transform="matrix(0.13333333,0,0,-0.13333333,0,1693.8933)" />
      <path
         id="path8"
         d="m 22883.8,8484.72 h -1095.5 c 56.1,-729.57 231.8,-1493.65 231.8,-1493.72 0,0 0,0 0,-0.01 0,-71.73 386.7,-129.88 863.7,-129.88 477,0 863.7,58.15 863.7,129.88 0,0 175.7,764.13 231.7,1493.73 h -1095.4"
         style="fill:#e8d6ce;fill-opacity:1;fill-rule:nonzero;stroke:none"
         transform="matrix(0.13333333,0,0,-0.13333333,0,1693.8933)" />
      <path
         id="path9"
         d="m 24253.3,9001.77 c 0,-216.5 -54.7,-521.01 -54.7,-521.01 h -0.1 c -15.3,-99.33 -598,-179.12 -1314.7,-179.12 -716.7,0 -1299.4,79.79 -1314.7,179.12 h -0.1 c 0,0 -54.7,304.51 -54.7,521.01 0,-105.31 613.1,-190.65 1369.5,-190.65 756.3,0 1369.5,85.34 1369.5,190.65"
         style="fill:#e8d6ce;fill-opacity:1;fill-rule:nonzero;stroke:none"
         transform="matrix(0.13333333,0,0,-0.13333333,0,1693.8933)" />
      <path
         id="path10"
         d="m 24237,8987.69 c -6.5,-8.81 -20.5,-18.04 -32.9,-24.67 -19.4,-10.47 -40.3,-18.24 -61.3,-25.14 -62.5,-20.61 -127.7,-33.65 -192.5,-44.91 -201.5,-35.03 -406.7,-50.33 -610.8,-60.36 -259.2,-12.72 -519.1,-14.2 -778.4,-5.48 -218.3,7.34 -437.3,20.86 -653.7,51.66 -75.5,10.75 -151,23.46 -225,42.4 -44.6,11.44 -92.4,24.01 -131.6,49.2 -6.3,4.08 -10.6,7.19 -16,12.59 -9.8,9.69 -24.9,-5.41 -15.1,-15.11 28.8,-28.53 72.6,-42.34 110.2,-54.07 66.7,-20.8 135.9,-34 204.8,-45.34 208.9,-34.41 421.2,-49.65 632.6,-59.04 263.7,-11.71 528.1,-12.17 791.8,-1.73 215.5,8.53 431.8,23.25 645.2,56.2 72.2,11.17 144.6,24.24 215,44.41 41.5,11.91 87.7,25.55 121.7,53.44 5.5,4.5 10.2,9.48 14.4,15.17 8.3,11.04 -10.3,21.71 -18.4,10.78 v 0"
         style="fill:#383229;fill-opacity:1;fill-rule:nonzero;stroke:none"
         transform="matrix(0.13333333,0,0,-0.13333333,0,1693.8933)" />
      <path
         id="path11"
         d="m 24089,8898.12 c -1.4,20.83 -4.4,41.98 -8.7,62.91 -27.8,132.12 -114.5,258.37 -261.7,268.52 -108.8,7.47 -210.4,-46.89 -280.3,-127.64 -37.7,-43.68 -67.3,-95.16 -87.6,-149.1 -1,-2.67 -1.5,-5.34 -1.7,-7.8 -12.3,1.82 -24.5,3.95 -36.9,6.84 -13.4,3.2 -27.1,-8.55 -29,-21.36 -2.2,-14.64 8,-25.64 21.4,-28.95 22.6,-5.66 45.2,-5.74 66.9,-12.25 55.4,2.28 107.5,5.01 157.9,9.5 l 6.5,0.64 c 1.7,-62.05 16,-134.18 45.3,-189.08 35.2,-65.89 92,-133.4 172.2,-138.2 75.5,-4.6 146.3,36.52 186.4,99.64 42.3,66.98 54.7,148.36 49.3,226.33"
         style="fill:#e0865c;fill-opacity:1;fill-rule:nonzero;stroke:none"
         transform="matrix(0.13333333,0,0,-0.13333333,0,1693.8933)" />
      <path
         id="path12"
         d="m 23860.5,9507.48 c -17.9,38.15 -41,74.29 -65.3,108.65 -65.5,92.48 -146.2,181.98 -246.3,237.59 -42.6,23.65 -113.6,58.19 -164.3,47.79 -75,-15.36 -99.3,-125.23 -104.3,-188.32 -14.7,-186.84 80.5,-411.16 236.2,-518.35 28.5,-19.64 58.9,-36.68 91.1,-49.6 32.7,-13.16 70.4,-25.81 106,-18.6 39.9,8.08 5.3,40.23 10.7,80.27 3.6,26.42 60.9,52.16 54.9,78.45 11.6,0.91 23.1,3.92 34.2,9.51 35.7,18.03 58.8,52.43 67.3,91.02 9,40.82 -2.8,84.63 -20.2,121.59"
         style="fill:#e0865c;fill-opacity:1;fill-rule:nonzero;stroke:none"
         transform="matrix(0.13333333,0,0,-0.13333333,0,1693.8933)" />
      <path
         id="path13"
         d="m 23746.2,9452.24 c -18.8,39.63 -47,73.38 -85.5,95.17 -21.6,12.28 -45.4,18.91 -69.8,22.75 -28.4,53.29 -36.8,115.67 -57.3,171.96 -23.1,63.44 -62.7,114.18 -121.9,147.29 -57.2,31.94 -124.2,43.04 -188.9,44.11 -79.5,1.28 -158.7,-11.32 -236.9,-23.71 -70.2,-11.11 -141.6,-26.92 -201.4,-67.19 -114,-76.68 -158.9,-218.84 -161.1,-350.11 -1.6,-90.36 14.2,-179.54 29.3,-268.3 3.4,-19.97 6.8,-39.95 10.2,-59.92 -5,-16.77 -10.1,-33.54 -15.2,-50.31 -24.4,-81.07 37.7,-194.6 48.5,-200.8 25.5,-14.53 44.6,-22.56 60.1,-40.4 42.2,-0.53 85,-0.85 128.3,-0.85 215.2,0 405.6,5.07 586.8,17.36 1.8,6.62 15.7,5.74 17.4,12.57 0.7,3.1 1.3,6.3 2,9.4 27.4,4.91 54.3,12.92 79.4,24.67 44.2,20.83 81.6,51.8 107.7,93.25 26.3,41.86 42.6,88.64 58.3,135.22 31.2,92.06 53.8,195.88 10,287.84"
         style="fill:#e0865c;fill-opacity:1;fill-rule:nonzero;stroke:none"
         transform="matrix(0.13333333,0,0,-0.13333333,0,1693.8933)" />
      <path
         id="path14"
         d="m 23534.2,8887.59 c 6.5,47.21 22.7,92.23 48.3,132.47 7.4,11.64 -11.1,22.36 -18.5,10.78 -26.4,-41.62 -43.7,-88.72 -50.4,-137.57 -0.7,-5.71 1.4,-11.47 7.5,-13.14 5,-1.37 12.4,1.71 13.1,7.46 v 0"
         style="fill:#383229;fill-opacity:1;fill-rule:nonzero;stroke:none"
         transform="matrix(0.13333333,0,0,-0.13333333,0,1693.8933)" />
      <path
         id="path15"
         d="m 23354.9,9033.6 c 92.1,-57.94 213.1,-32.95 276.1,55 8.1,11.19 -10.5,21.87 -18.4,10.78 -56.5,-78.76 -165.3,-98.67 -246.9,-47.33 -11.7,7.34 -22.4,-11.14 -10.8,-18.45 v 0"
         style="fill:#383229;fill-opacity:1;fill-rule:nonzero;stroke:none"
         transform="matrix(0.13333333,0,0,-0.13333333,0,1693.8933)" />
      <path
         id="path16"
         d="m 23388.6,9880.8 c 61,-25.35 100.7,-78.78 124,-138.94 24.9,-64.63 30.6,-136.08 70.4,-194.56 7.7,-11.3 26.2,-0.62 18.4,10.78 -41.7,61.32 -45.8,138.19 -74.7,205.25 -26.5,61.58 -69.7,112 -132.5,138.07 -12.6,5.27 -18.2,-15.39 -5.6,-20.6 v 0"
         style="fill:#383229;fill-opacity:1;fill-rule:nonzero;stroke:none"
         transform="matrix(0.13333333,0,0,-0.13333333,0,1693.8933)" />
      <path
         id="path17"
         d="m 23640.8,9103.69 c -3.6,47.73 -24.7,93.34 -58.7,126.97 -40.6,40.19 -120,67.78 -162,13.73 -5.6,-7.17 -6.6,-14.62 -4.9,-21.1 -0.8,-1.05 -1.8,-1.96 -2.6,-3.09 -1.6,-2.17 -3.1,-4.44 -4.5,-6.71 -1.7,1.56 -3.4,3.17 -5.1,4.69 -19.2,16.81 -42.9,-11.91 -25.5,-29.65 19,-19.51 36.3,-40.4 51.3,-63.21 13.6,-20.65 24.9,-42.67 37.2,-64.08 22.8,-39.44 65.5,-99.98 119.3,-84.02 48.4,14.38 58.7,83.73 55.5,126.47"
         style="fill:#ffa8ca;fill-opacity:1;fill-rule:nonzero;stroke:none"
         transform="matrix(0.13333333,0,0,-0.13333333,0,1693.8933)" />
      <path
         id="path18"
         d="m 22971.1,9755.47 c -42.3,104.65 -87.7,127.01 -194.2,83.93 -176,-71.17 -377.7,-258.94 -447.1,-437.56 -34.4,-88.59 -38.6,-200.81 33,-273 30,-30.24 71.1,-52.35 114.4,-55.29 2.5,-0.17 4.9,-0.01 7.4,-0.06 0.7,-41.11 6.1,-84.61 32.7,-116.14 16.2,-19.06 38.8,-33.79 64.2,-36.66 25.8,-2.92 50.8,7.29 70.6,23.16 37.7,30.17 67.1,71.83 90.3,113.51 4.6,8.3 8.8,16.8 12.9,25.41 3.3,-4.17 6.8,-8.25 10.8,-12.14 44.6,-43.33 117.4,-47.77 156.5,4.88 20,26.88 33.2,60.44 45.7,91.23 13.3,32.92 24.1,66.65 33.2,100.93 41.4,156.84 30.5,337.12 -30.4,487.8"
         style="fill:#e0865c;fill-opacity:1;fill-rule:nonzero;stroke:none"
         transform="matrix(0.13333333,0,0,-0.13333333,0,1693.8933)" />
      <path
         id="path19"
         d="m 22757.1,9071.49 c 17.8,34.19 28.1,70.81 31.1,109.2 -7,-0.95 -14,-1.89 -21,-2.84 13.6,-35.9 51.1,-57.22 89.1,-53.27 43.9,4.57 79,36.31 99.4,73.87 23.3,42.78 33.7,92.86 39.7,140.76 6.3,51.59 5.4,103.9 -0.4,155.5 -6.5,58.91 -19.1,116.89 -34.9,173.97 -3.6,13.23 -24.2,7.62 -20.5,-5.67 24,-86.97 41,-176.72 38.6,-267.3 -1.2,-44.29 -7.2,-88.36 -19.4,-131.01 -11.3,-39.78 -29,-81.6 -65.3,-104.68 -34.2,-21.77 -89.1,-20.12 -105.7,23.51 -4.3,11.27 -20,9.51 -21,-2.84 -2.6,-34.5 -12.2,-67.71 -28.1,-98.42 -6.3,-12.18 12.1,-23 18.4,-10.78 v 0"
         style="fill:#383229;fill-opacity:1;fill-rule:nonzero;stroke:none"
         transform="matrix(0.13333333,0,0,-0.13333333,0,1693.8933)" />
      <path
         id="path20"
         d="m 23078.5,8864.37 c -7.7,25.1 -17.4,49.56 -29,73.06 -29.5,59.49 -70.7,121.44 -129.5,155.08 -60.1,34.4 -134.7,28.84 -199,10.69 -69.5,-19.55 -133.9,-56.4 -189.6,-102.01 -44.6,-36.52 -88.9,-68.7 -122.7,-116.55 82.4,-4.28 168.5,-7.37 257.6,-9.3 l 7.1,-0.21 c -4.3,-41.01 -12.3,-117.35 -7.8,-154.63 7,-59.6 26.3,-122.19 66.8,-168.01 47.6,-53.51 113.8,-72.74 183.2,-78.61 32.3,-2.67 66.9,-4.7 97.2,8.65 33.3,14.64 53.2,44.75 64.5,78.29 32.6,97.52 31.8,205.39 1.2,303.55"
         style="fill:#e0865c;fill-opacity:1;fill-rule:nonzero;stroke:none"
         transform="matrix(0.13333333,0,0,-0.13333333,0,1693.8933)" />
      <path
         id="path21"
         d="m 22517.7,8983.96 c 66.3,64.43 156.2,114.15 249.7,120.67 44.8,3.12 87.7,-5.32 127.3,-26.79 44.9,-24.41 82.8,-59.97 114.5,-99.78 26.4,-33.09 50,-69.98 67.7,-108.54 5.7,-12.49 24.1,-1.64 18.4,10.78 -37.8,82.53 -100.1,162.63 -178.6,209.59 -40.6,24.24 -85,37.23 -132.4,36.78 -48.9,-0.46 -97,-13.42 -141.7,-32.92 -51.9,-22.67 -99.4,-55.26 -140,-94.69 -9.9,-9.59 5.2,-24.69 15.1,-15.1 v 0"
         style="fill:#383229;fill-opacity:1;fill-rule:nonzero;stroke:none"
         transform="matrix(0.13333333,0,0,-0.13333333,0,1693.8933)" />
      <path
         id="path22"
         d="m 22995.1,9557.23 c 0,0 16.7,51.36 89.1,38.16 72.4,-13.2 66.8,-132.08 19.6,-148.26 -47.3,-16.19 -77.9,-0.75 -96.8,14.36 -18.8,15.11 -11.9,95.74 -11.9,95.74"
         style="fill:#ffffff;fill-opacity:1;fill-rule:nonzero;stroke:none"
         transform="matrix(0.13333333,0,0,-0.13333333,0,1693.8933)" />
      <path
         id="path23"
         d="m 22996.4,9468.65 c 12,-15.27 42.5,-22.24 68.7,-4.85 27.4,18.13 15.9,71.77 2.2,90.27 -5.7,7.63 -15.5,14.28 -28.5,16.82 -33.1,6.45 -51.3,-15.85 -56.2,-32.89 -5.7,-19.91 1.9,-54.31 13.8,-69.35"
         style="fill:#383229;fill-opacity:1;fill-rule:nonzero;stroke:none"
         transform="matrix(0.13333333,0,0,-0.13333333,0,1693.8933)" />
      <path
         id="path24"
         d="m 23375.9,9678.74 c 0,0 16.6,51.36 89,38.16 72.4,-13.2 66.9,-132.07 19.6,-148.26 -47.3,-16.19 -77.8,-0.75 -96.7,14.36 -18.9,15.11 -11.9,95.74 -11.9,95.74"
         style="fill:#ffffff;fill-opacity:1;fill-rule:nonzero;stroke:none"
         transform="matrix(0.13333333,0,0,-0.13333333,0,1693.8933)" />
      <path
         id="path25"
         d="m 23377.1,9590.15 c 12,-15.27 42.6,-22.23 68.8,-4.84 27.3,18.13 15.9,71.77 2.1,90.27 -5.7,7.63 -15.4,14.28 -28.4,16.82 -33.2,6.45 -51.3,-15.85 -56.2,-32.9 -5.7,-19.9 1.8,-54.3 13.7,-69.35"
         style="fill:#383229;fill-opacity:1;fill-rule:nonzero;stroke:none"
         transform="matrix(0.13333333,0,0,-0.13333333,0,1693.8933)" />
      <path
         id="path26"
         d="m 23690.8,9540.97 c -142.1,70.89 -318.6,26.52 -451.8,-32.25 -75.6,-33.32 -128.5,-91.19 -149.9,-171.57 -22.6,-84.94 -15,-160.75 52.2,-219.54 31.4,-27.46 121.9,-28.38 151.2,16.04 0,0 49.2,-56.49 111,-31.29 52.1,21.26 112.8,73.38 145.1,172.13 32.7,-98.75 80.6,-112.49 130.2,-97.92 72.6,21.29 110.8,101.48 119.6,171.21 11.8,93.08 -24.8,151.87 -107.6,193.19"
         style="fill:#ffffff;fill-opacity:1;fill-rule:nonzero;stroke:none"
         transform="matrix(0.13333333,0,0,-0.13333333,0,1693.8933)" />
      <path
         id="path27"
         d="m 23636.3,9492.13 c -19.5,15.92 -53.2,22.7 -77.6,25.3 -50.9,5.45 -109.4,-3.65 -149.1,-38.47 -22,-19.27 -24.4,-50.86 -5.4,-73.3 29.1,-34.34 100.2,-51.3 143.6,-49.55 49.3,1.99 78.4,39.67 98.2,80.87 12.1,25.29 5.4,42.92 -9.7,55.15"
         style="fill:#383229;fill-opacity:1;fill-rule:nonzero;stroke:none"
         transform="matrix(0.13333333,0,0,-0.13333333,0,1693.8933)" />
      <path
         id="path28"
         d="m 23237.9,9211.27 c 22.5,-65.78 69.6,-132.72 147.9,-123.2 81.4,9.9 130.3,86.04 154.3,157.59 15.4,45.91 21.4,94.76 18.3,143.04 -0.9,13.65 -22.3,13.74 -21.4,0 3.1,-48.17 -3,-96.25 -19,-141.85 -14.4,-41 -36.5,-82.35 -70.8,-110.06 -33.9,-27.29 -83,-38.9 -122.2,-15.99 -34.7,20.28 -53.9,59.5 -66.5,96.15 -4.4,12.94 -25,7.38 -20.6,-5.68 v 0"
         style="fill:#383229;fill-opacity:1;fill-rule:nonzero;stroke:none"
         transform="matrix(0.13333333,0,0,-0.13333333,0,1693.8933)" />
      <path
         id="path29"
         d="m 23536.1,9311.87 c 6.2,-53.88 21.2,-114.03 75.7,-138.37 56.7,-25.38 110.9,11.42 147.9,52.6 9.2,10.19 -5.9,25.35 -15.1,15.1 -30.5,-33.97 -76.7,-70.75 -124.8,-47.99 -45.3,21.5 -57.1,73.26 -62.4,118.66 -1.6,13.49 -22.9,13.65 -21.3,0 v 0"
         style="fill:#383229;fill-opacity:1;fill-rule:nonzero;stroke:none"
         transform="matrix(0.13333333,0,0,-0.13333333,0,1693.8933)" />
      <path
         id="path30"
         d="m 23111.5,9377.6 c 88.6,117.71 233.7,188.04 380.8,186.16 13.8,-0.17 13.8,21.19 0,21.36 -155.2,1.99 -306,-72.9 -399.3,-196.74 -8.2,-10.98 10.3,-21.64 18.5,-10.78 v 0"
         style="fill:#383229;fill-opacity:1;fill-rule:nonzero;stroke:none"
         transform="matrix(0.13333333,0,0,-0.13333333,0,1693.8933)" />
      <path
         id="path31"
         d="m 22444.9,9331.12 c 45.9,38.26 79.5,90.07 96.2,147.36 3.9,13.22 -16.7,18.86 -20.6,5.68 -15.8,-53.99 -47.5,-101.93 -90.7,-137.93 -10.6,-8.82 4.6,-23.86 15.1,-15.11 v 0"
         style="fill:#383229;fill-opacity:1;fill-rule:nonzero;stroke:none"
         transform="matrix(0.13333333,0,0,-0.13333333,0,1693.8933)" />
      <path
         id="path32"
         d="m 23950.8,8377.58 c -113.4,-21.9 -228.4,-35.39 -343.4,-45.94 -148,-13.58 -296.5,-21.58 -445,-26.04 -317.2,-9.51 -635.7,-4.62 -952,21.65 -131.7,10.94 -263.7,25.24 -393.6,50.32 -13.5,2.59 -19.2,-17.99 -5.7,-20.59 113.9,-22 229.5,-35.64 345,-46.32 147.7,-13.67 295.9,-21.74 444.1,-26.27 320.2,-9.79 641.9,-4.9 961.2,21.85 132.2,11.08 264.7,25.57 395.1,50.75 13.5,2.6 7.8,23.19 -5.7,20.59 v 0"
         style="fill:#383229;fill-opacity:1;fill-rule:nonzero;stroke:none"
         transform="matrix(0.13333333,0,0,-0.13333333,0,1693.8933)" />
      <path
         id="path33"
         d="m 22825.9,8511.37 c 14.9,44.83 17.9,92.53 9.8,138.98 -1,5.69 -8,8.89 -13.2,7.47 -6,-1.66 -8.4,-7.44 -7.4,-13.14 7.5,-42.68 3.8,-86.56 -9.8,-127.63 -4.3,-13.08 16.3,-18.69 20.6,-5.68 v 0"
         style="fill:#383229;fill-opacity:1;fill-rule:nonzero;stroke:none"
         transform="matrix(0.13333333,0,0,-0.13333333,0,1693.8933)" />
      <path
         id="path34"
         d="m 22926.2,8483.86 c 28.5,46.69 35.4,105.05 18.4,157.07 -4.2,13.01 -24.9,7.44 -20.6,-5.68 15.3,-46.87 9.4,-98.49 -16.3,-140.6 -7.1,-11.77 11.3,-22.51 18.5,-10.79 v 0"
         style="fill:#383229;fill-opacity:1;fill-rule:nonzero;stroke:none"
         transform="matrix(0.13333333,0,0,-0.13333333,0,1693.8933)" />
      <path
         id="path35"
         d="m 23034.9,8492.27 c 22.5,56.12 23.7,119.79 3.6,176.79 -4.5,12.88 -25.1,7.33 -20.6,-5.68 19,-53.88 17.7,-112.42 -3.6,-165.43 -5.1,-12.76 15.6,-18.3 20.6,-5.68 v 0"
         style="fill:#383229;fill-opacity:1;fill-rule:nonzero;stroke:none"
         transform="matrix(0.13333333,0,0,-0.13333333,0,1693.8933)" />
      <path
         id="path36"
         d="m 23802,8758.51 c 7.4,-52.66 0.2,-106.49 -19.6,-155.73 -2.2,-5.39 2.3,-11.67 7.4,-13.14 6.1,-1.74 11,2.14 13.2,7.47 21.3,53.05 27.6,110.57 19.6,167.08 -0.8,5.76 -8,8.8 -13.1,7.46 -6.2,-1.62 -8.3,-7.45 -7.5,-13.14 v 0"
         style="fill:#383229;fill-opacity:1;fill-rule:nonzero;stroke:none"
         transform="matrix(0.13333333,0,0,-0.13333333,0,1693.8933)" />
      <path
         id="path37"
         d="m 23893.2,8744.08 c 7.4,-52.65 0.1,-106.48 -19.7,-155.72 -2.2,-5.4 2.4,-11.68 7.4,-13.14 6.1,-1.75 11.1,2.13 13.2,7.46 21.3,53.05 27.6,110.57 19.7,167.09 -0.9,5.76 -8.1,8.79 -13.2,7.45 -6.1,-1.62 -8.2,-7.45 -7.4,-13.14 v 0"
         style="fill:#383229;fill-opacity:1;fill-rule:nonzero;stroke:none"
         transform="matrix(0.13333333,0,0,-0.13333333,0,1693.8933)" />
      <path
         id="path38"
         d="m 23988.6,8777.12 c 7.4,-52.66 0.1,-106.49 -19.7,-155.74 -2.2,-5.39 2.4,-11.67 7.5,-13.14 6,-1.73 11,2.14 13.1,7.47 21.3,53.05 27.6,110.57 19.7,167.09 -0.8,5.75 -8.1,8.78 -13.2,7.45 -6.1,-1.62 -8.2,-7.45 -7.4,-13.13 v 0"
         style="fill:#383229;fill-opacity:1;fill-rule:nonzero;stroke:none"
         transform="matrix(0.13333333,0,0,-0.13333333,0,1693.8933)" />
      <path
         id="path39"
         d="m 22497.5,9068.29 c 51.4,28.08 85.8,81.12 91.9,139.12 0.6,5.75 -5.3,10.68 -10.6,10.68 -6.3,0 -10.1,-4.92 -10.7,-10.68 -5.4,-50.48 -37,-96.44 -81.4,-120.68 -12,-6.59 -1.3,-25.04 10.8,-18.44 v 0"
         style="fill:#383229;fill-opacity:1;fill-rule:nonzero;stroke:none"
         transform="matrix(0.13333333,0,0,-0.13333333,0,1693.8933)" />
      <path
         id="path40"
         d="m 23004.2,9527.47 c 3.6,22.39 15.9,45.15 39,51.99 23.7,7.01 49.6,-1.81 65.4,-20.29 9,-10.44 24.1,4.72 15.2,15.1 -20.7,23.99 -55.8,34.8 -86.3,25.79 -30,-8.88 -49,-37.03 -53.9,-66.91 -1,-5.69 1.5,-11.5 7.4,-13.14 5.1,-1.4 12.2,1.74 13.2,7.46 v 0"
         style="fill:#383229;fill-opacity:1;fill-rule:nonzero;stroke:none"
         transform="matrix(0.13333333,0,0,-0.13333333,0,1693.8933)" />
      <path
         id="path41"
         d="m 23386.9,9653.91 c 4.2,23.89 25.1,44.33 49.4,47.79 26.6,3.81 53.5,-13.03 65.8,-36.05 6.4,-12.14 24.9,-1.36 18.4,10.78 -16.1,30.25 -51.4,50.78 -86,46.4 -32.4,-4.13 -62.4,-30.64 -68.2,-63.24 -1,-5.67 1.5,-11.51 7.4,-13.14 5.2,-1.42 12.1,1.75 13.2,7.46 v 0"
         style="fill:#383229;fill-opacity:1;fill-rule:nonzero;stroke:none"
         transform="matrix(0.13333333,0,0,-0.13333333,0,1693.8933)" />
    </g>
  </g>
</svg>
