<svg width="501" height="501" viewBox="0 0 501 501" fill="none" xmlns="http://www.w3.org/2000/svg">
<mask id="mask0_1_452" style="mask-type:luminance" maskUnits="userSpaceOnUse" x="0" y="0" width="501" height="501">
<path d="M0.599731 0.599724H500.6V500.6H0.599731V0.599724Z" fill="white"/>
</mask>
<g mask="url(#mask0_1_452)">
<path d="M470.549 355.043C470.757 354.675 470.92 354.447 471.025 354.194C473.998 347.08 477.216 340.057 479.883 332.83C485.856 316.64 489.854 299.94 492.131 282.824C493.263 274.321 493.977 265.787 494.208 257.221C494.486 246.938 494.297 236.651 493.044 226.433C492.063 218.428 490.996 210.416 489.499 202.496C486.871 188.593 482.785 175.079 477.614 161.907C472.797 149.636 467 137.841 460.279 126.497C451.865 112.295 442.126 99.0636 431.012 86.8723C421.088 75.987 410.326 65.9948 398.601 57.0372C388.28 49.1519 377.453 42.0689 366.035 35.9035C347.185 25.7252 327.34 18.1252 306.481 13.203C293.625 10.1687 280.603 8.19343 267.429 7.2851C258.627 6.67774 249.814 6.59083 240.989 6.91833C228.915 7.3666 216.951 8.72124 205.094 10.9729C185.425 14.7089 166.501 20.7913 148.342 29.2442C128.49 38.4846 110.21 50.1746 93.4706 64.2887C85.194 71.2671 77.4304 78.7808 70.1544 86.7824C59.0301 99.016 49.2461 112.254 40.8128 126.491C30.3311 144.186 22.1846 162.885 16.4228 182.627C11.5635 199.278 8.58024 216.267 7.36848 233.56C6.74885 242.402 6.45619 251.267 7.06011 260.119C7.60413 268.092 8.1462 276.08 9.13849 284.004C10.5761 295.484 13.1008 306.763 16.3099 317.888C21.4869 335.834 28.7138 352.913 37.7618 369.241C38.3613 370.322 38.8508 370.442 39.9104 369.885C43.1308 368.195 45.1988 365.391 47.2438 362.552C47.4466 362.271 47.5281 361.875 47.5851 361.52C47.8679 359.757 48.1399 357.992 48.3854 356.224C48.9991 351.797 49.575 347.349 51.5199 343.262C52.2976 341.628 52.5303 339.996 52.5637 338.221C52.6241 335.019 52.873 331.888 54.6764 328.988C56.1612 326.601 56.609 323.769 56.9438 320.962C57.2124 318.71 57.5944 316.47 58.0166 314.24C58.0981 313.811 58.5366 313.375 58.9201 313.089C60.1083 312.205 61.3721 311.422 62.5618 310.539C63.3513 309.953 64.0637 309.263 64.811 308.62C65.0373 312.154 64.7349 315.441 63.092 318.433C62.6089 319.313 62.4086 320.134 62.9752 320.92C63.6596 321.869 64.508 322.7 65.3953 323.707C66.0822 322.631 66.5692 321.842 67.0828 321.07C68.1075 319.529 69.2304 317.954 71.0967 317.525C72.5849 317.183 73.0356 316.296 73.5718 315.078C74.2395 313.562 75.3742 312.346 77.2591 311.912C77.3563 315.909 77.8134 319.806 74.9175 323.036C76.6704 324.903 78.8293 325.693 81.0594 326.348C84.1678 327.261 87.4138 327.828 90.1363 329.736C90.6258 330.078 91.1203 330.757 91.1659 331.318C91.2568 332.424 91.3491 333.43 91.9731 334.427C92.6791 335.552 91.8184 336.949 90.5065 337.033C89.2506 337.114 87.9897 337.141 86.7377 337.26C83.5094 337.567 80.259 337.754 77.0671 338.288C74.3593 338.741 72.602 340.511 72.4537 343.354C72.3207 345.893 72.3089 348.464 72.5569 350.99C73.0709 356.236 73.8919 361.453 74.4074 366.699C75.2745 375.533 75.5269 384.388 74.1197 393.19C73.1313 399.372 71.7492 405.449 65.8833 409.231C66.1077 409.526 66.2825 409.796 66.497 410.029C69.3772 413.17 72.2088 416.357 75.1562 419.433C89.908 434.83 106.44 448.01 124.673 459.061C141.735 469.403 159.791 477.542 178.856 483.423C189.565 486.727 200.453 489.267 211.524 491.061C220.189 492.464 228.897 493.517 237.657 493.852C245.243 494.143 252.86 494.218 260.441 493.889C268.339 493.546 276.244 492.867 284.086 491.867C296.697 490.257 309.074 487.434 321.242 483.717C343.526 476.911 364.401 467.116 383.876 454.329C394.969 447.046 405.389 438.905 415.178 429.946C424.003 421.869 432.134 413.142 439.704 403.889C440.113 403.39 440.36 402.599 440.355 401.946C440.309 395.856 440.08 389.766 440.135 383.677C440.173 379.475 439.715 375.341 439.259 371.183C438.871 367.646 438.818 364.072 438.664 360.512C438.633 359.787 438.814 359.053 438.929 358.034C436.697 359.764 434.508 359.658 432.184 359.28C428.603 358.699 425.474 359.494 423.424 362.84C422.915 363.67 422.266 364.417 421.785 365.26C421.5 365.759 421.268 366.374 421.27 366.936C421.278 370.028 419.439 371.813 417.02 373.266C414.588 374.727 412.269 374.595 409.972 372.977C408.851 372.187 408.008 371.305 407.631 369.874C407.358 368.843 406.529 367.959 405.952 367.007C405.751 366.677 405.386 366.336 405.396 366.008C405.43 364.784 405.016 363.352 406.631 362.687C406.826 362.606 406.967 362.339 407.083 362.131C410.577 355.846 413.643 349.356 416.363 342.703C416.584 342.164 416.586 341.4 416.386 340.852C415.957 339.68 416.333 339 417.246 338.249C418.255 337.421 419.455 336.499 419.886 335.359C421.045 332.295 423.142 330.06 425.523 328.008C426.255 327.377 426.142 326.915 425.733 326.152C425.093 324.958 424.402 323.697 424.187 322.39C423.846 320.319 423.876 318.186 423.766 316.078C423.756 315.902 423.872 315.719 423.929 315.54C424.055 315.501 424.181 315.463 424.307 315.424C424.748 316.421 425.234 317.401 425.617 318.42C426.048 319.572 426.706 320.456 428.028 320.987C427.802 318.274 427.324 315.814 425.732 313.577C426.175 313.577 426.464 313.515 426.716 313.586C431.2 314.857 435.126 316.867 436.889 321.583C437.266 322.592 437.784 323.055 438.942 323.205C440.178 323.365 441.518 323.805 442.516 324.53C445.797 326.911 448.902 329.536 452.159 331.952C454.482 333.675 456.769 335.402 458.629 337.646C463.096 343.036 467.127 348.72 470.549 355.043ZM500.323 250.46C500.261 250.979 500.172 251.496 500.143 252.017C499.689 260.288 499.54 268.589 498.733 276.825C496.955 294.977 492.98 312.687 487.141 329.971C479.355 353.024 468.368 374.455 454.333 394.315C447.103 404.546 439.124 414.178 430.438 423.21C423.253 430.68 415.637 437.694 407.588 444.223C398.874 451.292 389.747 457.79 380.159 463.626C363.443 473.801 345.802 481.964 327.175 487.999C316.429 491.48 305.501 494.222 294.39 496.214C285.401 497.825 276.349 499.098 267.216 499.445C258.531 499.776 249.826 500.08 241.144 499.849C233.733 499.652 226.323 498.849 218.947 498.014C205.169 496.456 191.677 493.439 178.414 489.422C163.413 484.878 148.984 478.932 135.098 471.654C118.844 463.133 103.732 452.913 89.7096 441.096C80.7245 433.524 72.3541 425.307 64.5154 416.541C54.3912 405.221 45.3697 393.092 37.4377 380.147C24.7702 359.474 15.3574 337.404 9.14388 313.975C6.53181 304.126 4.58848 294.142 3.20045 284.042C1.23157 269.715 0.546132 255.325 1.09653 240.891C1.81731 221.969 4.64101 203.346 9.64372 185.067C14.3985 167.696 20.9562 151.039 29.3123 135.082C36.5309 121.296 44.9637 108.298 54.6151 96.1073C63.5801 84.7831 73.4274 74.2744 84.2179 64.6476C94.3029 55.6501 104.988 47.455 116.361 40.1643C132.633 29.7337 149.884 21.3014 168.122 14.8788C180.702 10.449 193.546 7.00622 206.678 4.74177C213.665 3.53688 220.728 2.73114 227.779 1.94261C238.501 0.743606 249.277 0.5914 260.041 1.03476C266.727 1.31021 273.407 1.94213 280.063 2.65946C297.067 4.49233 313.635 8.35987 329.839 13.7897C342.257 17.9514 354.248 23.1269 365.857 29.1975C379.646 36.4082 392.632 44.8562 404.838 54.4963C414.349 62.0085 423.287 70.1565 431.608 78.9796C444.448 92.5933 455.694 107.396 465.267 123.487C474.818 139.539 482.442 156.443 488.202 174.201C492.279 186.769 495.3 199.592 497.3 212.644C499.116 224.497 500.081 236.43 500.14 248.429C500.143 249.026 500.259 249.621 500.323 250.216V250.46Z" fill="white"/>
<path d="M344.442 449.189C344.833 448.482 345.092 447.882 345.464 447.363C347.287 444.822 350.185 444.975 351.789 447.675C353.34 450.288 352.809 453.483 350.569 455.53C350.28 455.795 350.165 456.448 350.235 456.878C350.955 461.302 349.197 465.303 345.377 467.089C343.76 467.845 341.897 468.159 340.109 468.435C338.433 468.693 336.708 468.705 335.004 468.707C326.108 468.719 317.211 468.703 308.315 468.674C306.731 468.668 305.148 468.567 303.565 468.485C302.384 468.423 301.116 467.251 300.964 466.119C300.845 465.239 301.597 464.34 302.979 464.059C304.321 463.787 305.709 463.739 307.078 463.601C307.464 463.562 307.853 463.551 308.359 463.233C307.955 462.974 307.557 462.706 307.146 462.461C305.863 461.695 304.488 461.052 303.308 460.153C300.727 458.186 300.135 455.26 299.882 452.255C299.777 451.007 299.331 450.195 298.026 449.943C295.276 449.413 293.749 447.498 292.813 445.059C292.612 444.535 292.737 443.681 293.052 443.204C293.868 441.967 294.758 440.731 295.83 439.719C298.141 437.534 300.922 436.164 304.019 435.37C304.76 435.18 305.523 434.59 306.011 433.973C309.181 429.972 312.227 425.856 316.842 423.34C317.442 423.012 318.152 422.884 318.812 422.663C318.93 423.425 319.239 424.213 319.136 424.943C318.6 428.706 316.764 431.812 314.002 434.371C312.934 435.36 312.829 436.419 313.16 437.781C313.593 439.559 313.772 441.399 314.024 442.982C315.933 443.264 317.976 443.632 320.035 443.85C321.804 444.038 323.598 443.99 325.37 444.16C331.743 444.769 337.893 446.274 343.753 448.888C343.968 448.984 344.185 449.076 344.442 449.189Z" fill="white"/>
<path d="M182.208 464.793C180.618 464.569 179.026 464.348 177.436 464.119C175.474 463.837 173.519 463.488 171.548 463.308C171.111 463.268 170.318 463.729 170.208 464.11C169.783 465.576 169.586 467.107 169.269 468.606C169.095 469.431 168.987 470.315 168.594 471.033C168.327 471.521 167.634 472.042 167.104 472.072C165.056 472.192 162.997 472.121 160.831 472.121C160.831 471.002 160.679 470.195 160.884 469.492C161.019 469.029 161.607 468.567 162.099 468.364C164.132 467.522 164.912 465.838 164.033 463.795C163.102 461.632 161.431 460.038 159.3 459.282C155.26 457.849 153.926 454.727 153.517 450.925C153.139 447.416 152.891 443.894 152.559 440.38C152.401 438.704 151.6 437.431 150.149 436.511C149.442 436.062 148.758 435.473 148.282 434.793C147.786 434.086 147.369 433.218 147.263 432.377C147.169 431.624 147.424 430.757 147.744 430.038C148.2 429.014 149.091 429.798 149.788 429.735C150.667 429.655 151.664 429.755 152.392 429.368C153.913 428.559 155.458 428.553 157.008 428.88C157.956 429.081 158.572 428.903 159.089 428.148C159.722 427.226 160.358 426.307 161.012 425.36C162.248 426.184 162.511 427.526 162.456 428.941C162.41 430.152 162.772 431.117 163.353 432.203C164.075 433.548 164.454 435.176 164.591 436.718C164.942 440.684 165.801 441.366 169.589 440.146C175.951 438.097 181.567 439.714 186.534 443.802C188.903 445.751 190.927 448.118 193.123 450.28C193.932 451.077 194.839 451.779 195.605 452.613C196.85 453.968 198.263 453.993 199.922 453.549C203.568 452.573 205.828 450.006 207.423 446.87C209.149 443.475 210.479 439.881 212.108 436.433C213.04 434.463 214.189 432.59 215.315 430.719C215.632 430.194 216.218 429.831 216.681 429.394C216.828 429.434 216.975 429.475 217.123 429.515C217.028 430.546 216.996 431.589 216.83 432.609C216.081 437.214 215.227 441.788 213.585 446.189C210.934 453.299 206.061 458.11 198.927 460.627C197.979 460.962 197.231 461.368 196.641 462.252C196.091 463.077 195.128 463.619 194.535 464.424C192.039 467.811 188.216 468.946 184.572 470.334C181.555 471.483 178.38 471.955 175.14 471.932C173.821 471.923 173.097 471.075 172.93 469.259C172.819 468.055 173.51 467.111 174.708 466.894C176.622 466.547 178.545 466.249 180.455 465.88C181.065 465.762 181.645 465.487 182.239 465.284C182.229 465.12 182.219 464.957 182.208 464.793Z" fill="white"/>
<path d="M117.085 392.092C115.798 395.167 114.653 398.186 114.943 401.6C115.398 406.938 115.77 412.284 116.109 417.632C116.247 419.802 115.815 420.233 113.609 420.514C112.608 420.641 111.595 420.678 110.539 420.76C110.488 421.059 110.403 421.331 110.401 421.603C110.378 425.139 110.347 428.675 110.363 432.211C110.37 433.826 110.499 433.908 112.128 433.923C112.981 433.931 113.836 433.904 114.688 433.946C116.171 434.018 117.194 435.124 117.16 436.566C117.126 437.983 116.272 438.737 114.671 438.74C111.421 438.745 108.172 438.742 104.766 438.742C104.727 438.168 104.664 437.662 104.664 437.157C104.661 432.117 104.641 427.076 104.696 422.037C104.709 420.957 104.37 420.622 103.308 420.646C101.972 420.677 100.632 420.494 99.293 420.458C98.3523 420.433 97.987 420.007 98.0542 419.084C98.3513 414.994 98.5771 410.897 98.9282 406.812C99.2439 403.135 99.5817 399.453 100.103 395.802C100.746 391.304 102.022 387.016 105.91 384.15C107.078 383.289 108.551 382.842 109.868 382.213C106.706 377.621 107.028 373.5 110.803 371.146C114.325 368.951 118.678 370.056 120.668 373.651C122.82 377.539 121.102 381.364 116.007 383.916C117.495 384.976 118.968 386.003 120.417 387.062C124.156 389.793 127.884 392.536 131.616 395.277C133.26 396.484 133.432 398.37 132.156 399.924C131.82 400.333 131.682 401.016 131.681 401.573C131.654 413.401 131.661 425.229 131.66 437.058C131.66 438.72 131.657 438.72 130.024 438.724C129.293 438.725 128.558 438.686 127.83 438.744C126.979 438.813 126.711 438.5 126.72 437.638C126.773 432.558 126.776 427.477 126.79 422.396C126.81 415.161 126.841 407.926 126.815 400.691C126.813 400.112 126.577 399.327 126.162 398.989C123.365 396.704 120.492 394.514 117.637 392.299C117.522 392.209 117.351 392.189 117.085 392.092Z" fill="white"/>
<path d="M265.83 455.694C265.726 455.761 265.622 455.828 265.518 455.895C265.31 457.577 265.128 459.263 264.889 460.942C264.387 464.468 262.699 466.653 260.007 466.971C258.164 467.189 256.281 467.197 254.423 467.129C250.491 466.984 246.563 466.699 242.63 466.557C242.159 466.539 241.486 466.927 241.218 467.333C240.212 468.855 239.369 470.482 238.398 472.028C237.938 472.759 237.964 473.407 238.243 474.186C240.99 481.864 248.864 486.49 257.015 485.184C269.24 483.225 275.376 469.231 268.499 458.928C267.727 457.771 266.725 456.769 265.83 455.694ZM234.75 478.347C233.574 480.312 232.457 482.178 231.274 484.156C228.164 482.254 225.129 480.463 222.17 478.556C220.971 477.784 220.834 476.358 221.614 475.228C222.402 474.089 223.879 473.72 225.049 474.486C228.797 476.935 228.443 476.074 230.26 473.04C232.678 469.002 234.942 464.871 237.233 460.758C237.761 459.809 238.492 459.525 239.522 459.517C243.951 459.479 248.38 459.389 252.809 459.314C253.169 459.308 253.528 459.269 253.849 459.249C253.927 459.121 253.991 459.058 254.005 458.986C254.494 456.365 254.494 456.357 251.869 456.325C249.146 456.291 246.423 456.293 243.701 456.246C242.338 456.222 241.42 455.53 241.13 454.412C240.806 453.162 241.303 451.898 242.453 451.3C242.858 451.088 243.377 451.022 243.844 451.019C247.332 450.996 250.82 451.006 254.323 451.006C254.713 448.074 255.062 445.445 255.425 442.712C252.687 442.61 250.327 441.545 248.906 438.874C247.993 437.159 247.894 435.385 248.476 433.569C249.629 429.976 253.578 428.031 257.2 429.244C261.336 430.628 262.696 434.493 260.816 439.614C261.394 439.76 261.985 439.857 262.539 440.057C264.773 440.864 266.177 442.967 266.082 445.344C266.033 446.561 265.87 447.779 265.913 448.991C265.93 449.463 266.255 450.078 266.638 450.358C273.376 455.276 276.583 461.896 276.074 470.202C275.469 480.076 267.305 488.65 257.426 489.982C248.449 491.192 239.999 487.113 235.429 479.367C235.248 479.059 235.034 478.77 234.75 478.347Z" fill="white"/>
<path d="M381.138 397.384C375.729 395.281 373.804 391.767 375.618 387.683C377.097 384.35 381.265 382.82 384.571 384.454C386.626 385.47 387.926 387.145 388.287 389.426C388.642 391.669 387.948 393.649 386.15 395.559C389.042 395.328 391.228 396.221 393.134 397.879C393.93 398.572 394.761 399.225 395.574 399.897C397.89 401.813 400.238 403.692 402.498 405.67C403.108 406.203 403.636 406.98 403.877 407.747C404.214 408.82 403.836 409.872 402.856 410.519C401.79 411.224 400.657 411.086 399.669 410.347C397.426 408.669 395.228 406.932 393.007 405.226C392.604 404.916 392.18 404.635 391.549 404.189C391.732 406.15 391.875 407.831 392.049 409.509C392.406 412.939 392.798 416.365 393.131 419.797C393.201 420.515 393.133 421.258 393.036 421.977C392.912 422.908 392.407 423.582 391.406 423.667C390.376 423.754 390.224 424.329 390.271 425.232C390.48 429.208 390.635 433.186 390.802 437.164C390.815 437.477 390.772 437.793 390.737 438.434C387.289 438.434 383.89 438.44 380.492 438.424C380.175 438.422 379.847 438.315 379.547 438.199C378.591 437.83 377.799 437.243 377.692 436.155C377.588 435.096 378.238 434.248 379.125 433.96C380.445 433.533 381.862 433.329 383.252 433.218C384.162 433.145 384.573 432.966 384.491 431.959C384.298 429.612 384.179 427.258 384.063 424.906C384.029 424.229 383.825 423.892 383.077 423.837C381.447 423.717 380.774 423.081 380.624 421.391C380.395 418.804 380.251 416.21 380.118 413.616C379.983 410.982 379.905 408.345 379.793 405.481C379.247 405.726 378.815 405.884 378.417 406.103C375.18 407.886 371.954 409.689 368.715 411.468C367.563 412.1 366.367 412.212 365.281 411.368C363.39 409.899 363.589 407.668 365.753 406.393C370.371 403.67 375.019 400.998 379.653 398.301C380.1 398.041 380.534 397.758 381.138 397.384Z" fill="white"/>
<path d="M372.02 427.058C372.005 430.744 369.042 433.679 365.339 433.675C361.709 433.671 358.652 430.629 358.647 427.018C358.642 423.433 361.739 420.308 365.314 420.29C368.984 420.272 372.035 423.35 372.02 427.058Z" fill="white"/>
</g>
<mask id="mask1_1_452" style="mask-type:luminance" maskUnits="userSpaceOnUse" x="0" y="0" width="501" height="501">
<path d="M0.599731 0.599724H500.6V500.6H0.599731V0.599724Z" fill="white"/>
</mask>
<g mask="url(#mask1_1_452)">
<path d="M266.814 365.179C264.997 367.371 263.332 369.466 261.578 371.484C253.2 381.125 243.976 389.93 234.561 398.534C229.797 402.887 224.879 407.071 220.045 411.349C219.549 411.788 218.969 412.303 219.705 413.155C221.396 411.642 223.003 410.095 224.724 408.686C232.042 402.693 239.26 396.566 246.77 390.822C254.571 384.855 262.663 379.267 270.643 373.533C271.096 373.208 271.421 372.986 271.07 372.395C269.662 370.026 268.268 367.648 266.814 365.179ZM363.651 371.555C363.559 371.418 363.467 371.282 363.376 371.146C363.031 371.07 362.691 370.96 362.343 370.924C360.449 370.726 358.545 370.861 356.87 371.748C352.534 374.045 348.03 376.136 344.04 378.943C339.544 382.107 335.548 385.977 331.313 389.515C328.21 392.107 325.006 394.532 320.847 395.183C320.071 395.305 319.293 395.424 318.52 395.543C318.926 398.2 320.092 399.037 322.459 398.502C323.091 398.359 323.718 398.184 324.335 397.984C329.089 396.438 333.38 393.96 337.571 391.308C346.171 385.865 354.16 379.606 361.855 372.962C362.43 372.465 363.051 372.022 363.651 371.555ZM317.447 386.747C318.409 386.61 319.396 386.571 320.326 386.317C323.133 385.55 326.061 384.966 328.273 382.879C332.74 378.663 337.421 374.719 342.499 371.255C347.517 367.831 352.888 365.234 358.964 364.358C364.234 363.598 369.177 362.115 373.292 358.512C374.197 357.719 374.539 356.806 374.336 355.728C374.166 354.825 373.822 353.936 373.438 353.095C372.346 350.698 371.171 348.339 370.073 345.945C369.361 344.392 368.227 343.594 366.511 343.788C365.31 343.924 364.121 344.233 362.95 344.55C361.868 344.843 360.947 344.794 359.971 344.103C359.352 343.665 358.474 343.406 357.709 343.4C356.342 343.389 354.898 343.399 353.617 343.807C348.407 345.468 343.247 347.285 338.067 349.04C334.883 350.119 331.708 351.228 328.497 352.217C328.017 352.366 327.357 351.931 326.78 351.766C327.153 351.308 327.433 350.657 327.914 350.423C330.837 348.999 333.215 346.974 335.003 344.272C336.11 342.597 336.949 340.796 337.042 338.744C337.128 336.828 336.021 335.987 334.254 336.724C333.219 337.156 332.295 337.852 331.32 338.43C330.771 338.755 330.259 339.217 329.665 339.383C324.022 340.961 319.182 343.943 314.941 347.897C309.247 353.206 304.037 359.026 297.71 363.667C295.1 365.582 295.275 366.438 297.732 368.578C301.742 372.072 305.723 375.598 308.785 380.011C309.594 381.177 310.367 382.371 311.205 383.517C312.741 385.615 314.753 386.812 317.447 386.747ZM204.243 252.892C204.562 252.211 204.82 251.758 204.993 251.273C206.218 247.835 207.382 244.373 208.671 240.959C208.998 240.093 209.545 239.154 210.266 238.621C213.235 236.427 216.249 234.28 219.375 232.32C220.688 231.497 221.104 230.511 221.083 229.131C221.059 227.516 220.103 226.781 218.6 227.38C217.712 227.734 216.869 228.282 216.119 228.884C214.351 230.303 212.755 231.955 210.902 233.245C207.459 235.641 203.63 237.229 199.415 237.601C198.563 237.676 197.652 237.097 196.768 236.819C197.066 236.025 197.16 235.036 197.701 234.479C198.993 233.146 200.503 232.026 201.91 230.803C204.324 228.704 206.844 226.708 209.099 224.449C210.896 222.648 212.378 220.532 213.973 218.533C215.741 216.318 217.292 215.967 219.447 217.804C221.35 219.424 222.949 221.399 224.689 223.211C225.468 224.023 226.127 225.109 227.082 225.562C228.876 226.413 230.871 226.386 232.796 225.806C235.087 225.116 237.339 224.287 239.648 223.665C252.081 220.316 264.704 220.21 277.352 221.89C284.055 222.78 290.692 224.184 297.349 225.409C298.77 225.671 300.43 225.795 301.5 226.612C306.497 230.427 311.573 234.198 316.153 238.485C322.251 244.194 327.885 250.398 333.784 256.324C336.121 258.672 338.635 260.843 341.125 263.147C343.834 259.588 346.536 256.234 349.019 252.727C352.003 248.515 353.5 243.78 353.548 238.571C353.596 233.307 352.485 228.257 351.039 223.249C350.841 222.56 350.482 222.2 349.756 221.999C347.178 221.283 344.619 220.496 342.063 219.702C331.797 216.512 322.764 211.21 315.055 203.721C308.552 197.404 303.178 190.182 298.445 182.474C298.208 182.088 298.264 181.487 298.277 180.99C298.331 179.054 298.701 177.083 298.448 175.192C297.762 170.051 294.952 165.994 291.269 162.514C288.735 160.119 285.886 158.193 282.428 157.358C279.715 156.703 277.739 157.486 277.08 159.565C276.829 160.356 276.676 161.286 276.837 162.08C277.464 165.17 278.005 168.31 279.021 171.281C279.972 174.064 281.516 176.64 282.722 179.342C282.999 179.962 283.209 180.798 283.024 181.403C282.363 183.572 281.566 185.705 280.723 187.812C280.229 189.047 279.662 190.283 278.926 191.382C278.211 192.45 277.371 192.397 276.519 191.439C275.981 190.833 275.421 190.23 274.985 189.551C270.89 183.162 266.793 176.772 262.753 170.348C261.267 167.986 259.93 165.53 258.524 163.117C258.051 163.355 257.71 163.639 257.335 163.695C255.693 163.939 254.039 164.104 252.393 164.32C249.341 164.72 246.251 164.949 243.252 165.595C239.974 166.301 237.257 167.926 236.481 171.602C236.43 171.842 236.203 172.046 235.962 172.412C235.517 171.829 235.089 171.392 234.809 170.874C234.23 169.805 233.752 168.682 233.194 167.601C231.873 165.043 230.572 162.472 229.16 159.965C228.896 159.497 228.15 159.302 227.626 158.98C227.384 159.533 226.973 160.073 226.926 160.643C226.609 164.528 226.476 168.43 226.064 172.303C225.804 174.748 225.207 177.162 224.657 179.566C224.552 180.026 224.013 180.604 223.579 180.701C223.255 180.774 222.739 180.198 222.379 179.84C222.13 179.591 221.969 179.234 221.822 178.902C220.992 177.007 220.213 175.088 219.344 173.211C218.7 171.819 218.006 170.442 217.219 169.127C216.695 168.251 215.975 168.435 215.536 169.248C215.077 170.099 214.578 170.994 214.412 171.927C213.539 176.834 212.776 181.76 211.947 186.675C211.805 187.516 211.526 188.334 211.311 189.163C211.167 189.175 211.023 189.187 210.879 189.198C210.612 188.646 210.337 188.096 210.079 187.538C208.036 183.121 206.011 178.695 203.935 174.293C203.703 173.802 203.183 173.447 202.536 172.746C202.383 173.702 202.203 174.248 202.225 174.785C202.304 176.691 202.466 178.594 202.571 180.5C202.782 184.349 203.008 188.198 203.159 192.05C203.197 193.028 203.104 194.065 201.981 194.978C200.962 191.493 199.994 188.182 199.026 184.87C198.564 187.667 198.413 190.424 198.062 193.156C196.747 203.403 193.365 212.753 186.088 220.399C183.989 222.605 182.77 225.179 183.872 228.271C184.439 229.863 185.144 231.45 186.052 232.87C190.237 239.414 195.562 245 201.105 250.384C202.02 251.273 203.102 251.988 204.243 252.892ZM380.397 350.655C381.003 350.249 381.292 350.097 381.532 349.888C385.296 346.615 388.498 342.862 391.211 338.675C391.795 337.776 391.694 337.162 391.071 336.332C380.916 322.828 370.891 309.225 360.618 295.811C355.761 289.47 350.469 283.459 345.31 277.353C344.282 276.138 342.96 275.171 341.774 274.089C341.597 274.402 341.607 274.554 341.664 274.686C343.599 279.177 344.024 283.934 344.166 288.743C344.324 294.118 343.912 299.459 343.139 304.771C343.028 305.529 342.693 306.393 342.174 306.928C339.662 309.52 337.081 312.048 334.467 314.539C331.899 316.986 329.4 319.503 327.865 322.742C327.042 324.479 325.855 325.748 324.273 326.732C323.307 327.332 322.314 327.894 321.388 328.55C318.944 330.284 316.375 331.889 314.162 333.885C312.89 335.031 311.677 336.172 310.176 336.996C308.681 337.816 307.191 338.647 305.695 339.468C300.374 342.388 295.27 345.571 290.999 350.001C288.783 352.299 285.883 353.197 282.623 352.687C278.441 352.034 275.183 349.684 272.309 346.841C265.688 340.288 261.203 332.383 258.267 323.593C257.122 320.164 256.103 316.655 256.946 312.973C257.516 310.485 258.106 307.989 258.889 305.562C261.493 297.496 265.165 289.964 270.65 283.439C271.885 281.971 272.835 280.472 273.33 278.634C274.332 274.915 275.225 271.155 276.467 267.515C277.435 264.675 276.891 262.098 276.194 259.356C275.49 256.586 275.106 253.719 274.785 250.871C274.631 249.501 275.073 248.13 276.195 247.12C277.272 246.15 280.245 245.742 280.849 246.689C282.018 248.522 283.409 250.41 283.871 252.464C285.73 260.732 285.27 269.009 283.019 277.163C280.996 284.492 277.676 291.095 271.901 296.258C271.611 296.516 271.345 296.876 271.226 297.241C269.718 301.866 268.023 306.445 266.803 311.146C264.902 318.472 265.899 325.385 270.547 331.602C271.536 332.923 272.381 334.402 273.027 335.921C274.987 340.529 278.208 343.52 283.257 344.275C283.823 344.359 284.665 344.283 285.007 343.926C288.533 340.243 292.714 337.456 297.105 334.964C302.33 331.998 307.649 329.195 312.84 326.173C317.361 323.541 321.51 320.437 324.276 315.821C325.103 314.44 325.974 313.066 326.989 311.824C328.991 309.372 331.162 307.058 333.157 304.601C334.263 303.238 335.274 301.867 335.6 299.95C336.952 291.999 337.053 284.114 334.954 276.281C332.924 268.705 329.534 261.825 323.993 256.193C318.27 250.375 312.408 244.694 306.571 238.988C303.926 236.402 301.245 233.861 297.376 233.139C290.921 231.934 284.512 230.44 278.024 229.466C267.796 227.93 257.54 228.083 247.34 229.937C235.519 232.085 224.831 236.687 215.734 244.67C215.093 245.232 214.384 245.969 214.193 246.745C213.413 249.906 212.043 252.758 210.324 255.501C208.602 258.248 207.093 261.127 205.385 263.882C204.409 265.457 203.38 267.052 202.102 268.374C198.926 271.661 194.951 273.822 190.87 275.771C183.668 279.209 176.072 281.592 168.525 284.116C164.488 285.466 160.459 286.878 156.538 288.526C153.719 289.71 153.768 289.972 154.378 292.936C154.387 292.975 154.382 293.018 154.391 293.057C155.144 296.397 156.679 299.289 159.295 301.552C159.97 302.137 160.671 302.693 161.362 303.259C162.15 303.906 162.145 304.525 161.312 305.131C159.834 306.207 158.344 307.266 156.89 308.373C154.63 310.095 154.323 311.024 155.592 313.566C157.33 317.051 159.207 320.469 161.086 323.881C161.862 325.292 162.571 326.852 163.702 327.935C168.561 332.593 174.511 334.133 181.028 333.025C185.574 332.251 190.043 331.008 194.523 329.879C196.554 329.367 198.521 329.168 200.633 329.445C203.521 329.824 206.455 329.865 209.373 329.994C209.854 330.016 210.454 329.88 210.821 329.591C214.477 326.709 218.642 325.552 223.238 325.854C226.532 326.071 229.751 325.887 232.977 325.012C238.673 323.466 244.515 323.312 250.376 323.691C252.007 323.797 253.517 325.106 253.66 326.47C253.796 327.777 252.717 329.041 251.023 329.527C250.498 329.678 249.958 329.776 249.28 329.931C261.697 340.776 269.991 354.558 278.431 368.271C278.629 368.116 278.769 368.031 278.878 367.916C281.222 365.426 284.036 363.861 287.409 363.109C290.23 362.479 292.687 361.102 294.365 358.557C295.072 357.484 296.015 356.554 296.915 355.621C302.374 349.968 308.452 345.03 314.695 340.282C319.421 336.689 324.299 333.329 329.631 330.689C332.7 329.17 335.864 328.139 339.357 329.28C343.061 330.49 344.455 333.668 342.761 337.179C342.528 337.662 342.332 338.163 342.013 338.9C343.185 338.596 344.077 338.364 344.968 338.134C350.583 336.687 356.181 335.174 361.818 333.822C364.661 333.14 367.405 333.524 369.716 335.551C371.454 337.077 373.147 338.657 374.92 340.141C376.63 341.574 377.71 343.268 378.222 345.5C378.619 347.228 379.598 348.822 380.397 350.655ZM193.441 338.243C192.694 338.279 192.246 338.228 191.838 338.333C188.075 339.299 184.319 340.296 180.56 341.275C180.097 341.396 179.583 341.641 179.16 341.541C175.378 340.649 171.548 339.885 167.852 338.709C162.269 336.932 157.602 333.687 154.598 328.563C152.698 325.322 151.278 321.801 149.591 318.432C149.227 317.706 148.755 316.948 148.136 316.451C145.193 314.085 142.658 311.364 140.717 308.13C138.297 304.098 136.564 299.868 137.115 294.994C137.242 293.864 137.715 293.213 138.669 292.621C141.53 290.844 144.454 289.124 147.104 287.062C153.934 281.749 161.499 277.975 169.788 275.592C172.983 274.674 176.267 273.991 179.359 272.804C185.53 270.438 191.225 267.124 196.495 263.138C197.953 262.035 199.116 260.542 200.532 259.111C191.487 250.965 184.608 241.27 176.922 231.987C173.117 236.945 172.14 242.501 172.385 248.568C172.2 248.314 172.135 248.257 172.111 248.187C171.749 247.109 171.399 246.029 171.034 244.953C168.497 237.485 166.549 229.861 161.893 223.175C156.709 215.729 154.827 206.94 153.779 198.042C152.936 190.881 152.984 183.697 153.703 176.514C154.45 169.052 155.935 161.756 158.4 154.675C160.889 147.524 164.01 140.633 169.413 135.219C174.394 130.23 179.689 125.522 185.118 121.02C192.658 114.767 200.889 109.601 210.308 106.532C218.272 103.936 226.371 103.447 234.6 104.763C243.947 106.256 252.533 109.871 260.761 114.391C269.431 119.153 277.526 124.784 285.255 130.951C291.233 135.721 296.108 141.4 299.82 148.106C303.062 153.964 306.442 159.747 309.757 165.566C309.905 165.823 310.009 166.106 310.288 166.712C309.374 166.272 308.773 165.982 308.171 165.693C307.148 165.202 306.146 164.657 305.091 164.246C304.688 164.089 304.008 164.059 303.742 164.295C303.49 164.518 303.424 165.277 303.612 165.608C304.304 166.822 304.951 168.161 305.959 169.071C307.514 170.475 309.34 171.582 311.075 172.781C312.477 173.75 313.936 174.638 315.32 175.632C315.653 175.871 315.789 176.387 316.016 176.775C315.564 176.859 315.104 177.041 314.663 177.004C314.065 176.953 313.475 176.755 312.892 176.583C311.336 176.125 309.794 175.623 308.231 175.191C307.68 175.039 307.087 175.042 306.513 174.973C306.423 175.104 306.333 175.235 306.243 175.365C306.976 176.342 307.597 177.436 308.465 178.272C310.569 180.299 312.802 182.193 314.954 184.171C315.549 184.717 316.102 185.33 316.554 185.995C316.763 186.304 316.684 186.809 316.736 187.225C316.371 187.172 315.963 187.204 315.647 187.049C314.846 186.658 314.113 186.123 313.3 185.768C312.899 185.593 312.158 185.494 311.966 185.71C311.695 186.016 311.593 186.735 311.766 187.122C312.225 188.146 312.743 189.198 313.468 190.04C315.057 191.882 316.773 193.617 318.466 195.369C322.352 199.39 326.621 202.921 331.562 205.602C340.349 210.368 349.892 212.218 359.726 212.919C367.851 213.499 375.975 213.114 384.089 212.641C392.973 212.123 401.85 211.477 410.759 211.764C410.866 211.767 410.976 211.688 411.144 211.625C411.086 211.258 411.067 210.892 410.969 210.548C409.952 206.958 409.029 203.337 407.878 199.79C400.266 176.323 387.974 155.585 371.174 137.55C361.187 126.827 349.891 117.646 337.433 109.914C326.905 103.379 315.786 98.099 304.067 94.065C289.233 88.9592 273.977 86.0511 258.321 85.3156C244.223 84.6527 230.253 85.7702 216.434 88.6965C199.378 92.3087 183.299 98.4766 168.198 107.177C156.89 113.693 146.513 121.471 137.016 130.424C130.023 137.017 123.663 144.186 117.935 151.891C109.883 162.721 103.218 174.36 97.9963 186.823C90.5205 204.666 86.354 223.256 85.4063 242.561C84.9699 251.46 85.2944 260.341 86.3083 269.204C87.5525 280.081 89.8292 290.729 93.1856 301.142C100.897 325.065 113.388 346.17 130.693 364.403C138.806 372.95 147.855 380.399 157.644 386.949C159.284 388.046 160.991 389.043 162.792 390.164C172.031 372.261 183.197 355.686 193.441 338.243ZM250.424 422.12C155.911 421.906 78.992 345.08 78.9007 250.475C78.8089 155.853 156.119 78.6602 251.015 78.8433C345.274 79.0255 422.404 155.996 422.166 250.942C421.931 345.236 345.053 422.011 250.424 422.12Z" fill="white"/>
<path d="M251.549 186.804C250.529 194.147 247.914 200.577 241.301 204.695C239.418 205.867 237.305 206.229 235.102 206.038C233.57 205.905 232.917 204.967 233.74 203.619C234.851 201.802 236.215 200.124 237.587 198.486C238.837 196.996 240.35 195.723 241.554 194.202C243.234 192.081 244.71 189.8 246.323 187.625C247.164 186.491 248.064 185.391 249.038 184.371C249.378 184.016 250.202 183.646 250.479 183.816C250.947 184.103 251.236 184.784 251.445 185.356C251.605 185.793 251.523 186.318 251.549 186.804Z" fill="white"/>
<path d="M210.277 266.914C210.843 265.021 211.624 263.313 213.067 262.174C215.267 260.437 216.287 258.131 216.78 255.536C217.229 253.173 217.713 252.897 220.527 253.275C222.273 253.511 223.755 254.46 224.585 256.086C225.817 258.5 227.059 260.921 228.088 263.424C228.896 265.392 228.624 265.427 226.73 266.301C221.746 268.603 216.657 268.4 211.485 267.253C211.105 267.168 210.733 267.043 210.277 266.914Z" fill="white"/>
</g>
<mask id="mask2_1_452" style="mask-type:luminance" maskUnits="userSpaceOnUse" x="0" y="0" width="501" height="501">
<path d="M0.599731 0.599724H500.6V500.6H0.599731V0.599724Z" fill="white"/>
</mask>
<g mask="url(#mask2_1_452)">
<path d="M449.402 150.807C446.088 152.398 443.047 153.838 440.037 155.341C439.797 155.461 439.566 156.114 439.68 156.35C441.105 159.311 442.539 162.27 444.088 165.167C445.092 167.045 447.025 168.023 448.831 167.679C451.25 167.218 453.355 166.224 454.154 163.652C454.357 162.999 454.368 162.132 454.108 161.513C452.622 157.969 451.026 154.47 449.402 150.807ZM420.691 164.675C422.598 168.367 424.379 171.919 426.258 175.418C427.304 177.365 429.165 178.164 431.205 177.696C432.805 177.329 434.416 176.531 435.735 175.541C437.48 174.233 437.835 172.231 437.255 170.142C436.985 169.168 436.623 168.21 436.2 167.292C434.952 164.576 433.653 161.884 432.314 159.057C428.41 160.944 424.664 162.755 420.691 164.675ZM452.945 140.495C454.816 144.366 456.618 148.002 458.335 151.678C459.553 154.287 460.716 156.926 461.797 159.596C464.141 165.386 460.389 170.393 456.784 172.496C452.347 175.083 449.323 175.19 444.068 172.98C444.023 173.301 443.948 173.595 443.948 173.889C443.941 177.562 442.44 180.534 439.53 182.696C435.825 185.45 431.686 186.702 427.034 185.794C423.726 185.148 421.352 183.279 419.85 180.307C417.304 175.269 414.795 170.212 412.279 165.158C411.631 163.857 411.016 162.54 410.321 161.097C424.535 154.227 438.669 147.396 452.945 140.495Z" fill="white"/>
<path d="M62.8839 155.852C64.7443 152.429 66.5933 149.194 68.2745 145.875C69.4111 143.633 68.8936 141.446 66.9223 139.884C65.9545 139.118 64.8071 138.495 63.6439 138.076C61.5145 137.308 59.4774 138.01 58.2052 139.912C56.8746 141.901 55.6693 143.975 54.4305 146.025C53.724 147.194 53.0601 148.389 52.3541 149.613C52.7243 149.874 52.9727 150.076 53.2462 150.236C56.3621 152.056 59.4818 153.871 62.8839 155.852ZM99.9896 146.113C98.8991 147.99 97.7182 149.618 96.9626 151.425C96.0086 153.706 94.5263 154.232 92.1656 154.102C87.1379 153.827 82.091 153.92 77.0534 153.804C74.0304 153.735 71.8072 154.941 70.3941 157.629C70.0764 158.234 69.7067 158.812 69.2692 159.559C74.9657 162.882 80.5915 166.163 86.369 169.532C85.0678 171.772 83.8168 173.926 82.4931 176.205C68.8332 168.257 55.2951 160.38 41.5665 152.392C42.3006 151.129 42.9914 149.909 43.7097 148.707C46.5427 143.969 49.3311 139.202 52.2363 134.508C55.9491 128.509 61.9972 128.389 67.1928 130.732C69.4303 131.741 71.4556 133.083 73.1098 134.94C75.7984 137.957 76.6591 141.422 75.7159 145.344C75.5952 145.846 75.4793 146.348 75.3443 146.924C75.5524 146.924 75.6722 146.957 75.7611 146.919C79.6532 145.253 83.7432 145.221 87.864 145.446C91.8283 145.662 95.7926 145.882 99.9896 146.113Z" fill="white"/>
<path d="M449.911 259.678H480.93V266.939C480.499 266.959 480.067 266.998 479.635 266.996C464.757 266.932 449.878 266.854 435 266.817C433.986 266.815 433.657 266.521 433.698 265.508C433.774 263.682 433.759 261.85 433.715 260.021C433.697 259.271 433.944 258.857 434.629 258.516C444.045 253.82 453.446 249.095 462.85 244.374C463.308 244.145 463.747 243.878 464.153 243.357C463.691 243.357 463.228 243.359 462.766 243.357C453.619 243.316 444.473 243.275 435.326 243.233C433.761 243.225 433.761 243.223 433.76 241.608C433.759 239.827 433.76 238.045 433.76 236.138C434.339 236.105 434.809 236.056 435.279 236.057C450.077 236.091 464.874 236.143 479.672 236.144C480.833 236.144 481.244 236.43 481.162 237.635C481.047 239.335 481.089 241.048 481.115 242.755C481.126 243.496 480.864 243.906 480.177 244.246C470.563 249 460.965 253.786 451.364 258.566C450.844 258.824 450.332 259.098 449.816 259.364L449.911 259.678Z" fill="white"/>
<path d="M337.682 37.0368C339.855 38.1076 341.913 39.0724 343.907 40.1536C344.232 40.3294 344.424 41.0187 344.429 41.4739C344.535 50.2533 344.608 59.0332 344.676 67.8131C344.695 70.2872 344.679 72.7618 344.679 75.2364C344.811 75.2796 344.942 75.3228 345.074 75.366C349.642 66.099 354.209 56.8321 358.835 47.4458C360.983 48.5049 363.044 49.5212 365.291 50.6294C358.333 64.7788 351.407 78.8623 344.4 93.1104C342.157 92.0022 339.969 90.9697 337.845 89.8193C337.535 89.6519 337.411 88.9227 337.404 88.4504C337.293 80.6471 337.22 72.8428 337.127 65.039C337.093 62.2349 337.032 59.4309 336.978 56.6268C336.971 56.2768 336.928 55.9277 336.644 55.5015C332.192 64.5347 327.741 73.568 323.244 82.695C321.071 81.6315 319.007 80.6201 316.775 79.5267C323.754 65.3419 330.696 51.2333 337.682 37.0368Z" fill="white"/>
<path d="M35.1605 193.748C38.4246 194.695 41.5006 195.567 44.5625 196.486C45.5351 196.777 45.5312 196.071 45.6937 195.516C47.311 189.986 48.9215 184.455 50.5364 178.924C50.6144 178.658 50.7185 178.399 50.8697 177.97C53.3404 178.683 55.7708 179.385 58.3785 180.138C56.5701 186.392 54.7859 192.562 52.9589 198.88C53.799 199.135 54.5576 199.373 55.3201 199.596C58.2778 200.464 61.2463 201.296 64.1893 202.211C65.134 202.504 65.5253 202.352 65.8111 201.337C67.5359 195.206 69.3349 189.095 71.1133 182.98C71.2247 182.595 71.372 182.22 71.5527 181.695C73.9281 182.368 76.2613 183 78.5597 183.738C78.7453 183.798 78.8469 184.632 78.733 185.034C77.2035 190.419 75.6284 195.791 74.0651 201.166C73.0129 204.784 71.9612 208.403 70.8624 212.183C55.7021 207.775 40.6144 203.389 25.3819 198.96C28.0691 189.719 30.7136 180.624 33.4121 171.343C35.9598 172.078 38.4285 172.79 41.0131 173.535C39.055 180.297 37.1298 186.947 35.1605 193.748Z" fill="white"/>
<path d="M289.996 23.5065C299.378 25.5304 308.677 27.537 318.057 29.5604C317.545 31.9736 317.05 34.2675 316.577 36.5659C316.42 37.3299 315.968 37.2307 315.389 37.1035C309.801 35.878 304.206 34.6869 298.617 33.4638C295.845 32.8569 295.841 32.8339 295.245 35.5309C294.764 37.7099 294.304 39.8938 293.842 42.0768C293.768 42.4259 293.734 42.7828 293.663 43.261C300.022 44.6442 306.301 46.0106 312.686 47.3996C312.125 49.9901 311.588 52.4705 311.02 55.0905C308.466 54.5474 306.021 54.0348 303.58 53.5065C300.092 52.7524 296.604 51.9992 293.122 51.2166C292.241 51.0187 291.819 51.1989 291.625 52.1818C290.943 55.6443 290.187 59.093 289.404 62.5339C289.19 63.4746 289.455 63.7982 290.391 63.9941C296.624 65.2987 302.845 66.6646 309.068 68.0143C309.457 68.0983 309.839 68.2152 310.392 68.361C309.852 70.9038 309.325 73.3828 308.77 75.9988C306.109 75.4288 303.548 74.8838 300.988 74.3305C294.325 72.8894 287.668 71.4262 280.996 70.025C280.116 69.8398 279.973 69.477 280.142 68.7012C283.337 53.9946 286.52 39.2855 289.708 24.5773C289.767 24.3034 289.853 24.0348 289.996 23.5065Z" fill="white"/>
<path d="M473.281 189.929C475.087 199.399 476.863 208.711 478.667 218.175C476.069 218.674 473.575 219.154 470.909 219.666C470.472 217.418 470.044 215.249 469.629 213.077C468.8 208.733 467.971 204.389 467.161 200.042C467.037 199.377 466.811 199.028 466.041 199.18C462.945 199.792 459.842 200.366 456.546 200.991C456.849 202.71 457.116 204.332 457.422 205.946C458.254 210.329 459.1 214.71 459.951 219.09C460.055 219.628 460.23 220.179 459.458 220.331C457.159 220.784 454.855 221.217 452.424 221.682C451.878 218.826 451.355 216.086 450.829 213.347C450.202 210.082 449.549 206.821 448.96 203.549C448.823 202.785 448.546 202.487 447.764 202.641C443.907 203.401 440.047 204.141 435.972 204.929C437.314 212.02 438.645 219.049 440.012 226.27C437.479 226.761 434.991 227.244 432.285 227.768C430.447 218.136 428.619 208.558 426.757 198.804C442.254 195.848 457.654 192.911 473.281 189.929Z" fill="white"/>
<path d="M92.8034 121.202C96.1191 124.096 99.3184 126.888 102.614 129.764C107.403 124.301 112.106 118.935 116.933 113.429C118.918 115.157 120.828 116.82 122.872 118.599C116.401 125.996 109.997 133.317 103.46 140.791C91.5696 130.382 79.7328 120.019 67.8257 109.596C74.1546 102.364 80.4094 95.2175 86.7623 87.9582C88.766 89.7095 90.7054 91.4054 92.7219 93.1686C88.0983 98.4556 83.5586 103.646 78.8804 108.995C81.5465 111.328 84.1532 113.61 86.8708 115.988C91.166 111.088 95.3851 106.275 99.7372 101.31C101.729 103.046 103.665 104.733 105.683 106.491C101.389 111.396 97.1703 116.214 92.8034 121.202Z" fill="white"/>
<path d="M199.816 66.2858C200.671 68.7977 201.491 71.2016 202.354 73.7341C199.978 74.5462 197.721 75.3195 195.464 76.0889C188.853 78.3416 182.237 80.5766 175.638 82.8626C174.751 83.17 174.359 83.0531 174.045 82.1237C169.232 67.8943 164.393 53.6742 159.536 39.46C159.296 38.7569 159.282 38.3425 160.083 38.0719C168.661 35.1736 177.233 32.2566 185.807 29.3485C185.955 29.2984 186.12 29.3004 186.46 29.2518C187.238 31.5354 188.046 33.8126 188.744 36.1232C188.801 36.3122 188.165 36.8729 187.764 37.0134C183.741 38.424 179.699 39.7811 175.664 41.1573C173.519 41.8889 171.377 42.6298 169.086 43.4174C170.224 46.7797 171.325 50.0315 172.472 53.4184C173.141 53.2161 173.751 53.0516 174.348 52.8483C179.499 51.095 184.654 49.3539 189.79 47.5589C190.724 47.2324 191.146 47.3752 191.44 48.3651C192.051 50.4209 192.784 52.4403 193.519 54.6287C191.881 55.1953 190.326 55.7393 188.767 56.272C184.541 57.716 180.321 59.1797 176.079 60.5755C175.245 60.8495 175.1 61.1839 175.376 61.9749C176.551 65.3485 177.705 68.7294 178.805 72.1286C179.096 73.0285 179.449 73.2367 180.369 72.9166C186.313 70.8485 192.276 68.836 198.232 66.8062C198.692 66.6496 199.155 66.5028 199.816 66.2858Z" fill="white"/>
<path d="M424.757 112.795C421.863 114.969 419.142 117.014 416.273 119.169C420.17 124.391 424.018 129.547 427.957 134.826C425.866 136.394 423.835 137.917 421.673 139.538C420.216 137.604 418.807 135.74 417.406 133.87C415.165 130.88 412.911 127.899 410.703 124.885C410.173 124.163 409.809 123.944 408.986 124.584C406.196 126.751 403.332 128.822 400.502 130.936C400.185 131.172 399.904 131.456 399.564 131.755C403.896 137.557 408.169 143.281 412.525 149.116C410.443 150.673 408.409 152.195 406.222 153.83C400.335 145.967 394.489 138.158 388.561 130.24C401.222 120.766 413.767 111.38 426.474 101.872C432.213 109.536 437.918 117.154 443.715 124.896C441.606 126.477 439.548 128.02 437.379 129.646C433.145 123.995 428.993 118.451 424.757 112.795Z" fill="white"/>
<path d="M165.866 88.008C163.596 89.4628 161.523 90.7915 159.338 92.1913C155.567 86.3514 151.854 80.6029 148.091 74.7778C143.72 77.5912 139.466 80.3294 135.063 83.1629C138.821 89.0072 142.518 94.7562 146.282 100.608C144.1 102.014 142.03 103.348 139.795 104.788C131.251 91.5294 122.75 78.339 114.153 64.9992C116.308 63.6073 118.402 62.2546 120.631 60.8155C124.021 66.0602 127.359 71.224 130.767 76.4953C132.034 75.6832 133.187 74.9472 134.337 74.2078C137.172 72.3847 139.992 70.5371 142.851 68.7509C143.618 68.2722 143.703 67.8897 143.203 67.1262C140.221 62.5742 137.286 57.9913 134.338 53.4172C134.145 53.1172 133.973 52.803 133.729 52.3906C135.878 51.0025 137.979 49.6449 140.209 48.2039C148.766 61.4793 157.27 74.6717 165.866 88.008Z" fill="white"/>
<path d="M252.938 68.2208C250.546 68.2208 248.315 68.2051 246.085 68.2282C245.159 68.238 245.306 67.6046 245.309 67.0528C245.332 62.0962 245.373 57.1396 245.387 52.1831C245.415 42.2287 245.429 32.2749 245.449 22.3205C245.45 21.9199 245.449 21.5192 245.449 20.9978H271.907V28.7584C271.434 28.7933 270.93 28.8649 270.425 28.863C265.144 28.8394 259.862 28.8404 254.581 28.7451C253.411 28.724 253.149 29.1252 253.169 30.199C253.222 33.0826 253.211 35.9686 253.146 38.8522C253.124 39.8533 253.429 40.1931 254.449 40.1862C258.958 40.1548 263.469 40.2392 267.978 40.1774C269.211 40.1607 269.494 40.5805 269.433 41.7161C269.341 43.4582 269.361 45.21 269.411 46.9555C269.436 47.8668 269.116 48.1427 268.209 48.13C263.619 48.0676 259.027 48.0917 254.437 48.0219C253.431 48.0067 253.108 48.3043 253.109 49.3211C253.112 55.1713 253.053 61.0219 253.011 66.8721C253.008 67.2693 252.969 67.6665 252.938 68.2208Z" fill="white"/>
<path d="M66.8702 254.447C65.9865 254.447 65.2652 254.459 64.5444 254.445C53.4087 254.227 42.2736 254.007 31.1379 253.784C30.285 253.767 29.4278 253.77 28.5803 253.683C27.6513 253.588 27.3798 253.987 27.3759 254.863C27.3641 257.871 27.263 260.878 27.2694 263.886C27.2718 264.927 26.989 265.306 25.872 265.25C23.7671 265.146 21.6534 265.22 19.415 265.22C19.3742 264.615 19.3187 264.228 19.3261 263.842C19.5024 254.413 19.6943 244.985 19.8524 235.556C19.8682 234.617 20.1672 234.281 21.1369 234.311C23.3184 234.378 25.5033 234.332 27.7157 234.332C27.7157 236.589 27.7294 238.609 27.7108 240.628C27.6985 241.97 27.7004 243.315 27.5821 244.649C27.4844 245.756 27.9312 246.026 28.9643 246.039C35.7115 246.129 42.4577 246.265 49.2039 246.403C54.5685 246.513 59.9325 246.65 65.2966 246.771C65.8185 246.783 66.341 246.773 66.8702 246.773V254.447Z" fill="white"/>
<path d="M363.896 106.661C374.425 95.0507 384.889 83.5134 395.443 71.8759C397.365 73.6175 399.212 75.2908 401.169 77.0638C392.405 86.7294 383.718 96.3096 374.93 106.001C379.794 110.428 384.554 114.76 389.397 119.167C387.597 121.145 385.887 123.024 384.107 124.981C377.337 118.845 370.668 112.799 363.896 106.661Z" fill="white"/>
<path d="M236.624 60.019C236.961 62.4597 237.307 64.7796 237.563 67.1094C237.591 67.3608 237.125 67.8802 236.837 67.9215C230.81 68.7851 224.775 69.5967 218.742 70.4211C216.65 70.7069 214.561 71.0044 212.468 71.2838C211.912 71.3579 211.35 71.3844 210.679 71.4424C210.312 68.8352 209.947 66.3155 209.602 63.7923C208.503 55.7483 207.413 47.703 206.316 39.6586C205.702 35.1537 205.101 30.6469 204.446 26.1485C204.307 25.195 204.552 24.8851 205.536 24.7963C207.629 24.6063 209.708 24.2542 211.931 23.9498C212.282 26.4293 212.621 28.7856 212.948 31.1438C213.989 38.6633 215.027 46.1833 216.061 53.7043C216.415 56.2781 216.787 58.8499 217.083 61.4306C217.186 62.3296 217.362 62.6664 218.421 62.5113C224.404 61.6339 230.401 60.8596 236.624 60.019Z" fill="white"/>
<path d="M21.6998 220.544C22.1614 217.982 22.5979 215.559 23.0687 212.945C38.5619 215.729 53.9899 218.501 69.6417 221.312C69.2013 223.839 68.7736 226.29 68.3135 228.927C52.7835 226.134 37.3516 223.359 21.6998 220.544Z" fill="white"/>
<path d="M35.3821 33.6689C36.8212 33.6689 38.1493 33.6817 39.4769 33.6664C43.5526 33.6208 47.892 30.3321 45.9261 25.0618C45.2156 23.1577 43.7476 21.9205 41.9019 21.4221C39.7696 20.8462 37.5424 20.8791 35.3821 21.7938V33.6689ZM35.1655 34.9793C35.3556 38.842 35.4474 42.4758 35.7537 46.0919C35.8789 47.5659 36.8604 48.1826 38.385 48.2999C39.2093 48.3628 39.2093 48.3628 39.1229 49.3526H26.8035C26.5698 48.6814 26.6478 48.4394 27.4688 48.2582C30.2051 47.6543 30.507 47.5173 30.5473 44.7201C30.642 38.0574 30.6553 31.3907 30.5414 24.7284C30.4898 21.7226 29.8771 21.2164 27.2228 20.4872V19.3933C27.3671 19.3575 27.5179 19.2878 27.6681 19.2878C32.0163 19.2814 36.369 19.1616 40.7108 19.3246C43.5733 19.4321 46.4407 19.6761 48.9904 21.4196C51.7576 23.3124 52.4686 28.1123 50.8061 30.5005C48.985 33.1165 48.3177 33.5839 43.832 34.6867C44.7659 35.9544 45.6276 37.1608 46.5281 38.3382C48.2853 40.6356 50.0293 42.9442 51.847 45.1934C52.9478 46.5559 53.9509 48.0957 55.9457 48.3628C56.1259 48.3868 56.2379 48.9181 56.475 49.4056C54.1738 49.4056 52.1445 49.4705 50.1255 49.359C49.639 49.332 49.0773 48.8042 48.7321 48.3642C45.4385 44.1623 42.1897 39.9256 38.9147 35.709C37.9804 34.506 36.6827 35.1762 35.1655 34.9793Z" fill="white"/>
<path d="M40.0352 60.7442C53.6577 61.1134 64.9711 49.3684 65.0517 35.8558C65.1312 22.44 53.3076 10.3567 39.4195 10.779C25.9806 11.187 14.8999 22.384 14.9445 35.8215C14.9902 49.6036 26.147 60.9931 40.0352 60.7442ZM40.0769 7.81436C55.3379 7.24088 67.4595 20.7633 68.0821 34.1541C68.8873 51.4816 54.9554 62.9173 42.3919 63.8733C24.921 65.2029 11.0785 50.6244 11.9407 34.2321C12.6506 20.7314 24.8007 7.20749 40.0769 7.81436Z" fill="white"/>
</g>
</svg>
