<svg width="500" height="500" viewBox="0 0 500 500" fill="none" xmlns="http://www.w3.org/2000/svg">
<g clip-path="url(#clip0_1_377)">
<circle cx="250" cy="250" r="250" fill="white"/>
<ellipse cx="42.4766" cy="38.337" rx="30.2376" ry="30.0576" fill="white"/>
<mask id="mask0_1_377" style="mask-type:luminance" maskUnits="userSpaceOnUse" x="3" y="3" width="494" height="494">
<path d="M3.5997 3.5997H496.76V496.76H3.5997V3.5997Z" fill="white"/>
</mask>
<g mask="url(#mask0_1_377)">
<path d="M467.12 353.194C467.326 352.832 467.486 352.606 467.59 352.358C470.522 345.341 473.696 338.413 476.326 331.285C482.219 315.317 486.161 298.845 488.408 281.964C489.523 273.577 490.228 265.16 490.456 256.711C490.73 246.569 490.543 236.422 489.308 226.343C488.34 218.448 487.288 210.546 485.811 202.734C483.22 189.022 479.189 175.693 474.089 162.7C469.337 150.597 463.621 138.964 456.991 127.775C448.692 113.767 439.087 100.717 428.125 88.6922C418.337 77.9558 407.722 68.1003 396.157 59.2652C385.977 51.4877 375.299 44.5016 364.036 38.4206C345.444 28.3816 325.871 20.8855 305.297 16.0306C292.616 13.0378 279.773 11.0896 266.779 10.1936C258.097 9.5946 249.405 9.50888 240.701 9.83189C228.792 10.274 216.991 11.6101 205.297 13.831C185.897 17.5159 167.231 23.5151 149.321 31.8524C129.741 40.9664 111.711 52.4965 95.2002 66.4175C87.0368 73.3005 79.3794 80.7113 72.203 88.6035C61.2308 100.67 51.5806 113.727 43.2627 127.769C32.9244 145.222 24.8893 163.665 19.2063 183.137C14.4135 199.561 11.471 216.317 10.2758 233.374C9.66469 242.094 9.37603 250.838 9.97169 259.569C10.5083 267.433 11.0429 275.311 12.0216 283.128C13.4396 294.45 15.9298 305.575 19.095 316.548C24.2012 334.249 31.3292 351.094 40.2534 367.198C40.8447 368.265 41.3275 368.383 42.3726 367.834C45.5489 366.167 47.5887 363.401 49.6057 360.601C49.8057 360.323 49.8861 359.933 49.9423 359.583C50.2213 357.844 50.4895 356.103 50.7317 354.36C51.337 349.993 51.9051 345.606 53.8233 341.575C54.5904 339.963 54.8199 338.353 54.8528 336.603C54.9124 333.445 55.1579 330.356 56.9367 327.496C58.4011 325.142 58.8428 322.348 59.1731 319.58C59.438 317.359 59.8147 315.149 60.2312 312.95C60.3116 312.526 60.7441 312.096 61.1223 311.815C62.2942 310.942 63.5407 310.17 64.7141 309.3C65.4929 308.721 66.1955 308.041 66.9326 307.406C67.1559 310.892 66.8575 314.135 65.2371 317.086C64.7606 317.954 64.563 318.763 65.1219 319.539C65.797 320.474 66.6338 321.294 67.5089 322.287C68.1864 321.226 68.6668 320.448 69.1734 319.686C70.184 318.167 71.2916 316.613 73.1323 316.19C74.6001 315.852 75.0447 314.978 75.5735 313.776C76.2321 312.281 77.3513 311.082 79.2104 310.654C79.3063 314.596 79.7572 318.439 76.9009 321.625C78.6298 323.467 80.7591 324.246 82.9587 324.892C86.0247 325.793 89.2262 326.352 91.9115 328.233C92.3943 328.571 92.882 329.241 92.927 329.794C93.0166 330.885 93.1077 331.878 93.7232 332.86C94.4196 333.971 93.5706 335.348 92.2766 335.431C91.0379 335.511 89.7943 335.538 88.5594 335.655C85.3753 335.958 82.1693 336.143 79.0211 336.669C76.3503 337.116 74.6171 338.861 74.4708 341.666C74.3396 344.169 74.328 346.706 74.5725 349.197C75.0796 354.372 75.8893 359.517 76.3978 364.691C77.253 373.404 77.5019 382.138 76.114 390.82C75.1391 396.918 73.7759 402.911 67.9902 406.642C68.2116 406.932 68.384 407.198 68.5956 407.429C71.4363 410.527 74.2292 413.67 77.1363 416.704C91.6863 431.89 107.992 444.89 125.975 455.79C142.804 465.99 160.613 474.018 179.418 479.819C189.981 483.077 200.719 485.583 211.638 487.352C220.185 488.736 228.774 489.774 237.414 490.105C244.896 490.392 252.409 490.465 259.887 490.141C267.677 489.803 275.473 489.134 283.208 488.147C295.647 486.559 307.854 483.775 319.856 480.109C341.835 473.396 362.425 463.735 381.633 451.122C392.575 443.939 402.852 435.91 412.507 427.073C421.211 419.106 429.231 410.499 436.698 401.372C437.101 400.88 437.344 400.1 437.339 399.456C437.294 393.449 437.069 387.442 437.123 381.437C437.16 377.292 436.708 373.215 436.259 369.113C435.876 365.625 435.824 362.1 435.672 358.589C435.642 357.874 435.819 357.15 435.934 356.145C433.732 357.851 431.572 357.746 429.28 357.374C425.749 356.8 422.662 357.585 420.64 360.885C420.138 361.704 419.498 362.44 419.023 363.272C418.743 363.764 418.514 364.371 418.515 364.925C418.524 367.974 416.709 369.735 414.323 371.168C411.925 372.609 409.638 372.48 407.373 370.883C406.267 370.104 405.435 369.234 405.063 367.822C404.794 366.805 403.977 365.934 403.407 364.995C403.209 364.669 402.849 364.333 402.859 364.01C402.893 362.802 402.484 361.39 404.077 360.734C404.269 360.655 404.409 360.391 404.523 360.186C407.969 353.987 410.993 347.585 413.676 341.023C413.893 340.491 413.896 339.738 413.699 339.197C413.275 338.042 413.646 337.371 414.547 336.631C415.542 335.814 416.726 334.905 417.151 333.78C418.294 330.757 420.362 328.553 422.71 326.53C423.432 325.907 423.321 325.452 422.917 324.699C422.286 323.521 421.604 322.278 421.392 320.989C421.057 318.945 421.086 316.842 420.977 314.762C420.968 314.589 421.082 314.409 421.139 314.232C421.263 314.194 421.387 314.156 421.511 314.118C421.946 315.101 422.426 316.067 422.803 317.072C423.229 318.208 423.877 319.081 425.181 319.605C424.958 316.928 424.487 314.502 422.916 312.295C423.353 312.295 423.638 312.234 423.887 312.305C428.31 313.558 432.182 315.541 433.921 320.192C434.293 321.188 434.804 321.644 435.946 321.792C437.165 321.95 438.486 322.384 439.471 323.099C442.708 325.447 445.769 328.037 448.982 330.42C451.273 332.119 453.529 333.822 455.364 336.036C459.77 341.351 463.746 346.958 467.12 353.194ZM496.487 250.042C496.426 250.554 496.338 251.064 496.31 251.578C495.862 259.736 495.715 267.923 494.919 276.047C493.165 293.95 489.245 311.418 483.486 328.466C475.806 351.203 464.97 372.341 451.126 391.93C443.995 402.02 436.125 411.52 427.558 420.429C420.472 427.797 412.96 434.715 405.021 441.155C396.426 448.127 387.424 454.536 377.967 460.292C361.48 470.328 344.08 478.38 325.708 484.332C315.109 487.766 304.33 490.47 293.371 492.434C284.505 494.024 275.577 495.279 266.569 495.622C258.003 495.947 249.417 496.247 240.854 496.02C233.544 495.825 226.236 495.033 218.96 494.21C205.371 492.673 192.063 489.698 178.981 485.735C164.186 481.254 149.954 475.389 136.258 468.21C120.226 459.806 105.321 449.726 91.4907 438.071C82.6284 430.602 74.3725 422.497 66.6411 413.852C56.6553 402.686 47.7572 390.723 39.9338 377.955C27.4395 357.565 18.1555 335.797 12.027 312.688C9.45062 302.974 7.53387 293.127 6.16483 283.165C4.22288 269.034 3.54682 254.841 4.08969 240.604C4.80061 221.941 7.58568 203.572 12.52 185.544C17.2097 168.41 23.6777 151.982 31.9195 136.242C39.0393 122.645 47.3568 109.825 56.8762 97.8009C65.7185 86.6316 75.4311 76.2666 86.0741 66.7715C96.0211 57.8971 106.56 49.8141 117.778 42.6231C133.826 32.3352 150.841 24.0182 168.83 17.6834C181.238 13.3143 193.907 9.91858 206.859 7.68511C213.751 6.4967 220.717 5.70198 227.671 4.92423C238.247 3.74163 248.876 3.59151 259.492 4.02881C266.087 4.30049 272.675 4.92376 279.241 5.63128C296.012 7.43908 312.353 11.2537 328.335 16.6093C340.584 20.714 352.411 25.8188 363.86 31.8063C377.461 38.9184 390.27 47.2508 402.308 56.7591C411.689 64.1685 420.505 72.205 428.713 80.9074C441.376 94.3349 452.469 108.935 461.911 124.806C471.331 140.638 478.851 157.311 484.532 174.826C488.553 187.222 491.533 199.87 493.506 212.744C495.296 224.434 496.249 236.204 496.307 248.039C496.31 248.627 496.424 249.215 496.487 249.802V250.042Z" fill="#C01C13"/>
<path d="M342.739 446.053C343.124 445.356 343.38 444.763 343.747 444.252C345.544 441.746 348.403 441.897 349.985 444.56C351.515 447.136 350.991 450.288 348.782 452.307C348.497 452.568 348.384 453.212 348.452 453.636C349.162 458 347.428 461.946 343.66 463.708C342.066 464.454 340.228 464.763 338.465 465.035C336.812 465.29 335.111 465.302 333.43 465.304C324.655 465.316 315.88 465.3 307.105 465.271C305.544 465.266 303.982 465.165 302.421 465.085C301.255 465.024 300.005 463.868 299.855 462.751C299.738 461.884 300.48 460.996 301.843 460.72C303.166 460.451 304.536 460.404 305.886 460.268C306.267 460.229 306.65 460.218 307.149 459.904C306.751 459.65 306.358 459.385 305.952 459.143C304.687 458.388 303.331 457.754 302.167 456.867C299.621 454.927 299.038 452.041 298.788 449.076C298.684 447.846 298.245 447.045 296.958 446.797C294.245 446.274 292.739 444.385 291.816 441.979C291.617 441.463 291.74 440.62 292.051 440.15C292.857 438.93 293.734 437.711 294.791 436.712C297.071 434.557 299.814 433.206 302.868 432.423C303.6 432.235 304.352 431.653 304.834 431.045C307.96 427.099 310.964 423.039 315.516 420.557C316.108 420.233 316.808 420.108 317.459 419.89C317.575 420.641 317.881 421.418 317.778 422.138C317.25 425.85 315.439 428.913 312.715 431.437C311.662 432.413 311.558 433.458 311.885 434.8C312.311 436.554 312.488 438.369 312.737 439.931C314.62 440.209 316.635 440.572 318.665 440.787C320.41 440.972 322.18 440.925 323.928 441.093C330.213 441.694 336.279 443.177 342.059 445.756C342.272 445.85 342.485 445.942 342.739 446.053Z" fill="#C01C13"/>
<path d="M182.724 461.443C181.155 461.222 179.586 461.005 178.017 460.779C176.082 460.5 174.153 460.156 172.21 459.978C171.778 459.939 170.996 460.393 170.887 460.769C170.469 462.215 170.274 463.725 169.962 465.204C169.791 466.018 169.684 466.89 169.296 467.598C169.033 468.079 168.349 468.593 167.826 468.623C165.806 468.741 163.776 468.671 161.639 468.671C161.639 467.568 161.489 466.771 161.692 466.078C161.825 465.622 162.404 465.166 162.89 464.965C164.895 464.135 165.664 462.474 164.797 460.459C163.879 458.326 162.231 456.753 160.129 456.008C156.145 454.594 154.829 451.515 154.426 447.765C154.053 444.304 153.808 440.83 153.481 437.365C153.325 435.711 152.535 434.456 151.103 433.548C150.406 433.106 149.731 432.524 149.262 431.854C148.773 431.157 148.361 430.3 148.257 429.471C148.164 428.728 148.415 427.872 148.731 427.163C149.181 426.153 150.059 426.927 150.747 426.865C151.614 426.786 152.598 426.885 153.316 426.503C154.815 425.705 156.339 425.699 157.869 426.022C158.803 426.22 159.411 426.044 159.921 425.3C160.545 424.391 161.173 423.483 161.817 422.549C163.036 423.362 163.296 424.686 163.242 426.082C163.196 427.276 163.554 428.228 164.127 429.299C164.838 430.626 165.213 432.232 165.347 433.752C165.694 437.664 166.541 438.337 170.278 437.134C176.552 435.112 182.091 436.707 186.99 440.739C189.327 442.662 191.324 444.996 193.49 447.129C194.288 447.915 195.182 448.608 195.938 449.43C197.165 450.767 198.559 450.791 200.196 450.353C203.792 449.39 206.021 446.858 207.594 443.766C209.296 440.417 210.608 436.872 212.215 433.472C213.134 431.528 214.267 429.681 215.378 427.835C215.69 427.317 216.269 426.96 216.726 426.529C216.87 426.568 217.016 426.608 217.161 426.648C217.068 427.665 217.036 428.693 216.872 429.699C216.133 434.241 215.291 438.753 213.672 443.094C211.057 450.107 206.25 454.851 199.214 457.334C198.279 457.665 197.541 458.065 196.959 458.937C196.417 459.751 195.467 460.285 194.882 461.079C192.42 464.42 188.65 465.539 185.055 466.909C182.08 468.042 178.948 468.507 175.752 468.485C174.451 468.476 173.737 467.64 173.572 465.848C173.463 464.66 174.145 463.73 175.326 463.516C177.214 463.174 179.111 462.879 180.995 462.516C181.597 462.399 182.169 462.128 182.755 461.928C182.744 461.766 182.734 461.605 182.724 461.443Z" fill="#C01C13"/>
<path d="M118.492 389.736C117.222 392.769 116.093 395.747 116.379 399.114C116.828 404.38 117.194 409.653 117.529 414.928C117.665 417.067 117.239 417.493 115.063 417.77C114.076 417.895 113.077 417.932 112.035 418.013C111.984 418.308 111.901 418.576 111.899 418.844C111.876 422.331 111.845 425.82 111.861 429.307C111.869 430.9 111.996 430.981 113.602 430.996C114.444 431.003 115.287 430.977 116.127 431.018C117.59 431.089 118.599 432.18 118.565 433.603C118.532 435 117.69 435.744 116.111 435.747C112.905 435.752 109.7 435.748 106.341 435.748C106.303 435.182 106.24 434.684 106.24 434.185C106.238 429.214 106.218 424.242 106.272 419.272C106.284 418.207 105.951 417.876 104.903 417.9C103.585 417.93 102.264 417.75 100.943 417.715C100.015 417.69 99.6548 417.27 99.7211 416.36C100.014 412.325 100.237 408.285 100.583 404.255C100.895 400.629 101.228 396.998 101.742 393.396C102.376 388.96 103.635 384.73 107.47 381.903C108.621 381.054 110.074 380.614 111.374 379.993C108.255 375.463 108.572 371.399 112.296 369.078C115.769 366.912 120.063 368.003 122.026 371.548C124.148 375.383 122.453 379.156 117.428 381.673C118.896 382.718 120.349 383.731 121.778 384.775C125.466 387.469 129.143 390.175 132.824 392.878C134.446 394.069 134.615 395.929 133.357 397.461C133.025 397.865 132.889 398.538 132.888 399.088C132.861 410.754 132.868 422.421 132.867 434.088C132.867 435.727 132.864 435.727 131.254 435.731C130.532 435.732 129.807 435.693 129.09 435.751C128.25 435.818 127.986 435.51 127.995 434.66C128.047 429.649 128.05 424.637 128.064 419.626C128.084 412.49 128.114 405.354 128.088 398.218C128.086 397.647 127.854 396.873 127.445 396.539C124.686 394.286 121.852 392.125 119.036 389.941C118.922 389.852 118.754 389.832 118.492 389.736Z" fill="#C01C13"/>
<path d="M265.202 452.469C265.099 452.535 264.997 452.601 264.894 452.667C264.689 454.326 264.51 455.989 264.274 457.645C263.778 461.123 262.114 463.278 259.459 463.592C257.641 463.807 255.784 463.814 253.951 463.747C250.072 463.605 246.199 463.324 242.32 463.183C241.854 463.166 241.191 463.548 240.926 463.948C239.934 465.45 239.103 467.055 238.145 468.58C237.691 469.301 237.717 469.94 237.992 470.708C240.702 478.281 248.468 482.843 256.507 481.555C268.565 479.623 274.617 465.821 267.834 455.658C267.073 454.518 266.084 453.529 265.202 452.469ZM234.547 474.812C233.387 476.75 232.285 478.591 231.118 480.541C228.051 478.665 225.058 476.899 222.139 475.018C220.957 474.256 220.822 472.85 221.591 471.736C222.368 470.613 223.825 470.248 224.979 471.003C228.676 473.419 228.326 472.57 230.119 469.578C232.504 465.595 234.737 461.52 236.996 457.463C237.517 456.527 238.238 456.247 239.254 456.239C243.622 456.202 247.99 456.113 252.359 456.039C252.714 456.033 253.069 455.995 253.384 455.975C253.462 455.848 253.525 455.787 253.539 455.716C254.021 453.131 254.021 453.122 251.432 453.091C248.746 453.058 246.061 453.06 243.376 453.013C242.031 452.99 241.125 452.307 240.84 451.205C240.52 449.971 241.01 448.725 242.144 448.134C242.544 447.926 243.056 447.86 243.517 447.857C246.956 447.835 250.397 447.845 253.853 447.845C254.237 444.953 254.581 442.36 254.939 439.664C252.238 439.564 249.911 438.513 248.509 435.878C247.609 434.188 247.511 432.437 248.085 430.646C249.222 427.102 253.117 425.184 256.689 426.38C260.769 427.746 262.111 431.558 260.256 436.609C260.826 436.753 261.409 436.848 261.955 437.046C264.159 437.841 265.544 439.916 265.45 442.26C265.403 443.461 265.241 444.662 265.284 445.858C265.3 446.323 265.621 446.93 265.999 447.206C272.644 452.056 275.808 458.586 275.305 466.779C274.709 476.517 266.657 484.974 256.913 486.288C248.058 487.481 239.724 483.458 235.217 475.818C235.038 475.514 234.827 475.23 234.547 474.812Z" fill="#C01C13"/>
<path d="M378.932 394.957C373.597 392.882 371.699 389.416 373.488 385.388C374.947 382.101 379.058 380.591 382.318 382.203C384.346 383.205 385.628 384.857 385.984 387.107C386.334 389.319 385.65 391.272 383.876 393.156C386.728 392.929 388.885 393.809 390.764 395.445C391.549 396.128 392.369 396.772 393.172 397.435C395.456 399.325 397.771 401.178 400.001 403.129C400.602 403.655 401.123 404.422 401.361 405.178C401.693 406.236 401.32 407.274 400.354 407.912C399.302 408.607 398.184 408.471 397.21 407.742C394.998 406.087 392.83 404.374 390.639 402.691C390.242 402.386 389.823 402.109 389.201 401.668C389.382 403.603 389.523 405.26 389.694 406.915C390.046 410.298 390.433 413.677 390.762 417.063C390.831 417.771 390.763 418.504 390.668 419.213C390.545 420.131 390.048 420.796 389.061 420.88C388.044 420.966 387.894 421.533 387.94 422.423C388.147 426.345 388.3 430.269 388.465 434.192C388.477 434.501 388.435 434.812 388.4 435.445C385 435.445 381.647 435.45 378.295 435.435C377.983 435.434 377.659 435.327 377.363 435.213C376.42 434.849 375.639 434.27 375.534 433.197C375.431 432.152 376.072 431.316 376.947 431.032C378.249 430.611 379.646 430.41 381.017 430.301C381.916 430.229 382.321 430.052 382.24 429.059C382.05 426.743 381.932 424.422 381.817 422.101C381.784 421.434 381.583 421.101 380.845 421.047C379.237 420.93 378.573 420.301 378.426 418.635C378.2 416.084 378.057 413.524 377.926 410.966C377.793 408.368 377.716 405.767 377.606 402.943C377.067 403.184 376.641 403.34 376.249 403.556C373.056 405.315 369.874 407.093 366.679 408.848C365.544 409.472 364.364 409.581 363.292 408.749C361.428 407.301 361.624 405.1 363.758 403.842C368.313 401.157 372.897 398.521 377.468 395.861C377.909 395.604 378.337 395.325 378.932 394.957Z" fill="#C01C13"/>
<path d="M369.939 424.224C369.924 427.86 367.002 430.754 363.35 430.751C359.77 430.747 356.754 427.747 356.749 424.185C356.744 420.649 359.799 417.567 363.325 417.549C366.945 417.531 369.954 420.567 369.939 424.224Z" fill="#C01C13"/>
</g>
<mask id="mask1_1_377" style="mask-type:luminance" maskUnits="userSpaceOnUse" x="3" y="3" width="494" height="494">
<path d="M3.5997 3.5997H496.76V496.76H3.5997V3.5997Z" fill="white"/>
</mask>
<g mask="url(#mask1_1_377)">
<path d="M266.172 363.191C264.38 365.354 262.738 367.421 261.008 369.411C252.744 378.92 243.647 387.604 234.36 396.09C229.661 400.384 224.811 404.511 220.044 408.73C219.554 409.163 218.982 409.671 219.708 410.511C221.376 409.02 222.961 407.494 224.658 406.104C231.876 400.193 238.996 394.15 246.403 388.484C254.097 382.598 262.079 377.087 269.949 371.432C270.396 371.111 270.717 370.892 270.37 370.309C268.981 367.972 267.607 365.627 266.172 363.191ZM361.685 369.48C361.594 369.346 361.504 369.212 361.413 369.077C361.074 369.002 360.738 368.894 360.395 368.858C358.526 368.663 356.649 368.796 354.997 369.672C350.72 371.937 346.278 373.999 342.342 376.768C337.908 379.888 333.966 383.706 329.789 387.196C326.729 389.752 323.569 392.143 319.467 392.786C318.701 392.906 317.934 393.023 317.171 393.141C317.571 395.761 318.722 396.587 321.057 396.059C321.68 395.918 322.298 395.745 322.907 395.548C327.595 394.023 331.828 391.579 335.962 388.963C344.444 383.595 352.324 377.422 359.914 370.868C360.481 370.379 361.094 369.941 361.685 369.48ZM316.113 384.465C317.061 384.33 318.036 384.291 318.952 384.041C321.721 383.284 324.609 382.708 326.79 380.65C331.197 376.492 335.814 372.602 340.822 369.185C345.772 365.808 351.069 363.246 357.062 362.382C362.26 361.633 367.135 360.17 371.194 356.616C372.087 355.834 372.424 354.934 372.224 353.871C372.056 352.98 371.717 352.103 371.338 351.273C370.261 348.909 369.101 346.583 368.019 344.221C367.317 342.689 366.198 341.902 364.505 342.093C363.321 342.227 362.148 342.533 360.993 342.845C359.926 343.134 359.017 343.085 358.055 342.404C357.444 341.973 356.579 341.717 355.825 341.711C354.476 341.7 353.052 341.71 351.788 342.112C346.649 343.75 341.56 345.543 336.451 347.274C333.31 348.338 330.179 349.432 327.012 350.408C326.538 350.554 325.887 350.125 325.319 349.963C325.686 349.511 325.962 348.869 326.437 348.638C329.319 347.234 331.666 345.236 333.428 342.571C334.52 340.919 335.348 339.142 335.44 337.119C335.525 335.228 334.433 334.399 332.69 335.126C331.669 335.552 330.758 336.239 329.796 336.809C329.254 337.129 328.749 337.585 328.163 337.749C322.598 339.305 317.825 342.247 313.641 346.146C308.025 351.382 302.886 357.124 296.646 361.701C294.072 363.589 294.244 364.434 296.667 366.544C300.623 369.991 304.549 373.469 307.569 377.821C308.368 378.972 309.13 380.149 309.957 381.279C311.471 383.348 313.456 384.529 316.113 384.465ZM204.457 252.441C204.772 251.77 205.026 251.322 205.197 250.845C206.405 247.453 207.554 244.039 208.825 240.671C209.147 239.817 209.686 238.891 210.398 238.365C213.326 236.202 216.299 234.084 219.383 232.151C220.678 231.339 221.088 230.366 221.067 229.005C221.043 227.412 220.1 226.687 218.618 227.278C217.742 227.627 216.91 228.167 216.171 228.761C214.427 230.161 212.853 231.791 211.025 233.062C207.629 235.426 203.853 236.992 199.695 237.359C198.855 237.434 197.956 236.862 197.085 236.588C197.378 235.805 197.472 234.829 198.005 234.279C199.279 232.965 200.768 231.861 202.156 230.654C204.538 228.584 207.023 226.615 209.247 224.387C211.019 222.611 212.481 220.523 214.054 218.552C215.798 216.368 217.328 216.021 219.454 217.833C221.33 219.431 222.908 221.379 224.623 223.166C225.392 223.967 226.042 225.038 226.984 225.485C228.753 226.324 230.721 226.298 232.62 225.726C234.88 225.045 237.101 224.227 239.378 223.613C251.641 220.311 264.091 220.206 276.567 221.863C283.178 222.741 289.723 224.126 296.289 225.334C297.691 225.592 299.329 225.715 300.384 226.52C305.312 230.283 310.319 234.003 314.836 238.231C320.851 243.862 326.408 249.981 332.226 255.826C334.532 258.142 337.011 260.283 339.467 262.556C342.139 259.045 344.803 255.737 347.253 252.278C350.196 248.123 351.673 243.454 351.72 238.316C351.767 233.124 350.672 228.143 349.246 223.203C349.05 222.524 348.696 222.169 347.98 221.97C345.437 221.264 342.913 220.488 340.392 219.705C330.267 216.559 321.357 211.329 313.754 203.943C307.339 197.712 302.039 190.589 297.371 182.986C297.137 182.605 297.192 182.013 297.206 181.522C297.259 179.613 297.623 177.669 297.374 175.804C296.698 170.733 293.926 166.732 290.293 163.299C287.793 160.937 284.983 159.037 281.573 158.214C278.897 157.568 276.948 158.34 276.298 160.39C276.05 161.17 275.899 162.088 276.058 162.871C276.677 165.919 277.21 169.016 278.212 171.946C279.15 174.691 280.673 177.232 281.863 179.897C282.136 180.508 282.344 181.333 282.161 181.93C281.508 184.069 280.722 186.173 279.891 188.251C279.404 189.469 278.845 190.688 278.118 191.773C277.413 192.826 276.585 192.774 275.745 191.829C275.214 191.231 274.662 190.636 274.232 189.966C270.192 183.664 266.152 177.363 262.167 171.026C260.701 168.696 259.382 166.274 257.996 163.894C257.529 164.128 257.193 164.409 256.823 164.464C255.203 164.705 253.572 164.867 251.949 165.08C248.939 165.475 245.891 165.701 242.932 166.338C239.699 167.035 237.02 168.637 236.254 172.263C236.204 172.5 235.98 172.701 235.742 173.062C235.304 172.487 234.881 172.055 234.605 171.545C234.034 170.49 233.563 169.383 233.012 168.316C231.71 165.793 230.426 163.258 229.033 160.785C228.773 160.324 228.037 160.131 227.521 159.813C227.282 160.359 226.876 160.892 226.83 161.454C226.517 165.285 226.386 169.134 225.98 172.955C225.723 175.366 225.135 177.747 224.592 180.118C224.489 180.572 223.957 181.141 223.528 181.237C223.209 181.309 222.7 180.741 222.345 180.388C222.099 180.142 221.941 179.791 221.796 179.463C220.977 177.594 220.209 175.701 219.352 173.85C218.717 172.477 218.032 171.119 217.256 169.822C216.739 168.958 216.028 169.14 215.596 169.941C215.143 170.78 214.651 171.664 214.488 172.583C213.626 177.423 212.873 182.282 212.055 187.13C211.916 187.96 211.641 188.766 211.429 189.583C211.287 189.595 211.145 189.607 211.003 189.619C210.739 189.073 210.468 188.531 210.214 187.981C208.199 183.624 206.202 179.259 204.153 174.918C203.925 174.433 203.412 174.083 202.774 173.391C202.622 174.334 202.446 174.872 202.467 175.402C202.545 177.282 202.705 179.159 202.808 181.039C203.017 184.835 203.239 188.632 203.388 192.431C203.426 193.396 203.334 194.418 202.226 195.32C201.221 191.882 200.266 188.616 199.311 185.349C198.856 188.108 198.707 190.828 198.361 193.522C197.064 203.629 193.728 212.851 186.551 220.392C184.481 222.568 183.278 225.107 184.365 228.156C184.924 229.727 185.619 231.292 186.515 232.693C190.643 239.147 195.895 244.657 201.362 249.968C202.264 250.844 203.332 251.55 204.457 252.441ZM378.201 348.867C378.799 348.466 379.084 348.316 379.321 348.11C383.034 344.882 386.192 341.18 388.868 337.051C389.443 336.164 389.345 335.558 388.73 334.74C378.713 321.42 368.825 308.003 358.693 294.773C353.903 288.518 348.683 282.59 343.594 276.568C342.581 275.369 341.277 274.415 340.107 273.348C339.933 273.657 339.942 273.807 339.998 273.937C341.907 278.366 342.326 283.059 342.466 287.802C342.622 293.103 342.216 298.371 341.453 303.611C341.344 304.358 341.014 305.21 340.502 305.738C338.024 308.295 335.478 310.788 332.9 313.244C330.367 315.658 327.902 318.141 326.388 321.336C325.577 323.049 324.406 324.3 322.845 325.271C321.893 325.863 320.913 326.417 320 327.064C317.589 328.775 315.055 330.358 312.872 332.326C311.619 333.457 310.421 334.582 308.941 335.394C307.466 336.203 305.997 337.023 304.522 337.832C299.273 340.712 294.239 343.852 290.027 348.221C287.841 350.488 284.981 351.374 281.765 350.871C277.64 350.226 274.427 347.909 271.592 345.104C265.062 338.642 260.638 330.845 257.742 322.174C256.613 318.793 255.608 315.332 256.44 311.7C257.002 309.246 257.583 306.785 258.356 304.391C260.924 296.435 264.546 289.005 269.956 282.57C271.174 281.122 272.111 279.644 272.6 277.831C273.588 274.162 274.469 270.454 275.693 266.864C276.649 264.062 276.112 261.521 275.424 258.817C274.73 256.084 274.351 253.257 274.034 250.448C273.882 249.096 274.318 247.744 275.425 246.748C276.488 245.791 279.42 245.388 280.015 246.322C281.168 248.131 282.54 249.993 282.996 252.019C284.83 260.174 284.376 268.337 282.156 276.38C280.161 283.609 276.886 290.122 271.19 295.213C270.904 295.469 270.642 295.824 270.524 296.183C269.037 300.745 267.365 305.261 266.162 309.898C264.286 317.123 265.27 323.942 269.855 330.074C270.83 331.378 271.663 332.836 272.3 334.334C274.234 338.879 277.41 341.829 282.391 342.573C282.949 342.657 283.779 342.582 284.117 342.23C287.594 338.597 291.718 335.848 296.049 333.391C301.202 330.465 306.448 327.7 311.569 324.72C316.028 322.124 320.12 319.062 322.848 314.509C323.664 313.147 324.523 311.792 325.524 310.566C327.499 308.148 329.64 305.866 331.607 303.442C332.699 302.098 333.696 300.746 334.018 298.855C335.351 291.013 335.451 283.236 333.38 275.51C331.378 268.038 328.035 261.252 322.569 255.697C316.924 249.959 311.142 244.355 305.386 238.727C302.777 236.176 300.132 233.67 296.316 232.958C289.95 231.769 283.628 230.296 277.229 229.335C267.141 227.821 257.026 227.971 246.964 229.799C235.305 231.919 224.764 236.457 215.791 244.332C215.159 244.886 214.46 245.612 214.271 246.378C213.502 249.495 212.15 252.309 210.455 255.014C208.757 257.723 207.268 260.563 205.584 263.281C204.621 264.834 203.606 266.407 202.346 267.711C199.213 270.953 195.293 273.084 191.267 275.006C184.164 278.398 176.671 280.748 169.228 283.238C165.246 284.569 161.273 285.962 157.405 287.587C154.624 288.755 154.673 289.014 155.275 291.937C155.283 291.976 155.279 292.018 155.287 292.056C156.03 295.351 157.544 298.203 160.124 300.436C160.79 301.013 161.481 301.56 162.163 302.119C162.94 302.757 162.935 303.368 162.113 303.966C160.656 305.027 159.186 306.071 157.752 307.163C155.523 308.862 155.221 309.777 156.471 312.285C158.186 315.722 160.037 319.093 161.89 322.459C162.657 323.85 163.356 325.389 164.471 326.458C169.264 331.052 175.132 332.571 181.56 331.477C186.044 330.715 190.452 329.488 194.871 328.375C196.874 327.869 198.814 327.674 200.896 327.947C203.745 328.32 206.639 328.361 209.517 328.488C209.992 328.51 210.583 328.376 210.946 328.091C214.551 325.248 218.66 324.107 223.193 324.405C226.441 324.619 229.617 324.437 232.798 323.574C238.416 322.05 244.178 321.898 249.959 322.272C251.568 322.376 253.058 323.667 253.198 325.012C253.333 326.301 252.268 327.548 250.597 328.028C250.079 328.176 249.547 328.273 248.878 328.426C261.125 339.123 269.306 352.716 277.63 366.241C277.825 366.088 277.964 366.005 278.071 365.891C280.384 363.436 283.159 361.892 286.486 361.15C289.268 360.529 291.691 359.171 293.346 356.661C294.044 355.602 294.974 354.685 295.862 353.765C301.246 348.189 307.241 343.319 313.399 338.636C318.059 335.091 322.871 331.778 328.13 329.174C331.158 327.675 334.278 326.658 337.723 327.784C341.376 328.978 342.752 332.112 341.081 335.575C340.851 336.052 340.657 336.545 340.342 337.273C341.499 336.973 342.378 336.744 343.258 336.517C348.795 335.09 354.317 333.597 359.877 332.264C362.681 331.591 365.388 331.97 367.667 333.969C369.381 335.475 371.051 337.033 372.8 338.497C374.487 339.909 375.551 341.58 376.057 343.782C376.448 345.486 377.414 347.059 378.201 348.867ZM193.803 336.624C193.067 336.66 192.624 336.609 192.222 336.713C188.511 337.666 184.806 338.649 181.098 339.615C180.642 339.734 180.135 339.976 179.718 339.877C175.987 338.997 172.21 338.244 168.564 337.084C163.057 335.331 158.454 332.131 155.492 327.077C153.618 323.88 152.217 320.407 150.553 317.084C150.194 316.368 149.728 315.621 149.118 315.13C146.215 312.796 143.715 310.114 141.8 306.923C139.414 302.947 137.704 298.774 138.247 293.967C138.373 292.852 138.839 292.211 139.78 291.626C142.602 289.874 145.486 288.178 148.1 286.144C154.836 280.904 162.298 277.18 170.473 274.83C173.625 273.925 176.864 273.251 179.914 272.081C186.001 269.747 191.618 266.478 196.815 262.547C198.254 261.459 199.401 259.987 200.797 258.575C191.876 250.54 185.091 240.977 177.51 231.822C173.757 236.712 172.793 242.193 173.035 248.176C172.853 247.925 172.789 247.87 172.765 247.8C172.408 246.737 172.063 245.672 171.702 244.61C169.2 237.245 167.279 229.725 162.687 223.13C157.573 215.786 155.717 207.118 154.684 198.341C153.852 191.278 153.9 184.193 154.609 177.107C155.345 169.748 156.81 162.552 159.241 155.567C161.696 148.514 164.774 141.717 170.104 136.378C175.017 131.457 180.239 126.814 185.594 122.373C193.031 116.205 201.149 111.11 210.439 108.083C218.294 105.522 226.283 105.04 234.399 106.338C243.618 107.811 252.087 111.377 260.203 115.834C268.754 120.531 276.738 126.085 284.362 132.168C290.258 136.873 295.066 142.474 298.727 149.088C301.925 154.867 305.259 160.57 308.528 166.309C308.674 166.563 308.777 166.842 309.052 167.439C308.15 167.005 307.557 166.72 306.964 166.435C305.955 165.95 304.967 165.413 303.926 165.008C303.528 164.852 302.858 164.823 302.595 165.056C302.347 165.276 302.281 166.025 302.467 166.351C303.15 167.548 303.787 168.869 304.782 169.766C306.315 171.151 308.117 172.243 309.828 173.426C311.211 174.382 312.65 175.257 314.015 176.238C314.344 176.474 314.477 176.982 314.701 177.365C314.255 177.448 313.802 177.628 313.367 177.591C312.777 177.541 312.195 177.345 311.62 177.176C310.086 176.724 308.564 176.228 307.023 175.803C306.48 175.653 305.894 175.656 305.328 175.588C305.24 175.717 305.151 175.846 305.062 175.975C305.785 176.938 306.397 178.017 307.253 178.842C309.329 180.841 311.531 182.709 313.654 184.66C314.24 185.198 314.786 185.804 315.232 186.459C315.439 186.764 315.361 187.262 315.412 187.672C315.051 187.62 314.649 187.651 314.337 187.499C313.548 187.113 312.825 186.585 312.023 186.236C311.627 186.063 310.896 185.965 310.707 186.178C310.439 186.48 310.339 187.189 310.51 187.57C310.962 188.581 311.473 189.618 312.189 190.448C313.756 192.266 315.448 193.977 317.118 195.705C320.951 199.671 325.162 203.154 330.035 205.797C338.701 210.498 348.114 212.323 357.813 213.015C365.828 213.587 373.841 213.207 381.843 212.741C390.606 212.23 399.361 211.592 408.149 211.875C408.254 211.879 408.363 211.8 408.528 211.738C408.471 211.377 408.452 211.016 408.356 210.676C407.352 207.135 406.442 203.564 405.307 200.065C397.799 176.919 385.675 156.465 369.105 138.676C359.254 128.1 348.113 119.045 335.825 111.418C325.442 104.973 314.474 99.7653 302.916 95.7865C288.285 90.7505 273.237 87.8822 257.795 87.1567C243.891 86.503 230.111 87.6052 216.482 90.4915C199.659 94.0543 183.8 100.138 168.906 108.72C157.752 115.146 147.517 122.818 138.15 131.648C131.252 138.151 124.979 145.222 119.329 152.822C111.388 163.504 104.814 174.983 99.664 187.275C92.2905 204.875 88.1809 223.21 87.2463 242.252C86.8157 251.028 87.1358 259.788 88.1359 268.529C89.363 279.258 91.6086 289.76 94.9191 300.031C102.525 323.627 114.845 344.443 131.914 362.427C139.915 370.857 148.841 378.204 158.496 384.664C160.114 385.746 161.797 386.73 163.573 387.835C172.686 370.177 183.699 353.829 193.803 336.624ZM250.007 419.354C156.786 419.143 80.9197 343.368 80.8296 250.057C80.739 156.73 156.992 80.5924 250.589 80.773C343.559 80.9527 419.634 156.871 419.4 250.517C419.167 343.522 343.341 419.246 250.007 419.354Z" fill="#C01C13"/>
<path d="M251.116 187.257C250.11 194.5 247.531 200.842 241.008 204.903C239.151 206.059 237.067 206.416 234.894 206.228C233.383 206.097 232.739 205.171 233.551 203.842C234.646 202.049 235.992 200.395 237.346 198.779C238.578 197.309 240.07 196.054 241.258 194.553C242.915 192.462 244.371 190.212 245.962 188.066C246.791 186.948 247.679 185.864 248.64 184.858C248.975 184.507 249.788 184.142 250.061 184.31C250.522 184.593 250.808 185.264 251.014 185.829C251.171 186.26 251.091 186.778 251.116 187.257Z" fill="#C01C13"/>
<path d="M210.409 266.271C210.967 264.404 211.737 262.719 213.16 261.596C215.331 259.883 216.336 257.608 216.823 255.049C217.266 252.718 217.743 252.446 220.519 252.819C222.24 253.051 223.702 253.987 224.521 255.591C225.736 257.973 226.961 260.36 227.976 262.828C228.773 264.77 228.505 264.804 226.637 265.667C221.721 267.937 216.701 267.737 211.6 266.605C211.225 266.522 210.858 266.399 210.409 266.271Z" fill="#C01C13"/>
</g>
<mask id="mask2_1_377" style="mask-type:luminance" maskUnits="userSpaceOnUse" x="3" y="3" width="494" height="494">
<path d="M3.5997 3.5997H496.76V496.76H3.5997V3.5997Z" fill="white"/>
</mask>
<g mask="url(#mask2_1_377)">
<path d="M446.263 151.752C442.995 153.321 439.995 154.742 437.026 156.225C436.789 156.343 436.561 156.986 436.673 157.22C438.079 160.14 439.494 163.058 441.021 165.916C442.012 167.768 443.918 168.733 445.7 168.394C448.085 167.939 450.162 166.958 450.95 164.422C451.15 163.777 451.161 162.922 450.904 162.312C449.438 158.817 447.865 155.366 446.263 151.752ZM417.945 165.431C419.825 169.073 421.583 172.575 423.436 176.027C424.467 177.947 426.303 178.735 428.315 178.274C429.893 177.912 431.482 177.124 432.783 176.148C434.504 174.858 434.855 172.883 434.282 170.823C434.015 169.862 433.658 168.917 433.242 168.011C432.011 165.333 430.73 162.678 429.408 159.89C425.558 161.75 421.863 163.537 417.945 165.431ZM449.758 141.582C451.603 145.4 453.38 148.985 455.074 152.611C456.275 155.185 457.422 157.788 458.488 160.421C460.8 166.132 457.1 171.071 453.544 173.144C449.167 175.696 446.185 175.802 441.001 173.622C440.958 173.939 440.884 174.229 440.883 174.518C440.877 178.141 439.397 181.073 436.526 183.206C432.871 185.921 428.789 187.157 424.201 186.261C420.938 185.624 418.597 183.78 417.116 180.849C414.604 175.879 412.129 170.891 409.648 165.907C409.009 164.624 408.402 163.325 407.716 161.902C421.737 155.125 435.677 148.388 449.758 141.582Z" fill="#C01C13"/>
<path d="M65.032 156.729C66.8669 153.352 68.6907 150.162 70.3488 146.888C71.4699 144.676 70.9595 142.52 69.0151 140.979C68.0606 140.223 66.9289 139.609 65.7816 139.195C63.6813 138.438 61.6721 139.131 60.4173 141.006C59.1049 142.968 57.9161 145.014 56.6942 147.035C55.9974 148.188 55.3426 149.368 54.6462 150.575C55.0114 150.832 55.2564 151.031 55.5262 151.189C58.5994 152.985 61.6764 154.775 65.032 156.729ZM101.63 147.123C100.555 148.973 99.3898 150.58 98.6445 152.361C97.7036 154.612 96.2416 155.131 93.9132 155.003C88.9542 154.731 83.9763 154.823 79.0077 154.708C76.026 154.64 73.8332 155.83 72.4395 158.481C72.1261 159.077 71.7615 159.647 71.33 160.384C76.9485 163.662 82.4974 166.898 88.1958 170.221C86.9125 172.431 85.6786 174.555 84.3729 176.803C70.8999 168.964 57.547 161.195 44.0062 153.316C44.7302 152.069 45.4116 150.867 46.1201 149.681C48.9144 145.008 51.6645 140.306 54.53 135.677C58.1921 129.759 64.1574 129.641 69.282 131.952C71.4888 132.947 73.4865 134.271 75.118 136.102C77.7699 139.078 78.6188 142.495 77.6885 146.364C77.5694 146.859 77.4551 147.355 77.3219 147.922C77.5272 147.922 77.6454 147.955 77.7331 147.917C81.5719 146.275 85.6059 146.243 89.6704 146.464C93.5805 146.678 97.4905 146.894 101.63 147.123Z" fill="#C01C13"/>
<path d="M446.765 259.134H477.359V266.296C476.935 266.316 476.508 266.354 476.083 266.352C461.408 266.289 446.733 266.212 432.058 266.176C431.058 266.173 430.733 265.884 430.774 264.885C430.849 263.083 430.834 261.276 430.791 259.473C430.773 258.732 431.017 258.325 431.692 257.988C440.979 253.356 450.252 248.696 459.527 244.04C459.979 243.813 460.412 243.55 460.813 243.036C460.356 243.036 459.9 243.038 459.444 243.036C450.423 242.996 441.401 242.956 432.379 242.914C430.836 242.907 430.836 242.904 430.835 241.311C430.834 239.555 430.835 237.797 430.835 235.916C431.406 235.884 431.87 235.835 432.333 235.836C446.928 235.87 461.524 235.921 476.119 235.922C477.264 235.922 477.67 236.204 477.589 237.393C477.475 239.069 477.516 240.759 477.542 242.442C477.553 243.173 477.294 243.578 476.617 243.913C467.135 248.602 457.668 253.322 448.198 258.037C447.685 258.292 447.18 258.562 446.671 258.825L446.765 259.134Z" fill="#C01C13"/>
<path d="M336.071 39.5384C338.215 40.5946 340.244 41.5462 342.211 42.6125C342.531 42.7859 342.721 43.4658 342.726 43.9147C342.83 52.5741 342.902 61.2339 342.97 69.8937C342.989 72.3339 342.973 74.7747 342.973 77.2154C343.102 77.258 343.232 77.3007 343.362 77.3433C347.867 68.2031 352.372 59.0629 356.935 49.805C359.053 50.8496 361.086 51.852 363.302 52.945C356.439 66.9009 349.608 80.7918 342.697 94.845C340.484 93.752 338.327 92.7335 336.232 91.5989C335.926 91.4337 335.804 90.7146 335.797 90.2487C335.688 82.5521 335.616 74.8546 335.524 67.1575C335.491 64.3918 335.43 61.6261 335.376 58.8604C335.37 58.5152 335.327 58.1708 335.047 57.7505C330.657 66.6602 326.266 75.5699 321.831 84.572C319.688 83.5231 317.651 82.5255 315.45 81.447C322.334 67.4563 329.181 53.5407 336.071 39.5384Z" fill="#C01C13"/>
<path d="M37.6877 194.106C40.9072 195.04 43.9411 195.9 46.9611 196.806C47.9204 197.094 47.9165 196.398 48.0768 195.85C49.672 190.395 51.2605 184.94 52.8532 179.485C52.9302 179.222 53.0329 178.967 53.1821 178.544C55.6189 179.247 58.0161 179.939 60.5881 180.682C58.8045 186.85 57.0446 192.936 55.2427 199.168C56.0713 199.419 56.8195 199.654 57.5715 199.874C60.4888 200.73 63.4167 201.551 66.3195 202.453C67.2512 202.743 67.6372 202.592 67.919 201.591C69.6203 195.544 71.3947 189.517 73.1487 183.485C73.2587 183.105 73.4039 182.736 73.5821 182.218C75.9251 182.882 78.2263 183.505 80.4932 184.233C80.6763 184.292 80.7765 185.115 80.6642 185.512C79.1557 190.823 77.6021 196.121 76.0602 201.422C75.0224 204.991 73.9851 208.56 72.9013 212.289C57.9483 207.941 43.067 203.615 28.0429 199.247C30.6933 190.133 33.3016 181.162 35.9632 172.008C38.4761 172.732 40.911 173.435 43.4603 174.17C41.529 180.839 39.6301 187.398 37.6877 194.106Z" fill="#C01C13"/>
<path d="M289.038 26.1932C298.291 28.1893 307.463 30.1686 316.715 32.1643C316.21 34.5445 315.722 36.807 315.255 39.0739C315.099 39.8274 314.654 39.7296 314.083 39.6042C308.571 38.3954 303.053 37.2206 297.541 36.0143C294.806 35.4157 294.802 35.3929 294.215 38.053C293.74 40.2023 293.286 42.3563 292.831 44.5094C292.758 44.8537 292.724 45.2058 292.654 45.6775C298.926 47.0417 305.12 48.3894 311.417 49.7594C310.864 52.3145 310.334 54.761 309.774 57.3451C307.255 56.8095 304.844 56.3039 302.436 55.7828C298.995 55.039 295.555 54.2961 292.121 53.5242C291.251 53.329 290.835 53.5067 290.644 54.4763C289.972 57.8914 289.226 61.2929 288.453 64.6867C288.242 65.6146 288.504 65.9337 289.427 66.1269C295.575 67.4137 301.71 68.7609 307.849 70.0922C308.232 70.175 308.609 70.2903 309.155 70.4341C308.622 72.9421 308.102 75.3873 307.554 77.9675C304.93 77.4052 302.404 76.8677 299.879 76.3219C293.308 74.9006 286.741 73.4574 280.161 72.0753C279.293 71.8927 279.152 71.5348 279.318 70.7697C282.47 56.2642 285.609 41.7563 288.753 27.2494C288.812 26.9791 288.896 26.7142 289.038 26.1932Z" fill="#C01C13"/>
<path d="M469.815 190.339C471.596 199.68 473.348 208.864 475.128 218.198C472.565 218.691 470.106 219.164 467.476 219.67C467.045 217.453 466.622 215.313 466.213 213.171C465.395 208.886 464.578 204.601 463.779 200.314C463.657 199.658 463.434 199.314 462.674 199.464C459.621 200.067 456.56 200.633 453.309 201.25C453.608 202.945 453.871 204.545 454.173 206.137C454.994 210.46 455.829 214.781 456.667 219.101C456.77 219.632 456.943 220.176 456.181 220.325C453.913 220.772 451.642 221.199 449.244 221.658C448.705 218.84 448.189 216.138 447.67 213.437C447.052 210.216 446.408 207 445.826 203.773C445.691 203.02 445.419 202.725 444.647 202.877C440.843 203.627 437.035 204.356 433.016 205.134C434.34 212.128 435.653 219.061 437.002 226.184C434.503 226.668 432.049 227.144 429.381 227.661C427.567 218.161 425.764 208.713 423.928 199.093C439.212 196.177 454.402 193.28 469.815 190.339Z" fill="#C01C13"/>
<path d="M94.5422 122.552C97.8125 125.406 100.968 128.16 104.219 130.997C108.942 125.609 113.581 120.316 118.341 114.886C120.299 116.59 122.184 118.23 124.199 119.985C117.817 127.28 111.501 134.502 105.053 141.873C93.3252 131.606 81.6503 121.386 69.9062 111.105C76.1485 103.972 82.3177 96.9232 88.5837 89.7632C90.56 91.4906 92.4729 93.1633 94.4618 94.9023C89.9014 100.117 85.4238 105.236 80.8096 110.512C83.4393 112.814 86.0103 115.064 88.6907 117.41C92.9272 112.577 97.0885 107.83 101.381 102.932C103.346 104.644 105.255 106.309 107.245 108.043C103.01 112.88 98.8494 117.633 94.5422 122.552Z" fill="#C01C13"/>
<path d="M200.091 68.3873C200.935 70.8648 201.743 73.2358 202.594 75.7337C200.25 76.5347 198.025 77.2975 195.798 78.0563C189.278 80.2782 182.753 82.4826 176.244 84.7374C175.369 85.0405 174.982 84.9253 174.673 84.0085C169.926 69.9738 165.152 55.9482 160.362 41.9284C160.125 41.235 160.112 40.8262 160.902 40.5594C169.362 37.7007 177.816 34.8236 186.274 31.9553C186.42 31.9059 186.583 31.9078 186.918 31.8599C187.685 34.1122 188.482 36.3583 189.17 38.6373C189.226 38.8238 188.599 39.3768 188.204 39.5153C184.236 40.9066 180.249 42.2452 176.269 43.6026C174.154 44.3241 172.041 45.0549 169.781 45.8317C170.904 49.148 171.99 52.3554 173.121 55.6959C173.781 55.4964 174.382 55.3341 174.971 55.1336C180.052 53.4043 185.136 51.6871 190.202 49.9166C191.123 49.5945 191.54 49.7354 191.83 50.7117C192.432 52.7394 193.155 54.7312 193.88 56.8896C192.265 57.4485 190.731 57.9851 189.193 58.5105C185.025 59.9347 180.863 61.3784 176.678 62.7552C175.856 63.0254 175.713 63.3552 175.985 64.1353C177.144 67.4628 178.283 70.7975 179.368 74.1501C179.655 75.0378 180.002 75.2432 180.91 74.9274C186.773 72.8876 192.654 70.9026 198.528 68.9006C198.982 68.7461 199.439 68.6013 200.091 68.3873Z" fill="#C01C13"/>
<path d="M421.955 114.26C419.101 116.405 416.417 118.422 413.587 120.547C417.431 125.698 421.226 130.783 425.112 135.99C423.049 137.537 421.046 139.039 418.913 140.638C417.476 138.73 416.087 136.891 414.705 135.047C412.494 132.098 410.271 129.158 408.093 126.185C407.571 125.473 407.212 125.257 406.4 125.888C403.648 128.025 400.823 130.068 398.032 132.153C397.719 132.386 397.442 132.666 397.107 132.961C401.379 138.684 405.593 144.329 409.89 150.085C407.837 151.62 405.83 153.121 403.674 154.734C397.867 146.978 392.101 139.277 386.254 131.467C398.742 122.123 411.116 112.865 423.649 103.487C429.309 111.046 434.936 118.56 440.654 126.195C438.574 127.755 436.543 129.277 434.404 130.881C430.229 125.307 426.133 119.839 421.955 114.26Z" fill="#C01C13"/>
<path d="M166.605 89.8124C164.366 91.2473 162.322 92.5577 160.167 93.9384C156.447 88.1785 152.785 82.5086 149.073 76.7631C144.762 79.538 140.566 82.2388 136.224 85.0336C139.931 90.7979 143.577 96.4683 147.289 102.24C145.138 103.626 143.096 104.942 140.891 106.362C132.464 93.2856 124.079 80.2756 115.6 67.1183C117.726 65.7454 119.791 64.4112 121.989 62.9918C125.333 68.1648 128.625 73.2579 131.987 78.4571C133.236 77.6561 134.373 76.9302 135.507 76.2009C138.304 74.4028 141.086 72.5804 143.905 70.8187C144.661 70.3465 144.746 69.9692 144.253 69.2162C141.311 64.7265 138.417 60.2063 135.509 55.6947C135.318 55.3989 135.149 55.0889 134.908 54.6821C137.027 53.3131 139.1 51.9741 141.3 50.5527C149.74 63.6465 158.127 76.6585 166.605 89.8124Z" fill="#C01C13"/>
<path d="M252.486 70.2958C250.127 70.2958 247.927 70.2804 245.727 70.3031C244.814 70.3128 244.959 69.6881 244.961 69.1438C244.985 64.255 245.025 59.3662 245.039 54.4775C245.066 44.6593 245.08 34.8416 245.099 25.0234C245.1 24.6282 245.099 24.2331 245.099 23.7188H271.196V31.3732C270.729 31.4076 270.232 31.4783 269.734 31.4764C264.525 31.4531 259.315 31.4541 254.107 31.3601C252.953 31.3393 252.695 31.735 252.714 32.7941C252.766 35.6382 252.755 38.4848 252.692 41.3289C252.67 42.3164 252.971 42.6515 253.977 42.6447C258.424 42.6137 262.873 42.697 267.32 42.636C268.536 42.6195 268.816 43.0336 268.756 44.1537C268.665 45.8719 268.685 47.5998 268.734 49.3214C268.759 50.2202 268.443 50.4924 267.548 50.4798C263.021 50.4183 258.492 50.442 253.964 50.3733C252.972 50.3583 252.654 50.6517 252.655 51.6547C252.658 57.4248 252.6 63.1954 252.559 68.9655C252.556 69.3573 252.517 69.7491 252.486 70.2958Z" fill="#C01C13"/>
<path d="M68.9637 253.974C68.092 253.974 67.3806 253.986 66.6697 253.972C55.6864 253.758 44.7035 253.541 33.7201 253.321C32.8789 253.304 32.0334 253.307 31.1975 253.221C30.2813 253.127 30.0135 253.521 30.0096 254.385C29.998 257.352 29.8982 260.318 29.9045 263.285C29.907 264.312 29.628 264.685 28.5263 264.63C26.4502 264.527 24.3654 264.6 22.1576 264.6C22.1174 264.003 22.0627 263.622 22.0699 263.241C22.2438 253.941 22.4331 244.642 22.5891 235.342C22.6046 234.416 22.8995 234.085 23.8559 234.114C26.0076 234.18 28.1626 234.135 30.3447 234.135C30.3447 236.361 30.3583 238.353 30.3399 240.345C30.3278 241.668 30.3297 242.995 30.213 244.311C30.1166 245.402 30.5573 245.669 31.5762 245.682C38.2311 245.771 44.8851 245.904 51.539 246.041C56.8302 246.149 62.1209 246.284 67.4116 246.404C67.9264 246.416 68.4417 246.406 68.9637 246.406V253.974Z" fill="#C01C13"/>
<path d="M361.927 108.21C372.312 96.7587 382.632 85.3793 393.042 73.901C394.938 75.6187 396.76 77.2691 398.689 79.0178C390.045 88.5513 381.477 98.0004 372.81 107.559C377.607 111.925 382.302 116.198 387.078 120.545C385.304 122.496 383.616 124.35 381.861 126.279C375.184 120.227 368.606 114.264 361.927 108.21Z" fill="#C01C13"/>
<path d="M236.396 62.2062C236.728 64.6135 237.069 66.9017 237.321 69.1996C237.349 69.4476 236.889 69.9599 236.606 70.0006C230.661 70.8524 224.708 71.6529 218.758 72.466C216.695 72.7479 214.634 73.0414 212.57 73.3169C212.022 73.39 211.467 73.4162 210.806 73.4733C210.443 70.9018 210.083 68.4165 209.743 65.9278C208.66 57.994 207.585 50.0586 206.502 42.1243C205.896 37.6811 205.304 33.2359 204.658 28.799C204.521 27.8585 204.763 27.5529 205.733 27.4653C207.798 27.2779 209.848 26.9306 212.04 26.6304C212.386 29.076 212.721 31.4 213.043 33.726C214.07 41.1427 215.094 48.5598 216.114 55.9779C216.463 58.5165 216.83 61.0531 217.122 63.5985C217.223 64.4852 217.397 64.8174 218.441 64.6644C224.342 63.799 230.258 63.0353 236.396 62.2062Z" fill="#C01C13"/>
<path d="M24.4112 220.535C24.8664 218.008 25.2969 215.618 25.7613 213.041C41.0426 215.786 56.2595 218.52 71.6972 221.293C71.2628 223.785 70.841 226.203 70.3873 228.803C55.0697 226.049 39.8489 223.312 24.4112 220.535Z" fill="#C01C13"/>
<path d="M37.9063 36.2166C39.3257 36.2166 40.6357 36.2291 41.9452 36.2141C45.9651 36.1691 50.2452 32.9254 48.3061 27.7272C47.6054 25.8492 46.1574 24.6288 44.337 24.1373C42.2338 23.5692 40.0371 23.6017 37.9063 24.5039V36.2166ZM37.6928 37.5091C37.8802 41.3189 37.9707 44.903 38.2729 48.4697C38.3964 49.9235 39.3645 50.5317 40.8681 50.6475C41.6812 50.7095 41.6812 50.7095 41.596 51.6857H29.4451C29.2146 51.0237 29.2916 50.785 30.1013 50.6063C32.8001 50.0106 33.098 49.8755 33.1377 47.1166C33.2311 40.545 33.2442 33.9695 33.1319 27.3984C33.081 24.4337 32.4766 23.9344 29.8586 23.2152V22.1363C30.001 22.1009 30.1497 22.0321 30.2979 22.0321C34.5866 22.0258 38.8797 21.9077 43.1622 22.0685C45.9855 22.1745 48.8136 22.4152 51.3285 24.1349C54.0579 26.0017 54.7591 30.736 53.1193 33.0915C51.3232 35.6717 50.665 36.1328 46.2407 37.2205C47.1618 38.4709 48.0117 39.6607 48.8998 40.822C50.6331 43.0879 52.3532 45.365 54.146 47.5835C55.2317 48.9273 56.2211 50.446 58.1887 50.7095C58.3664 50.7332 58.4769 51.2572 58.7108 51.7381C56.441 51.7381 54.4395 51.802 52.4481 51.692C51.9682 51.6654 51.4142 51.1448 51.0738 50.7109C47.8252 46.5665 44.6208 42.3877 41.3907 38.2287C40.4691 37.0422 39.1892 37.7033 37.6928 37.5091Z" fill="#C01C13"/>
<path d="M42.4958 62.9215C55.932 63.2856 67.0906 51.7013 67.1701 38.3736C67.2485 25.1413 55.5867 13.2232 41.8885 13.6397C28.6334 14.0422 17.7043 25.086 17.7484 38.3397C17.7934 51.9333 28.7976 63.167 42.4958 62.9215ZM42.5369 10.7157C57.5892 10.15 69.5449 23.4875 70.159 36.6951C70.9532 53.7856 57.2119 65.0649 44.8203 66.0078C27.5883 67.3192 13.9352 52.9401 14.7856 36.7721C15.4858 23.456 27.4697 10.1171 42.5369 10.7157Z" fill="#C01C13"/>
</g>
</g>
<defs>
<clipPath id="clip0_1_377">
<rect width="500" height="500" fill="white"/>
</clipPath>
</defs>
</svg>
